<?xml version="1.0" encoding="UTF-8"?>
<svg xmlns="http://www.w3.org/2000/svg" viewBox="0 0 1200 900" width="1200" height="900">
<rect width="1200" height="900" fill="#000000"/>
<path d="M 0,213.42250928408447 L 0,134.7 L 10,103.7 L 20,122.7 L 30,126.8 L 40,119.7 L 50,134.6 L 60,124.4 L 70,146.4 L 80,128.0 L 90,144.1 L 100,153.6 L 110,151.7 L 120,156.7 L 130,151.6 L 140,154.9 L 150,156.4 L 160,163.3 L 170,163.0 L 180,163.4 L 190,163.2 L 200,162.6 L 210,162.0 L 220,147.8 L 230,159.6 L 240,155.4 L 250,145.2 L 260,136.8 L 270,133.2 L 280,139.0 L 290,143.7 L 300,128.8 L 310,128.2 L 320,140.7 L 330,117.4 L 340,108.3 L 350,102.1 L 360,110.5 L 370,123.3 L 380,94.7 L 390,97.7 L 400,95.2 L 410,104.7 L 420,84.4 L 430,72.9 L 440,86.5 L 450,91.4 L 460,78.8 L 470,76.2 L 480,79.2 L 490,70.7 L 500,71.7 L 510,76.4 L 520,74.5 L 530,78.0 L 540,70.1 L 550,71.3 L 560,84.7 L 570,83.7 L 580,74.2 L 590,83.6 L 600,71.7 L 610,92.8 L 620,91.9 L 630,84.2 L 640,93.5 L 650,87.5 L 660,108.4 L 670,129.2 L 680,102.5 L 690,117.4 L 700,100.5 L 710,107.4 L 720,122.7 L 730,112.4 L 740,137.4 L 750,127.0 L 760,130.7 L 770,151.2 L 780,158.2 L 790,146.1 L 800,161.4 L 810,143.9 L 820,146.0 L 830,160.6 L 840,162.5 L 850,163.4 L 860,162.9 L 870,160.5 L 880,163.2 L 890,155.7 L 900,162.5 L 910,150.9 L 920,155.5 L 930,154.0 L 940,160.4 L 950,147.9 L 960,159.7 L 970,140.9 L 980,143.2 L 990,129.7 L 1000,130.0 L 1010,120.6 L 1020,120.8 L 1030,103.6 L 1040,126.6 L 1050,91.7 L 1060,129.2 L 1070,105.1 L 1080,84.9 L 1090,105.5 L 1100,87.2 L 1110,77.6 L 1120,101.0 L 1130,72.3 L 1140,71.6 L 1150,74.1 L 1160,75.0 L 1170,74.6 L 1180,70.9 L 1190,75.4 L 1200,71.6 L 1210,70.8 L 1200,213.42250928408447 Z" fill="#87CEEB" opacity="0.50"/>
<path d="M 0,415.93432346964494 L 0,333.1 L 10,348.4 L 20,336.6 L 30,355.4 L 40,354.4 L 50,351.5 L 60,350.5 L 70,355.6 L 80,361.7 L 90,355.3 L 100,363.9 L 110,358.2 L 120,365.0 L 130,363.5 L 140,355.7 L 150,364.4 L 160,360.7 L 170,365.2 L 180,365.9 L 190,365.2 L 200,365.2 L 210,364.7 L 220,364.0 L 230,365.3 L 240,363.4 L 250,365.9 L 260,364.2 L 270,358.6 L 280,361.3 L 290,363.6 L 300,360.5 L 310,362.6 L 320,351.3 L 330,361.8 L 340,361.7 L 350,357.5 L 360,348.7 L 370,357.1 L 380,349.4 L 390,340.7 L 400,335.3 L 410,335.3 L 420,343.7 L 430,330.6 L 440,345.4 L 450,346.5 L 460,342.4 L 470,342.5 L 480,342.0 L 490,328.3 L 500,320.9 L 510,330.6 L 520,324.0 L 530,318.9 L 540,319.9 L 550,331.3 L 560,317.5 L 570,319.2 L 580,317.3 L 590,324.0 L 600,322.9 L 610,317.6 L 620,317.3 L 630,320.8 L 640,317.5 L 650,318.0 L 660,317.4 L 670,317.3 L 680,318.3 L 690,318.7 L 700,318.9 L 710,318.4 L 720,330.7 L 730,318.6 L 740,318.2 L 750,328.8 L 760,330.7 L 770,325.9 L 780,324.2 L 790,329.7 L 800,329.3 L 810,335.3 L 820,345.5 L 830,344.9 L 840,329.5 L 850,331.3 L 860,340.1 L 870,341.7 L 880,349.6 L 890,344.2 L 900,346.1 L 910,343.5 L 920,351.2 L 930,349.9 L 940,359.7 L 950,358.3 L 960,356.6 L 970,354.7 L 980,359.5 L 990,359.9 L 1000,363.8 L 1010,364.5 L 1020,361.7 L 1030,365.8 L 1040,365.7 L 1050,364.9 L 1060,365.5 L 1070,364.1 L 1080,364.2 L 1090,365.8 L 1100,362.6 L 1110,359.8 L 1120,365.2 L 1130,356.9 L 1140,363.3 L 1150,354.0 L 1160,363.6 L 1170,352.8 L 1180,356.9 L 1190,351.4 L 1200,359.1 L 1210,344.0 L 1200,415.93432346964494 Z" fill="#FFFFFF" opacity="0.41"/>
<path d="M 0,648.4852547547889 L 0,568.4 L 10,573.2 L 20,569.4 L 30,555.8 L 40,581.1 L 50,572.2 L 60,575.4 L 70,553.6 L 80,568.9 L 90,584.4 L 100,564.0 L 110,579.6 L 120,574.1 L 130,594.1 L 140,574.7 L 150,587.3 L 160,597.5 L 170,588.9 L 180,595.8 L 190,598.4 L 200,598.5 L 210,598.4 L 220,598.4 L 230,598.2 L 240,595.2 L 250,598.4 L 260,597.2 L 270,592.3 L 280,596.7 L 290,598.2 L 300,598.3 L 310,595.6 L 320,581.4 L 330,574.3 L 340,595.1 L 350,589.5 L 360,566.7 L 370,571.8 L 380,587.7 L 390,591.4 L 400,572.9 L 410,572.9 L 420,574.1 L 430,572.6 L 440,560.8 L 450,572.2 L 460,552.8 L 470,570.5 L 480,552.3 L 490,548.6 L 500,549.6 L 510,549.6 L 520,557.2 L 530,554.9 L 540,531.0 L 550,540.9 L 560,546.0 L 570,518.6 L 580,538.2 L 590,528.2 L 600,511.5 L 610,513.5 L 620,511.5 L 630,518.3 L 640,521.2 L 650,508.4 L 660,517.0 L 670,509.4 L 680,509.5 L 690,508.8 L 700,509.2 L 710,512.2 L 720,508.2 L 730,508.9 L 740,508.2 L 750,517.7 L 760,521.0 L 770,510.3 L 780,524.9 L 790,508.9 L 800,515.4 L 810,524.2 L 820,524.2 L 830,516.5 L 840,516.0 L 850,547.2 L 860,528.0 L 870,546.2 L 880,523.7 L 890,536.6 L 900,546.7 L 910,542.4 L 920,533.3 L 930,539.4 L 940,547.6 L 950,554.7 L 960,566.7 L 970,544.3 L 980,579.7 L 990,568.9 L 1000,587.0 L 1010,563.0 L 1020,587.2 L 1030,586.9 L 1040,574.4 L 1050,594.0 L 1060,596.7 L 1070,575.6 L 1080,585.6 L 1090,588.7 L 1100,595.5 L 1110,598.5 L 1120,598.1 L 1130,595.6 L 1140,598.5 L 1150,598.5 L 1160,597.9 L 1170,593.8 L 1180,597.8 L 1190,592.3 L 1200,598.4 L 1210,598.4 L 1200,648.4852547547889 Z" fill="#9fd7ef" opacity="0.39"/>
<path d="M 0,865.196999543709 L 0,765.8 L 10,790.4 L 20,772.5 L 30,787.3 L 40,795.1 L 50,804.8 L 60,809.6 L 70,809.0 L 80,810.6 L 90,794.8 L 100,800.5 L 110,801.2 L 120,812.9 L 130,813.7 L 140,813.7 L 150,809.6 L 160,814.7 L 170,814.0 L 180,815.1 L 190,802.6 L 200,812.3 L 210,791.3 L 220,811.5 L 230,799.3 L 240,777.6 L 250,797.7 L 260,772.5 L 270,776.3 L 280,799.9 L 290,770.8 L 300,769.8 L 310,760.9 L 320,750.0 L 330,739.6 L 340,751.0 L 350,750.1 L 360,744.0 L 370,741.0 L 380,753.8 L 390,720.3 L 400,720.5 L 410,720.7 L 420,726.3 L 430,732.5 L 440,719.4 L 450,718.9 L 460,719.3 L 470,722.0 L 480,727.2 L 490,719.1 L 500,718.9 L 510,727.2 L 520,727.0 L 530,734.5 L 540,722.1 L 550,728.7 L 560,743.1 L 570,752.1 L 580,746.7 L 590,750.4 L 600,765.3 L 610,787.4 L 620,751.1 L 630,754.3 L 640,782.4 L 650,782.6 L 660,773.3 L 670,802.6 L 680,796.1 L 690,781.9 L 700,810.4 L 710,805.5 L 720,805.1 L 730,814.9 L 740,814.3 L 750,813.1 L 760,815.2 L 770,811.3 L 780,810.7 L 790,815.0 L 800,815.2 L 810,797.1 L 820,813.5 L 830,813.3 L 840,795.4 L 850,796.4 L 860,786.1 L 870,805.8 L 880,770.3 L 890,781.1 L 900,793.4 L 910,790.0 L 920,773.0 L 930,746.8 L 940,766.8 L 950,767.8 L 960,752.5 L 970,738.3 L 980,746.3 L 990,741.8 L 1000,721.5 L 1010,720.9 L 1020,726.0 L 1030,719.1 L 1040,729.5 L 1050,721.4 L 1060,719.0 L 1070,719.4 L 1080,719.9 L 1090,726.2 L 1100,721.6 L 1110,719.5 L 1120,719.8 L 1130,739.4 L 1140,728.8 L 1150,727.5 L 1160,740.0 L 1170,732.1 L 1180,731.3 L 1190,732.0 L 1200,732.7 L 1210,742.5 L 1200,865.196999543709 Z" fill="#87CEEB" opacity="0.33"/>
<path d="M 0,0 L 0,60 L 0,40.0 L 8,41.3 L 16,42.5 L 24,43.7 L 32,45.0 L 40,46.2 L 48,47.4 L 56,48.5 L 64,49.6 L 72,50.7 L 80,51.8 L 88,52.7 L 96,53.7 L 104,54.6 L 112,55.4 L 120,56.2 L 128,56.9 L 136,57.5 L 144,58.1 L 152,58.6 L 160,59.0 L 168,59.4 L 176,59.6 L 184,59.8 L 192,60.0 L 200,60.0 L 208,60.0 L 216,59.8 L 224,59.6 L 232,59.4 L 240,59.0 L 248,58.6 L 256,58.1 L 264,57.5 L 272,56.9 L 280,56.2 L 288,55.4 L 296,54.6 L 304,53.7 L 312,52.7 L 320,51.8 L 328,50.7 L 336,49.6 L 344,48.5 L 352,47.4 L 360,46.2 L 368,45.0 L 376,43.7 L 384,42.5 L 392,41.3 L 400,40.0 L 408,38.7 L 416,37.5 L 424,36.3 L 432,35.0 L 440,33.8 L 448,32.6 L 456,31.5 L 464,30.4 L 472,29.3 L 480,28.2 L 488,27.3 L 496,26.3 L 504,25.4 L 512,24.6 L 520,23.8 L 528,23.1 L 536,22.5 L 544,21.9 L 552,21.4 L 560,21.0 L 568,20.6 L 576,20.4 L 584,20.2 L 592,20.0 L 600,20.0 L 608,20.0 L 616,20.2 L 624,20.4 L 632,20.6 L 640,21.0 L 648,21.4 L 656,21.9 L 664,22.5 L 672,23.1 L 680,23.8 L 688,24.6 L 696,25.4 L 704,26.3 L 712,27.3 L 720,28.2 L 728,29.3 L 736,30.4 L 744,31.5 L 752,32.6 L 760,33.8 L 768,35.0 L 776,36.3 L 784,37.5 L 792,38.7 L 800,40.0 L 808,41.3 L 816,42.5 L 824,43.7 L 832,45.0 L 840,46.2 L 848,47.4 L 856,48.5 L 864,49.6 L 872,50.7 L 880,51.8 L 888,52.7 L 896,53.7 L 904,54.6 L 912,55.4 L 920,56.2 L 928,56.9 L 936,57.5 L 944,58.1 L 952,58.6 L 960,59.0 L 968,59.4 L 976,59.6 L 984,59.8 L 992,60.0 L 1000,60.0 L 1008,60.0 L 1016,59.8 L 1024,59.6 L 1032,59.4 L 1040,59.0 L 1048,58.6 L 1056,58.1 L 1064,57.5 L 1072,56.9 L 1080,56.2 L 1088,55.4 L 1096,54.6 L 1104,53.7 L 1112,52.7 L 1120,51.8 L 1128,50.7 L 1136,49.6 L 1144,48.5 L 1152,47.4 L 1160,46.2 L 1168,45.0 L 1176,43.7 L 1184,42.5 L 1192,41.3 L 1200,40.0 L 1208,38.7 L 1216,37.5 L 1200,0 Z" fill="#FFFFFF" opacity="0.3"/>
<defs>
        <radialGradient id="vignette" cx="50%" cy="50%" r="70%">
            <stop offset="0%" stop-color="black" stop-opacity="0"/>
            <stop offset="100%" stop-color="black" stop-opacity="0.25"/>
        </radialGradient>
    </defs>
    <rect width="1200" height="900" fill="url(#vignette)"/>
<text x="30" y="45" text-anchor="start"
        font-family="Arial, Helvetica, sans-serif" font-size="28" font-weight="bold"
        letter-spacing="2" fill="#ffffff" opacity="0.25">ARGENTINA</text>
<text x="1180" y="880" text-anchor="end"
        font-family="Arial, Helvetica, sans-serif" font-size="14" font-weight="bold"
        letter-spacing="3" fill="#ffffff" opacity="0.35">HOOD&apos;D</text>
</svg>