<?xml version="1.0" encoding="UTF-8"?>
<svg xmlns="http://www.w3.org/2000/svg" viewBox="0 0 1200 900" width="1200" height="900">
<rect width="1200" height="900" fill="#98FB98"/>
<rect x="870.5" y="362.0" width="19.5" height="19.5" fill="#83d883" opacity="0.22" transform="rotate(7 871 362)"/>
<rect x="371.7" y="780.7" width="11.7" height="11.7" fill="#FF1493" opacity="0.25" transform="rotate(12 372 781)"/>
<rect x="19.5" y="281.7" width="10.7" height="10.7" fill="#FF1493" opacity="0.07" transform="rotate(45 19 282)"/>
<circle cx="62.0" cy="30.1" r="7.8" fill="#a7fba7" opacity="0.24"/>
<circle cx="1049.0" cy="389.3" r="9.7" fill="#FF1493" opacity="0.13"/>
<rect x="786.2" y="794.2" width="11.3" height="11.3" fill="#8fed8f" opacity="0.07" transform="rotate(37 786 794)"/>
<circle cx="600.8" cy="244.0" r="4.2" fill="#a5fba5" opacity="0.24"/>
<circle cx="860.9" cy="7.3" r="7.9" fill="#a2fba2" opacity="0.13"/>
<rect x="665.8" y="151.2" width="8.9" height="8.9" fill="#FF1493" opacity="0.22" transform="rotate(15 666 151)"/>
<rect x="255.9" y="344.5" width="13.1" height="13.1" fill="#84da84" opacity="0.16" transform="rotate(16 256 345)"/>
<circle cx="118.2" cy="303.2" r="4.6" fill="#8de98d" opacity="0.15"/>
<circle cx="1126.9" cy="619.7" r="9.6" fill="#8be68b" opacity="0.16"/>
<circle cx="552.4" cy="767.2" r="4.1" fill="#a1fba1" opacity="0.06"/>
<rect x="50.8" y="420.8" width="12.7" height="12.7" fill="#FF1493" opacity="0.08" transform="rotate(29 51 421)"/>
<circle cx="1138.0" cy="399.2" r="5.7" fill="#8de98d" opacity="0.14"/>
<circle cx="171.2" cy="58.5" r="7.2" fill="#8eea8e" opacity="0.24"/>
<circle cx="178.8" cy="752.3" r="11.9" fill="#84da84" opacity="0.24"/>
<circle cx="994.6" cy="684.0" r="8.4" fill="#FF1493" opacity="0.07"/>
<circle cx="112.5" cy="365.1" r="11.5" fill="#FF1493" opacity="0.23"/>
<circle cx="931.9" cy="590.3" r="9.4" fill="#87e087" opacity="0.24"/>
<rect x="451.4" y="331.1" width="20.2" height="20.2" fill="#FF1493" opacity="0.09" transform="rotate(4 451 331)"/>
<circle cx="701.8" cy="333.4" r="8.5" fill="#a3fba3" opacity="0.12"/>
<circle cx="262.0" cy="217.2" r="3.5" fill="#FF1493" opacity="0.05"/>
<rect x="1128.3" y="320.0" width="5.6" height="5.6" fill="#9ffb9f" opacity="0.22" transform="rotate(15 1128 320)"/>
<circle cx="895.8" cy="19.0" r="4.1" fill="#89e389" opacity="0.21"/>
<rect x="915.7" y="213.1" width="14.4" height="14.4" fill="#9dfb9d" opacity="0.22" transform="rotate(12 916 213)"/>
<rect x="478.1" y="190.5" width="8.9" height="8.9" fill="#a2fba2" opacity="0.10" transform="rotate(38 478 191)"/>
<circle cx="42.4" cy="145.1" r="11.8" fill="#a5fba5" opacity="0.12"/>
<circle cx="697.7" cy="852.1" r="3.5" fill="#FF1493" opacity="0.05"/>
<circle cx="572.0" cy="654.3" r="3.3" fill="#FF1493" opacity="0.17"/>
<circle cx="695.4" cy="320.4" r="8.4" fill="#a1fba1" opacity="0.24"/>
<rect x="856.3" y="254.1" width="23.9" height="23.9" fill="#9efb9e" opacity="0.20" transform="rotate(23 856 254)"/>
<circle cx="1095.5" cy="484.4" r="12.0" fill="#FF1493" opacity="0.15"/>
<circle cx="564.0" cy="478.5" r="3.6" fill="#8ae48a" opacity="0.14"/>
<rect x="144.8" y="268.8" width="8.9" height="8.9" fill="#a2fba2" opacity="0.18" transform="rotate(23 145 269)"/>
<rect x="163.5" y="133.1" width="16.0" height="16.0" fill="#8ce78c" opacity="0.15" transform="rotate(28 164 133)"/>
<rect x="610.1" y="894.6" width="22.6" height="22.6" fill="#FF1493" opacity="0.08" transform="rotate(9 610 895)"/>
<circle cx="469.4" cy="258.6" r="4.8" fill="#FF1493" opacity="0.11"/>
<rect x="1172.7" y="217.1" width="7.3" height="7.3" fill="#FF1493" opacity="0.19" transform="rotate(41 1173 217)"/>
<circle cx="1162.9" cy="130.4" r="5.5" fill="#8de88d" opacity="0.07"/>
<circle cx="941.3" cy="542.2" r="9.9" fill="#8ae48a" opacity="0.08"/>
<circle cx="782.2" cy="725.7" r="2.3" fill="#FF1493" opacity="0.12"/>
<rect x="937.3" y="620.4" width="3.1" height="3.1" fill="#81d581" opacity="0.23" transform="rotate(29 937 620)"/>
<rect x="289.0" y="344.1" width="9.7" height="9.7" fill="#FF1493" opacity="0.22" transform="rotate(12 289 344)"/>
<rect x="1017.7" y="785.9" width="17.4" height="17.4" fill="#FF1493" opacity="0.15" transform="rotate(25 1018 786)"/>
<rect x="1069.0" y="172.6" width="14.9" height="14.9" fill="#FF1493" opacity="0.16" transform="rotate(44 1069 173)"/>
<rect x="1115.0" y="382.7" width="23.9" height="23.9" fill="#a1fba1" opacity="0.20" transform="rotate(40 1115 383)"/>
<circle cx="1145.2" cy="658.6" r="7.1" fill="#85dd85" opacity="0.23"/>
<circle cx="56.8" cy="737.2" r="9.7" fill="#86de86" opacity="0.09"/>
<circle cx="611.1" cy="517.5" r="4.5" fill="#FF1493" opacity="0.19"/>
<rect x="698.2" y="776.3" width="17.2" height="17.2" fill="#FF1493" opacity="0.23" transform="rotate(4 698 776)"/>
<circle cx="1026.6" cy="341.6" r="8.1" fill="#a0fba0" opacity="0.07"/>
<rect x="997.2" y="152.8" width="5.3" height="5.3" fill="#FF1493" opacity="0.14" transform="rotate(5 997 153)"/>
<circle cx="459.3" cy="742.3" r="5.5" fill="#83d983" opacity="0.10"/>
<rect x="398.2" y="138.7" width="6.9" height="6.9" fill="#8eeb8e" opacity="0.18" transform="rotate(23 398 139)"/>
<circle cx="478.0" cy="400.3" r="7.4" fill="#8be78b" opacity="0.12"/>
<circle cx="1015.0" cy="804.0" r="3.6" fill="#FF1493" opacity="0.17"/>
<circle cx="306.9" cy="397.7" r="5.6" fill="#FF1493" opacity="0.21"/>
<rect x="304.8" y="212.6" width="22.4" height="22.4" fill="#9efb9e" opacity="0.13" transform="rotate(1 305 213)"/>
<circle cx="521.7" cy="100.6" r="6.1" fill="#FF1493" opacity="0.14"/>
<rect x="1100.0" y="4.5" width="5.5" height="5.5" fill="#89e289" opacity="0.12" transform="rotate(3 1100 5)"/>
<rect x="183.5" y="699.2" width="18.1" height="18.1" fill="#8eec8e" opacity="0.16" transform="rotate(26 184 699)"/>
<rect x="363.9" y="358.7" width="22.7" height="22.7" fill="#87df87" opacity="0.12" transform="rotate(21 364 359)"/>
<circle cx="727.7" cy="450.5" r="8.0" fill="#81d581" opacity="0.07"/>
<circle cx="619.9" cy="863.6" r="9.5" fill="#FF1493" opacity="0.19"/>
<rect x="82.7" y="248.3" width="15.6" height="15.6" fill="#FF1493" opacity="0.19" transform="rotate(17 83 248)"/>
<circle cx="802.4" cy="534.7" r="6.7" fill="#90ed90" opacity="0.06"/>
<rect x="648.1" y="335.7" width="20.6" height="20.6" fill="#a2fba2" opacity="0.19" transform="rotate(2 648 336)"/>
<circle cx="1184.9" cy="829.3" r="6.6" fill="#a7fba7" opacity="0.11"/>
<circle cx="741.9" cy="758.2" r="8.4" fill="#a7fba7" opacity="0.10"/>
<rect x="90.8" y="634.0" width="19.5" height="19.5" fill="#8eeb8e" opacity="0.15" transform="rotate(32 91 634)"/>
<rect x="975.4" y="642.5" width="7.1" height="7.1" fill="#FF1493" opacity="0.11" transform="rotate(1 975 643)"/>
<rect x="19.5" y="508.6" width="9.7" height="9.7" fill="#FF1493" opacity="0.10" transform="rotate(9 19 509)"/>
<rect x="1179.2" y="425.8" width="14.2" height="14.2" fill="#FF1493" opacity="0.13" transform="rotate(37 1179 426)"/>
<rect x="1163.7" y="2.7" width="17.0" height="17.0" fill="#a3fba3" opacity="0.19" transform="rotate(4 1164 3)"/>
<circle cx="836.5" cy="286.9" r="11.9" fill="#FF1493" opacity="0.16"/>
<rect x="330.1" y="511.7" width="7.7" height="7.7" fill="#FF1493" opacity="0.10" transform="rotate(29 330 512)"/>
<rect x="603.1" y="194.5" width="11.0" height="11.0" fill="#87e087" opacity="0.11" transform="rotate(19 603 195)"/>
<circle cx="1127.6" cy="275.2" r="5.5" fill="#a7fba7" opacity="0.19"/>
<rect x="941.2" y="350.3" width="4.1" height="4.1" fill="#a4fba4" opacity="0.21" transform="rotate(2 941 350)"/>
<rect x="981.5" y="882.0" width="10.1" height="10.1" fill="#FF1493" opacity="0.08" transform="rotate(28 981 882)"/>
<rect x="589.4" y="188.3" width="12.0" height="12.0" fill="#FF1493" opacity="0.20" transform="rotate(1 589 188)"/>
<circle cx="545.7" cy="97.6" r="11.6" fill="#FF1493" opacity="0.24"/>
<rect x="892.5" y="389.3" width="14.4" height="14.4" fill="#a5fba5" opacity="0.10" transform="rotate(8 892 389)"/>
<rect x="185.3" y="830.2" width="21.7" height="21.7" fill="#a5fba5" opacity="0.09" transform="rotate(18 185 830)"/>
<circle cx="937.0" cy="172.4" r="10.5" fill="#FF1493" opacity="0.13"/>
<rect x="974.6" y="257.1" width="13.0" height="13.0" fill="#9efb9e" opacity="0.19" transform="rotate(22 975 257)"/>
<circle cx="257.9" cy="705.4" r="11.9" fill="#FF1493" opacity="0.14"/>
<rect x="1124.0" y="538.2" width="9.3" height="9.3" fill="#FF1493" opacity="0.15" transform="rotate(7 1124 538)"/>
<rect x="708.0" y="306.4" width="10.5" height="10.5" fill="#FF1493" opacity="0.23" transform="rotate(41 708 306)"/>
<rect x="810.7" y="803.1" width="3.4" height="3.4" fill="#84db84" opacity="0.09" transform="rotate(2 811 803)"/>
<rect x="394.2" y="484.9" width="16.6" height="16.6" fill="#FF1493" opacity="0.19" transform="rotate(6 394 485)"/>
<rect x="737.8" y="346.0" width="14.7" height="14.7" fill="#FF1493" opacity="0.06" transform="rotate(23 738 346)"/>
<rect x="424.4" y="166.7" width="23.2" height="23.2" fill="#8fec8f" opacity="0.12" transform="rotate(4 424 167)"/>
<rect x="936.6" y="561.8" width="13.5" height="13.5" fill="#a0fba0" opacity="0.19" transform="rotate(35 937 562)"/>
<circle cx="446.8" cy="519.8" r="3.5" fill="#FF1493" opacity="0.17"/>
<rect x="577.2" y="539.8" width="20.4" height="20.4" fill="#a3fba3" opacity="0.13" transform="rotate(23 577 540)"/>
<rect x="208.0" y="155.3" width="18.9" height="18.9" fill="#a3fba3" opacity="0.12" transform="rotate(31 208 155)"/>
<circle cx="912.0" cy="728.8" r="7.0" fill="#FF1493" opacity="0.17"/>
<rect x="246.0" y="73.8" width="19.5" height="19.5" fill="#8dea8d" opacity="0.06" transform="rotate(11 246 74)"/>
<circle cx="621.2" cy="160.3" r="10.9" fill="#a2fba2" opacity="0.09"/>
<circle cx="203.0" cy="184.3" r="7.2" fill="#82d882" opacity="0.21"/>
<circle cx="314.2" cy="110.5" r="2.9" fill="#86dd86" opacity="0.19"/>
<rect x="766.4" y="697.6" width="4.7" height="4.7" fill="#a7fba7" opacity="0.05" transform="rotate(19 766 698)"/>
<circle cx="804.6" cy="9.8" r="2.4" fill="#a3fba3" opacity="0.24"/>
<circle cx="189.7" cy="851.1" r="10.5" fill="#FF1493" opacity="0.17"/>
<circle cx="747.7" cy="636.7" r="8.4" fill="#9dfb9d" opacity="0.12"/>
<rect x="319.5" y="321.1" width="16.1" height="16.1" fill="#FF1493" opacity="0.24" transform="rotate(35 320 321)"/>
<circle cx="453.7" cy="73.8" r="6.1" fill="#8be68b" opacity="0.08"/>
<circle cx="643" cy="527" r="270" fill="#FFD700" opacity="0.08"/>
<defs>
        <radialGradient id="vignette" cx="50%" cy="50%" r="70%">
            <stop offset="0%" stop-color="black" stop-opacity="0"/>
            <stop offset="100%" stop-color="black" stop-opacity="0.25"/>
        </radialGradient>
    </defs>
    <rect width="1200" height="900" fill="url(#vignette)"/>
<text x="30" y="45" text-anchor="start"
        font-family="Arial, Helvetica, sans-serif" font-size="28" font-weight="bold"
        letter-spacing="2" fill="#FFD700" opacity="0.25">AUSTRIA</text>
<text x="1180" y="880" text-anchor="end"
        font-family="Arial, Helvetica, sans-serif" font-size="14" font-weight="bold"
        letter-spacing="3" fill="#FFD700" opacity="0.35">HOOD&apos;D</text>
</svg>