<?xml version="1.0" encoding="UTF-8"?>
<svg xmlns="http://www.w3.org/2000/svg" viewBox="0 0 1200 900" width="1200" height="900">
<rect width="1200" height="900" fill="#FFD700"/>
<rect x="359" y="-13" width="149" height="251" fill="#d8b600" opacity="0.12" rx="27" transform="rotate(3 433 112)"/>
<rect x="893" y="416" width="294" height="269" fill="#008040" opacity="0.32" rx="8" transform="rotate(30 1040 551)"/>
<rect x="1124" y="265" width="386" height="227" fill="#008040" opacity="0.34" rx="12" transform="rotate(24 1317 379)"/>
<ellipse cx="861" cy="384" rx="149" ry="153" fill="#003D6B" opacity="0.14" transform="rotate(100 861 384)"/>
<line x1="450" y1="821" x2="381" y2="409" stroke="#008040" stroke-width="4.1" opacity="0.40"/>
<line x1="649" y1="209" x2="591" y2="51" stroke="#008040" stroke-width="4.4" opacity="0.16"/>
<line x1="1065" y1="793" x2="485" y2="693" stroke="#008040" stroke-width="3.0" opacity="0.23"/>
<line x1="1134" y1="155" x2="936" y2="638" stroke="#008040" stroke-width="3.0" opacity="0.33"/>
<line x1="1013" y1="896" x2="969" y2="472" stroke="#008040" stroke-width="2.1" opacity="0.37"/>
<defs>
        <radialGradient id="vignette" cx="50%" cy="50%" r="70%">
            <stop offset="0%" stop-color="black" stop-opacity="0"/>
            <stop offset="100%" stop-color="black" stop-opacity="0.25"/>
        </radialGradient>
    </defs>
    <rect width="1200" height="900" fill="url(#vignette)"/>
<text x="30" y="45" text-anchor="start"
        font-family="Arial, Helvetica, sans-serif" font-size="28" font-weight="bold"
        letter-spacing="2" fill="#008040" opacity="0.25">AUSTRALIA</text>
<text x="1180" y="880" text-anchor="end"
        font-family="Arial, Helvetica, sans-serif" font-size="14" font-weight="bold"
        letter-spacing="3" fill="#008040" opacity="0.35">HOOD&apos;D</text>
</svg>