<?xml version="1.0" encoding="UTF-8"?>
<svg xmlns="http://www.w3.org/2000/svg" viewBox="0 0 1200 900" width="1200" height="900">
<rect width="1200" height="900" fill="#B0E0E6"/>
<rect x="200" y="195" width="391" height="154" fill="#b7e3e8" opacity="0.14" rx="12" transform="rotate(-1 396 272)"/>
<rect x="291" y="3" width="196" height="135" fill="#95bec3" opacity="0.32" rx="23" transform="rotate(3 390 71)"/>
<circle cx="840" cy="185" r="272" fill="#95bec3" opacity="0.30"/>
<rect x="288" y="829" width="387" height="166" fill="#36454F" opacity="0.28" rx="19" transform="rotate(7 482 912)"/>
<rect x="154" y="-34" width="331" height="217" fill="#36454F" opacity="0.26" rx="21" transform="rotate(14 319 75)"/>
<circle cx="584" cy="643" r="230" fill="#b7e3e8" opacity="0.21"/>
<ellipse cx="325" cy="171" rx="162" ry="123" fill="#95bec3" opacity="0.32" transform="rotate(91 325 171)"/>
<line x1="1145" y1="11" x2="1038" y2="80" stroke="#FFB6C1" stroke-width="2.6" opacity="0.15"/>
<line x1="71" y1="656" x2="840" y2="853" stroke="#FFB6C1" stroke-width="4.1" opacity="0.14"/>
<line x1="1191" y1="863" x2="305" y2="323" stroke="#FFB6C1" stroke-width="4.6" opacity="0.28"/>
<defs>
        <radialGradient id="vignette" cx="50%" cy="50%" r="70%">
            <stop offset="0%" stop-color="black" stop-opacity="0"/>
            <stop offset="100%" stop-color="black" stop-opacity="0.25"/>
        </radialGradient>
    </defs>
    <rect width="1200" height="900" fill="url(#vignette)"/>
<text x="30" y="45" text-anchor="start"
        font-family="Arial, Helvetica, sans-serif" font-size="28" font-weight="bold"
        letter-spacing="2" fill="#FFB6C1" opacity="0.25">BELGIUM</text>
<text x="1180" y="880" text-anchor="end"
        font-family="Arial, Helvetica, sans-serif" font-size="14" font-weight="bold"
        letter-spacing="3" fill="#FFB6C1" opacity="0.35">HOOD&apos;D</text>
</svg>