<?xml version="1.0" encoding="UTF-8"?>
<svg xmlns="http://www.w3.org/2000/svg" viewBox="0 0 1200 900" width="1200" height="900">
<rect width="1200" height="900" fill="#0052CC"/>
<rect x="268" y="364" width="127" height="210" fill="#00FFFF" opacity="0.19" rx="8" transform="rotate(28 332 469)"/>
<rect x="961" y="461" width="333" height="255" fill="#00FFFF" opacity="0.11" rx="20" transform="rotate(18 1127 588)"/>
<ellipse cx="1087" cy="697" rx="123" ry="58" fill="#0045ad" opacity="0.31" transform="rotate(140 1087 697)"/>
<rect x="629" y="23" width="236" height="296" fill="#0045ad" opacity="0.12" rx="27" transform="rotate(-20 747 171)"/>
<circle cx="228" cy="88" r="94" fill="#FFD700" opacity="0.13"/>
<ellipse cx="1052" cy="601" rx="338" ry="61" fill="#0045ad" opacity="0.17" transform="rotate(130 1052 601)"/>
<circle cx="709" cy="243" r="84" fill="#0045ad" opacity="0.31"/>
<line x1="528" y1="279" x2="974" y2="710" stroke="#00FFFF" stroke-width="1.0" opacity="0.28"/>
<line x1="74" y1="379" x2="1192" y2="467" stroke="#00FFFF" stroke-width="4.0" opacity="0.21"/>
<line x1="870" y1="480" x2="667" y2="0" stroke="#00FFFF" stroke-width="4.0" opacity="0.28"/>
<line x1="580" y1="390" x2="757" y2="190" stroke="#00FFFF" stroke-width="4.7" opacity="0.28"/>
<line x1="485" y1="291" x2="322" y2="821" stroke="#00FFFF" stroke-width="3.7" opacity="0.22"/>
<defs>
        <radialGradient id="vignette" cx="50%" cy="50%" r="70%">
            <stop offset="0%" stop-color="black" stop-opacity="0"/>
            <stop offset="100%" stop-color="black" stop-opacity="0.25"/>
        </radialGradient>
    </defs>
    <rect width="1200" height="900" fill="url(#vignette)"/>
<text x="30" y="45" text-anchor="start"
        font-family="Arial, Helvetica, sans-serif" font-size="28" font-weight="bold"
        letter-spacing="2" fill="#00FFFF" opacity="0.25">BRAZIL</text>
<text x="1180" y="880" text-anchor="end"
        font-family="Arial, Helvetica, sans-serif" font-size="14" font-weight="bold"
        letter-spacing="3" fill="#00FFFF" opacity="0.35">HOOD&apos;D</text>
</svg>