<?xml version="1.0" encoding="UTF-8"?>
<svg xmlns="http://www.w3.org/2000/svg" viewBox="0 0 1200 900" width="1200" height="900">
<rect width="1200" height="900" fill="#FFD700"/>
<circle cx="404.0" cy="2.7" r="11.9" fill="#e2bf00" opacity="0.25"/>
<rect x="896.5" y="820.7" width="19.8" height="19.8" fill="#0052CC" opacity="0.15" transform="rotate(5 896 821)"/>
<rect x="228.7" y="86.1" width="22.5" height="22.5" fill="#ffdb19" opacity="0.22" transform="rotate(17 229 86)"/>
<circle cx="1127.2" cy="56.2" r="4.2" fill="#0052CC" opacity="0.19"/>
<rect x="632.9" y="566.1" width="11.2" height="11.2" fill="#0052CC" opacity="0.20" transform="rotate(42 633 566)"/>
<rect x="46.0" y="351.3" width="7.9" height="7.9" fill="#ffdc24" opacity="0.11" transform="rotate(30 46 351)"/>
<circle cx="716.5" cy="323.7" r="7.0" fill="#e6c200" opacity="0.23"/>
<rect x="54.3" y="117.2" width="14.2" height="14.2" fill="#dfbc00" opacity="0.11" transform="rotate(37 54 117)"/>
<rect x="193.8" y="520.8" width="16.3" height="16.3" fill="#0052CC" opacity="0.25" transform="rotate(26 194 521)"/>
<rect x="302.5" y="211.7" width="24.7" height="24.7" fill="#ffdb1a" opacity="0.13" transform="rotate(5 303 212)"/>
<circle cx="478.1" cy="686.0" r="6.5" fill="#0052CC" opacity="0.13"/>
<circle cx="276.4" cy="424.8" r="9.0" fill="#ffdb1c" opacity="0.07"/>
<circle cx="511.0" cy="444.6" r="10.8" fill="#0052CC" opacity="0.20"/>
<circle cx="297.6" cy="576.6" r="1.7" fill="#ffdc23" opacity="0.09"/>
<circle cx="923.6" cy="870.9" r="4.0" fill="#f0ca00" opacity="0.14"/>
<rect x="651.2" y="433.0" width="11.2" height="11.2" fill="#e1be00" opacity="0.12" transform="rotate(6 651 433)"/>
<rect x="501.6" y="432.8" width="6.8" height="6.8" fill="#0052CC" opacity="0.16" transform="rotate(34 502 433)"/>
<rect x="479.0" y="876.5" width="21.8" height="21.8" fill="#0052CC" opacity="0.09" transform="rotate(17 479 876)"/>
<circle cx="770.2" cy="446.9" r="10.7" fill="#ffda18" opacity="0.21"/>
<rect x="54.6" y="230.4" width="14.3" height="14.3" fill="#0052CC" opacity="0.10" transform="rotate(37 55 230)"/>
<circle cx="689.4" cy="292.0" r="10.5" fill="#e8c400" opacity="0.18"/>
<rect x="685.3" y="452.9" width="21.9" height="21.9" fill="#0052CC" opacity="0.09" transform="rotate(6 685 453)"/>
<rect x="675.4" y="101.8" width="3.5" height="3.5" fill="#dab800" opacity="0.11" transform="rotate(11 675 102)"/>
<rect x="1096.5" y="600.3" width="20.2" height="20.2" fill="#dab700" opacity="0.13" transform="rotate(19 1096 600)"/>
<rect x="634.3" y="762.2" width="11.2" height="11.2" fill="#0052CC" opacity="0.16" transform="rotate(16 634 762)"/>
<rect x="696.5" y="183.4" width="9.2" height="9.2" fill="#ffda18" opacity="0.13" transform="rotate(14 696 183)"/>
<rect x="278.3" y="730.5" width="24.9" height="24.9" fill="#0052CC" opacity="0.11" transform="rotate(10 278 731)"/>
<circle cx="1089.0" cy="885.7" r="11.4" fill="#f1cb00" opacity="0.20"/>
<rect x="768.8" y="592.0" width="6.1" height="6.1" fill="#edc700" opacity="0.05" transform="rotate(12 769 592)"/>
<rect x="567.9" y="228.2" width="10.0" height="10.0" fill="#eac500" opacity="0.20" transform="rotate(1 568 228)"/>
<circle cx="577.4" cy="838.6" r="11.5" fill="#ffdb1e" opacity="0.07"/>
<rect x="1157.5" y="387.6" width="11.0" height="11.0" fill="#e5c100" opacity="0.11" transform="rotate(19 1157 388)"/>
<rect x="24.0" y="535.7" width="7.7" height="7.7" fill="#dfbc00" opacity="0.17" transform="rotate(27 24 536)"/>
<rect x="60.6" y="596.7" width="11.6" height="11.6" fill="#ffdb1c" opacity="0.07" transform="rotate(24 61 597)"/>
<rect x="1079.7" y="636.8" width="17.0" height="17.0" fill="#ffdb1a" opacity="0.24" transform="rotate(28 1080 637)"/>
<rect x="441.0" y="275.5" width="6.2" height="6.2" fill="#debb00" opacity="0.08" transform="rotate(1 441 275)"/>
<circle cx="593.0" cy="872.1" r="1.5" fill="#ffdc21" opacity="0.21"/>
<rect x="829.3" y="778.1" width="3.6" height="3.6" fill="#ecc700" opacity="0.16" transform="rotate(30 829 778)"/>
<circle cx="597.3" cy="491.2" r="3.7" fill="#ffda18" opacity="0.15"/>
<rect x="663.5" y="627.9" width="8.0" height="8.0" fill="#0052CC" opacity="0.18" transform="rotate(31 663 628)"/>
<rect x="956.0" y="439.3" width="25.0" height="25.0" fill="#f1cb00" opacity="0.17" transform="rotate(23 956 439)"/>
<rect x="1053.4" y="806.8" width="22.7" height="22.7" fill="#0052CC" opacity="0.21" transform="rotate(24 1053 807)"/>
<circle cx="876.6" cy="421.6" r="1.7" fill="#0052CC" opacity="0.21"/>
<rect x="564.4" y="626.7" width="19.9" height="19.9" fill="#ffdb1c" opacity="0.08" transform="rotate(19 564 627)"/>
<circle cx="417.4" cy="433.6" r="8.1" fill="#ffdb1d" opacity="0.06"/>
<circle cx="186.5" cy="142.5" r="4.3" fill="#0052CC" opacity="0.18"/>
<rect x="270.0" y="650.3" width="8.8" height="8.8" fill="#ffda13" opacity="0.21" transform="rotate(25 270 650)"/>
<rect x="969.1" y="560.6" width="21.4" height="21.4" fill="#ffda17" opacity="0.19" transform="rotate(14 969 561)"/>
<rect x="809.7" y="47.7" width="17.0" height="17.0" fill="#dab700" opacity="0.22" transform="rotate(20 810 48)"/>
<rect x="510.3" y="657.1" width="14.3" height="14.3" fill="#0052CC" opacity="0.24" transform="rotate(40 510 657)"/>
<rect x="230.5" y="344.3" width="7.9" height="7.9" fill="#e1be00" opacity="0.11" transform="rotate(39 231 344)"/>
<circle cx="856.7" cy="425.8" r="5.8" fill="#ffdc23" opacity="0.12"/>
<circle cx="471.2" cy="799.4" r="12.3" fill="#dab800" opacity="0.25"/>
<circle cx="999.5" cy="210.7" r="12.3" fill="#ebc600" opacity="0.23"/>
<circle cx="909.3" cy="458.0" r="3.7" fill="#dab800" opacity="0.22"/>
<rect x="781.7" y="469.7" width="9.0" height="9.0" fill="#ffdc23" opacity="0.06" transform="rotate(3 782 470)"/>
<circle cx="753.5" cy="514.6" r="9.4" fill="#eec900" opacity="0.07"/>
<rect x="962.4" y="102.6" width="7.0" height="7.0" fill="#f0ca00" opacity="0.17" transform="rotate(3 962 103)"/>
<rect x="65.9" y="465.2" width="9.6" height="9.6" fill="#ffdb1d" opacity="0.18" transform="rotate(2 66 465)"/>
<rect x="778.6" y="469.8" width="6.9" height="6.9" fill="#0052CC" opacity="0.20" transform="rotate(2 779 470)"/>
<circle cx="1047.7" cy="119.4" r="3.5" fill="#ffd90d" opacity="0.14"/>
<circle cx="344.8" cy="310.3" r="9.0" fill="#0052CC" opacity="0.15"/>
<circle cx="825.3" cy="841.4" r="10.9" fill="#e3bf00" opacity="0.12"/>
<rect x="1042.8" y="550.2" width="7.0" height="7.0" fill="#ffdc21" opacity="0.12" transform="rotate(40 1043 550)"/>
<circle cx="625.4" cy="807.7" r="6.2" fill="#debb00" opacity="0.07"/>
<rect x="825.4" y="253.5" width="5.9" height="5.9" fill="#ffdb1e" opacity="0.11" transform="rotate(22 825 253)"/>
<rect x="648.0" y="162.9" width="21.1" height="21.1" fill="#e7c300" opacity="0.20" transform="rotate(37 648 163)"/>
<circle cx="429.9" cy="704.7" r="3.4" fill="#ffdc21" opacity="0.05"/>
<circle cx="334.5" cy="713.0" r="8.1" fill="#ffda17" opacity="0.12"/>
<circle cx="36.9" cy="306.2" r="4.2" fill="#ffd911" opacity="0.09"/>
<circle cx="1122.4" cy="748.9" r="6.9" fill="#ebc600" opacity="0.14"/>
<rect x="742.6" y="692.7" width="9.3" height="9.3" fill="#debb00" opacity="0.19" transform="rotate(15 743 693)"/>
<circle cx="1073.2" cy="145.3" r="7.2" fill="#ffda15" opacity="0.08"/>
<circle cx="215.3" cy="677.0" r="8.9" fill="#ffdc20" opacity="0.18"/>
<circle cx="463.5" cy="592.0" r="12.5" fill="#ffd910" opacity="0.15"/>
<rect x="121.4" y="45.1" width="7.6" height="7.6" fill="#0052CC" opacity="0.07" transform="rotate(45 121 45)"/>
<circle cx="950.2" cy="392.4" r="9.4" fill="#e8c400" opacity="0.16"/>
<rect x="278.8" y="855.9" width="21.3" height="21.3" fill="#ffd913" opacity="0.19" transform="rotate(31 279 856)"/>
<circle cx="113.0" cy="511.1" r="11.6" fill="#0052CC" opacity="0.12"/>
<circle cx="486.8" cy="530.5" r="4.8" fill="#0052CC" opacity="0.20"/>
<circle cx="1086.3" cy="497.5" r="4.9" fill="#e8c400" opacity="0.10"/>
<circle cx="428.0" cy="552.3" r="4.0" fill="#0052CC" opacity="0.10"/>
<circle cx="996.7" cy="788.6" r="11.0" fill="#ffdb1c" opacity="0.23"/>
<rect x="13.4" y="652.6" width="4.2" height="4.2" fill="#ebc600" opacity="0.21" transform="rotate(16 13 653)"/>
<rect x="419.0" y="818.0" width="12.1" height="12.1" fill="#ffda13" opacity="0.15" transform="rotate(14 419 818)"/>
<rect x="389.4" y="191.9" width="10.1" height="10.1" fill="#debb00" opacity="0.05" transform="rotate(2 389 192)"/>
<circle cx="1006.3" cy="286.3" r="7.0" fill="#0052CC" opacity="0.15"/>
<rect x="311.6" y="856.6" width="9.9" height="9.9" fill="#ffd90e" opacity="0.23" transform="rotate(9 312 857)"/>
<circle cx="318.2" cy="58.3" r="11.4" fill="#dab700" opacity="0.19"/>
<rect x="931.4" y="148.6" width="12.1" height="12.1" fill="#0052CC" opacity="0.09" transform="rotate(11 931 149)"/>
<circle cx="480.5" cy="854.5" r="2.9" fill="#0052CC" opacity="0.07"/>
<rect x="27.3" y="440.4" width="8.5" height="8.5" fill="#0052CC" opacity="0.22" transform="rotate(5 27 440)"/>
<circle cx="791.4" cy="273.4" r="11.1" fill="#e8c400" opacity="0.21"/>
<rect x="454.6" y="162.8" width="19.3" height="19.3" fill="#eac500" opacity="0.09" transform="rotate(16 455 163)"/>
<circle cx="700.9" cy="398.7" r="11.6" fill="#0052CC" opacity="0.18"/>
<circle cx="519.8" cy="519.1" r="10.8" fill="#eec800" opacity="0.14"/>
<rect x="1198.4" y="344.3" width="4.3" height="4.3" fill="#0052CC" opacity="0.06" transform="rotate(30 1198 344)"/>
<circle cx="740.3" cy="499.8" r="12.0" fill="#ffdc21" opacity="0.22"/>
<circle cx="340.4" cy="789.5" r="9.1" fill="#0052CC" opacity="0.10"/>
<circle cx="181.4" cy="255.1" r="2.8" fill="#debb00" opacity="0.07"/>
<rect x="542.0" y="187.3" width="5.9" height="5.9" fill="#0052CC" opacity="0.05" transform="rotate(31 542 187)"/>
<rect x="456.1" y="782.8" width="24.1" height="24.1" fill="#e2be00" opacity="0.05" transform="rotate(6 456 783)"/>
<rect x="161.8" y="794.4" width="4.2" height="4.2" fill="#e1be00" opacity="0.10" transform="rotate(23 162 794)"/>
<circle cx="34.3" cy="871.0" r="11.7" fill="#dbb800" opacity="0.22"/>
<circle cx="481.1" cy="875.7" r="12.1" fill="#ffda16" opacity="0.12"/>
<circle cx="74.0" cy="133.3" r="2.9" fill="#ffdc23" opacity="0.07"/>
<rect x="381.4" y="317.1" width="7.1" height="7.1" fill="#edc800" opacity="0.22" transform="rotate(15 381 317)"/>
<rect x="1187.9" y="62.4" width="7.7" height="7.7" fill="#ffdc24" opacity="0.05" transform="rotate(33 1188 62)"/>
<circle cx="617.1" cy="473.1" r="12.0" fill="#0052CC" opacity="0.10"/>
<circle cx="183.5" cy="645.3" r="5.6" fill="#e7c300" opacity="0.09"/>
<rect x="450.5" y="855.4" width="20.7" height="20.7" fill="#e0bd00" opacity="0.20" transform="rotate(7 451 855)"/>
<circle cx="277.7" cy="172.7" r="11.4" fill="#ffd912" opacity="0.11"/>
<rect x="1122.3" y="184.3" width="11.5" height="11.5" fill="#ffdc23" opacity="0.14" transform="rotate(34 1122 184)"/>
<rect x="11.9" y="645.2" width="19.4" height="19.4" fill="#ffdb1a" opacity="0.08" transform="rotate(34 12 645)"/>
<rect x="471.6" y="69.0" width="12.9" height="12.9" fill="#0052CC" opacity="0.07" transform="rotate(12 472 69)"/>
<circle cx="593.5" cy="887.0" r="3.6" fill="#ffda15" opacity="0.11"/>
<circle cx="1170.8" cy="622.4" r="5.3" fill="#ffdb1d" opacity="0.07"/>
<rect x="727.7" y="66.7" width="9.9" height="9.9" fill="#0052CC" opacity="0.17" transform="rotate(30 728 67)"/>
<rect x="546.7" y="264.0" width="16.1" height="16.1" fill="#ffd90d" opacity="0.14" transform="rotate(3 547 264)"/>
<circle cx="524.5" cy="663.8" r="10.0" fill="#e8c300" opacity="0.10"/>
<circle cx="1114.4" cy="92.6" r="4.8" fill="#0052CC" opacity="0.14"/>
<rect x="795.5" y="603.3" width="19.4" height="19.4" fill="#0052CC" opacity="0.08" transform="rotate(45 795 603)"/>
<circle cx="705" cy="550" r="270" fill="#00AA44" opacity="0.08"/>
<defs>
        <radialGradient id="vignette" cx="50%" cy="50%" r="70%">
            <stop offset="0%" stop-color="black" stop-opacity="0"/>
            <stop offset="100%" stop-color="black" stop-opacity="0.25"/>
        </radialGradient>
    </defs>
    <rect width="1200" height="900" fill="url(#vignette)"/>
<text x="30" y="45" text-anchor="start"
        font-family="Arial, Helvetica, sans-serif" font-size="28" font-weight="bold"
        letter-spacing="2" fill="#00AA44" opacity="0.25">BRAZIL</text>
<text x="1180" y="880" text-anchor="end"
        font-family="Arial, Helvetica, sans-serif" font-size="14" font-weight="bold"
        letter-spacing="3" fill="#00AA44" opacity="0.35">HOOD&apos;D</text>
</svg>