<?xml version="1.0" encoding="UTF-8"?>
<svg xmlns="http://www.w3.org/2000/svg" viewBox="0 0 1200 900" width="1200" height="900">
<rect width="1200" height="900" fill="#000000"/>
<circle cx="193" cy="354" r="134" fill="#FFFFFF" opacity="0.23"/>
<rect x="276" y="301" width="292" height="205" fill="#000000" opacity="0.12" rx="9" transform="rotate(-20 423 404)"/>
<circle cx="309" cy="219" r="277" fill="#E8E8E8" opacity="0.28"/>
<rect x="1162" y="210" width="165" height="83" fill="#FFFFFF" opacity="0.12" rx="4" transform="rotate(-23 1244 251)"/>
<circle cx="1172" cy="487" r="141" fill="#191919" opacity="0.34"/>
<ellipse cx="415" cy="52" rx="139" ry="135" fill="#E8E8E8" opacity="0.31" transform="rotate(115 415 52)"/>
<ellipse cx="95" cy="544" rx="391" ry="168" fill="#191919" opacity="0.18" transform="rotate(6 95 544)"/>
<line x1="233" y1="720" x2="948" y2="490" stroke="#E8E8E8" stroke-width="1.3" opacity="0.24"/>
<line x1="1121" y1="416" x2="718" y2="779" stroke="#E8E8E8" stroke-width="2.8" opacity="0.32"/>
<line x1="194" y1="897" x2="995" y2="218" stroke="#E8E8E8" stroke-width="1.3" opacity="0.38"/>
<line x1="99" y1="462" x2="38" y2="732" stroke="#E8E8E8" stroke-width="3.3" opacity="0.11"/>
<line x1="105" y1="709" x2="423" y2="742" stroke="#E8E8E8" stroke-width="2.9" opacity="0.20"/>
<defs>
        <radialGradient id="vignette" cx="50%" cy="50%" r="70%">
            <stop offset="0%" stop-color="black" stop-opacity="0"/>
            <stop offset="100%" stop-color="black" stop-opacity="0.25"/>
        </radialGradient>
    </defs>
    <rect width="1200" height="900" fill="url(#vignette)"/>
<text x="30" y="45" text-anchor="start"
        font-family="Arial, Helvetica, sans-serif" font-size="28" font-weight="bold"
        letter-spacing="2" fill="#eeeeee" opacity="0.25">CANADA</text>
<text x="1180" y="880" text-anchor="end"
        font-family="Arial, Helvetica, sans-serif" font-size="14" font-weight="bold"
        letter-spacing="3" fill="#eeeeee" opacity="0.35">HOOD&apos;D</text>
</svg>