<?xml version="1.0" encoding="UTF-8"?>
<svg xmlns="http://www.w3.org/2000/svg" viewBox="0 0 1200 900" width="1200" height="900">
<rect width="1200" height="900" fill="#FF0000"/>
<rect x="1022.1" y="765.6" width="10.9" height="10.9" fill="#FFFFFF" opacity="0.12" transform="rotate(14 1022 766)"/>
<circle cx="498.2" cy="483.3" r="11.3" fill="#ff2323" opacity="0.20"/>
<rect x="158.8" y="667.6" width="3.7" height="3.7" fill="#e50000" opacity="0.08" transform="rotate(35 159 668)"/>
<rect x="566.8" y="342.6" width="4.5" height="4.5" fill="#ff1515" opacity="0.08" transform="rotate(10 567 343)"/>
<circle cx="1182.8" cy="629.2" r="11.8" fill="#FFFFFF" opacity="0.20"/>
<rect x="219.8" y="578.0" width="14.7" height="14.7" fill="#ee0000" opacity="0.14" transform="rotate(36 220 578)"/>
<rect x="1063.2" y="828.8" width="7.4" height="7.4" fill="#ff1818" opacity="0.20" transform="rotate(42 1063 829)"/>
<circle cx="149.2" cy="615.1" r="11.7" fill="#FFFFFF" opacity="0.13"/>
<rect x="452.4" y="651.1" width="6.1" height="6.1" fill="#de0000" opacity="0.20" transform="rotate(29 452 651)"/>
<rect x="1185.3" y="1.6" width="3.8" height="3.8" fill="#FFFFFF" opacity="0.09" transform="rotate(11 1185 2)"/>
<rect x="1112.4" y="561.2" width="5.1" height="5.1" fill="#ff0e0e" opacity="0.20" transform="rotate(22 1112 561)"/>
<circle cx="1104.4" cy="129.5" r="8.2" fill="#ec0000" opacity="0.11"/>
<circle cx="298.7" cy="375.7" r="9.2" fill="#FFFFFF" opacity="0.11"/>
<rect x="176.7" y="606.9" width="15.0" height="15.0" fill="#ff1414" opacity="0.18" transform="rotate(36 177 607)"/>
<circle cx="440.8" cy="401.2" r="4.0" fill="#ff1717" opacity="0.22"/>
<rect x="799.2" y="27.7" width="15.7" height="15.7" fill="#FFFFFF" opacity="0.12" transform="rotate(13 799 28)"/>
<circle cx="596.7" cy="619.3" r="3.8" fill="#d80000" opacity="0.15"/>
<circle cx="260.8" cy="646.0" r="6.1" fill="#ff2323" opacity="0.21"/>
<rect x="806.7" y="780.9" width="3.0" height="3.0" fill="#ff1f1f" opacity="0.16" transform="rotate(12 807 781)"/>
<circle cx="648.7" cy="125.3" r="6.8" fill="#FFFFFF" opacity="0.17"/>
<circle cx="787.7" cy="13.3" r="9.8" fill="#ef0000" opacity="0.16"/>
<circle cx="64.1" cy="245.5" r="10.7" fill="#e80000" opacity="0.13"/>
<circle cx="819.5" cy="101.8" r="4.4" fill="#FFFFFF" opacity="0.08"/>
<rect x="1045.7" y="298.4" width="15.3" height="15.3" fill="#e40000" opacity="0.07" transform="rotate(17 1046 298)"/>
<rect x="608.9" y="874.6" width="11.0" height="11.0" fill="#FFFFFF" opacity="0.06" transform="rotate(9 609 875)"/>
<rect x="265.4" y="51.1" width="14.3" height="14.3" fill="#ff1414" opacity="0.11" transform="rotate(37 265 51)"/>
<rect x="413.2" y="844.8" width="8.8" height="8.8" fill="#ff2424" opacity="0.21" transform="rotate(7 413 845)"/>
<rect x="29.7" y="320.6" width="22.5" height="22.5" fill="#de0000" opacity="0.10" transform="rotate(24 30 321)"/>
<circle cx="204.5" cy="358.9" r="5.2" fill="#e40000" opacity="0.21"/>
<circle cx="924.3" cy="656.3" r="4.2" fill="#FFFFFF" opacity="0.21"/>
<rect x="840.3" y="50.1" width="4.3" height="4.3" fill="#f00000" opacity="0.19" transform="rotate(36 840 50)"/>
<rect x="1014.2" y="132.6" width="15.5" height="15.5" fill="#ff2424" opacity="0.07" transform="rotate(38 1014 133)"/>
<circle cx="623.6" cy="148.2" r="12.4" fill="#ed0000" opacity="0.23"/>
<circle cx="362.9" cy="511.0" r="9.4" fill="#FFFFFF" opacity="0.12"/>
<circle cx="749.4" cy="53.4" r="8.9" fill="#ff1515" opacity="0.11"/>
<circle cx="405.0" cy="525.7" r="9.9" fill="#f10000" opacity="0.23"/>
<rect x="884.1" y="14.2" width="15.5" height="15.5" fill="#e70000" opacity="0.24" transform="rotate(2 884 14)"/>
<circle cx="1.8" cy="411.3" r="11.4" fill="#ff1c1c" opacity="0.23"/>
<rect x="974.8" y="225.5" width="4.8" height="4.8" fill="#ff1313" opacity="0.11" transform="rotate(23 975 226)"/>
<rect x="846.9" y="152.2" width="9.1" height="9.1" fill="#FFFFFF" opacity="0.15" transform="rotate(32 847 152)"/>
<circle cx="327.9" cy="281.8" r="2.2" fill="#ff1515" opacity="0.14"/>
<circle cx="691.5" cy="134.7" r="10.8" fill="#dd0000" opacity="0.15"/>
<circle cx="428.4" cy="598.7" r="11.7" fill="#ff1313" opacity="0.15"/>
<circle cx="401.7" cy="831.3" r="8.7" fill="#ff2525" opacity="0.19"/>
<circle cx="705.6" cy="537.0" r="9.6" fill="#dc0000" opacity="0.07"/>
<rect x="370.7" y="681.2" width="23.5" height="23.5" fill="#FFFFFF" opacity="0.20" transform="rotate(14 371 681)"/>
<circle cx="847.1" cy="510.0" r="4.7" fill="#FFFFFF" opacity="0.20"/>
<rect x="1191.7" y="475.1" width="11.4" height="11.4" fill="#ff0f0f" opacity="0.17" transform="rotate(23 1192 475)"/>
<rect x="758.3" y="839.9" width="21.9" height="21.9" fill="#ff1515" opacity="0.18" transform="rotate(36 758 840)"/>
<circle cx="267.7" cy="550.3" r="3.9" fill="#db0000" opacity="0.23"/>
<rect x="720.6" y="308.7" width="4.3" height="4.3" fill="#ff0e0e" opacity="0.24" transform="rotate(19 721 309)"/>
<rect x="486.2" y="672.3" width="21.5" height="21.5" fill="#de0000" opacity="0.14" transform="rotate(25 486 672)"/>
<circle cx="339.2" cy="586.4" r="9.9" fill="#FFFFFF" opacity="0.07"/>
<rect x="512.5" y="468.5" width="17.4" height="17.4" fill="#ff0f0f" opacity="0.13" transform="rotate(22 513 468)"/>
<circle cx="380.0" cy="755.9" r="12.0" fill="#ef0000" opacity="0.18"/>
<circle cx="532.1" cy="863.1" r="4.9" fill="#ff1d1d" opacity="0.11"/>
<rect x="578.0" y="339.0" width="3.6" height="3.6" fill="#e70000" opacity="0.16" transform="rotate(36 578 339)"/>
<rect x="398.5" y="501.7" width="15.5" height="15.5" fill="#FFFFFF" opacity="0.20" transform="rotate(35 398 502)"/>
<rect x="412.8" y="834.0" width="23.0" height="23.0" fill="#ff1f1f" opacity="0.20" transform="rotate(30 413 834)"/>
<circle cx="436.2" cy="32.9" r="5.4" fill="#ef0000" opacity="0.06"/>
<rect x="285.5" y="528.5" width="14.8" height="14.8" fill="#ff0f0f" opacity="0.17" transform="rotate(41 285 529)"/>
<circle cx="665.4" cy="375.7" r="10.1" fill="#da0000" opacity="0.17"/>
<rect x="624.9" y="503.3" width="23.6" height="23.6" fill="#ff1010" opacity="0.06" transform="rotate(2 625 503)"/>
<circle cx="89.3" cy="590.2" r="11.1" fill="#ff1515" opacity="0.19"/>
<rect x="671.2" y="248.4" width="15.6" height="15.6" fill="#d90000" opacity="0.21" transform="rotate(35 671 248)"/>
<rect x="284.7" y="303.2" width="9.2" height="9.2" fill="#FFFFFF" opacity="0.18" transform="rotate(32 285 303)"/>
<circle cx="834.9" cy="125.2" r="6.6" fill="#df0000" opacity="0.23"/>
<circle cx="298.5" cy="306.7" r="6.5" fill="#ea0000" opacity="0.19"/>
<rect x="222.1" y="372.6" width="5.8" height="5.8" fill="#dc0000" opacity="0.24" transform="rotate(37 222 373)"/>
<rect x="1024.9" y="596.5" width="8.8" height="8.8" fill="#ff1717" opacity="0.11" transform="rotate(11 1025 597)"/>
<circle cx="230.9" cy="404.6" r="8.3" fill="#FFFFFF" opacity="0.20"/>
<circle cx="946.5" cy="364.8" r="7.4" fill="#ec0000" opacity="0.22"/>
<circle cx="6.7" cy="472.2" r="10.0" fill="#FFFFFF" opacity="0.16"/>
<rect x="720.9" y="583.8" width="11.9" height="11.9" fill="#FFFFFF" opacity="0.18" transform="rotate(20 721 584)"/>
<rect x="592.4" y="68.0" width="16.8" height="16.8" fill="#ff2424" opacity="0.11" transform="rotate(25 592 68)"/>
<circle cx="1102.7" cy="869.7" r="10.9" fill="#FFFFFF" opacity="0.11"/>
<rect x="812.1" y="824.1" width="5.1" height="5.1" fill="#ee0000" opacity="0.11" transform="rotate(5 812 824)"/>
<rect x="798.9" y="666.9" width="24.4" height="24.4" fill="#da0000" opacity="0.25" transform="rotate(17 799 667)"/>
<circle cx="751.3" cy="841.3" r="2.7" fill="#ff1515" opacity="0.22"/>
<circle cx="288.6" cy="312.1" r="5.8" fill="#FFFFFF" opacity="0.15"/>
<circle cx="909.1" cy="598.3" r="4.0" fill="#e10000" opacity="0.07"/>
<rect x="1116.0" y="871.1" width="24.2" height="24.2" fill="#FFFFFF" opacity="0.10" transform="rotate(23 1116 871)"/>
<rect x="199.8" y="319.3" width="14.7" height="14.7" fill="#f10000" opacity="0.13" transform="rotate(13 200 319)"/>
<circle cx="1045.1" cy="725.0" r="5.8" fill="#ff2323" opacity="0.10"/>
<rect x="438.8" y="478.9" width="17.7" height="17.7" fill="#ff1313" opacity="0.06" transform="rotate(12 439 479)"/>
<circle cx="572.7" cy="324.6" r="2.5" fill="#FFFFFF" opacity="0.21"/>
<circle cx="77.1" cy="586.4" r="10.7" fill="#ff1b1b" opacity="0.11"/>
<rect x="164.3" y="604.4" width="19.7" height="19.7" fill="#ee0000" opacity="0.10" transform="rotate(14 164 604)"/>
<circle cx="72.0" cy="783.3" r="10.9" fill="#ff1515" opacity="0.24"/>
<rect x="231.3" y="187.5" width="4.9" height="4.9" fill="#FFFFFF" opacity="0.10" transform="rotate(24 231 188)"/>
<rect x="1106.9" y="291.0" width="12.6" height="12.6" fill="#e70000" opacity="0.09" transform="rotate(7 1107 291)"/>
<rect x="435.7" y="703.3" width="3.8" height="3.8" fill="#e00000" opacity="0.20" transform="rotate(16 436 703)"/>
<rect x="351.3" y="547.0" width="21.4" height="21.4" fill="#e40000" opacity="0.06" transform="rotate(31 351 547)"/>
<rect x="432.7" y="308.2" width="23.6" height="23.6" fill="#FFFFFF" opacity="0.08" transform="rotate(30 433 308)"/>
<rect x="138.0" y="611.2" width="15.1" height="15.1" fill="#FFFFFF" opacity="0.20" transform="rotate(28 138 611)"/>
<rect x="193.0" y="529.0" width="23.7" height="23.7" fill="#f10000" opacity="0.16" transform="rotate(24 193 529)"/>
<rect x="180.1" y="78.5" width="13.9" height="13.9" fill="#FFFFFF" opacity="0.13" transform="rotate(38 180 78)"/>
<circle cx="1181.6" cy="51.9" r="9.1" fill="#FFFFFF" opacity="0.09"/>
<rect x="822.0" y="536.7" width="21.2" height="21.2" fill="#ff2222" opacity="0.10" transform="rotate(30 822 537)"/>
<circle cx="596.9" cy="183.1" r="3.1" fill="#FFFFFF" opacity="0.18"/>
<circle cx="575.9" cy="824.2" r="2.9" fill="#FFFFFF" opacity="0.10"/>
<rect x="496.3" y="688.8" width="17.3" height="17.3" fill="#FFFFFF" opacity="0.21" transform="rotate(22 496 689)"/>
<rect x="170.6" y="252.0" width="10.4" height="10.4" fill="#ff1919" opacity="0.22" transform="rotate(26 171 252)"/>
<circle cx="1048.0" cy="520.1" r="6.6" fill="#FFFFFF" opacity="0.13"/>
<rect x="237.0" y="88.8" width="9.4" height="9.4" fill="#ff0d0d" opacity="0.17" transform="rotate(36 237 89)"/>
<circle cx="757.0" cy="136.0" r="5.3" fill="#eb0000" opacity="0.24"/>
<circle cx="152.7" cy="225.5" r="11.2" fill="#FFFFFF" opacity="0.11"/>
<rect x="845.5" y="145.8" width="10.4" height="10.4" fill="#ff2222" opacity="0.19" transform="rotate(10 846 146)"/>
<circle cx="67.2" cy="39.5" r="5.8" fill="#FFFFFF" opacity="0.14"/>
<circle cx="444.8" cy="66.3" r="4.2" fill="#ff1d1d" opacity="0.24"/>
<rect x="864.1" y="725.4" width="9.6" height="9.6" fill="#db0000" opacity="0.10" transform="rotate(30 864 725)"/>
<circle cx="285.3" cy="444.8" r="9.1" fill="#ff2525" opacity="0.14"/>
<rect x="662.8" y="515.8" width="5.4" height="5.4" fill="#dc0000" opacity="0.23" transform="rotate(32 663 516)"/>
<rect x="588.1" y="516.4" width="7.8" height="7.8" fill="#FFFFFF" opacity="0.19" transform="rotate(42 588 516)"/>
<circle cx="873.1" cy="96.4" r="8.5" fill="#ff0e0e" opacity="0.22"/>
<rect x="177.5" y="125.1" width="10.3" height="10.3" fill="#eb0000" opacity="0.15" transform="rotate(27 178 125)"/>
<rect x="745.4" y="98.5" width="11.9" height="11.9" fill="#eb0000" opacity="0.22" transform="rotate(37 745 98)"/>
<circle cx="113.3" cy="175.9" r="3.8" fill="#ff1e1e" opacity="0.20"/>
<rect x="95.6" y="412.2" width="20.8" height="20.8" fill="#FFFFFF" opacity="0.14" transform="rotate(26 96 412)"/>
<rect x="135.8" y="733.3" width="18.9" height="18.9" fill="#ff2323" opacity="0.10" transform="rotate(7 136 733)"/>
<rect x="874.9" y="287.7" width="13.8" height="13.8" fill="#ff1717" opacity="0.18" transform="rotate(27 875 288)"/>
<rect x="595.0" y="43.6" width="14.1" height="14.1" fill="#e20000" opacity="0.16" transform="rotate(43 595 44)"/>
<circle cx="1038.4" cy="271.1" r="2.9" fill="#e00000" opacity="0.24"/>
<rect x="95.2" y="647.3" width="6.5" height="6.5" fill="#ff1717" opacity="0.18" transform="rotate(18 95 647)"/>
<circle cx="747.5" cy="793.2" r="3.2" fill="#ff1b1b" opacity="0.18"/>
<rect x="980.7" y="740.4" width="20.2" height="20.2" fill="#e10000" opacity="0.24" transform="rotate(17 981 740)"/>
<circle cx="1183.1" cy="225.2" r="2.5" fill="#FFFFFF" opacity="0.21"/>
<circle cx="795.8" cy="66.2" r="4.7" fill="#ee0000" opacity="0.05"/>
<circle cx="308.2" cy="314.7" r="1.9" fill="#de0000" opacity="0.19"/>
<rect x="69.9" y="201.1" width="23.9" height="23.9" fill="#ff1010" opacity="0.09" transform="rotate(3 70 201)"/>
<circle cx="968.0" cy="356.0" r="10.0" fill="#FFFFFF" opacity="0.06"/>
<circle cx="663.0" cy="98.8" r="6.9" fill="#f10000" opacity="0.20"/>
<circle cx="930.9" cy="151.7" r="6.2" fill="#eb0000" opacity="0.14"/>
<circle cx="1159.4" cy="145.7" r="1.9" fill="#d90000" opacity="0.13"/>
<rect x="1037.1" y="742.6" width="10.5" height="10.5" fill="#FFFFFF" opacity="0.15" transform="rotate(11 1037 743)"/>
<circle cx="103.5" cy="117.4" r="12.2" fill="#FFFFFF" opacity="0.17"/>
<circle cx="113.0" cy="339.6" r="6.1" fill="#ff1f1f" opacity="0.12"/>
<rect x="762.5" y="162.5" width="20.1" height="20.1" fill="#ff1919" opacity="0.08" transform="rotate(12 763 163)"/>
<circle cx="683.4" cy="704.7" r="11.1" fill="#ff1818" opacity="0.05"/>
<circle cx="1023.5" cy="768.7" r="2.7" fill="#df0000" opacity="0.13"/>
<circle cx="1050.4" cy="670.9" r="10.7" fill="#FFFFFF" opacity="0.20"/>
<rect x="1062.8" y="44.4" width="6.4" height="6.4" fill="#FFFFFF" opacity="0.24" transform="rotate(1 1063 44)"/>
<rect x="393.7" y="862.5" width="7.6" height="7.6" fill="#FFFFFF" opacity="0.06" transform="rotate(23 394 862)"/>
<circle cx="454.4" cy="112.9" r="6.1" fill="#e10000" opacity="0.07"/>
<rect x="991.6" y="850.7" width="14.6" height="14.6" fill="#FFFFFF" opacity="0.11" transform="rotate(25 992 851)"/>
<rect x="667.1" y="758.5" width="21.2" height="21.2" fill="#ff1010" opacity="0.18" transform="rotate(6 667 759)"/>
<rect x="508.5" y="649.5" width="3.3" height="3.3" fill="#FFFFFF" opacity="0.13" transform="rotate(9 508 649)"/>
<circle cx="453.2" cy="433.6" r="8.4" fill="#ed0000" opacity="0.14"/>
<circle cx="1112.4" cy="394.0" r="3.5" fill="#FFFFFF" opacity="0.24"/>
<circle cx="619.5" cy="24.3" r="10.7" fill="#FFFFFF" opacity="0.11"/>
<circle cx="1143.7" cy="149.0" r="9.8" fill="#FFFFFF" opacity="0.15"/>
<rect x="951.2" y="577.4" width="6.7" height="6.7" fill="#e10000" opacity="0.18" transform="rotate(34 951 577)"/>
<rect x="1043.7" y="7.2" width="16.9" height="16.9" fill="#ff1d1d" opacity="0.06" transform="rotate(14 1044 7)"/>
<circle cx="949.1" cy="722.6" r="9.8" fill="#ff1f1f" opacity="0.21"/>
<circle cx="873.1" cy="96.1" r="11.2" fill="#ef0000" opacity="0.17"/>
<circle cx="1087.8" cy="228.9" r="9.3" fill="#ff1717" opacity="0.19"/>
<rect x="611.2" y="205.8" width="23.8" height="23.8" fill="#ff0e0e" opacity="0.23" transform="rotate(42 611 206)"/>
<rect x="996.0" y="151.9" width="23.6" height="23.6" fill="#de0000" opacity="0.08" transform="rotate(42 996 152)"/>
<rect x="260.9" y="99.6" width="20.5" height="20.5" fill="#ff1919" opacity="0.19" transform="rotate(15 261 100)"/>
<circle cx="1025.4" cy="540.6" r="8.3" fill="#e60000" opacity="0.14"/>
<rect x="1004.7" y="494.1" width="20.8" height="20.8" fill="#ff2323" opacity="0.21" transform="rotate(42 1005 494)"/>
<rect x="236.4" y="219.0" width="17.4" height="17.4" fill="#de0000" opacity="0.23" transform="rotate(11 236 219)"/>
<circle cx="697.8" cy="124.1" r="7.6" fill="#FFFFFF" opacity="0.07"/>
<rect x="33.4" y="626.8" width="7.4" height="7.4" fill="#FFFFFF" opacity="0.08" transform="rotate(32 33 627)"/>
<circle cx="1149.5" cy="144.2" r="10.3" fill="#ff2424" opacity="0.08"/>
<rect x="545.1" y="43.9" width="14.6" height="14.6" fill="#FFFFFF" opacity="0.13" transform="rotate(5 545 44)"/>
<rect x="296.5" y="539.9" width="9.1" height="9.1" fill="#dc0000" opacity="0.11" transform="rotate(29 296 540)"/>
<circle cx="392.4" cy="183.0" r="11.0" fill="#FFFFFF" opacity="0.25"/>
<rect x="411.4" y="315.5" width="4.3" height="4.3" fill="#FFFFFF" opacity="0.11" transform="rotate(43 411 315)"/>
<circle cx="990.4" cy="251.4" r="9.2" fill="#ff2020" opacity="0.11"/>
<circle cx="696.7" cy="612.2" r="5.7" fill="#e60000" opacity="0.06"/>
<rect x="566.2" y="271.3" width="15.3" height="15.3" fill="#e00000" opacity="0.22" transform="rotate(12 566 271)"/>
<rect x="29.7" y="34.1" width="18.5" height="18.5" fill="#f10000" opacity="0.09" transform="rotate(35 30 34)"/>
<circle cx="907.9" cy="535.7" r="7.9" fill="#FFFFFF" opacity="0.16"/>
<rect x="137.6" y="147.7" width="21.3" height="21.3" fill="#ff2525" opacity="0.13" transform="rotate(43 138 148)"/>
<circle cx="76.8" cy="872.8" r="11.2" fill="#FFFFFF" opacity="0.18"/>
<circle cx="717.4" cy="525.9" r="4.5" fill="#FFFFFF" opacity="0.06"/>
<circle cx="1089.2" cy="254.9" r="3.9" fill="#FFFFFF" opacity="0.12"/>
<circle cx="2.2" cy="63.7" r="2.4" fill="#ef0000" opacity="0.24"/>
<circle cx="611.0" cy="173.1" r="7.2" fill="#dc0000" opacity="0.20"/>
<circle cx="1041.1" cy="193.0" r="2.2" fill="#FFFFFF" opacity="0.07"/>
<circle cx="667.4" cy="388.9" r="10.5" fill="#ff2020" opacity="0.08"/>
<rect x="807.4" y="732.1" width="21.6" height="21.6" fill="#FFFFFF" opacity="0.17" transform="rotate(38 807 732)"/>
<rect x="542.9" y="290.0" width="5.4" height="5.4" fill="#dd0000" opacity="0.22" transform="rotate(36 543 290)"/>
<circle cx="475.8" cy="866.2" r="6.5" fill="#FFFFFF" opacity="0.17"/>
<circle cx="730.3" cy="770.4" r="11.9" fill="#FFFFFF" opacity="0.06"/>
<rect x="232.4" y="832.4" width="5.4" height="5.4" fill="#f00000" opacity="0.06" transform="rotate(37 232 832)"/>
<circle cx="653.9" cy="69.6" r="5.6" fill="#FFFFFF" opacity="0.17"/>
<circle cx="460.6" cy="565.3" r="4.6" fill="#e00000" opacity="0.23"/>
<circle cx="876.2" cy="138.7" r="7.5" fill="#FFFFFF" opacity="0.06"/>
<rect x="328.3" y="899.9" width="20.7" height="20.7" fill="#FFFFFF" opacity="0.15" transform="rotate(40 328 900)"/>
<circle cx="678.4" cy="693.8" r="3.5" fill="#dc0000" opacity="0.13"/>
<rect x="515.4" y="333.4" width="5.6" height="5.6" fill="#ff0d0d" opacity="0.17" transform="rotate(35 515 333)"/>
<rect x="307.3" y="211.4" width="15.7" height="15.7" fill="#ff1717" opacity="0.14" transform="rotate(31 307 211)"/>
<circle cx="531.7" cy="149.7" r="3.2" fill="#FFFFFF" opacity="0.09"/>
<circle cx="615.9" cy="806.5" r="6.3" fill="#FFFFFF" opacity="0.07"/>
<circle cx="107.5" cy="653.8" r="9.9" fill="#ff1616" opacity="0.25"/>
<circle cx="105.1" cy="94.2" r="9.5" fill="#FFFFFF" opacity="0.07"/>
<rect x="243.7" y="847.3" width="12.8" height="12.8" fill="#ee0000" opacity="0.21" transform="rotate(29 244 847)"/>
<circle cx="126.7" cy="293.0" r="12.1" fill="#de0000" opacity="0.07"/>
<circle cx="681.6" cy="845.2" r="11.2" fill="#de0000" opacity="0.13"/>
<circle cx="514" cy="328" r="270" fill="#000000" opacity="0.08"/>
<defs>
        <radialGradient id="vignette" cx="50%" cy="50%" r="70%">
            <stop offset="0%" stop-color="black" stop-opacity="0"/>
            <stop offset="100%" stop-color="black" stop-opacity="0.25"/>
        </radialGradient>
    </defs>
    <rect width="1200" height="900" fill="url(#vignette)"/>
<text x="30" y="45" text-anchor="start"
        font-family="Arial, Helvetica, sans-serif" font-size="28" font-weight="bold"
        letter-spacing="2" fill="#000000" opacity="0.25">CANADA</text>
<text x="1180" y="880" text-anchor="end"
        font-family="Arial, Helvetica, sans-serif" font-size="14" font-weight="bold"
        letter-spacing="3" fill="#000000" opacity="0.35">HOOD&apos;D</text>
</svg>