<?xml version="1.0" encoding="UTF-8"?>
<svg xmlns="http://www.w3.org/2000/svg" viewBox="0 0 1200 900" width="1200" height="900">
<rect width="1200" height="900" fill="#87CEEB"/>
<circle cx="600.3" cy="171.6" r="4.0" fill="#93d2ed" opacity="0.15"/>
<rect x="824.8" y="597.0" width="7.5" height="7.5" fill="#74b1ca" opacity="0.21" transform="rotate(19 825 597)"/>
<rect x="157.4" y="165.3" width="6.3" height="6.3" fill="#8fd1ec" opacity="0.06" transform="rotate(14 157 165)"/>
<circle cx="499.2" cy="537.5" r="2.4" fill="#DC143C" opacity="0.11"/>
<rect x="49.2" y="831.3" width="22.0" height="22.0" fill="#DC143C" opacity="0.15" transform="rotate(42 49 831)"/>
<rect x="508.3" y="612.9" width="8.8" height="8.8" fill="#DC143C" opacity="0.24" transform="rotate(36 508 613)"/>
<rect x="286.4" y="303.5" width="23.6" height="23.6" fill="#7ec1dc" opacity="0.16" transform="rotate(27 286 303)"/>
<rect x="566.1" y="188.3" width="16.8" height="16.8" fill="#95d3ed" opacity="0.08" transform="rotate(9 566 188)"/>
<rect x="730.6" y="518.2" width="23.6" height="23.6" fill="#94d3ed" opacity="0.21" transform="rotate(3 731 518)"/>
<circle cx="389.9" cy="396.9" r="1.7" fill="#DC143C" opacity="0.17"/>
<circle cx="403.1" cy="573.5" r="3.8" fill="#74b1ca" opacity="0.18"/>
<circle cx="834.1" cy="487.4" r="8.0" fill="#DC143C" opacity="0.06"/>
<circle cx="526.5" cy="400.5" r="8.9" fill="#DC143C" opacity="0.05"/>
<circle cx="1042.1" cy="566.8" r="11.7" fill="#8ed0ec" opacity="0.12"/>
<circle cx="1171.8" cy="759.0" r="8.5" fill="#8ed0ec" opacity="0.07"/>
<rect x="174.7" y="142.9" width="15.8" height="15.8" fill="#95d3ed" opacity="0.07" transform="rotate(26 175 143)"/>
<circle cx="372.7" cy="398.2" r="8.8" fill="#92d2ec" opacity="0.12"/>
<rect x="1023.8" y="388.5" width="15.4" height="15.4" fill="#DC143C" opacity="0.06" transform="rotate(31 1024 389)"/>
<rect x="476.5" y="54.3" width="5.6" height="5.6" fill="#7cbdd7" opacity="0.22" transform="rotate(34 476 54)"/>
<circle cx="743.4" cy="287.1" r="11.1" fill="#7abbd5" opacity="0.16"/>
<rect x="450.7" y="814.4" width="17.2" height="17.2" fill="#73b0c9" opacity="0.12" transform="rotate(2 451 814)"/>
<rect x="765.9" y="384.6" width="15.4" height="15.4" fill="#92d2ec" opacity="0.20" transform="rotate(18 766 385)"/>
<circle cx="67.8" cy="354.7" r="5.1" fill="#79b8d2" opacity="0.09"/>
<circle cx="80.3" cy="412.3" r="6.9" fill="#79b9d3" opacity="0.18"/>
<rect x="273.8" y="749.3" width="11.9" height="11.9" fill="#DC143C" opacity="0.09" transform="rotate(11 274 749)"/>
<rect x="496.2" y="110.7" width="18.1" height="18.1" fill="#78b7d1" opacity="0.21" transform="rotate(44 496 111)"/>
<rect x="678.7" y="88.0" width="9.3" height="9.3" fill="#78b7d1" opacity="0.06" transform="rotate(41 679 88)"/>
<rect x="268.2" y="886.0" width="12.5" height="12.5" fill="#DC143C" opacity="0.16" transform="rotate(39 268 886)"/>
<circle cx="828.6" cy="147.7" r="10.4" fill="#DC143C" opacity="0.08"/>
<circle cx="199.5" cy="306.4" r="7.0" fill="#7fc2dd" opacity="0.18"/>
<circle cx="1170.6" cy="858.2" r="8.9" fill="#78b8d1" opacity="0.22"/>
<rect x="541.3" y="392.3" width="7.7" height="7.7" fill="#93d2ed" opacity="0.06" transform="rotate(14 541 392)"/>
<circle cx="616.5" cy="518.5" r="2.0" fill="#92d2ec" opacity="0.11"/>
<rect x="97.0" y="612.3" width="4.9" height="4.9" fill="#8ed0ec" opacity="0.24" transform="rotate(1 97 612)"/>
<rect x="766.7" y="213.2" width="17.2" height="17.2" fill="#92d2ec" opacity="0.06" transform="rotate(1 767 213)"/>
<rect x="110.2" y="778.7" width="6.1" height="6.1" fill="#DC143C" opacity="0.06" transform="rotate(18 110 779)"/>
<circle cx="629.4" cy="453.5" r="7.3" fill="#7abad5" opacity="0.11"/>
<rect x="221.0" y="177.7" width="7.3" height="7.3" fill="#90d1ec" opacity="0.13" transform="rotate(44 221 178)"/>
<rect x="89.4" y="880.6" width="14.9" height="14.9" fill="#74b1ca" opacity="0.07" transform="rotate(12 89 881)"/>
<circle cx="56.9" cy="67.4" r="3.1" fill="#74b2cb" opacity="0.07"/>
<rect x="476.0" y="114.3" width="11.9" height="11.9" fill="#79b9d3" opacity="0.10" transform="rotate(22 476 114)"/>
<circle cx="672.6" cy="242.2" r="3.9" fill="#DC143C" opacity="0.11"/>
<rect x="1157.5" y="239.3" width="5.1" height="5.1" fill="#DC143C" opacity="0.22" transform="rotate(16 1157 239)"/>
<rect x="1117.4" y="429.2" width="19.4" height="19.4" fill="#DC143C" opacity="0.20" transform="rotate(0 1117 429)"/>
<circle cx="1087.9" cy="434.5" r="4.1" fill="#8ed1ec" opacity="0.09"/>
<rect x="663.4" y="357.9" width="20.0" height="20.0" fill="#96d4ed" opacity="0.07" transform="rotate(11 663 358)"/>
<circle cx="54.7" cy="851.7" r="4.3" fill="#75b3cc" opacity="0.07"/>
<rect x="891.9" y="427.3" width="17.4" height="17.4" fill="#DC143C" opacity="0.20" transform="rotate(32 892 427)"/>
<circle cx="1116.0" cy="233.6" r="11.2" fill="#97d4ed" opacity="0.22"/>
<rect x="369.4" y="121.1" width="5.0" height="5.0" fill="#94d3ed" opacity="0.12" transform="rotate(2 369 121)"/>
<circle cx="353.3" cy="336.7" r="11.4" fill="#79b9d4" opacity="0.09"/>
<circle cx="183.9" cy="393.0" r="1.9" fill="#DC143C" opacity="0.05"/>
<circle cx="457.9" cy="108.4" r="4.7" fill="#DC143C" opacity="0.12"/>
<circle cx="387.7" cy="244.1" r="2.3" fill="#DC143C" opacity="0.08"/>
<rect x="1164.8" y="540.3" width="14.3" height="14.3" fill="#95d3ed" opacity="0.16" transform="rotate(34 1165 540)"/>
<circle cx="1185.0" cy="213.2" r="10.4" fill="#8fd1ec" opacity="0.11"/>
<circle cx="535.1" cy="513.7" r="11.0" fill="#96d4ed" opacity="0.14"/>
<rect x="342.1" y="699.8" width="4.7" height="4.7" fill="#75b2cc" opacity="0.10" transform="rotate(24 342 700)"/>
<rect x="1102.8" y="63.1" width="16.6" height="16.6" fill="#DC143C" opacity="0.07" transform="rotate(6 1103 63)"/>
<circle cx="1065.1" cy="762.9" r="4.1" fill="#DC143C" opacity="0.20"/>
<circle cx="391.8" cy="19.7" r="10.7" fill="#DC143C" opacity="0.10"/>
<rect x="805.8" y="757.2" width="16.5" height="16.5" fill="#96d4ed" opacity="0.12" transform="rotate(29 806 757)"/>
<circle cx="371.1" cy="763.8" r="1.6" fill="#73b0c9" opacity="0.16"/>
<rect x="783.9" y="887.7" width="24.8" height="24.8" fill="#DC143C" opacity="0.12" transform="rotate(20 784 888)"/>
<rect x="440.4" y="418.4" width="9.1" height="9.1" fill="#73b0c9" opacity="0.23" transform="rotate(45 440 418)"/>
<rect x="962.3" y="682.8" width="4.1" height="4.1" fill="#76b4ce" opacity="0.08" transform="rotate(42 962 683)"/>
<rect x="398.6" y="368.3" width="10.8" height="10.8" fill="#8dd0ec" opacity="0.25" transform="rotate(2 399 368)"/>
<circle cx="1143.3" cy="685.4" r="5.8" fill="#91d2ec" opacity="0.18"/>
<circle cx="826.4" cy="231.9" r="6.7" fill="#DC143C" opacity="0.23"/>
<circle cx="1051.2" cy="780.2" r="6.2" fill="#7ec1dc" opacity="0.10"/>
<rect x="751.6" y="606.6" width="16.7" height="16.7" fill="#7abbd5" opacity="0.20" transform="rotate(31 752 607)"/>
<rect x="560.8" y="150.1" width="7.0" height="7.0" fill="#DC143C" opacity="0.18" transform="rotate(22 561 150)"/>
<rect x="460.4" y="377.0" width="9.5" height="9.5" fill="#97d4ed" opacity="0.12" transform="rotate(1 460 377)"/>
<rect x="435.8" y="233.9" width="14.7" height="14.7" fill="#96d4ed" opacity="0.22" transform="rotate(39 436 234)"/>
<rect x="21.2" y="619.3" width="23.0" height="23.0" fill="#97d4ed" opacity="0.13" transform="rotate(35 21 619)"/>
<circle cx="1011.4" cy="730.9" r="6.2" fill="#DC143C" opacity="0.09"/>
<circle cx="1182.6" cy="294.8" r="8.7" fill="#DC143C" opacity="0.21"/>
<rect x="113.3" y="464.8" width="13.9" height="13.9" fill="#7ec0db" opacity="0.08" transform="rotate(13 113 465)"/>
<circle cx="743.3" cy="365.4" r="6.5" fill="#8fd1ec" opacity="0.24"/>
<rect x="851.4" y="479.3" width="17.6" height="17.6" fill="#93d3ed" opacity="0.07" transform="rotate(35 851 479)"/>
<circle cx="46.6" cy="897.5" r="7.5" fill="#92d2ec" opacity="0.18"/>
<circle cx="1115.1" cy="315.9" r="6.3" fill="#93d3ed" opacity="0.20"/>
<circle cx="161.1" cy="170.2" r="10.8" fill="#7abad5" opacity="0.21"/>
<rect x="971.5" y="411.0" width="5.9" height="5.9" fill="#DC143C" opacity="0.07" transform="rotate(33 972 411)"/>
<circle cx="183.8" cy="868.1" r="12.3" fill="#97d4ed" opacity="0.13"/>
<rect x="911.6" y="315.4" width="6.8" height="6.8" fill="#DC143C" opacity="0.13" transform="rotate(5 912 315)"/>
<rect x="804.3" y="657.3" width="4.1" height="4.1" fill="#75b3cc" opacity="0.23" transform="rotate(23 804 657)"/>
<circle cx="1036.3" cy="220.5" r="9.7" fill="#8dd0ec" opacity="0.08"/>
<circle cx="1037.5" cy="30.8" r="7.2" fill="#DC143C" opacity="0.22"/>
<circle cx="427.7" cy="290.7" r="6.4" fill="#8fd1ec" opacity="0.07"/>
<circle cx="65.8" cy="464.6" r="2.3" fill="#DC143C" opacity="0.19"/>
<rect x="354.8" y="598.0" width="21.5" height="21.5" fill="#96d4ed" opacity="0.12" transform="rotate(8 355 598)"/>
<circle cx="491.5" cy="185.4" r="1.7" fill="#76b4ce" opacity="0.08"/>
<rect x="891.9" y="631.0" width="12.8" height="12.8" fill="#DC143C" opacity="0.07" transform="rotate(25 892 631)"/>
<circle cx="389.8" cy="542.3" r="2.4" fill="#DC143C" opacity="0.12"/>
<circle cx="747.8" cy="513.6" r="9.3" fill="#DC143C" opacity="0.07"/>
<rect x="128.0" y="451.1" width="19.9" height="19.9" fill="#7ec0dc" opacity="0.13" transform="rotate(8 128 451)"/>
<rect x="9.5" y="385.1" width="22.8" height="22.8" fill="#7dbfda" opacity="0.19" transform="rotate(16 10 385)"/>
<rect x="44.9" y="800.9" width="21.3" height="21.3" fill="#92d2ec" opacity="0.10" transform="rotate(38 45 801)"/>
<circle cx="1127.3" cy="36.9" r="3.9" fill="#8dd0ec" opacity="0.08"/>
<circle cx="411.2" cy="732.7" r="6.1" fill="#7ec0db" opacity="0.24"/>
<rect x="1014.6" y="753.4" width="9.1" height="9.1" fill="#DC143C" opacity="0.25" transform="rotate(39 1015 753)"/>
<rect x="891.6" y="54.0" width="22.2" height="22.2" fill="#94d3ed" opacity="0.18" transform="rotate(39 892 54)"/>
<rect x="172.3" y="799.4" width="18.3" height="18.3" fill="#78b7d0" opacity="0.24" transform="rotate(21 172 799)"/>
<rect x="961.6" y="252.8" width="22.7" height="22.7" fill="#7bbbd6" opacity="0.18" transform="rotate(0 962 253)"/>
<rect x="690.6" y="441.2" width="9.0" height="9.0" fill="#DC143C" opacity="0.16" transform="rotate(38 691 441)"/>
<circle cx="244.8" cy="100.7" r="10.9" fill="#7cbed8" opacity="0.18"/>
<rect x="566.9" y="868.7" width="6.0" height="6.0" fill="#96d4ed" opacity="0.17" transform="rotate(1 567 869)"/>
<rect x="108.8" y="741.2" width="8.0" height="8.0" fill="#90d1ec" opacity="0.18" transform="rotate(40 109 741)"/>
<circle cx="760.7" cy="117.9" r="9.6" fill="#DC143C" opacity="0.10"/>
<rect x="1029.2" y="722.9" width="15.1" height="15.1" fill="#8ed0ec" opacity="0.08" transform="rotate(21 1029 723)"/>
<circle cx="197.1" cy="489.0" r="9.7" fill="#DC143C" opacity="0.19"/>
<circle cx="973.1" cy="308.2" r="12.3" fill="#76b4cd" opacity="0.21"/>
<rect x="9.3" y="133.9" width="3.1" height="3.1" fill="#DC143C" opacity="0.07" transform="rotate(35 9 134)"/>
<rect x="250.2" y="561.4" width="22.7" height="22.7" fill="#DC143C" opacity="0.15" transform="rotate(15 250 561)"/>
<circle cx="152.2" cy="653.8" r="10.0" fill="#DC143C" opacity="0.05"/>
<circle cx="707" cy="386" r="270" fill="#FFFFFF" opacity="0.08"/>
<defs>
        <radialGradient id="vignette" cx="50%" cy="50%" r="70%">
            <stop offset="0%" stop-color="black" stop-opacity="0"/>
            <stop offset="100%" stop-color="black" stop-opacity="0.25"/>
        </radialGradient>
    </defs>
    <rect width="1200" height="900" fill="url(#vignette)"/>
<text x="30" y="45" text-anchor="start"
        font-family="Arial, Helvetica, sans-serif" font-size="28" font-weight="bold"
        letter-spacing="2" fill="#FFFFFF" opacity="0.25">DR CONGO</text>
<text x="1180" y="880" text-anchor="end"
        font-family="Arial, Helvetica, sans-serif" font-size="14" font-weight="bold"
        letter-spacing="3" fill="#FFFFFF" opacity="0.35">HOOD&apos;D</text>
</svg>