<?xml version="1.0" encoding="UTF-8"?>
<svg xmlns="http://www.w3.org/2000/svg" viewBox="0 0 1200 900" width="1200" height="900">
<rect width="1200" height="900" fill="#0066CC"/>
<path d="M 0,152.56362948716568 L 0,70.0 L 10,83.0 L 20,68.4 L 30,75.0 L 40,94.9 L 50,95.4 L 60,79.3 L 70,84.4 L 80,88.3 L 90,87.2 L 100,100.8 L 110,95.4 L 120,102.2 L 130,97.1 L 140,101.1 L 150,95.6 L 160,99.2 L 170,98.0 L 180,102.1 L 190,99.9 L 200,101.8 L 210,101.9 L 220,100.3 L 230,102.5 L 240,91.6 L 250,94.5 L 260,90.7 L 270,96.7 L 280,82.1 L 290,95.1 L 300,80.7 L 310,93.0 L 320,80.2 L 330,74.1 L 340,82.4 L 350,83.1 L 360,66.8 L 370,76.7 L 380,66.1 L 390,81.7 L 400,54.9 L 410,56.6 L 420,61.3 L 430,62.9 L 440,54.2 L 450,56.6 L 460,50.5 L 470,45.1 L 480,46.4 L 490,57.4 L 500,54.0 L 510,45.0 L 520,44.3 L 530,46.9 L 540,44.2 L 550,44.2 L 560,46.1 L 570,44.2 L 580,48.7 L 590,45.6 L 600,44.2 L 610,47.5 L 620,44.9 L 630,56.5 L 640,49.9 L 650,55.2 L 660,55.9 L 670,49.2 L 680,61.5 L 690,64.7 L 700,57.0 L 710,72.3 L 720,60.3 L 730,75.7 L 740,78.7 L 750,78.3 L 760,82.3 L 770,78.0 L 780,87.4 L 790,80.9 L 800,77.8 L 810,78.3 L 820,95.4 L 830,97.9 L 840,97.5 L 850,89.6 L 860,99.8 L 870,102.5 L 880,98.4 L 890,100.7 L 900,101.2 L 910,101.9 L 920,102.6 L 930,102.4 L 940,101.6 L 950,101.9 L 960,97.5 L 970,100.5 L 980,97.2 L 990,97.0 L 1000,89.5 L 1010,86.1 L 1020,100.1 L 1030,90.5 L 1040,94.7 L 1050,94.9 L 1060,74.6 L 1070,94.1 L 1080,73.9 L 1090,89.7 L 1100,70.7 L 1110,82.6 L 1120,67.2 L 1130,60.3 L 1140,71.9 L 1150,54.9 L 1160,73.2 L 1170,56.3 L 1180,69.0 L 1190,46.9 L 1200,45.3 L 1210,46.2 L 1200,152.56362948716568 Z" fill="#FFFFFF" opacity="0.42"/>
<path d="M 0,300.7232781613872 L 0,210.9 L 10,220.3 L 20,227.0 L 30,224.8 L 40,237.2 L 50,218.9 L 60,240.8 L 70,229.0 L 80,237.2 L 90,242.9 L 100,246.5 L 110,229.9 L 120,240.9 L 130,246.0 L 140,244.3 L 150,235.5 L 160,248.7 L 170,236.4 L 180,250.7 L 190,249.0 L 200,250.6 L 210,250.2 L 220,250.7 L 230,250.2 L 240,250.7 L 250,250.7 L 260,247.7 L 270,250.3 L 280,250.6 L 290,248.0 L 300,250.7 L 310,250.5 L 320,246.5 L 330,242.9 L 340,243.5 L 350,248.4 L 360,234.7 L 370,250.2 L 380,249.3 L 390,236.5 L 400,248.4 L 410,241.3 L 420,235.8 L 430,230.4 L 440,224.1 L 450,220.5 L 460,231.2 L 470,234.6 L 480,228.1 L 490,217.5 L 500,216.4 L 510,214.2 L 520,231.4 L 530,205.1 L 540,231.0 L 550,227.8 L 560,219.9 L 570,211.5 L 580,201.2 L 590,201.0 L 600,220.0 L 610,216.5 L 620,199.6 L 630,198.4 L 640,212.4 L 650,192.8 L 660,193.1 L 670,200.5 L 680,191.9 L 690,196.3 L 700,191.4 L 710,202.2 L 720,200.4 L 730,195.2 L 740,191.5 L 750,191.6 L 760,193.1 L 770,192.3 L 780,194.4 L 790,194.0 L 800,192.5 L 810,191.9 L 820,193.8 L 830,200.4 L 840,196.8 L 850,191.7 L 860,193.5 L 870,203.0 L 880,195.3 L 890,191.8 L 900,206.5 L 910,193.4 L 920,212.7 L 930,199.3 L 940,216.0 L 950,207.2 L 960,208.2 L 970,206.0 L 980,213.1 L 990,213.2 L 1000,216.2 L 1010,205.9 L 1020,209.9 L 1030,209.5 L 1040,227.5 L 1050,231.9 L 1060,215.7 L 1070,214.2 L 1080,215.8 L 1090,241.8 L 1100,239.2 L 1110,230.8 L 1120,243.1 L 1130,243.8 L 1140,244.9 L 1150,236.0 L 1160,243.7 L 1170,243.5 L 1180,249.2 L 1190,234.0 L 1200,236.8 L 1210,249.6 L 1200,300.7232781613872 Z" fill="#ffdf33" opacity="0.33"/>
<path d="M 0,377.16594925280674 L 0,295.5 L 10,314.2 L 20,312.6 L 30,300.6 L 40,306.5 L 50,315.4 L 60,312.8 L 70,303.8 L 80,320.2 L 90,317.8 L 100,307.7 L 110,317.7 L 120,315.9 L 130,316.9 L 140,326.7 L 150,322.5 L 160,324.4 L 170,326.8 L 180,327.1 L 190,326.2 L 200,324.5 L 210,325.1 L 220,327.1 L 230,327.1 L 240,326.2 L 250,323.1 L 260,326.5 L 270,325.2 L 280,327.0 L 290,319.1 L 300,325.7 L 310,326.4 L 320,324.3 L 330,326.1 L 340,317.3 L 350,325.9 L 360,324.0 L 370,314.3 L 380,314.3 L 390,304.6 L 400,303.2 L 410,317.0 L 420,320.5 L 430,308.1 L 440,315.4 L 450,314.7 L 460,312.5 L 470,297.6 L 480,309.5 L 490,307.9 L 500,289.7 L 510,286.3 L 520,296.4 L 530,285.5 L 540,290.9 L 550,289.9 L 560,291.2 L 570,281.3 L 580,294.7 L 590,280.7 L 600,292.9 L 610,280.4 L 620,289.3 L 630,280.5 L 640,280.2 L 650,283.7 L 660,278.2 L 670,278.3 L 680,279.1 L 690,282.0 L 700,278.2 L 710,279.9 L 720,278.2 L 730,278.6 L 740,281.6 L 750,283.8 L 760,279.7 L 770,282.8 L 780,280.5 L 790,278.5 L 800,279.6 L 810,290.4 L 820,287.0 L 830,280.7 L 840,282.9 L 850,285.0 L 860,289.2 L 870,296.8 L 880,295.6 L 890,287.4 L 900,285.9 L 910,305.1 L 920,289.2 L 930,288.9 L 940,305.6 L 950,306.7 L 960,315.8 L 970,295.8 L 980,302.1 L 990,316.7 L 1000,318.2 L 1010,303.4 L 1020,320.0 L 1030,322.3 L 1040,315.0 L 1050,322.6 L 1060,323.8 L 1070,325.7 L 1080,326.4 L 1090,319.0 L 1100,327.0 L 1110,323.5 L 1120,326.8 L 1130,319.5 L 1140,326.8 L 1150,326.1 L 1160,327.1 L 1170,326.4 L 1180,325.3 L 1190,327.1 L 1200,324.4 L 1210,327.1 L 1200,377.16594925280674 Z" fill="#FFD700" opacity="0.20"/>
<path d="M 0,548.1438588289552 L 0,458.2 L 10,445.4 L 20,474.5 L 30,465.6 L 40,462.6 L 50,457.2 L 60,472.5 L 70,485.5 L 80,473.1 L 90,475.8 L 100,465.0 L 110,485.8 L 120,484.8 L 130,468.8 L 140,469.9 L 150,478.4 L 160,475.6 L 170,496.1 L 180,489.0 L 190,484.3 L 200,498.1 L 210,484.3 L 220,494.0 L 230,497.6 L 240,493.4 L 250,497.1 L 260,497.8 L 270,498.0 L 280,495.2 L 290,496.8 L 300,497.2 L 310,497.3 L 320,496.3 L 330,497.9 L 340,497.8 L 350,496.5 L 360,498.1 L 370,498.1 L 380,496.6 L 390,489.3 L 400,489.5 L 410,493.8 L 420,477.2 L 430,493.3 L 440,494.3 L 450,480.9 L 460,491.9 L 470,481.2 L 480,488.1 L 490,490.1 L 500,477.5 L 510,483.4 L 520,475.7 L 530,467.4 L 540,470.4 L 550,480.5 L 560,459.1 L 570,472.5 L 580,463.1 L 590,439.2 L 600,462.3 L 610,455.4 L 620,434.1 L 630,457.5 L 640,430.9 L 650,443.5 L 660,439.2 L 670,448.4 L 680,431.8 L 690,429.7 L 700,442.9 L 710,428.9 L 720,426.8 L 730,422.7 L 740,432.4 L 750,428.7 L 760,435.2 L 770,418.1 L 780,418.8 L 790,433.2 L 800,417.7 L 810,423.9 L 820,417.9 L 830,421.7 L 840,417.7 L 850,418.6 L 860,419.4 L 870,417.7 L 880,420.9 L 890,418.5 L 900,419.4 L 910,417.8 L 920,419.4 L 930,419.5 L 940,418.9 L 950,422.4 L 960,428.9 L 970,422.7 L 980,421.9 L 990,420.2 L 1000,427.5 L 1010,430.0 L 1020,420.2 L 1030,436.1 L 1040,432.7 L 1050,424.8 L 1060,434.7 L 1070,430.9 L 1080,458.4 L 1090,429.0 L 1100,441.3 L 1110,444.5 L 1120,450.3 L 1130,446.5 L 1140,433.4 L 1150,440.4 L 1160,472.3 L 1170,470.3 L 1180,476.2 L 1190,448.6 L 1200,463.6 L 1210,463.8 L 1200,548.1438588289552 Z" fill="#FFFFFF" opacity="0.33"/>
<path d="M 0,671.6421931379581 L 0,573.3 L 10,562.2 L 20,583.9 L 30,600.1 L 40,600.6 L 50,572.7 L 60,566.7 L 70,575.8 L 80,592.6 L 90,595.5 L 100,601.4 L 110,603.6 L 120,574.8 L 130,599.9 L 140,577.4 L 150,609.5 L 160,614.3 L 170,590.1 L 180,611.9 L 190,611.7 L 200,613.3 L 210,615.9 L 220,606.4 L 230,597.1 L 240,614.8 L 250,621.6 L 260,621.6 L 270,614.2 L 280,610.8 L 290,621.3 L 300,613.8 L 310,620.6 L 320,621.6 L 330,618.7 L 340,619.6 L 350,621.1 L 360,621.4 L 370,620.6 L 380,620.1 L 390,612.6 L 400,621.6 L 410,620.3 L 420,606.5 L 430,606.9 L 440,620.5 L 450,621.5 L 460,620.1 L 470,610.5 L 480,618.0 L 490,620.8 L 500,612.8 L 510,614.1 L 520,590.5 L 530,616.8 L 540,618.2 L 550,610.9 L 560,617.0 L 570,602.8 L 580,583.7 L 590,599.9 L 600,596.6 L 610,576.0 L 620,602.3 L 630,599.8 L 640,591.4 L 650,592.2 L 660,564.0 L 670,581.2 L 680,596.1 L 690,580.3 L 700,579.1 L 710,591.7 L 720,585.6 L 730,577.4 L 740,549.2 L 750,584.0 L 760,541.6 L 770,537.8 L 780,544.3 L 790,533.3 L 800,541.6 L 810,533.7 L 820,557.9 L 830,554.2 L 840,545.5 L 850,532.7 L 860,537.1 L 870,531.9 L 880,526.5 L 890,523.5 L 900,544.1 L 910,526.8 L 920,530.0 L 930,541.1 L 940,538.8 L 950,522.8 L 960,520.8 L 970,521.1 L 980,521.7 L 990,525.6 L 1000,530.3 L 1010,524.9 L 1020,526.1 L 1030,529.3 L 1040,520.8 L 1050,520.7 L 1060,521.5 L 1070,521.1 L 1080,520.7 L 1090,524.9 L 1100,523.4 L 1110,530.3 L 1120,521.2 L 1130,520.9 L 1140,520.8 L 1150,522.7 L 1160,520.7 L 1170,531.8 L 1180,526.6 L 1190,529.4 L 1200,523.9 L 1210,534.4 L 1200,671.6421931379581 Z" fill="#ffdf33" opacity="0.48"/>
<path d="M 0,781.5079943585386 L 0,689.4 L 10,694.1 L 20,690.1 L 30,706.3 L 40,705.0 L 50,696.0 L 60,708.8 L 70,723.1 L 80,704.2 L 90,701.0 L 100,723.0 L 110,707.8 L 120,706.0 L 130,722.3 L 140,715.7 L 150,727.5 L 160,729.3 L 170,728.9 L 180,730.1 L 190,730.7 L 200,727.2 L 210,728.6 L 220,729.8 L 230,731.4 L 240,730.8 L 250,729.2 L 260,725.8 L 270,731.5 L 280,729.7 L 290,730.7 L 300,731.4 L 310,728.9 L 320,731.4 L 330,729.3 L 340,728.2 L 350,730.1 L 360,730.2 L 370,730.7 L 380,731.5 L 390,723.6 L 400,730.9 L 410,730.4 L 420,731.1 L 430,723.7 L 440,721.4 L 450,725.4 L 460,720.5 L 470,717.1 L 480,724.0 L 490,727.1 L 500,723.5 L 510,724.5 L 520,715.5 L 530,725.5 L 540,713.4 L 550,725.1 L 560,697.8 L 570,718.8 L 580,714.8 L 590,716.8 L 600,696.0 L 610,703.3 L 620,695.3 L 630,705.5 L 640,709.0 L 650,687.4 L 660,685.4 L 670,707.1 L 680,688.9 L 690,691.8 L 700,686.4 L 710,682.6 L 720,688.2 L 730,684.9 L 740,681.6 L 750,692.3 L 760,678.0 L 770,678.5 L 780,678.2 L 790,675.2 L 800,680.6 L 810,677.6 L 820,687.4 L 830,674.0 L 840,683.9 L 850,677.7 L 860,680.3 L 870,673.2 L 880,681.0 L 890,675.5 L 900,671.6 L 910,671.6 L 920,671.9 L 930,672.9 L 940,671.6 L 950,671.8 L 960,673.3 L 970,671.6 L 980,675.1 L 990,672.4 L 1000,671.8 L 1010,680.1 L 1020,673.6 L 1030,671.6 L 1040,673.0 L 1050,671.6 L 1060,671.8 L 1070,683.5 L 1080,674.6 L 1090,673.6 L 1100,677.0 L 1110,677.5 L 1120,675.9 L 1130,679.0 L 1140,694.6 L 1150,681.5 L 1160,679.9 L 1170,699.8 L 1180,691.7 L 1190,680.8 L 1200,688.1 L 1210,686.4 L 1200,781.5079943585386 Z" fill="#ffdf33" opacity="0.45"/>
<path d="M 0,927.9203256510905 L 0,831.6 L 10,842.0 L 20,830.9 L 30,846.5 L 40,834.4 L 50,831.1 L 60,833.2 L 70,829.4 L 80,839.3 L 90,832.5 L 100,864.9 L 110,861.3 L 120,857.6 L 130,871.9 L 140,865.7 L 150,872.3 L 160,870.2 L 170,863.6 L 180,876.4 L 190,874.9 L 200,877.2 L 210,864.9 L 220,877.8 L 230,877.4 L 240,874.1 L 250,877.7 L 260,876.1 L 270,873.1 L 280,871.2 L 290,872.9 L 300,875.5 L 310,876.8 L 320,876.9 L 330,877.8 L 340,872.6 L 350,872.3 L 360,877.9 L 370,877.3 L 380,877.4 L 390,873.1 L 400,876.6 L 410,873.0 L 420,876.2 L 430,860.3 L 440,873.5 L 450,859.6 L 460,860.5 L 470,862.7 L 480,867.7 L 490,866.1 L 500,873.0 L 510,854.6 L 520,871.2 L 530,857.4 L 540,859.6 L 550,855.1 L 560,846.9 L 570,862.5 L 580,848.5 L 590,857.8 L 600,845.5 L 610,842.8 L 620,823.4 L 630,853.2 L 640,854.4 L 650,852.4 L 660,840.0 L 670,818.3 L 680,812.7 L 690,829.5 L 700,844.7 L 710,828.4 L 720,814.0 L 730,839.0 L 740,807.3 L 750,801.1 L 760,815.2 L 770,831.1 L 780,821.7 L 790,813.4 L 800,801.8 L 810,800.9 L 820,797.1 L 830,792.1 L 840,792.2 L 850,792.7 L 860,797.1 L 870,791.0 L 880,809.8 L 890,803.9 L 900,797.9 L 910,790.8 L 920,791.3 L 930,790.6 L 940,791.2 L 950,792.0 L 960,793.7 L 970,791.2 L 980,792.2 L 990,792.6 L 1000,794.7 L 1010,790.8 L 1020,790.9 L 1030,794.6 L 1040,790.7 L 1050,802.7 L 1060,793.0 L 1070,799.9 L 1080,800.3 L 1090,808.5 L 1100,799.2 L 1110,809.9 L 1120,797.3 L 1130,802.6 L 1140,805.1 L 1150,820.2 L 1160,820.8 L 1170,795.5 L 1180,803.9 L 1190,818.7 L 1200,804.0 L 1210,823.8 L 1200,927.9203256510905 Z" fill="#FFFFFF" opacity="0.37"/>
<path d="M 0,0 L 0,60 L 0,40.0 L 8,41.3 L 16,42.5 L 24,43.7 L 32,45.0 L 40,46.2 L 48,47.4 L 56,48.5 L 64,49.6 L 72,50.7 L 80,51.8 L 88,52.7 L 96,53.7 L 104,54.6 L 112,55.4 L 120,56.2 L 128,56.9 L 136,57.5 L 144,58.1 L 152,58.6 L 160,59.0 L 168,59.4 L 176,59.6 L 184,59.8 L 192,60.0 L 200,60.0 L 208,60.0 L 216,59.8 L 224,59.6 L 232,59.4 L 240,59.0 L 248,58.6 L 256,58.1 L 264,57.5 L 272,56.9 L 280,56.2 L 288,55.4 L 296,54.6 L 304,53.7 L 312,52.7 L 320,51.8 L 328,50.7 L 336,49.6 L 344,48.5 L 352,47.4 L 360,46.2 L 368,45.0 L 376,43.7 L 384,42.5 L 392,41.3 L 400,40.0 L 408,38.7 L 416,37.5 L 424,36.3 L 432,35.0 L 440,33.8 L 448,32.6 L 456,31.5 L 464,30.4 L 472,29.3 L 480,28.2 L 488,27.3 L 496,26.3 L 504,25.4 L 512,24.6 L 520,23.8 L 528,23.1 L 536,22.5 L 544,21.9 L 552,21.4 L 560,21.0 L 568,20.6 L 576,20.4 L 584,20.2 L 592,20.0 L 600,20.0 L 608,20.0 L 616,20.2 L 624,20.4 L 632,20.6 L 640,21.0 L 648,21.4 L 656,21.9 L 664,22.5 L 672,23.1 L 680,23.8 L 688,24.6 L 696,25.4 L 704,26.3 L 712,27.3 L 720,28.2 L 728,29.3 L 736,30.4 L 744,31.5 L 752,32.6 L 760,33.8 L 768,35.0 L 776,36.3 L 784,37.5 L 792,38.7 L 800,40.0 L 808,41.3 L 816,42.5 L 824,43.7 L 832,45.0 L 840,46.2 L 848,47.4 L 856,48.5 L 864,49.6 L 872,50.7 L 880,51.8 L 888,52.7 L 896,53.7 L 904,54.6 L 912,55.4 L 920,56.2 L 928,56.9 L 936,57.5 L 944,58.1 L 952,58.6 L 960,59.0 L 968,59.4 L 976,59.6 L 984,59.8 L 992,60.0 L 1000,60.0 L 1008,60.0 L 1016,59.8 L 1024,59.6 L 1032,59.4 L 1040,59.0 L 1048,58.6 L 1056,58.1 L 1064,57.5 L 1072,56.9 L 1080,56.2 L 1088,55.4 L 1096,54.6 L 1104,53.7 L 1112,52.7 L 1120,51.8 L 1128,50.7 L 1136,49.6 L 1144,48.5 L 1152,47.4 L 1160,46.2 L 1168,45.0 L 1176,43.7 L 1184,42.5 L 1192,41.3 L 1200,40.0 L 1208,38.7 L 1216,37.5 L 1200,0 Z" fill="#FFFFFF" opacity="0.3"/>
<defs>
        <radialGradient id="vignette" cx="50%" cy="50%" r="70%">
            <stop offset="0%" stop-color="black" stop-opacity="0"/>
            <stop offset="100%" stop-color="black" stop-opacity="0.25"/>
        </radialGradient>
    </defs>
    <rect width="1200" height="900" fill="url(#vignette)"/>
<text x="30" y="45" text-anchor="start"
        font-family="Arial, Helvetica, sans-serif" font-size="28" font-weight="bold"
        letter-spacing="2" fill="#FFFFFF" opacity="0.25">CURAÇAO</text>
<text x="1180" y="880" text-anchor="end"
        font-family="Arial, Helvetica, sans-serif" font-size="14" font-weight="bold"
        letter-spacing="3" fill="#FFFFFF" opacity="0.35">HOOD&apos;D</text>
</svg>