<?xml version="1.0" encoding="UTF-8"?>
<svg xmlns="http://www.w3.org/2000/svg" viewBox="0 0 1200 900" width="1200" height="900">
<rect width="1200" height="900" fill="#C60B1E"/>
<rect x="1094" y="54" width="382" height="241" fill="#C0C0C0" opacity="0.33" rx="18" transform="rotate(21 1285 174)"/>
<rect x="1036" y="111" width="258" height="276" fill="#cb2334" opacity="0.10" rx="17" transform="rotate(14 1165 249)"/>
<circle cx="184" cy="160" r="299" fill="#C0C0C0" opacity="0.25"/>
<circle cx="51" cy="777" r="96" fill="#C0C0C0" opacity="0.17"/>
<circle cx="122" cy="865" r="87" fill="#cb2334" opacity="0.25"/>
<ellipse cx="177" cy="829" rx="308" ry="170" fill="#FFFFFF" opacity="0.08" transform="rotate(0 177 829)"/>
<line x1="601" y1="643" x2="595" y2="503" stroke="#FFFFFF" stroke-width="4.9" opacity="0.15"/>
<line x1="1041" y1="565" x2="621" y2="646" stroke="#FFFFFF" stroke-width="4.8" opacity="0.33"/>
<line x1="287" y1="352" x2="103" y2="353" stroke="#FFFFFF" stroke-width="2.5" opacity="0.26"/>
<line x1="973" y1="315" x2="1003" y2="598" stroke="#FFFFFF" stroke-width="2.3" opacity="0.34"/>
<defs>
        <radialGradient id="vignette" cx="50%" cy="50%" r="70%">
            <stop offset="0%" stop-color="black" stop-opacity="0"/>
            <stop offset="100%" stop-color="black" stop-opacity="0.25"/>
        </radialGradient>
    </defs>
    <rect width="1200" height="900" fill="url(#vignette)"/>
<text x="30" y="45" text-anchor="start"
        font-family="Arial, Helvetica, sans-serif" font-size="28" font-weight="bold"
        letter-spacing="2" fill="#FFFFFF" opacity="0.25">CZECHIA</text>
<text x="1180" y="880" text-anchor="end"
        font-family="Arial, Helvetica, sans-serif" font-size="14" font-weight="bold"
        letter-spacing="3" fill="#FFFFFF" opacity="0.35">HOOD&apos;D</text>
</svg>