<?xml version="1.0" encoding="UTF-8"?>
<svg xmlns="http://www.w3.org/2000/svg" viewBox="0 0 1200 900" width="1200" height="900">
<rect width="1200" height="900" fill="#0D2B5E"/>
<polygon points="702.5,221.4 637.5,201.1 687.6,154.9" fill="#FFFFFF" opacity="0.22"/>
<polygon points="180.8,467.5 84.7,368.1 218.8,334.6" fill="#314a76" opacity="0.14"/>
<polygon points="90.5,523.1 37.0,442.5 133.5,436.5" fill="#92D050" opacity="0.27"/>
<polygon points="375.7,324.3 411.1,369.0 354.7,377.3" fill="#FFFFFF" opacity="0.22"/>
<polygon points="206.2,444.6 216.9,518.6 147.5,490.9" fill="#92D050" opacity="0.38"/>
<polygon points="1064.5,711.4 1071.8,564.4 1195.4,644.2" fill="#314a76" opacity="0.32"/>
<polygon points="470.8,53.8 434.3,12.7 488.1,1.7" fill="#FFFFFF" opacity="0.20"/>
<polygon points="383.8,864.0 280.2,780.4 404.4,732.5" fill="#314a76" opacity="0.38"/>
<polygon points="1020.8,264.7 1138.6,285.4 1061.8,377.1" fill="#314a76" opacity="0.16"/>
<polygon points="87.2,296.4 148.0,316.2 100.4,358.9" fill="#314a76" opacity="0.24"/>
<polygon points="764.0,790.4 781.5,672.2 875.2,746.5" fill="#FFFFFF" opacity="0.33"/>
<polygon points="262.6,826.8 364.7,791.1 344.5,897.4" fill="#92D050" opacity="0.28"/>
<polygon points="635.7,766.6 522.9,743.3 599.5,657.3" fill="#92D050" opacity="0.30"/>
<polygon points="922.0,120.7 997.6,62.4 1010.3,157.0" fill="#FFFFFF" opacity="0.32"/>
<polygon points="202.4,510.1 123.6,562.5 117.6,468.1" fill="#FFFFFF" opacity="0.24"/>
<polygon points="407.9,602.0 508.5,741.9 337.0,759.0" fill="#FFFFFF" opacity="0.28"/>
<polygon points="860.4,180.3 768.2,278.0 729.7,149.4" fill="#314a76" opacity="0.44"/>
<polygon points="781.7,762.6 847.3,617.7 940.0,746.9" fill="#92D050" opacity="0.18"/>
<polygon points="1035.6,856.9 1177.6,846.5 1115.6,974.7" fill="#314a76" opacity="0.26"/>
<polygon points="727.0,104.9 767.6,-35.2 868.6,70.0" fill="#FFFFFF" opacity="0.15"/>
<polygon points="84.5,377.0 27.2,417.2 21.1,347.5" fill="#FFFFFF" opacity="0.27"/>
<defs>
        <radialGradient id="vignette" cx="50%" cy="50%" r="70%">
            <stop offset="0%" stop-color="black" stop-opacity="0"/>
            <stop offset="100%" stop-color="black" stop-opacity="0.25"/>
        </radialGradient>
    </defs>
    <rect width="1200" height="900" fill="url(#vignette)"/>
<text x="30" y="45" text-anchor="start"
        font-family="Arial, Helvetica, sans-serif" font-size="28" font-weight="bold"
        letter-spacing="2" fill="#b2de84" opacity="0.25">GERMANY</text>
<text x="1180" y="880" text-anchor="end"
        font-family="Arial, Helvetica, sans-serif" font-size="14" font-weight="bold"
        letter-spacing="3" fill="#b2de84" opacity="0.35">HOOD&apos;D</text>
</svg>