<?xml version="1.0" encoding="UTF-8"?>
<svg xmlns="http://www.w3.org/2000/svg" viewBox="0 0 1200 900" width="1200" height="900">
<rect width="1200" height="900" fill="#F5F5DC"/>
<path d="M 0,140.54058555237114 L 0,56.9 L 10,29.5 L 20,34.9 L 30,33.9 L 40,64.3 L 50,52.9 L 60,69.4 L 70,60.7 L 80,71.8 L 90,74.9 L 100,86.4 L 110,89.8 L 120,79.7 L 130,87.9 L 140,89.1 L 150,87.8 L 160,88.7 L 170,90.3 L 180,79.3 L 190,90.4 L 200,88.9 L 210,88.7 L 220,65.3 L 230,53.1 L 240,71.9 L 250,82.2 L 260,67.5 L 270,68.0 L 280,34.5 L 290,32.9 L 300,29.1 L 310,41.1 L 320,41.2 L 330,37.9 L 340,30.6 L 350,19.4 L 360,19.2 L 370,8.0 L 380,17.7 L 390,8.7 L 400,-9.2 L 410,-2.5 L 420,-10.3 L 430,-10.8 L 440,-5.3 L 450,-7.3 L 460,-4.3 L 470,-9.8 L 480,-5.0 L 490,-8.6 L 500,-6.2 L 510,2.4 L 520,6.2 L 530,23.8 L 540,-1.2 L 550,19.5 L 560,3.0 L 570,31.4 L 580,43.3 L 590,29.4 L 600,59.1 L 610,56.6 L 620,39.6 L 630,60.5 L 640,53.6 L 650,65.7 L 660,69.9 L 670,65.5 L 680,85.6 L 690,76.6 L 700,86.2 L 710,90.5 L 720,80.7 L 730,88.7 L 740,89.6 L 750,89.8 L 760,90.0 L 770,90.5 L 780,90.5 L 790,90.5 L 800,73.6 L 810,88.5 L 820,67.8 L 830,81.8 L 840,73.3 L 850,84.1 L 860,64.2 L 870,39.6 L 880,71.5 L 890,29.8 L 900,43.5 L 910,45.1 L 920,52.2 L 930,25.1 L 940,34.8 L 950,16.7 L 960,5.7 L 970,22.3 L 980,3.4 L 990,1.7 L 1000,-9.3 L 1010,-0.2 L 1020,-10.7 L 1030,0.1 L 1040,-0.9 L 1050,-10.2 L 1060,-7.4 L 1070,-5.6 L 1080,-5.0 L 1090,-0.6 L 1100,-6.6 L 1110,3.4 L 1120,5.1 L 1130,-4.2 L 1140,0.0 L 1150,-3.1 L 1160,1.3 L 1170,37.0 L 1180,44.5 L 1190,42.3 L 1200,16.0 L 1210,44.0 L 1200,140.54058555237114 Z" fill="#a26a42" opacity="0.17"/>
<path d="M 0,281.4450124445357 L 0,173.1 L 10,172.5 L 20,187.4 L 30,177.3 L 40,188.0 L 50,219.8 L 60,217.9 L 70,202.6 L 80,225.3 L 90,222.9 L 100,220.6 L 110,216.7 L 120,227.3 L 130,226.2 L 140,230.8 L 150,215.4 L 160,223.1 L 170,225.3 L 180,229.6 L 190,231.3 L 200,228.9 L 210,230.9 L 220,231.1 L 230,223.7 L 240,231.3 L 250,231.4 L 260,231.4 L 270,214.5 L 280,227.6 L 290,228.5 L 300,214.8 L 310,224.3 L 320,214.6 L 330,216.5 L 340,215.0 L 350,191.7 L 360,215.0 L 370,191.4 L 380,198.4 L 390,173.2 L 400,206.1 L 410,172.2 L 420,193.2 L 430,198.1 L 440,191.4 L 450,190.2 L 460,183.5 L 470,173.9 L 480,168.0 L 490,164.8 L 500,159.4 L 510,168.3 L 520,156.3 L 530,152.9 L 540,156.0 L 550,142.7 L 560,142.3 L 570,142.0 L 580,141.8 L 590,143.6 L 600,144.5 L 610,141.6 L 620,142.3 L 630,141.6 L 640,153.7 L 650,156.8 L 660,148.4 L 670,141.6 L 680,147.8 L 690,167.9 L 700,145.0 L 710,176.0 L 720,151.9 L 730,177.6 L 740,160.8 L 750,163.9 L 760,164.0 L 770,191.3 L 780,192.8 L 790,190.2 L 800,201.6 L 810,182.8 L 820,204.2 L 830,204.4 L 840,206.0 L 850,207.3 L 860,209.4 L 870,209.7 L 880,220.7 L 890,227.8 L 900,206.7 L 910,228.2 L 920,218.1 L 930,209.4 L 940,231.2 L 950,231.4 L 960,217.1 L 970,231.2 L 980,230.3 L 990,224.4 L 1000,230.9 L 1010,231.3 L 1020,229.7 L 1030,225.5 L 1040,219.4 L 1050,231.4 L 1060,221.3 L 1070,230.5 L 1080,230.4 L 1090,219.0 L 1100,209.4 L 1110,201.5 L 1120,216.4 L 1130,224.0 L 1140,198.2 L 1150,221.0 L 1160,180.6 L 1170,191.7 L 1180,178.6 L 1190,204.2 L 1200,201.9 L 1210,194.2 L 1200,281.4450124445357 Z" fill="#a26a42" opacity="0.35"/>
<path d="M 0,391.5524375158585 L 0,282.1 L 10,286.5 L 20,322.2 L 30,311.2 L 40,320.0 L 50,298.3 L 60,306.3 L 70,321.2 L 80,335.3 L 90,313.0 L 100,314.0 L 110,322.4 L 120,332.8 L 130,339.9 L 140,330.8 L 150,326.0 L 160,326.8 L 170,341.5 L 180,332.1 L 190,341.0 L 200,341.3 L 210,341.5 L 220,341.0 L 230,332.4 L 240,337.9 L 250,341.1 L 260,333.4 L 270,341.6 L 280,336.4 L 290,338.5 L 300,318.6 L 310,325.8 L 320,335.3 L 330,332.2 L 340,315.6 L 350,310.9 L 360,304.2 L 370,297.5 L 380,321.5 L 390,296.2 L 400,312.7 L 410,313.9 L 420,282.4 L 430,281.2 L 440,281.4 L 450,264.0 L 460,294.3 L 470,266.0 L 480,278.6 L 490,255.7 L 500,248.9 L 510,269.1 L 520,253.9 L 530,268.5 L 540,266.7 L 550,266.7 L 560,243.7 L 570,246.8 L 580,244.6 L 590,251.2 L 600,245.0 L 610,244.2 L 620,248.0 L 630,244.5 L 640,245.4 L 650,254.7 L 660,243.6 L 670,251.0 L 680,243.6 L 690,245.0 L 700,248.5 L 710,246.9 L 720,245.9 L 730,272.8 L 740,278.5 L 750,283.3 L 760,282.1 L 770,259.8 L 780,296.2 L 790,264.2 L 800,272.9 L 810,297.9 L 820,286.8 L 830,297.6 L 840,276.6 L 850,278.2 L 860,285.6 L 870,303.0 L 880,324.1 L 890,299.0 L 900,313.6 L 910,328.6 L 920,320.6 L 930,317.0 L 940,337.1 L 950,339.6 L 960,336.0 L 970,328.0 L 980,336.3 L 990,332.6 L 1000,341.5 L 1010,341.6 L 1020,340.0 L 1030,337.7 L 1040,341.4 L 1050,340.1 L 1060,340.3 L 1070,340.8 L 1080,333.8 L 1090,328.4 L 1100,340.9 L 1110,334.6 L 1120,338.1 L 1130,333.8 L 1140,339.3 L 1150,313.6 L 1160,312.0 L 1170,302.2 L 1180,319.9 L 1190,296.8 L 1200,298.4 L 1210,295.9 L 1200,391.5524375158585 Z" fill="#8B4513" opacity="0.34"/>
<path d="M 0,540.9438121642315 L 0,460.0 L 10,469.5 L 20,470.7 L 30,460.3 L 40,464.3 L 50,476.6 L 60,470.2 L 70,481.9 L 80,468.7 L 90,476.0 L 100,485.3 L 110,485.2 L 120,485.2 L 130,483.9 L 140,487.3 L 150,481.9 L 160,490.9 L 170,489.6 L 180,484.6 L 190,490.6 L 200,486.5 L 210,487.4 L 220,490.7 L 230,490.8 L 240,490.8 L 250,490.5 L 260,489.1 L 270,488.8 L 280,489.6 L 290,490.6 L 300,483.8 L 310,483.1 L 320,471.4 L 330,481.8 L 340,469.7 L 350,473.8 L 360,479.1 L 370,484.7 L 380,482.6 L 390,459.6 L 400,472.1 L 410,457.3 L 420,465.8 L 430,473.1 L 440,466.0 L 450,466.7 L 460,447.7 L 470,450.5 L 480,466.5 L 490,440.8 L 500,453.0 L 510,440.0 L 520,438.9 L 530,451.1 L 540,449.7 L 550,451.3 L 560,439.8 L 570,436.1 L 580,437.7 L 590,444.3 L 600,437.9 L 610,435.9 L 620,437.4 L 630,437.5 L 640,435.9 L 650,437.7 L 660,435.6 L 670,441.0 L 680,435.9 L 690,435.5 L 700,436.8 L 710,439.9 L 720,443.7 L 730,436.7 L 740,449.8 L 750,443.4 L 760,448.9 L 770,439.6 L 780,444.7 L 790,451.9 L 800,456.7 L 810,460.3 L 820,467.4 L 830,447.7 L 840,450.3 L 850,475.1 L 860,462.8 L 870,465.2 L 880,457.7 L 890,464.2 L 900,483.3 L 910,471.8 L 920,476.4 L 930,471.2 L 940,477.8 L 950,477.4 L 960,476.9 L 970,484.3 L 980,490.2 L 990,478.8 L 1000,480.4 L 1010,489.0 L 1020,490.7 L 1030,490.9 L 1040,486.0 L 1050,490.1 L 1060,490.0 L 1070,490.9 L 1080,490.9 L 1090,490.9 L 1100,490.7 L 1110,490.6 L 1120,490.9 L 1130,488.4 L 1140,487.4 L 1150,485.3 L 1160,490.5 L 1170,478.2 L 1180,480.6 L 1190,487.8 L 1200,486.3 L 1210,486.7 L 1200,540.9438121642315 Z" fill="#8B4513" opacity="0.44"/>
<path d="M 0,676.8767232800857 L 0,579.2 L 10,606.4 L 20,589.5 L 30,615.1 L 40,590.3 L 50,603.5 L 60,619.8 L 70,604.3 L 80,625.2 L 90,615.8 L 100,611.8 L 110,622.8 L 120,620.9 L 130,625.9 L 140,626.7 L 150,622.4 L 160,625.4 L 170,622.4 L 180,625.0 L 190,614.0 L 200,626.6 L 210,613.1 L 220,624.1 L 230,601.1 L 240,616.4 L 250,621.3 L 260,597.8 L 270,607.0 L 280,605.2 L 290,603.7 L 300,605.0 L 310,577.1 L 320,578.0 L 330,568.5 L 340,587.5 L 350,560.3 L 360,570.4 L 370,557.4 L 380,575.1 L 390,559.0 L 400,555.1 L 410,553.1 L 420,562.2 L 430,552.8 L 440,561.5 L 450,553.7 L 460,556.3 L 470,554.8 L 480,552.6 L 490,553.0 L 500,552.8 L 510,559.6 L 520,557.5 L 530,566.1 L 540,558.1 L 550,556.5 L 560,583.4 L 570,586.2 L 580,572.0 L 590,576.6 L 600,594.4 L 610,580.9 L 620,577.9 L 630,602.2 L 640,608.2 L 650,585.2 L 660,618.1 L 670,603.1 L 680,620.1 L 690,614.2 L 700,618.1 L 710,626.3 L 720,624.5 L 730,625.7 L 740,625.0 L 750,625.4 L 760,625.8 L 770,625.5 L 780,626.5 L 790,624.5 L 800,626.6 L 810,626.9 L 820,624.7 L 830,626.2 L 840,608.0 L 850,623.8 L 860,611.7 L 870,609.7 L 880,604.6 L 890,601.6 L 900,592.4 L 910,586.9 L 920,602.2 L 930,586.5 L 940,593.8 L 950,577.2 L 960,592.4 L 970,561.8 L 980,576.9 L 990,573.0 L 1000,571.4 L 1010,558.4 L 1020,553.2 L 1030,555.5 L 1040,553.1 L 1050,552.9 L 1060,553.2 L 1070,555.0 L 1080,552.9 L 1090,554.6 L 1100,553.2 L 1110,558.0 L 1120,562.0 L 1130,552.7 L 1140,563.1 L 1150,571.0 L 1160,559.0 L 1170,568.7 L 1180,583.0 L 1190,592.0 L 1200,589.0 L 1210,585.4 L 1200,676.8767232800857 Z" fill="#a26a42" opacity="0.24"/>
<path d="M 0,807.5183790936771 L 0,717.3 L 10,729.6 L 20,694.7 L 30,690.6 L 40,728.1 L 50,708.7 L 60,741.7 L 70,731.1 L 80,730.4 L 90,750.0 L 100,733.0 L 110,720.0 L 120,747.2 L 130,754.5 L 140,756.7 L 150,753.9 L 160,757.5 L 170,752.1 L 180,756.9 L 190,746.2 L 200,755.9 L 210,756.6 L 220,757.5 L 230,754.5 L 240,756.3 L 250,754.4 L 260,757.5 L 270,757.3 L 280,751.8 L 290,757.5 L 300,754.5 L 310,731.6 L 320,756.2 L 330,737.8 L 340,730.5 L 350,753.1 L 360,745.3 L 370,720.1 L 380,719.4 L 390,725.3 L 400,719.5 L 410,717.2 L 420,716.3 L 430,715.7 L 440,708.5 L 450,718.2 L 460,716.1 L 470,707.5 L 480,674.6 L 490,702.3 L 500,690.3 L 510,701.1 L 520,680.2 L 530,674.8 L 540,665.6 L 550,682.9 L 560,662.7 L 570,675.9 L 580,660.8 L 590,654.3 L 600,663.9 L 610,668.0 L 620,658.1 L 630,654.1 L 640,659.7 L 650,658.8 L 660,653.8 L 670,653.6 L 680,656.6 L 690,653.8 L 700,653.9 L 710,659.6 L 720,653.6 L 730,660.8 L 740,655.1 L 750,657.5 L 760,672.7 L 770,661.8 L 780,683.5 L 790,668.2 L 800,657.0 L 810,672.1 L 820,679.4 L 830,668.8 L 840,667.3 L 850,673.7 L 860,665.7 L 870,681.8 L 880,682.0 L 890,707.6 L 900,690.8 L 910,694.8 L 920,695.4 L 930,705.9 L 940,732.4 L 950,722.9 L 960,712.5 L 970,721.7 L 980,716.6 L 990,742.7 L 1000,714.6 L 1010,749.5 L 1020,750.1 L 1030,732.1 L 1040,746.5 L 1050,735.1 L 1060,748.0 L 1070,733.9 L 1080,743.7 L 1090,756.1 L 1100,756.1 L 1110,757.1 L 1120,746.7 L 1130,757.4 L 1140,757.0 L 1150,757.0 L 1160,755.0 L 1170,750.2 L 1180,757.4 L 1190,749.7 L 1200,745.2 L 1210,755.3 L 1200,807.5183790936771 Z" fill="#a26a42" opacity="0.17"/>
<path d="M 0,927.967632774904 L 0,796.9 L 10,834.1 L 20,805.5 L 30,852.6 L 40,858.2 L 50,839.8 L 60,849.7 L 70,845.3 L 80,854.7 L 90,869.5 L 100,877.6 L 110,866.7 L 120,877.9 L 130,869.1 L 140,877.0 L 150,872.5 L 160,876.5 L 170,866.9 L 180,864.5 L 190,865.3 L 200,861.0 L 210,874.9 L 220,875.5 L 230,847.2 L 240,873.8 L 250,864.1 L 260,824.4 L 270,852.1 L 280,843.6 L 290,811.6 L 300,809.0 L 310,810.9 L 320,802.0 L 330,824.6 L 340,782.4 L 350,803.7 L 360,778.6 L 370,771.0 L 380,796.4 L 390,780.9 L 400,774.1 L 410,763.7 L 420,773.2 L 430,782.5 L 440,764.2 L 450,763.0 L 460,765.0 L 470,762.6 L 480,768.4 L 490,765.0 L 500,764.1 L 510,762.7 L 520,770.5 L 530,780.1 L 540,774.1 L 550,779.2 L 560,792.2 L 570,775.8 L 580,790.7 L 590,788.8 L 600,809.7 L 610,824.0 L 620,837.6 L 630,848.9 L 640,819.0 L 650,854.2 L 660,828.3 L 670,855.2 L 680,850.4 L 690,857.5 L 700,873.8 L 710,873.8 L 720,873.5 L 730,874.2 L 740,877.2 L 750,877.6 L 760,870.9 L 770,874.0 L 780,876.7 L 790,874.0 L 800,875.5 L 810,862.2 L 820,871.0 L 830,877.2 L 840,861.0 L 850,867.7 L 860,839.7 L 870,865.1 L 880,858.6 L 890,849.3 L 900,830.6 L 910,824.9 L 920,854.1 L 930,804.0 L 940,835.2 L 950,824.8 L 960,794.7 L 970,782.0 L 980,791.8 L 990,779.7 L 1000,794.3 L 1010,784.5 L 1020,764.5 L 1030,767.8 L 1040,762.7 L 1050,773.1 L 1060,763.0 L 1070,763.0 L 1080,764.0 L 1090,762.6 L 1100,762.6 L 1110,762.6 L 1120,769.3 L 1130,767.5 L 1140,768.3 L 1150,766.4 L 1160,769.0 L 1170,787.5 L 1180,798.1 L 1190,774.5 L 1200,810.9 L 1210,822.9 L 1200,927.967632774904 Z" fill="#8B4513" opacity="0.47"/>
<path d="M 0,0 L 0,60 L 0,40.0 L 8,41.3 L 16,42.5 L 24,43.7 L 32,45.0 L 40,46.2 L 48,47.4 L 56,48.5 L 64,49.6 L 72,50.7 L 80,51.8 L 88,52.7 L 96,53.7 L 104,54.6 L 112,55.4 L 120,56.2 L 128,56.9 L 136,57.5 L 144,58.1 L 152,58.6 L 160,59.0 L 168,59.4 L 176,59.6 L 184,59.8 L 192,60.0 L 200,60.0 L 208,60.0 L 216,59.8 L 224,59.6 L 232,59.4 L 240,59.0 L 248,58.6 L 256,58.1 L 264,57.5 L 272,56.9 L 280,56.2 L 288,55.4 L 296,54.6 L 304,53.7 L 312,52.7 L 320,51.8 L 328,50.7 L 336,49.6 L 344,48.5 L 352,47.4 L 360,46.2 L 368,45.0 L 376,43.7 L 384,42.5 L 392,41.3 L 400,40.0 L 408,38.7 L 416,37.5 L 424,36.3 L 432,35.0 L 440,33.8 L 448,32.6 L 456,31.5 L 464,30.4 L 472,29.3 L 480,28.2 L 488,27.3 L 496,26.3 L 504,25.4 L 512,24.6 L 520,23.8 L 528,23.1 L 536,22.5 L 544,21.9 L 552,21.4 L 560,21.0 L 568,20.6 L 576,20.4 L 584,20.2 L 592,20.0 L 600,20.0 L 608,20.0 L 616,20.2 L 624,20.4 L 632,20.6 L 640,21.0 L 648,21.4 L 656,21.9 L 664,22.5 L 672,23.1 L 680,23.8 L 688,24.6 L 696,25.4 L 704,26.3 L 712,27.3 L 720,28.2 L 728,29.3 L 736,30.4 L 744,31.5 L 752,32.6 L 760,33.8 L 768,35.0 L 776,36.3 L 784,37.5 L 792,38.7 L 800,40.0 L 808,41.3 L 816,42.5 L 824,43.7 L 832,45.0 L 840,46.2 L 848,47.4 L 856,48.5 L 864,49.6 L 872,50.7 L 880,51.8 L 888,52.7 L 896,53.7 L 904,54.6 L 912,55.4 L 920,56.2 L 928,56.9 L 936,57.5 L 944,58.1 L 952,58.6 L 960,59.0 L 968,59.4 L 976,59.6 L 984,59.8 L 992,60.0 L 1000,60.0 L 1008,60.0 L 1016,59.8 L 1024,59.6 L 1032,59.4 L 1040,59.0 L 1048,58.6 L 1056,58.1 L 1064,57.5 L 1072,56.9 L 1080,56.2 L 1088,55.4 L 1096,54.6 L 1104,53.7 L 1112,52.7 L 1120,51.8 L 1128,50.7 L 1136,49.6 L 1144,48.5 L 1152,47.4 L 1160,46.2 L 1168,45.0 L 1176,43.7 L 1184,42.5 L 1192,41.3 L 1200,40.0 L 1208,38.7 L 1216,37.5 L 1200,0 Z" fill="#FFD700" opacity="0.3"/>
<defs>
        <radialGradient id="vignette" cx="50%" cy="50%" r="70%">
            <stop offset="0%" stop-color="black" stop-opacity="0"/>
            <stop offset="100%" stop-color="black" stop-opacity="0.25"/>
        </radialGradient>
    </defs>
    <rect width="1200" height="900" fill="url(#vignette)"/>
<text x="30" y="45" text-anchor="start"
        font-family="Arial, Helvetica, sans-serif" font-size="28" font-weight="bold"
        letter-spacing="2" fill="#FFD700" opacity="0.25">SPAIN</text>
<text x="1180" y="880" text-anchor="end"
        font-family="Arial, Helvetica, sans-serif" font-size="14" font-weight="bold"
        letter-spacing="3" fill="#FFD700" opacity="0.35">HOOD&apos;D</text>
</svg>