<?xml version="1.0" encoding="UTF-8"?>
<svg xmlns="http://www.w3.org/2000/svg" viewBox="0 0 1200 900" width="1200" height="900">
<rect width="1200" height="900" fill="#FFFFFF"/>
<circle cx="645.1" cy="459.5" r="4.1" fill="#002366" opacity="0.07"/>
<rect x="1137.1" y="214.6" width="16.6" height="16.6" fill="#e7e7e7" opacity="0.24" transform="rotate(10 1137 215)"/>
<circle cx="1023.1" cy="391.5" r="1.9" fill="#002366" opacity="0.14"/>
<rect x="1144.8" y="657.6" width="4.5" height="4.5" fill="#e5e5e5" opacity="0.07" transform="rotate(42 1145 658)"/>
<circle cx="279.1" cy="786.8" r="12.5" fill="#002366" opacity="0.19"/>
<rect x="1027.0" y="582.0" width="11.7" height="11.7" fill="#002366" opacity="0.07" transform="rotate(37 1027 582)"/>
<rect x="439.6" y="663.2" width="12.1" height="12.1" fill="#ffffff" opacity="0.22" transform="rotate(16 440 663)"/>
<rect x="346.1" y="322.3" width="19.8" height="19.8" fill="#002366" opacity="0.06" transform="rotate(36 346 322)"/>
<circle cx="981.1" cy="136.2" r="3.0" fill="#ffffff" opacity="0.05"/>
<rect x="860.4" y="501.4" width="18.4" height="18.4" fill="#002366" opacity="0.20" transform="rotate(9 860 501)"/>
<rect x="59.1" y="376.3" width="14.8" height="14.8" fill="#ffffff" opacity="0.05" transform="rotate(29 59 376)"/>
<circle cx="423.0" cy="408.5" r="2.0" fill="#002366" opacity="0.11"/>
<rect x="52.3" y="224.0" width="6.6" height="6.6" fill="#f0f0f0" opacity="0.09" transform="rotate(15 52 224)"/>
<rect x="148.5" y="671.2" width="16.3" height="16.3" fill="#002366" opacity="0.17" transform="rotate(7 149 671)"/>
<rect x="852.9" y="86.5" width="13.5" height="13.5" fill="#002366" opacity="0.07" transform="rotate(35 853 86)"/>
<circle cx="672.6" cy="222.2" r="6.0" fill="#eeeeee" opacity="0.07"/>
<circle cx="551.8" cy="547.4" r="8.0" fill="#eeeeee" opacity="0.24"/>
<rect x="150.8" y="662.4" width="4.7" height="4.7" fill="#002366" opacity="0.20" transform="rotate(6 151 662)"/>
<rect x="817.1" y="853.9" width="10.6" height="10.6" fill="#ffffff" opacity="0.21" transform="rotate(9 817 854)"/>
<circle cx="8.2" cy="405.0" r="2.3" fill="#ffffff" opacity="0.10"/>
<circle cx="672.4" cy="476.1" r="11.3" fill="#ffffff" opacity="0.12"/>
<rect x="73.6" y="624.1" width="19.2" height="19.2" fill="#002366" opacity="0.14" transform="rotate(26 74 624)"/>
<rect x="287.4" y="625.5" width="11.6" height="11.6" fill="#e5e5e5" opacity="0.17" transform="rotate(29 287 625)"/>
<circle cx="779.7" cy="593.6" r="4.4" fill="#ffffff" opacity="0.16"/>
<circle cx="674.9" cy="378.1" r="3.6" fill="#002366" opacity="0.13"/>
<rect x="1085.9" y="169.0" width="13.6" height="13.6" fill="#e2e2e2" opacity="0.06" transform="rotate(38 1086 169)"/>
<circle cx="701.9" cy="875.8" r="8.6" fill="#ebebeb" opacity="0.20"/>
<circle cx="38.9" cy="883.3" r="3.4" fill="#ffffff" opacity="0.17"/>
<circle cx="688.8" cy="612.8" r="11.1" fill="#002366" opacity="0.19"/>
<circle cx="1065.4" cy="694.4" r="9.0" fill="#002366" opacity="0.23"/>
<circle cx="1171.2" cy="211.8" r="6.3" fill="#002366" opacity="0.19"/>
<circle cx="556.4" cy="279.1" r="10.7" fill="#e3e3e3" opacity="0.08"/>
<circle cx="1022.9" cy="601.3" r="3.9" fill="#002366" opacity="0.14"/>
<rect x="934.2" y="113.1" width="20.7" height="20.7" fill="#ffffff" opacity="0.23" transform="rotate(0 934 113)"/>
<rect x="573.5" y="664.2" width="21.3" height="21.3" fill="#e5e5e5" opacity="0.07" transform="rotate(45 574 664)"/>
<rect x="818.6" y="242.8" width="18.2" height="18.2" fill="#ffffff" opacity="0.10" transform="rotate(26 819 243)"/>
<rect x="424.2" y="865.7" width="16.1" height="16.1" fill="#002366" opacity="0.08" transform="rotate(10 424 866)"/>
<rect x="870.5" y="575.7" width="13.1" height="13.1" fill="#e5e5e5" opacity="0.21" transform="rotate(19 871 576)"/>
<circle cx="940.6" cy="233.5" r="7.1" fill="#002366" opacity="0.19"/>
<rect x="1177.5" y="478.9" width="5.4" height="5.4" fill="#ffffff" opacity="0.20" transform="rotate(43 1178 479)"/>
<circle cx="993.2" cy="725.0" r="11.4" fill="#e8e8e8" opacity="0.15"/>
<circle cx="1109.8" cy="259.1" r="8.2" fill="#ffffff" opacity="0.12"/>
<circle cx="106.0" cy="718.9" r="9.4" fill="#dcdcdc" opacity="0.15"/>
<circle cx="570.2" cy="475.5" r="7.1" fill="#ffffff" opacity="0.20"/>
<rect x="1197.9" y="146.7" width="18.9" height="18.9" fill="#ffffff" opacity="0.05" transform="rotate(7 1198 147)"/>
<rect x="1017.1" y="678.5" width="13.7" height="13.7" fill="#ffffff" opacity="0.11" transform="rotate(35 1017 678)"/>
<rect x="1073.6" y="722.0" width="16.0" height="16.0" fill="#e4e4e4" opacity="0.22" transform="rotate(45 1074 722)"/>
<rect x="1083.2" y="649.3" width="12.1" height="12.1" fill="#efefef" opacity="0.06" transform="rotate(44 1083 649)"/>
<circle cx="7.4" cy="845.3" r="9.7" fill="#ffffff" opacity="0.17"/>
<rect x="140.8" y="844.3" width="15.6" height="15.6" fill="#ffffff" opacity="0.09" transform="rotate(20 141 844)"/>
<circle cx="406.3" cy="837.0" r="8.6" fill="#ececec" opacity="0.06"/>
<rect x="29.4" y="397.2" width="5.0" height="5.0" fill="#002366" opacity="0.12" transform="rotate(4 29 397)"/>
<circle cx="1020.2" cy="542.8" r="4.4" fill="#002366" opacity="0.24"/>
<circle cx="380.6" cy="298.6" r="11.4" fill="#002366" opacity="0.22"/>
<rect x="69.7" y="777.5" width="15.2" height="15.2" fill="#002366" opacity="0.14" transform="rotate(34 70 778)"/>
<circle cx="1131.0" cy="252.9" r="9.9" fill="#ffffff" opacity="0.19"/>
<circle cx="36.7" cy="880.2" r="1.8" fill="#ffffff" opacity="0.14"/>
<rect x="531.7" y="616.6" width="14.1" height="14.1" fill="#002366" opacity="0.09" transform="rotate(42 532 617)"/>
<circle cx="925.4" cy="891.3" r="8.2" fill="#ffffff" opacity="0.15"/>
<rect x="306.8" y="600.5" width="12.5" height="12.5" fill="#f1f1f1" opacity="0.13" transform="rotate(32 307 600)"/>
<circle cx="996.7" cy="553.1" r="7.5" fill="#e9e9e9" opacity="0.05"/>
<circle cx="997.1" cy="832.0" r="12.4" fill="#ebebeb" opacity="0.21"/>
<rect x="106.9" y="578.2" width="18.0" height="18.0" fill="#ffffff" opacity="0.18" transform="rotate(22 107 578)"/>
<circle cx="681.1" cy="495.1" r="3.8" fill="#e7e7e7" opacity="0.13"/>
<rect x="1125.1" y="493.2" width="3.7" height="3.7" fill="#002366" opacity="0.05" transform="rotate(19 1125 493)"/>
<rect x="110.4" y="221.7" width="22.9" height="22.9" fill="#ffffff" opacity="0.07" transform="rotate(35 110 222)"/>
<circle cx="300.7" cy="33.0" r="11.9" fill="#ffffff" opacity="0.15"/>
<rect x="1151.2" y="520.1" width="6.8" height="6.8" fill="#dadada" opacity="0.21" transform="rotate(23 1151 520)"/>
<rect x="907.9" y="536.0" width="6.3" height="6.3" fill="#e6e6e6" opacity="0.06" transform="rotate(14 908 536)"/>
<circle cx="557.2" cy="8.9" r="6.4" fill="#e4e4e4" opacity="0.09"/>
<rect x="463.8" y="525.9" width="13.6" height="13.6" fill="#002366" opacity="0.12" transform="rotate(11 464 526)"/>
<rect x="379.4" y="463.8" width="5.8" height="5.8" fill="#e4e4e4" opacity="0.19" transform="rotate(9 379 464)"/>
<circle cx="82.7" cy="806.8" r="3.9" fill="#ffffff" opacity="0.22"/>
<rect x="244.8" y="382.5" width="24.5" height="24.5" fill="#ffffff" opacity="0.14" transform="rotate(32 245 382)"/>
<circle cx="1177.4" cy="609.1" r="8.6" fill="#ffffff" opacity="0.24"/>
<circle cx="301.3" cy="130.6" r="11.1" fill="#002366" opacity="0.05"/>
<circle cx="771.0" cy="843.4" r="1.9" fill="#002366" opacity="0.07"/>
<circle cx="1186.0" cy="83.4" r="3.2" fill="#002366" opacity="0.10"/>
<circle cx="1106.1" cy="416.0" r="3.6" fill="#002366" opacity="0.09"/>
<circle cx="704.9" cy="688.0" r="12.2" fill="#ffffff" opacity="0.08"/>
<circle cx="259.1" cy="160.6" r="5.5" fill="#002366" opacity="0.17"/>
<circle cx="670.4" cy="478.1" r="9.6" fill="#ffffff" opacity="0.06"/>
<rect x="1199.2" y="800.2" width="19.8" height="19.8" fill="#ffffff" opacity="0.17" transform="rotate(44 1199 800)"/>
<circle cx="1011.4" cy="446.5" r="7.1" fill="#e1e1e1" opacity="0.17"/>
<circle cx="547.1" cy="536.9" r="12.0" fill="#ffffff" opacity="0.25"/>
<rect x="633.5" y="890.5" width="4.6" height="4.6" fill="#002366" opacity="0.11" transform="rotate(38 634 891)"/>
<circle cx="909.7" cy="803.9" r="5.3" fill="#002366" opacity="0.08"/>
<rect x="799.9" y="504.4" width="4.5" height="4.5" fill="#ffffff" opacity="0.21" transform="rotate(33 800 504)"/>
<rect x="1086.5" y="211.1" width="6.8" height="6.8" fill="#002366" opacity="0.07" transform="rotate(13 1086 211)"/>
<circle cx="707.4" cy="243.5" r="12.1" fill="#002366" opacity="0.07"/>
<rect x="175.8" y="133.3" width="23.0" height="23.0" fill="#ffffff" opacity="0.08" transform="rotate(34 176 133)"/>
<circle cx="106.5" cy="215.3" r="10.0" fill="#ffffff" opacity="0.22"/>
<circle cx="1076.7" cy="167.5" r="4.1" fill="#002366" opacity="0.19"/>
<rect x="933.8" y="286.8" width="19.3" height="19.3" fill="#002366" opacity="0.23" transform="rotate(28 934 287)"/>
<rect x="985.7" y="94.2" width="21.8" height="21.8" fill="#efefef" opacity="0.18" transform="rotate(5 986 94)"/>
<circle cx="121.0" cy="710.4" r="10.6" fill="#ffffff" opacity="0.07"/>
<rect x="1153.7" y="428.3" width="19.8" height="19.8" fill="#ffffff" opacity="0.19" transform="rotate(35 1154 428)"/>
<rect x="621.6" y="31.8" width="8.6" height="8.6" fill="#e1e1e1" opacity="0.17" transform="rotate(45 622 32)"/>
<circle cx="662.8" cy="626.1" r="3.1" fill="#002366" opacity="0.15"/>
<rect x="618.4" y="532.9" width="15.2" height="15.2" fill="#ffffff" opacity="0.09" transform="rotate(21 618 533)"/>
<rect x="354.9" y="882.4" width="4.2" height="4.2" fill="#e3e3e3" opacity="0.09" transform="rotate(30 355 882)"/>
<rect x="1082.4" y="649.5" width="8.2" height="8.2" fill="#ededed" opacity="0.22" transform="rotate(5 1082 650)"/>
<rect x="330.2" y="169.8" width="14.5" height="14.5" fill="#002366" opacity="0.17" transform="rotate(30 330 170)"/>
<circle cx="284.5" cy="109.5" r="10.2" fill="#002366" opacity="0.13"/>
<rect x="681.7" y="818.5" width="16.9" height="16.9" fill="#002366" opacity="0.08" transform="rotate(17 682 819)"/>
<circle cx="530.1" cy="758.0" r="2.9" fill="#d9d9d9" opacity="0.19"/>
<circle cx="569.6" cy="836.6" r="11.7" fill="#ffffff" opacity="0.05"/>
<rect x="553.5" y="195.0" width="8.0" height="8.0" fill="#002366" opacity="0.19" transform="rotate(1 554 195)"/>
<circle cx="757.9" cy="417.3" r="9.1" fill="#ffffff" opacity="0.14"/>
<circle cx="491.9" cy="774.3" r="5.9" fill="#dadada" opacity="0.22"/>
<rect x="312.4" y="31.2" width="21.6" height="21.6" fill="#ffffff" opacity="0.22" transform="rotate(39 312 31)"/>
<circle cx="81.4" cy="22.3" r="4.8" fill="#ffffff" opacity="0.21"/>
<rect x="125.4" y="363.1" width="14.8" height="14.8" fill="#d9d9d9" opacity="0.15" transform="rotate(27 125 363)"/>
<circle cx="454.1" cy="221.3" r="11.0" fill="#e7e7e7" opacity="0.24"/>
<rect x="513.4" y="762.3" width="8.1" height="8.1" fill="#ffffff" opacity="0.21" transform="rotate(5 513 762)"/>
<rect x="171.0" y="898.4" width="7.0" height="7.0" fill="#ffffff" opacity="0.13" transform="rotate(10 171 898)"/>
<circle cx="497.7" cy="117.1" r="7.2" fill="#ffffff" opacity="0.09"/>
<circle cx="19.6" cy="878.4" r="7.4" fill="#e3e3e3" opacity="0.14"/>
<circle cx="275.9" cy="815.7" r="8.3" fill="#f0f0f0" opacity="0.19"/>
<circle cx="645" cy="389" r="270" fill="#CF091F" opacity="0.08"/>
<defs>
        <radialGradient id="vignette" cx="50%" cy="50%" r="70%">
            <stop offset="0%" stop-color="black" stop-opacity="0"/>
            <stop offset="100%" stop-color="black" stop-opacity="0.25"/>
        </radialGradient>
    </defs>
    <rect width="1200" height="900" fill="url(#vignette)"/>
<text x="30" y="45" text-anchor="start"
        font-family="Arial, Helvetica, sans-serif" font-size="28" font-weight="bold"
        letter-spacing="2" fill="#CF091F" opacity="0.25">ENGLAND</text>
<text x="1180" y="880" text-anchor="end"
        font-family="Arial, Helvetica, sans-serif" font-size="14" font-weight="bold"
        letter-spacing="3" fill="#CF091F" opacity="0.35">HOOD&apos;D</text>
</svg>