<?xml version="1.0" encoding="UTF-8"?>
<svg xmlns="http://www.w3.org/2000/svg" viewBox="0 0 1200 900" width="1200" height="900">
<rect width="1200" height="900" fill="#CF091F"/>
<polygon points="959.4,665.2 961.0,670.0 966.1,670.1 962.1,673.2 963.5,678.0 959.4,675.1 955.2,678.0 956.7,673.2 952.6,670.1 957.7,670.0" fill="#002366" opacity="0.31"/>
<polygon points="1058.0,837.5 1059.5,842.4 1064.6,841.3 1061.0,845.1 1064.6,848.8 1059.5,847.7 1058.0,852.6 1056.5,847.7 1051.5,848.8 1055.0,845.1 1051.5,841.3 1056.5,842.4" fill="#002366" opacity="0.26"/>
<polygon points="1169.4,619.3 1171.8,626.1 1179.1,626.3 1173.3,630.7 1175.4,637.6 1169.4,633.5 1163.5,637.6 1165.6,630.7 1159.8,626.3 1167.1,626.1" fill="#FFFFFF" opacity="0.49"/>
<polygon points="763.6,661.2 769.3,675.5 783.6,681.2 769.3,686.8 763.6,701.1 758.0,686.8 743.7,681.2 758.0,675.5" fill="#FFFFFF" opacity="0.42"/>
<polygon points="897.3,100.0 900.3,110.0 910.5,107.6 903.4,115.3 910.5,123.0 900.3,120.6 897.3,130.6 894.2,120.6 884.0,123.0 891.1,115.3 884.0,107.6 894.2,110.0" fill="#4c6593" opacity="0.18"/>
<polygon points="814.5,842.4 818.3,853.2 829.7,853.4 820.6,860.3 823.9,871.3 814.5,864.7 805.1,871.3 808.4,860.3 799.3,853.4 810.7,853.2" fill="#002366" opacity="0.38"/>
<polygon points="731.4,294.4 733.8,302.2 741.8,300.4 736.2,306.3 741.8,312.3 733.8,310.5 731.4,318.3 729.0,310.5 721.1,312.3 726.6,306.3 721.1,300.4 729.0,302.2" fill="#002366" opacity="0.31"/>
<polygon points="966.7,19.2 970.6,30.5 982.6,30.7 973.1,37.9 976.5,49.4 966.7,42.5 956.9,49.4 960.4,37.9 950.8,30.7 962.8,30.5" fill="#FFFFFF" opacity="0.42"/>
<polygon points="59.0,235.8 63.5,247.1 74.8,251.6 63.5,256.0 59.0,267.4 54.6,256.0 43.2,251.6 54.6,247.1" fill="#FFFFFF" opacity="0.38"/>
<polygon points="1096.9,284.2 1098.3,288.8 1103.0,287.8 1099.8,291.3 1103.0,294.8 1098.3,293.7 1096.9,298.3 1095.5,293.7 1090.9,294.8 1094.1,291.3 1090.9,287.8 1095.5,288.8" fill="#4c6593" opacity="0.60"/>
<polygon points="864.9,544.7 867.3,551.6 874.7,551.8 868.8,556.2 870.9,563.3 864.9,559.1 858.8,563.3 861.0,556.2 855.1,551.8 862.5,551.6" fill="#4c6593" opacity="0.53"/>
<polygon points="355.1,812.0 360.1,824.8 373.0,829.9 360.1,834.9 355.1,847.7 350.0,834.9 337.2,829.9 350.0,824.8" fill="#4c6593" opacity="0.26"/>
<polygon points="744.5,555.0 746.8,561.7 753.9,561.9 748.2,566.2 750.3,573.0 744.5,568.9 738.6,573.0 740.7,566.2 735.0,561.9 742.1,561.7" fill="#4c6593" opacity="0.28"/>
<polygon points="833.4,319.2 837.3,332.0 850.4,329.0 841.2,338.8 850.4,348.6 837.3,345.6 833.4,358.4 829.5,345.6 816.4,348.6 825.6,338.8 816.4,329.0 829.5,332.0" fill="#4c6593" opacity="0.44"/>
<polygon points="896.3,168.7 897.7,173.2 902.2,172.1 899.1,175.5 902.2,178.9 897.7,177.9 896.3,182.3 895.0,177.9 890.4,178.9 893.6,175.5 890.4,172.1 895.0,173.2" fill="#002366" opacity="0.32"/>
<polygon points="145.1,557.4 150.6,571.4 164.6,576.9 150.6,582.4 145.1,596.4 139.6,582.4 125.6,576.9 139.6,571.4" fill="#4c6593" opacity="0.15"/>
<polygon points="335.9,322.5 338.0,328.6 344.4,328.7 339.3,332.5 341.1,338.6 335.9,335.0 330.7,338.6 332.5,332.5 327.4,328.7 333.8,328.6" fill="#4c6593" opacity="0.39"/>
<polygon points="1183.1,125.0 1185.9,133.1 1194.4,133.3 1187.6,138.4 1190.1,146.6 1183.1,141.7 1176.1,146.6 1178.5,138.4 1171.7,133.3 1180.3,133.1" fill="#4c6593" opacity="0.50"/>
<polygon points="763.5,821.6 764.8,825.9 769.1,824.9 766.1,828.1 769.1,831.3 764.8,830.3 763.5,834.6 762.2,830.3 757.9,831.3 760.9,828.1 757.9,824.9 762.2,825.9" fill="#002366" opacity="0.41"/>
<polygon points="1090.4,450.3 1093.6,460.7 1104.1,458.3 1096.8,466.2 1104.1,474.1 1093.6,471.7 1090.4,482.0 1087.3,471.7 1076.7,474.1 1084.1,466.2 1076.7,458.3 1087.3,460.7" fill="#002366" opacity="0.41"/>
<polygon points="246.1,21.0 251.3,34.3 264.6,39.5 251.3,44.7 246.1,58.0 240.9,44.7 227.6,39.5 240.9,34.3" fill="#002366" opacity="0.41"/>
<polygon points="917.9,514.4 923.3,528.0 936.8,533.3 923.3,538.7 917.9,552.3 912.5,538.7 899.0,533.3 912.5,528.0" fill="#002366" opacity="0.26"/>
<polygon points="504.5,729.5 505.5,732.5 508.8,732.6 506.2,734.6 507.2,737.7 504.5,735.8 501.8,737.7 502.7,734.6 500.1,732.6 503.4,732.5" fill="#FFFFFF" opacity="0.23"/>
<polygon points="99.5,729.8 102.0,736.2 108.4,738.7 102.0,741.2 99.5,747.6 97.0,741.2 90.6,738.7 97.0,736.2" fill="#4c6593" opacity="0.26"/>
<polygon points="584.8,7.3 587.0,14.7 594.5,12.9 589.3,18.6 594.5,24.2 587.0,22.5 584.8,29.8 582.5,22.5 575.0,24.2 580.3,18.6 575.0,12.9 582.5,14.7" fill="#002366" opacity="0.52"/>
<polygon points="77.1,158.1 80.0,166.2 88.5,166.4 81.7,171.6 84.2,179.8 77.1,174.9 70.1,179.8 72.6,171.6 65.8,166.4 74.3,166.2" fill="#4c6593" opacity="0.27"/>
<polygon points="259.3,731.5 260.2,734.3 263.1,734.3 260.8,736.1 261.7,738.9 259.3,737.2 256.9,738.9 257.7,736.1 255.4,734.3 258.3,734.3" fill="#4c6593" opacity="0.44"/>
<polygon points="821.3,685.7 825.2,696.7 836.8,696.9 827.5,704.0 830.9,715.1 821.3,708.5 811.7,715.1 815.1,704.0 805.8,696.9 817.5,696.7" fill="#002366" opacity="0.37"/>
<polygon points="1182.8,185.8 1186.4,197.5 1198.3,194.7 1189.9,203.6 1198.3,212.6 1186.4,209.8 1182.8,221.5 1179.2,209.8 1167.3,212.6 1175.6,203.6 1167.3,194.7 1179.2,197.5" fill="#FFFFFF" opacity="0.59"/>
<polygon points="796.1,274.9 797.9,280.9 804.1,279.5 799.8,284.1 804.1,288.7 797.9,287.3 796.1,293.3 794.3,287.3 788.1,288.7 792.4,284.1 788.1,279.5 794.3,280.9" fill="#002366" opacity="0.40"/>
<polygon points="998.2,550.3 1001.2,558.8 1010.1,558.9 1003.0,564.4 1005.6,572.9 998.2,567.8 990.9,572.9 993.5,564.4 986.3,558.9 995.3,558.8" fill="#4c6593" opacity="0.33"/>
<polygon points="5.9,165.4 8.2,171.3 14.2,173.7 8.2,176.0 5.9,182.0 3.5,176.0 -2.5,173.7 3.5,171.3" fill="#002366" opacity="0.21"/>
<polygon points="344.1,731.2 345.8,736.8 351.5,735.4 347.5,739.7 351.5,744.0 345.8,742.7 344.1,748.3 342.4,742.7 336.7,744.0 340.7,739.7 336.7,735.4 342.4,736.8" fill="#4c6593" opacity="0.18"/>
<polygon points="592.4,24.5 596.6,35.2 607.2,39.3 596.6,43.5 592.4,54.1 588.2,43.5 577.6,39.3 588.2,35.2" fill="#002366" opacity="0.22"/>
<polygon points="883.8,34.2 885.0,37.4 888.3,38.7 885.0,40.0 883.8,43.3 882.5,40.0 879.2,38.7 882.5,37.4" fill="#002366" opacity="0.37"/>
<polygon points="871.4,684.7 876.0,697.7 889.8,698.0 878.8,706.4 882.8,719.6 871.4,711.7 860.1,719.6 864.1,706.4 853.1,698.0 866.9,697.7" fill="#4c6593" opacity="0.32"/>
<polygon points="496.8,140.4 498.8,146.9 505.4,145.4 500.8,150.4 505.4,155.4 498.8,153.8 496.8,160.4 494.8,153.8 488.1,155.4 492.8,150.4 488.1,145.4 494.8,146.9" fill="#002366" opacity="0.52"/>
<polygon points="1066.6,487.5 1068.2,491.5 1072.2,493.1 1068.2,494.7 1066.6,498.7 1065.1,494.7 1061.0,493.1 1065.1,491.5" fill="#4c6593" opacity="0.59"/>
<polygon points="963.3,150.7 965.1,156.4 970.9,155.1 966.8,159.5 970.9,163.8 965.1,162.5 963.3,168.2 961.6,162.5 955.8,163.8 959.9,159.5 955.8,155.1 961.6,156.4" fill="#FFFFFF" opacity="0.53"/>
<polygon points="241.8,725.7 243.4,729.6 247.2,731.1 243.4,732.6 241.8,736.5 240.3,732.6 236.5,731.1 240.3,729.6" fill="#4c6593" opacity="0.58"/>
<polygon points="262.8,249.9 267.7,262.4 280.2,267.3 267.7,272.3 262.8,284.7 257.9,272.3 245.4,267.3 257.9,262.4" fill="#FFFFFF" opacity="0.51"/>
<polygon points="470.3,20.4 474.8,31.9 486.3,36.4 474.8,40.9 470.3,52.4 465.8,40.9 454.3,36.4 465.8,31.9" fill="#4c6593" opacity="0.25"/>
<polygon points="946.9,74.4 949.3,80.4 955.3,82.7 949.3,85.1 946.9,91.1 944.6,85.1 938.6,82.7 944.6,80.4" fill="#4c6593" opacity="0.51"/>
<polygon points="1004.8,152.1 1010.5,166.5 1024.8,172.1 1010.5,177.8 1004.8,192.1 999.2,177.8 984.8,172.1 999.2,166.5" fill="#002366" opacity="0.23"/>
<polygon points="820.3,746.9 825.4,759.9 838.4,765.0 825.4,770.2 820.3,783.2 815.1,770.2 802.1,765.0 815.1,759.9" fill="#002366" opacity="0.24"/>
<defs><linearGradient id="star_grad" x1="0" y1="0" x2="0" y2="1">
        <stop offset="0%" stop-color="#900615" stop-opacity="0.3"/>
        <stop offset="100%" stop-color="#CF091F" stop-opacity="0"/>
    </linearGradient></defs>
    <rect width="1200" height="900" fill="url(#star_grad)"/>
<defs>
        <radialGradient id="vignette" cx="50%" cy="50%" r="70%">
            <stop offset="0%" stop-color="black" stop-opacity="0"/>
            <stop offset="100%" stop-color="black" stop-opacity="0.25"/>
        </radialGradient>
    </defs>
    <rect width="1200" height="900" fill="url(#vignette)"/>
<text x="30" y="45" text-anchor="start"
        font-family="Arial, Helvetica, sans-serif" font-size="28" font-weight="bold"
        letter-spacing="2" fill="#FFFFFF" opacity="0.25">ENGLAND</text>
<text x="1180" y="880" text-anchor="end"
        font-family="Arial, Helvetica, sans-serif" font-size="14" font-weight="bold"
        letter-spacing="3" fill="#FFFFFF" opacity="0.35">HOOD&apos;D</text>
</svg>