<?xml version="1.0" encoding="UTF-8"?>
<svg xmlns="http://www.w3.org/2000/svg" viewBox="0 0 1200 900" width="1200" height="900">
<rect width="1200" height="900" fill="#001F3F"/>
<rect x="0" y="21.3" width="1200" height="50.1" fill="#000000" opacity="0.24"/>
<rect x="0" y="93.9" width="1200" height="40.3" fill="#000000" opacity="0.28"/>
<rect x="0" y="263.5" width="1200" height="46.9" fill="#000000" opacity="0.25"/>
<rect x="605.4" y="0" width="68.0" height="900" fill="#FFFFFF" opacity="0.62"/>
<rect x="467.0" y="0" width="74.9" height="900" fill="#FFFFFF" opacity="0.54"/>
<rect x="130.0" y="0" width="51.2" height="900" fill="#FFFFFF" opacity="0.44"/>
<rect x="0" y="667.6" width="1200" height="49.9" fill="#000000" opacity="0.51"/>
<rect x="0" y="805.0" width="1200" height="40.4" fill="#000000" opacity="0.37"/>
<rect x="0" y="48.6" width="1200" height="42.3" fill="#000000" opacity="0.45"/>
<rect x="202.0" y="0" width="75.8" height="900" fill="#FFFFFF" opacity="0.28"/>
<rect x="1130.8" y="0" width="40.2" height="900" fill="#FFFFFF" opacity="0.55"/>
<rect x="0" y="765" width="1200" height="4" fill="#000000" opacity="0.6"/>
<defs>
        <radialGradient id="vignette" cx="50%" cy="50%" r="70%">
            <stop offset="0%" stop-color="black" stop-opacity="0"/>
            <stop offset="100%" stop-color="black" stop-opacity="0.25"/>
        </radialGradient>
    </defs>
    <rect width="1200" height="900" fill="url(#vignette)"/>
<text x="30" y="45" text-anchor="start"
        font-family="Arial, Helvetica, sans-serif" font-size="28" font-weight="bold"
        letter-spacing="2" fill="#4c4c4c" opacity="0.25">SCOTLAND</text>
<text x="1180" y="880" text-anchor="end"
        font-family="Arial, Helvetica, sans-serif" font-size="14" font-weight="bold"
        letter-spacing="3" fill="#4c4c4c" opacity="0.35">HOOD&apos;D</text>
</svg>