<?xml version="1.0" encoding="UTF-8"?>
<svg xmlns="http://www.w3.org/2000/svg" viewBox="0 0 1200 900" width="1200" height="900">
<rect width="1200" height="900" fill="#0D2B5E"/>
<rect x="86.2" y="0.5" width="84.7" height="99.0" rx="0.4" fill="#C60B1E" opacity="0.76"/>
<rect x="259.3" y="2.2" width="81.4" height="95.7" rx="1.9" fill="#C60B1E" opacity="0.68"/>
<rect x="431.3" y="2.7" width="80.2" height="94.5" rx="3.3" fill="#C60B1E" opacity="0.66"/>
<rect x="600.8" y="0.8" width="84.0" height="98.3" rx="2.2" fill="#C60B1E" opacity="0.94"/>
<rect x="775.5" y="4.0" width="77.6" height="91.9" rx="2.1" fill="#C60B1E" opacity="0.93"/>
<rect x="948.3" y="5.4" width="74.9" height="89.2" rx="1.7" fill="#C60B1E" opacity="0.74"/>
<rect x="1117.3" y="3.0" width="79.6" height="93.9" rx="0.6" fill="#C60B1E" opacity="0.83"/>
<rect x="4.0" y="104.0" width="77.7" height="92.0" rx="0.2" fill="#C60B1E" opacity="0.85"/>
<rect x="176.7" y="105.3" width="75.1" height="89.4" rx="0.8" fill="#C60B1E" opacity="0.93"/>
<rect x="345.4" y="102.6" width="80.6" height="94.9" rx="1.7" fill="#C60B1E" opacity="0.61"/>
<rect x="515.9" y="101.7" width="82.4" height="96.7" rx="0.5" fill="#C60B1E" opacity="0.51"/>
<rect x="687.5" y="101.8" width="82.1" height="96.4" rx="1.4" fill="#C60B1E" opacity="0.90"/>
<rect x="857.4" y="100.2" width="85.3" height="99.5" rx="2.2" fill="#C60B1E" opacity="0.50"/>
<rect x="1031.0" y="102.5" width="80.8" height="95.1" rx="1.8" fill="#C60B1E" opacity="0.57"/>
<rect x="90.8" y="205.1" width="75.5" height="89.8" rx="1.5" fill="#C60B1E" opacity="0.78"/>
<rect x="261.7" y="204.6" width="76.6" height="90.8" rx="2.8" fill="#C60B1E" opacity="0.56"/>
<rect x="433.5" y="204.9" width="75.9" height="90.2" rx="0.8" fill="#C60B1E" opacity="0.66"/>
<rect x="601.8" y="201.8" width="82.2" height="96.5" rx="1.6" fill="#C60B1E" opacity="0.74"/>
<rect x="774.2" y="202.8" width="80.2" height="94.5" rx="2.5" fill="#C60B1E" opacity="0.52"/>
<rect x="946.2" y="203.3" width="79.1" height="93.4" rx="1.7" fill="#C60B1E" opacity="0.89"/>
<rect x="1115.0" y="200.7" width="84.3" height="98.5" rx="2.1" fill="#C60B1E" opacity="0.58"/>
<rect x="3.4" y="303.4" width="78.9" height="93.2" rx="1.2" fill="#C60B1E" opacity="0.84"/>
<rect x="174.5" y="303.0" width="79.7" height="94.0" rx="0.9" fill="#C60B1E" opacity="0.92"/>
<rect x="344.0" y="301.2" width="83.3" height="97.6" rx="2.4" fill="#C60B1E" opacity="0.75"/>
<rect x="517.7" y="303.4" width="78.8" height="93.1" rx="0.3" fill="#C60B1E" opacity="0.67"/>
<rect x="689.1" y="303.4" width="78.9" height="93.2" rx="1.3" fill="#C60B1E" opacity="0.75"/>
<rect x="859.5" y="302.4" width="80.9" height="95.2" rx="3.0" fill="#C60B1E" opacity="0.83"/>
<rect x="1031.6" y="303.1" width="79.6" height="93.9" rx="3.1" fill="#C60B1E" opacity="0.61"/>
<rect x="87.2" y="401.4" width="82.8" height="97.1" rx="0.7" fill="#C60B1E" opacity="0.83"/>
<rect x="259.2" y="402.1" width="81.5" height="95.8" rx="2.7" fill="#C60B1E" opacity="0.65"/>
<rect x="430.3" y="401.7" width="82.3" height="96.6" rx="3.9" fill="#C60B1E" opacity="0.77"/>
<rect x="603.2" y="403.2" width="79.2" height="93.5" rx="4.0" fill="#C60B1E" opacity="0.85"/>
<rect x="774.5" y="403.1" width="79.6" height="93.9" rx="2.9" fill="#C60B1E" opacity="0.64"/>
<rect x="943.6" y="400.8" width="84.1" height="98.4" rx="3.2" fill="#C60B1E" opacity="0.72"/>
<rect x="1116.4" y="402.1" width="81.5" height="95.8" rx="2.6" fill="#C60B1E" opacity="0.54"/>
<rect x="2.9" y="502.9" width="79.9" height="94.2" rx="1.1" fill="#C60B1E" opacity="0.62"/>
<rect x="176.8" y="505.3" width="75.0" height="89.3" rx="3.1" fill="#C60B1E" opacity="0.92"/>
<rect x="346.4" y="503.5" width="78.7" height="93.0" rx="3.0" fill="#C60B1E" opacity="0.63"/>
<rect x="515.4" y="501.2" width="83.4" height="97.7" rx="1.2" fill="#C60B1E" opacity="0.59"/>
<rect x="690.5" y="504.8" width="76.1" height="90.4" rx="0.6" fill="#C60B1E" opacity="0.90"/>
<rect x="861.1" y="503.9" width="77.9" height="92.2" rx="0.2" fill="#C60B1E" opacity="0.58"/>
<rect x="1034.0" y="505.4" width="74.9" height="89.1" rx="0.2" fill="#C60B1E" opacity="0.72"/>
<rect x="90.2" y="604.5" width="76.7" height="91.0" rx="3.7" fill="#C60B1E" opacity="0.54"/>
<rect x="262.9" y="605.8" width="74.2" height="88.5" rx="2.0" fill="#C60B1E" opacity="0.52"/>
<rect x="430.4" y="601.8" width="82.1" height="96.4" rx="2.8" fill="#C60B1E" opacity="0.95"/>
<rect x="601.2" y="601.2" width="83.4" height="97.7" rx="0.3" fill="#C60B1E" opacity="0.82"/>
<rect x="772.9" y="601.5" width="82.7" height="97.0" rx="3.8" fill="#C60B1E" opacity="0.68"/>
<rect x="944.1" y="601.3" width="83.2" height="97.5" rx="1.7" fill="#C60B1E" opacity="0.55"/>
<rect x="1116.9" y="602.6" width="80.5" height="94.8" rx="2.0" fill="#C60B1E" opacity="0.90"/>
<rect x="3.4" y="703.4" width="78.9" height="93.2" rx="1.8" fill="#C60B1E" opacity="0.93"/>
<rect x="174.6" y="703.2" width="79.3" height="93.6" rx="3.4" fill="#C60B1E" opacity="0.64"/>
<rect x="345.2" y="702.3" width="81.1" height="95.3" rx="3.3" fill="#C60B1E" opacity="0.67"/>
<rect x="518.4" y="704.1" width="77.5" height="91.8" rx="3.2" fill="#C60B1E" opacity="0.52"/>
<rect x="690.6" y="704.9" width="75.9" height="90.2" rx="4.0" fill="#C60B1E" opacity="0.70"/>
<rect x="857.4" y="700.3" width="85.2" height="99.5" rx="2.8" fill="#C60B1E" opacity="0.70"/>
<rect x="1031.4" y="702.8" width="80.0" height="94.3" rx="3.7" fill="#C60B1E" opacity="0.79"/>
<rect x="85.8" y="800.1" width="85.6" height="99.9" rx="3.1" fill="#C60B1E" opacity="0.78"/>
<rect x="261.9" y="804.8" width="76.2" height="90.5" rx="0.5" fill="#C60B1E" opacity="0.85"/>
<rect x="434.4" y="805.8" width="74.1" height="88.4" rx="1.3" fill="#C60B1E" opacity="0.79"/>
<rect x="606.0" y="806.0" width="73.7" height="88.0" rx="1.6" fill="#C60B1E" opacity="0.90"/>
<rect x="774.3" y="802.9" width="79.9" height="94.2" rx="3.7" fill="#C60B1E" opacity="0.72"/>
<rect x="948.2" y="805.3" width="75.1" height="89.3" rx="0.3" fill="#C60B1E" opacity="0.63"/>
<rect x="1116.4" y="802.1" width="81.5" height="95.8" rx="2.9" fill="#C60B1E" opacity="0.79"/>
<rect x="0" y="0" width="1200" height="900" fill="none" stroke="#87CEEB" stroke-width="6" rx="8"/>
<defs>
        <radialGradient id="vignette" cx="50%" cy="50%" r="70%">
            <stop offset="0%" stop-color="black" stop-opacity="0"/>
            <stop offset="100%" stop-color="black" stop-opacity="0.25"/>
        </radialGradient>
    </defs>
    <rect width="1200" height="900" fill="url(#vignette)"/>
<text x="30" y="45" text-anchor="start"
        font-family="Arial, Helvetica, sans-serif" font-size="28" font-weight="bold"
        letter-spacing="2" fill="#abdcf1" opacity="0.25">CROATIA</text>
<text x="1180" y="880" text-anchor="end"
        font-family="Arial, Helvetica, sans-serif" font-size="14" font-weight="bold"
        letter-spacing="3" fill="#abdcf1" opacity="0.35">HOOD&apos;D</text>
</svg>