<?xml version="1.0" encoding="UTF-8"?>
<svg xmlns="http://www.w3.org/2000/svg" viewBox="0 0 1200 900" width="1200" height="900">
<rect width="1200" height="900" fill="#FFFFFF"/>
<circle cx="507.6" cy="705.7" r="9.6" fill="#CCCCCC" opacity="0.09"/>
<rect x="886.6" y="311.9" width="7.1" height="7.1" fill="#f1f1f1" opacity="0.17" transform="rotate(4 887 312)"/>
<circle cx="694.4" cy="225.3" r="2.0" fill="#eeeeee" opacity="0.07"/>
<rect x="122.0" y="780.5" width="18.1" height="18.1" fill="#CCCCCC" opacity="0.17" transform="rotate(18 122 781)"/>
<circle cx="576.1" cy="444.6" r="9.5" fill="#eeeeee" opacity="0.13"/>
<circle cx="1065.1" cy="624.8" r="9.4" fill="#ffffff" opacity="0.24"/>
<circle cx="453.3" cy="327.3" r="5.7" fill="#ffffff" opacity="0.09"/>
<rect x="21.2" y="864.0" width="9.0" height="9.0" fill="#ffffff" opacity="0.19" transform="rotate(13 21 864)"/>
<rect x="705.8" y="340.9" width="7.6" height="7.6" fill="#ffffff" opacity="0.12" transform="rotate(4 706 341)"/>
<rect x="497.4" y="410.7" width="23.9" height="23.9" fill="#ffffff" opacity="0.15" transform="rotate(2 497 411)"/>
<rect x="812.5" y="506.4" width="13.0" height="13.0" fill="#dbdbdb" opacity="0.15" transform="rotate(12 812 506)"/>
<circle cx="675.4" cy="872.0" r="5.0" fill="#CCCCCC" opacity="0.23"/>
<rect x="120.1" y="212.1" width="8.1" height="8.1" fill="#CCCCCC" opacity="0.25" transform="rotate(5 120 212)"/>
<circle cx="48.2" cy="839.3" r="9.6" fill="#e4e4e4" opacity="0.08"/>
<circle cx="1063.4" cy="210.8" r="3.0" fill="#dbdbdb" opacity="0.19"/>
<circle cx="613.9" cy="115.2" r="3.7" fill="#eaeaea" opacity="0.08"/>
<rect x="138.0" y="170.7" width="12.0" height="12.0" fill="#CCCCCC" opacity="0.13" transform="rotate(11 138 171)"/>
<circle cx="862.0" cy="754.0" r="11.0" fill="#e0e0e0" opacity="0.14"/>
<rect x="402.2" y="739.3" width="12.6" height="12.6" fill="#CCCCCC" opacity="0.14" transform="rotate(29 402 739)"/>
<circle cx="26.5" cy="363.3" r="1.7" fill="#e8e8e8" opacity="0.06"/>
<circle cx="43.8" cy="307.1" r="5.0" fill="#ffffff" opacity="0.20"/>
<rect x="414.5" y="782.8" width="14.7" height="14.7" fill="#f0f0f0" opacity="0.18" transform="rotate(16 415 783)"/>
<circle cx="849.4" cy="651.9" r="5.7" fill="#ffffff" opacity="0.12"/>
<circle cx="60.0" cy="333.3" r="9.6" fill="#ffffff" opacity="0.07"/>
<circle cx="1056.1" cy="390.3" r="6.0" fill="#ffffff" opacity="0.22"/>
<circle cx="916.9" cy="211.6" r="6.1" fill="#d9d9d9" opacity="0.21"/>
<circle cx="966.5" cy="348.1" r="9.2" fill="#CCCCCC" opacity="0.09"/>
<circle cx="13.4" cy="743.0" r="2.1" fill="#CCCCCC" opacity="0.23"/>
<circle cx="992.0" cy="573.8" r="8.4" fill="#ffffff" opacity="0.21"/>
<rect x="999.6" y="437.9" width="19.6" height="19.6" fill="#ffffff" opacity="0.16" transform="rotate(16 1000 438)"/>
<circle cx="850.7" cy="202.4" r="3.4" fill="#dadada" opacity="0.25"/>
<rect x="587.0" y="524.3" width="5.1" height="5.1" fill="#ffffff" opacity="0.05" transform="rotate(43 587 524)"/>
<rect x="525.0" y="845.6" width="18.2" height="18.2" fill="#CCCCCC" opacity="0.07" transform="rotate(41 525 846)"/>
<rect x="750.5" y="128.1" width="22.0" height="22.0" fill="#e5e5e5" opacity="0.23" transform="rotate(25 750 128)"/>
<rect x="103.6" y="895.1" width="15.4" height="15.4" fill="#efefef" opacity="0.07" transform="rotate(21 104 895)"/>
<rect x="490.2" y="897.9" width="22.8" height="22.8" fill="#ffffff" opacity="0.11" transform="rotate(33 490 898)"/>
<circle cx="339.2" cy="844.0" r="12.4" fill="#ededed" opacity="0.19"/>
<rect x="530.2" y="158.9" width="3.5" height="3.5" fill="#CCCCCC" opacity="0.21" transform="rotate(31 530 159)"/>
<rect x="1165.2" y="801.0" width="12.9" height="12.9" fill="#ffffff" opacity="0.23" transform="rotate(45 1165 801)"/>
<circle cx="1002.1" cy="393.6" r="2.1" fill="#ffffff" opacity="0.17"/>
<rect x="531.7" y="439.5" width="9.5" height="9.5" fill="#e6e6e6" opacity="0.14" transform="rotate(37 532 440)"/>
<rect x="784.9" y="657.7" width="15.1" height="15.1" fill="#ffffff" opacity="0.09" transform="rotate(11 785 658)"/>
<rect x="25.9" y="776.1" width="19.7" height="19.7" fill="#e1e1e1" opacity="0.21" transform="rotate(7 26 776)"/>
<rect x="388.6" y="242.2" width="11.6" height="11.6" fill="#CCCCCC" opacity="0.23" transform="rotate(44 389 242)"/>
<circle cx="79.3" cy="21.2" r="12.0" fill="#e4e4e4" opacity="0.09"/>
<circle cx="175.6" cy="673.4" r="3.3" fill="#CCCCCC" opacity="0.21"/>
<circle cx="540.9" cy="528.4" r="1.6" fill="#ffffff" opacity="0.07"/>
<circle cx="562.3" cy="572.4" r="2.7" fill="#CCCCCC" opacity="0.15"/>
<rect x="425.3" y="226.3" width="23.1" height="23.1" fill="#CCCCCC" opacity="0.14" transform="rotate(0 425 226)"/>
<rect x="475.4" y="896.1" width="22.0" height="22.0" fill="#CCCCCC" opacity="0.12" transform="rotate(39 475 896)"/>
<rect x="626.9" y="475.0" width="14.5" height="14.5" fill="#ffffff" opacity="0.18" transform="rotate(15 627 475)"/>
<circle cx="184.6" cy="845.9" r="6.8" fill="#ffffff" opacity="0.08"/>
<rect x="675.5" y="874.8" width="10.1" height="10.1" fill="#f1f1f1" opacity="0.16" transform="rotate(19 675 875)"/>
<circle cx="787.3" cy="737.4" r="7.7" fill="#ececec" opacity="0.16"/>
<rect x="860.0" y="500.4" width="23.5" height="23.5" fill="#ffffff" opacity="0.05" transform="rotate(29 860 500)"/>
<rect x="562.4" y="839.8" width="12.8" height="12.8" fill="#e9e9e9" opacity="0.16" transform="rotate(19 562 840)"/>
<rect x="1051.3" y="730.1" width="23.0" height="23.0" fill="#ffffff" opacity="0.16" transform="rotate(37 1051 730)"/>
<circle cx="1126.6" cy="137.0" r="7.4" fill="#CCCCCC" opacity="0.07"/>
<rect x="1152.4" y="841.6" width="24.8" height="24.8" fill="#ececec" opacity="0.25" transform="rotate(31 1152 842)"/>
<rect x="508.2" y="268.4" width="11.1" height="11.1" fill="#CCCCCC" opacity="0.19" transform="rotate(37 508 268)"/>
<circle cx="1085.0" cy="282.6" r="2.8" fill="#CCCCCC" opacity="0.16"/>
<rect x="810.0" y="154.3" width="21.7" height="21.7" fill="#ebebeb" opacity="0.15" transform="rotate(1 810 154)"/>
<circle cx="702.9" cy="279.7" r="3.4" fill="#d8d8d8" opacity="0.21"/>
<rect x="575.7" y="188.9" width="9.5" height="9.5" fill="#CCCCCC" opacity="0.10" transform="rotate(1 576 189)"/>
<circle cx="402.4" cy="645.5" r="11.0" fill="#ffffff" opacity="0.07"/>
<rect x="1058.0" y="601.5" width="9.6" height="9.6" fill="#ededed" opacity="0.06" transform="rotate(43 1058 601)"/>
<rect x="949.5" y="817.1" width="15.3" height="15.3" fill="#ffffff" opacity="0.10" transform="rotate(38 949 817)"/>
<circle cx="993.0" cy="472.5" r="7.2" fill="#eaeaea" opacity="0.09"/>
<rect x="1045.4" y="443.4" width="7.9" height="7.9" fill="#ffffff" opacity="0.19" transform="rotate(1 1045 443)"/>
<rect x="123.8" y="733.7" width="22.0" height="22.0" fill="#CCCCCC" opacity="0.11" transform="rotate(33 124 734)"/>
<rect x="980.1" y="339.7" width="4.1" height="4.1" fill="#dddddd" opacity="0.17" transform="rotate(32 980 340)"/>
<rect x="180.8" y="776.0" width="14.8" height="14.8" fill="#ffffff" opacity="0.05" transform="rotate(21 181 776)"/>
<rect x="726.2" y="898.1" width="21.8" height="21.8" fill="#e3e3e3" opacity="0.16" transform="rotate(32 726 898)"/>
<circle cx="641.5" cy="484.0" r="8.4" fill="#CCCCCC" opacity="0.20"/>
<circle cx="1043.2" cy="333.6" r="4.1" fill="#e1e1e1" opacity="0.06"/>
<circle cx="192.7" cy="516.5" r="9.6" fill="#ffffff" opacity="0.17"/>
<rect x="1027.1" y="529.1" width="10.2" height="10.2" fill="#CCCCCC" opacity="0.19" transform="rotate(21 1027 529)"/>
<rect x="33.6" y="119.4" width="4.8" height="4.8" fill="#eeeeee" opacity="0.22" transform="rotate(33 34 119)"/>
<circle cx="326.1" cy="607.6" r="6.4" fill="#CCCCCC" opacity="0.24"/>
<circle cx="1098.0" cy="627.8" r="12.1" fill="#d8d8d8" opacity="0.16"/>
<circle cx="922.9" cy="48.3" r="8.9" fill="#efefef" opacity="0.15"/>
<circle cx="295.1" cy="844.1" r="8.8" fill="#ffffff" opacity="0.25"/>
<rect x="994.9" y="203.5" width="22.2" height="22.2" fill="#ffffff" opacity="0.22" transform="rotate(1 995 203)"/>
<rect x="1062.5" y="140.7" width="6.3" height="6.3" fill="#ffffff" opacity="0.16" transform="rotate(31 1062 141)"/>
<circle cx="266.8" cy="812.0" r="7.2" fill="#efefef" opacity="0.09"/>
<circle cx="888.5" cy="295.5" r="12.2" fill="#ffffff" opacity="0.17"/>
<rect x="392.2" y="274.1" width="8.3" height="8.3" fill="#CCCCCC" opacity="0.23" transform="rotate(44 392 274)"/>
<circle cx="272.3" cy="164.1" r="1.9" fill="#f1f1f1" opacity="0.14"/>
<circle cx="1199.4" cy="210.7" r="11.8" fill="#e2e2e2" opacity="0.24"/>
<rect x="417.9" y="218.0" width="11.8" height="11.8" fill="#ffffff" opacity="0.20" transform="rotate(13 418 218)"/>
<rect x="969.8" y="587.3" width="21.6" height="21.6" fill="#ffffff" opacity="0.05" transform="rotate(35 970 587)"/>
<circle cx="128.9" cy="598.3" r="3.0" fill="#CCCCCC" opacity="0.14"/>
<rect x="184.0" y="321.8" width="19.6" height="19.6" fill="#dcdcdc" opacity="0.10" transform="rotate(31 184 322)"/>
<rect x="1123.1" y="414.7" width="10.0" height="10.0" fill="#CCCCCC" opacity="0.11" transform="rotate(45 1123 415)"/>
<rect x="1160.5" y="77.1" width="15.6" height="15.6" fill="#ffffff" opacity="0.12" transform="rotate(28 1160 77)"/>
<rect x="488.1" y="774.7" width="13.5" height="13.5" fill="#e1e1e1" opacity="0.18" transform="rotate(9 488 775)"/>
<rect x="70.2" y="519.8" width="11.1" height="11.1" fill="#e3e3e3" opacity="0.08" transform="rotate(7 70 520)"/>
<rect x="911.8" y="393.0" width="22.2" height="22.2" fill="#CCCCCC" opacity="0.11" transform="rotate(7 912 393)"/>
<rect x="41.1" y="419.1" width="6.5" height="6.5" fill="#ebebeb" opacity="0.19" transform="rotate(0 41 419)"/>
<rect x="186.1" y="6.9" width="16.4" height="16.4" fill="#dadada" opacity="0.17" transform="rotate(39 186 7)"/>
<circle cx="184.6" cy="739.4" r="10.7" fill="#e0e0e0" opacity="0.10"/>
<circle cx="814.7" cy="192.8" r="3.0" fill="#e1e1e1" opacity="0.17"/>
<circle cx="1076.7" cy="767.9" r="11.4" fill="#ffffff" opacity="0.14"/>
<rect x="382.5" y="410.9" width="19.9" height="19.9" fill="#ffffff" opacity="0.05" transform="rotate(20 382 411)"/>
<circle cx="769.6" cy="754.1" r="6.3" fill="#eaeaea" opacity="0.10"/>
<rect x="1184.7" y="622.6" width="12.2" height="12.2" fill="#ffffff" opacity="0.07" transform="rotate(24 1185 623)"/>
<rect x="953.9" y="506.5" width="5.2" height="5.2" fill="#d9d9d9" opacity="0.20" transform="rotate(21 954 507)"/>
<rect x="551.0" y="158.5" width="15.0" height="15.0" fill="#ebebeb" opacity="0.22" transform="rotate(39 551 159)"/>
<circle cx="198.4" cy="866.0" r="10.0" fill="#dbdbdb" opacity="0.16"/>
<rect x="128.0" y="132.4" width="7.7" height="7.7" fill="#CCCCCC" opacity="0.22" transform="rotate(30 128 132)"/>
<rect x="327.8" y="285.9" width="21.1" height="21.1" fill="#CCCCCC" opacity="0.05" transform="rotate(30 328 286)"/>
<rect x="200.1" y="395.8" width="10.6" height="10.6" fill="#ffffff" opacity="0.06" transform="rotate(35 200 396)"/>
<circle cx="539.3" cy="605.5" r="12.1" fill="#ffffff" opacity="0.08"/>
<circle cx="182.2" cy="303.1" r="2.3" fill="#ffffff" opacity="0.09"/>
<rect x="791.9" y="355.1" width="9.0" height="9.0" fill="#CCCCCC" opacity="0.08" transform="rotate(34 792 355)"/>
<circle cx="353.5" cy="468.7" r="4.0" fill="#ffffff" opacity="0.19"/>
<circle cx="140.8" cy="784.6" r="4.0" fill="#d9d9d9" opacity="0.08"/>
<rect x="668.1" y="49.4" width="21.4" height="21.4" fill="#e0e0e0" opacity="0.22" transform="rotate(5 668 49)"/>
<circle cx="971.4" cy="3.5" r="11.8" fill="#CCCCCC" opacity="0.19"/>
<rect x="584.9" y="107.4" width="9.9" height="9.9" fill="#d9d9d9" opacity="0.12" transform="rotate(37 585 107)"/>
<rect x="277.3" y="585.7" width="18.7" height="18.7" fill="#CCCCCC" opacity="0.16" transform="rotate(21 277 586)"/>
<circle cx="929.1" cy="477.3" r="10.3" fill="#CCCCCC" opacity="0.15"/>
<circle cx="145.7" cy="895.8" r="12.2" fill="#CCCCCC" opacity="0.11"/>
<rect x="409.8" y="416.9" width="14.7" height="14.7" fill="#efefef" opacity="0.10" transform="rotate(36 410 417)"/>
<rect x="438.0" y="277.3" width="13.5" height="13.5" fill="#ffffff" opacity="0.07" transform="rotate(14 438 277)"/>
<rect x="627.8" y="109.5" width="10.7" height="10.7" fill="#dcdcdc" opacity="0.21" transform="rotate(40 628 109)"/>
<rect x="366.1" y="59.3" width="16.9" height="16.9" fill="#dddddd" opacity="0.16" transform="rotate(8 366 59)"/>
<rect x="806.5" y="373.1" width="3.5" height="3.5" fill="#efefef" opacity="0.21" transform="rotate(42 807 373)"/>
<circle cx="231.7" cy="380.2" r="8.9" fill="#d9d9d9" opacity="0.16"/>
<circle cx="608.0" cy="373.9" r="7.9" fill="#CCCCCC" opacity="0.11"/>
<rect x="730.8" y="747.4" width="14.9" height="14.9" fill="#CCCCCC" opacity="0.14" transform="rotate(44 731 747)"/>
<circle cx="869.8" cy="422.3" r="9.9" fill="#ffffff" opacity="0.21"/>
<circle cx="503.1" cy="368.5" r="8.4" fill="#f0f0f0" opacity="0.11"/>
<circle cx="443.6" cy="358.6" r="9.1" fill="#e6e6e6" opacity="0.17"/>
<circle cx="381.5" cy="359.2" r="8.8" fill="#f2f2f2" opacity="0.15"/>
<circle cx="286.5" cy="803.3" r="9.0" fill="#ffffff" opacity="0.19"/>
<rect x="1063.8" y="726.2" width="13.5" height="13.5" fill="#f1f1f1" opacity="0.25" transform="rotate(5 1064 726)"/>
<circle cx="209.1" cy="174.1" r="7.5" fill="#dadada" opacity="0.21"/>
<circle cx="1146.3" cy="713.6" r="2.8" fill="#CCCCCC" opacity="0.20"/>
<circle cx="184.8" cy="271.3" r="8.6" fill="#ffffff" opacity="0.17"/>
<circle cx="207.8" cy="602.4" r="6.7" fill="#ffffff" opacity="0.10"/>
<rect x="391.1" y="633.5" width="19.1" height="19.1" fill="#CCCCCC" opacity="0.09" transform="rotate(41 391 634)"/>
<circle cx="599.2" cy="802.9" r="3.3" fill="#ffffff" opacity="0.24"/>
<rect x="1036.2" y="531.9" width="14.4" height="14.4" fill="#CCCCCC" opacity="0.22" transform="rotate(14 1036 532)"/>
<rect x="1177.3" y="332.7" width="14.4" height="14.4" fill="#CCCCCC" opacity="0.17" transform="rotate(20 1177 333)"/>
<rect x="4.0" y="742.9" width="21.6" height="21.6" fill="#ffffff" opacity="0.08" transform="rotate(29 4 743)"/>
<circle cx="889.9" cy="322.2" r="9.7" fill="#f1f1f1" opacity="0.17"/>
<rect x="366.9" y="572.7" width="10.4" height="10.4" fill="#f0f0f0" opacity="0.14" transform="rotate(44 367 573)"/>
<rect x="1139.4" y="670.8" width="7.0" height="7.0" fill="#f1f1f1" opacity="0.08" transform="rotate(28 1139 671)"/>
<circle cx="940.0" cy="260.3" r="11.1" fill="#e0e0e0" opacity="0.18"/>
<rect x="959.3" y="320.2" width="9.4" height="9.4" fill="#e0e0e0" opacity="0.25" transform="rotate(7 959 320)"/>
<circle cx="785.1" cy="118.4" r="6.4" fill="#dcdcdc" opacity="0.17"/>
<circle cx="1007.3" cy="764.0" r="7.7" fill="#ffffff" opacity="0.23"/>
<rect x="1027.4" y="327.3" width="15.1" height="15.1" fill="#ffffff" opacity="0.16" transform="rotate(14 1027 327)"/>
<rect x="796.5" y="411.4" width="11.1" height="11.1" fill="#e0e0e0" opacity="0.20" transform="rotate(40 797 411)"/>
<circle cx="372.4" cy="578.7" r="10.6" fill="#CCCCCC" opacity="0.07"/>
<circle cx="573.0" cy="65.8" r="6.4" fill="#ffffff" opacity="0.22"/>
<rect x="191.8" y="144.4" width="5.6" height="5.6" fill="#ffffff" opacity="0.05" transform="rotate(42 192 144)"/>
<circle cx="449.4" cy="243.8" r="2.1" fill="#CCCCCC" opacity="0.08"/>
<circle cx="595.9" cy="403.1" r="6.5" fill="#dddddd" opacity="0.06"/>
<circle cx="29.0" cy="68.0" r="4.2" fill="#d9d9d9" opacity="0.08"/>
<circle cx="302.9" cy="609.2" r="7.1" fill="#ebebeb" opacity="0.06"/>
<circle cx="1128.8" cy="626.6" r="7.5" fill="#dddddd" opacity="0.19"/>
<rect x="451.8" y="411.2" width="21.8" height="21.8" fill="#CCCCCC" opacity="0.20" transform="rotate(13 452 411)"/>
<circle cx="1190.9" cy="378.6" r="9.5" fill="#CCCCCC" opacity="0.20"/>
<rect x="507.9" y="416.6" width="22.1" height="22.1" fill="#dedede" opacity="0.17" transform="rotate(9 508 417)"/>
<circle cx="245.4" cy="437.3" r="2.0" fill="#d9d9d9" opacity="0.11"/>
<rect x="293.1" y="455.5" width="6.9" height="6.9" fill="#CCCCCC" opacity="0.16" transform="rotate(18 293 455)"/>
<circle cx="406.5" cy="703.8" r="2.6" fill="#ffffff" opacity="0.15"/>
<rect x="444.7" y="890.6" width="13.9" height="13.9" fill="#CCCCCC" opacity="0.14" transform="rotate(34 445 891)"/>
<rect x="767.3" y="497.5" width="23.6" height="23.6" fill="#ffffff" opacity="0.24" transform="rotate(6 767 497)"/>
<rect x="116.6" y="286.0" width="3.6" height="3.6" fill="#ffffff" opacity="0.17" transform="rotate(29 117 286)"/>
<circle cx="658.5" cy="37.1" r="10.7" fill="#CCCCCC" opacity="0.05"/>
<circle cx="436.6" cy="99.1" r="10.0" fill="#CCCCCC" opacity="0.11"/>
<circle cx="206.3" cy="383.0" r="3.2" fill="#CCCCCC" opacity="0.14"/>
<rect x="533.2" y="429.4" width="16.9" height="16.9" fill="#CCCCCC" opacity="0.25" transform="rotate(42 533 429)"/>
<circle cx="717.3" cy="471.8" r="3.5" fill="#CCCCCC" opacity="0.21"/>
<circle cx="393.6" cy="573.8" r="11.3" fill="#d9d9d9" opacity="0.08"/>
<rect x="687.7" y="711.5" width="15.8" height="15.8" fill="#CCCCCC" opacity="0.07" transform="rotate(26 688 712)"/>
<circle cx="577.3" cy="274.8" r="7.5" fill="#ffffff" opacity="0.23"/>
<rect x="549.4" y="553.2" width="9.3" height="9.3" fill="#ffffff" opacity="0.05" transform="rotate(13 549 553)"/>
<circle cx="615" cy="460" r="270" fill="#DC143C" opacity="0.08"/>
<defs>
        <radialGradient id="vignette" cx="50%" cy="50%" r="70%">
            <stop offset="0%" stop-color="black" stop-opacity="0"/>
            <stop offset="100%" stop-color="black" stop-opacity="0.25"/>
        </radialGradient>
    </defs>
    <rect width="1200" height="900" fill="url(#vignette)"/>
<text x="30" y="45" text-anchor="start"
        font-family="Arial, Helvetica, sans-serif" font-size="28" font-weight="bold"
        letter-spacing="2" fill="#DC143C" opacity="0.25">HAITI</text>
<text x="1180" y="880" text-anchor="end"
        font-family="Arial, Helvetica, sans-serif" font-size="14" font-weight="bold"
        letter-spacing="3" fill="#DC143C" opacity="0.35">HOOD&apos;D</text>
</svg>