<?xml version="1.0" encoding="UTF-8"?>
<svg xmlns="http://www.w3.org/2000/svg" viewBox="0 0 1200 900" width="1200" height="900">
<rect width="1200" height="900" fill="#FFFFFF"/>
<polygon points="225,10 295,112 225,215 155,112" fill="#000000" opacity="0.54"/>
<polygon points="375,14 429,112 375,211 321,112" fill="#C0C0C0" opacity="0.17"/>
<polygon points="525,45 576,112 525,180 474,112" fill="#000000" opacity="0.15"/>
<polygon points="825,34 884,112 825,191 766,112" fill="#000000" opacity="0.53"/>
<polygon points="975,18 1027,112 975,207 923,112" fill="#000000" opacity="0.31"/>
<polygon points="1125,38 1183,112 1125,187 1067,112" fill="#000000" opacity="0.24"/>
<polygon points="225,243 283,338 225,432 167,338" fill="#000000" opacity="0.40"/>
<polygon points="375,263 432,338 375,412 318,338" fill="#000000" opacity="0.22"/>
<polygon points="525,260 575,338 525,415 475,338" fill="#C0C0C0" opacity="0.40"/>
<polygon points="75,492 140,562 75,633 10,562" fill="#C0C0C0" opacity="0.36"/>
<polygon points="525,464 583,562 525,661 467,562" fill="#C0C0C0" opacity="0.22"/>
<polygon points="1125,473 1177,562 1125,652 1073,562" fill="#C0C0C0" opacity="0.37"/>
<polygon points="75,677 136,788 75,898 14,788" fill="#C0C0C0" opacity="0.20"/>
<polygon points="225,707 297,788 225,868 153,788" fill="#C0C0C0" opacity="0.49"/>
<polygon points="375,702 449,788 375,873 301,788" fill="#C0C0C0" opacity="0.24"/>
<polygon points="525,708 592,788 525,867 458,788" fill="#C0C0C0" opacity="0.42"/>
<polygon points="675,682 745,788 675,893 605,788" fill="#C0C0C0" opacity="0.47"/>
<polygon points="1125,698 1178,788 1125,877 1072,788" fill="#000000" opacity="0.19"/>
<defs>
        <radialGradient id="vignette" cx="50%" cy="50%" r="70%">
            <stop offset="0%" stop-color="black" stop-opacity="0"/>
            <stop offset="100%" stop-color="black" stop-opacity="0.25"/>
        </radialGradient>
    </defs>
    <rect width="1200" height="900" fill="url(#vignette)"/>
<text x="30" y="45" text-anchor="start"
        font-family="Arial, Helvetica, sans-serif" font-size="28" font-weight="bold"
        letter-spacing="2" fill="#C0C0C0" opacity="0.25">IRAQ</text>
<text x="1180" y="880" text-anchor="end"
        font-family="Arial, Helvetica, sans-serif" font-size="14" font-weight="bold"
        letter-spacing="3" fill="#C0C0C0" opacity="0.35">HOOD&apos;D</text>
</svg>