<?xml version="1.0" encoding="UTF-8"?>
<svg xmlns="http://www.w3.org/2000/svg" viewBox="0 0 1200 900" width="1200" height="900">
<rect width="1200" height="900" fill="#000000"/>
<rect x="653" y="511" width="260" height="200" fill="#FFFFFF" opacity="0.34" rx="11" transform="rotate(-14 783 611)"/>
<circle cx="393" cy="437" r="297" fill="#C0C0C0" opacity="0.15"/>
<circle cx="95" cy="512" r="239" fill="#191919" opacity="0.19"/>
<rect x="895" y="405" width="140" height="263" fill="#C0C0C0" opacity="0.31" rx="15" transform="rotate(3 965 536)"/>
<ellipse cx="256" cy="603" rx="313" ry="186" fill="#191919" opacity="0.20" transform="rotate(82 256 603)"/>
<line x1="621" y1="27" x2="175" y2="270" stroke="#FFFFFF" stroke-width="4.1" opacity="0.31"/>
<line x1="628" y1="612" x2="245" y2="546" stroke="#FFFFFF" stroke-width="2.4" opacity="0.12"/>
<line x1="198" y1="679" x2="960" y2="515" stroke="#FFFFFF" stroke-width="4.3" opacity="0.30"/>
<line x1="128" y1="107" x2="1093" y2="538" stroke="#FFFFFF" stroke-width="4.8" opacity="0.37"/>
<line x1="696" y1="693" x2="528" y2="217" stroke="#FFFFFF" stroke-width="2.2" opacity="0.25"/>
<defs>
        <radialGradient id="vignette" cx="50%" cy="50%" r="70%">
            <stop offset="0%" stop-color="black" stop-opacity="0"/>
            <stop offset="100%" stop-color="black" stop-opacity="0.25"/>
        </radialGradient>
    </defs>
    <rect width="1200" height="900" fill="url(#vignette)"/>
<text x="30" y="45" text-anchor="start"
        font-family="Arial, Helvetica, sans-serif" font-size="28" font-weight="bold"
        letter-spacing="2" fill="#ffffff" opacity="0.25">IRAQ</text>
<text x="1180" y="880" text-anchor="end"
        font-family="Arial, Helvetica, sans-serif" font-size="14" font-weight="bold"
        letter-spacing="3" fill="#ffffff" opacity="0.35">HOOD&apos;D</text>
</svg>