<?xml version="1.0" encoding="UTF-8"?>
<svg xmlns="http://www.w3.org/2000/svg" viewBox="0 0 1200 900" width="1200" height="900">
<rect width="1200" height="900" fill="#003D7A"/>
<polygon points="41.6,268.3 0.5,142.6 129.9,169.8" fill="#265a8d" opacity="0.14"/>
<polygon points="701.4,868.9 792.2,764.5 837.2,895.3" fill="#265a8d" opacity="0.19"/>
<polygon points="52.3,790.4 -10.9,813.0 1.1,746.9" fill="#CE1126" opacity="0.27"/>
<polygon points="382.3,610.3 479.1,627.8 415.6,702.9" fill="#265a8d" opacity="0.24"/>
<polygon points="1199.8,613.1 1204.6,673.5 1149.9,647.4" fill="#265a8d" opacity="0.20"/>
<polygon points="607.6,651.9 572.7,782.0 477.5,686.7" fill="#CE1126" opacity="0.44"/>
<polygon points="630.7,778.9 608.0,722.1 668.6,730.8" fill="#FFFFFF" opacity="0.29"/>
<polygon points="504.1,249.7 489.8,175.3 561.4,200.1" fill="#265a8d" opacity="0.38"/>
<polygon points="122.9,179.0 95.7,240.1 56.4,186.1" fill="#CE1126" opacity="0.18"/>
<polygon points="1098.6,711.5 1238.3,613.7 1253.2,783.6" fill="#265a8d" opacity="0.26"/>
<polygon points="1244.3,71.9 1179.6,169.7 1127.2,64.7" fill="#CE1126" opacity="0.24"/>
<polygon points="415.3,195.9 363.9,210.8 376.7,158.9" fill="#265a8d" opacity="0.14"/>
<polygon points="396.1,876.5 520.1,767.0 552.9,929.2" fill="#265a8d" opacity="0.44"/>
<polygon points="411.7,487.5 425.0,630.6 294.4,570.5" fill="#CE1126" opacity="0.24"/>
<polygon points="688.3,720.4 601.9,656.4 700.5,613.5" fill="#265a8d" opacity="0.10"/>
<polygon points="868.0,317.6 720.4,254.5 848.8,158.2" fill="#265a8d" opacity="0.37"/>
<polygon points="691.8,363.4 636.7,403.0 629.9,335.5" fill="#FFFFFF" opacity="0.35"/>
<polygon points="557.6,300.4 529.9,414.0 445.4,333.2" fill="#CE1126" opacity="0.31"/>
<polygon points="419.0,185.6 475.2,269.4 374.6,276.2" fill="#FFFFFF" opacity="0.28"/>
<polygon points="414.0,162.1 279.9,235.7 283.2,82.8" fill="#CE1126" opacity="0.15"/>
<polygon points="81.0,618.5 202.1,671.5 95.7,749.8" fill="#265a8d" opacity="0.26"/>
<polygon points="625.1,688.8 711.8,789.0 581.7,814.1" fill="#FFFFFF" opacity="0.33"/>
<polygon points="665.3,337.6 719.7,380.1 655.6,405.9" fill="#FFFFFF" opacity="0.31"/>
<polygon points="885.8,291.4 906.9,235.7 944.6,281.9" fill="#265a8d" opacity="0.25"/>
<polygon points="929.9,452.8 897.8,380.8 976.1,389.0" fill="#FFFFFF" opacity="0.42"/>
<polygon points="364.1,655.4 213.7,682.4 265.5,538.7" fill="#CE1126" opacity="0.44"/>
<polygon points="923.1,50.1 865.6,196.0 768.0,73.2" fill="#FFFFFF" opacity="0.34"/>
<polygon points="1007.9,460.1 919.6,565.6 872.4,436.4" fill="#FFFFFF" opacity="0.37"/>
<polygon points="6.7,181.5 54.2,220.5 -3.3,242.2" fill="#FFFFFF" opacity="0.32"/>
<polygon points="87.6,931.4 127.7,807.7 214.9,904.3" fill="#CE1126" opacity="0.27"/>
<polygon points="1155.4,602.4 1176.5,541.3 1218.9,590.2" fill="#CE1126" opacity="0.44"/>
<defs>
        <radialGradient id="vignette" cx="50%" cy="50%" r="70%">
            <stop offset="0%" stop-color="black" stop-opacity="0"/>
            <stop offset="100%" stop-color="black" stop-opacity="0.25"/>
        </radialGradient>
    </defs>
    <rect width="1200" height="900" fill="url(#vignette)"/>
<text x="30" y="45" text-anchor="start"
        font-family="Arial, Helvetica, sans-serif" font-size="28" font-weight="bold"
        letter-spacing="2" fill="#FFFFFF" opacity="0.25">IRAN</text>
<text x="1180" y="880" text-anchor="end"
        font-family="Arial, Helvetica, sans-serif" font-size="14" font-weight="bold"
        letter-spacing="3" fill="#FFFFFF" opacity="0.35">HOOD&apos;D</text>
</svg>