<?xml version="1.0" encoding="UTF-8"?>
<svg xmlns="http://www.w3.org/2000/svg" viewBox="0 0 1200 900" width="1200" height="900">
<rect width="1200" height="900" fill="#000000"/>
<path d="M 0,90 L 600,142 L 1200,90 L 1200,180 L 600,232 L 0,180 Z" fill="#228B22" opacity="0.40"/>
<path d="M 0,270 L 600,315 L 1200,270 L 1200,360 L 600,405 L 0,360 Z" fill="#FFD700" opacity="0.45"/>
<path d="M 0,450 L 600,495 L 1200,450 L 1200,540 L 600,585 L 0,540 Z" fill="#228B22" opacity="0.47"/>
<path d="M 0,630 L 600,678 L 1200,630 L 1200,720 L 600,768 L 0,720 Z" fill="#FFD700" opacity="0.36"/>
<path d="M 0,810 L 600,865 L 1200,810 L 1200,900 L 600,955 L 0,900 Z" fill="#228B22" opacity="0.38"/>
<defs>
        <radialGradient id="vignette" cx="50%" cy="50%" r="70%">
            <stop offset="0%" stop-color="black" stop-opacity="0"/>
            <stop offset="100%" stop-color="black" stop-opacity="0.25"/>
        </radialGradient>
    </defs>
    <rect width="1200" height="900" fill="url(#vignette)"/>
<text x="30" y="45" text-anchor="start"
        font-family="Arial, Helvetica, sans-serif" font-size="28" font-weight="bold"
        letter-spacing="2" fill="#ffe34c" opacity="0.25">JAMAICA</text>
<text x="1180" y="880" text-anchor="end"
        font-family="Arial, Helvetica, sans-serif" font-size="14" font-weight="bold"
        letter-spacing="3" fill="#ffe34c" opacity="0.35">HOOD&apos;D</text>
</svg>