<?xml version="1.0" encoding="UTF-8"?>
<svg xmlns="http://www.w3.org/2000/svg" viewBox="0 0 1200 900" width="1200" height="900">
<rect width="1200" height="900" fill="#FFFFFF"/>
<ellipse cx="141" cy="266" rx="163" ry="131" fill="#d8d8d8" opacity="0.20" transform="rotate(31 141 266)"/>
<ellipse cx="511" cy="557" rx="167" ry="178" fill="#d8d8d8" opacity="0.20" transform="rotate(151 511 557)"/>
<ellipse cx="961" cy="432" rx="248" ry="94" fill="#ffffff" opacity="0.08" transform="rotate(23 961 432)"/>
<ellipse cx="616" cy="811" rx="137" ry="165" fill="#000000" opacity="0.19" transform="rotate(104 616 811)"/>
<line x1="395" y1="724" x2="483" y2="575" stroke="#FFD700" stroke-width="3.1" opacity="0.36"/>
<line x1="1177" y1="657" x2="401" y2="644" stroke="#FFD700" stroke-width="3.8" opacity="0.34"/>
<line x1="37" y1="279" x2="798" y2="85" stroke="#FFD700" stroke-width="3.1" opacity="0.27"/>
<line x1="303" y1="615" x2="388" y2="467" stroke="#FFD700" stroke-width="3.0" opacity="0.23"/>
<line x1="1058" y1="278" x2="510" y2="299" stroke="#FFD700" stroke-width="3.2" opacity="0.28"/>
<defs>
        <radialGradient id="vignette" cx="50%" cy="50%" r="70%">
            <stop offset="0%" stop-color="black" stop-opacity="0"/>
            <stop offset="100%" stop-color="black" stop-opacity="0.25"/>
        </radialGradient>
    </defs>
    <rect width="1200" height="900" fill="url(#vignette)"/>
<text x="30" y="45" text-anchor="start"
        font-family="Arial, Helvetica, sans-serif" font-size="28" font-weight="bold"
        letter-spacing="2" fill="#FFD700" opacity="0.25">JORDAN</text>
<text x="1180" y="880" text-anchor="end"
        font-family="Arial, Helvetica, sans-serif" font-size="14" font-weight="bold"
        letter-spacing="3" fill="#FFD700" opacity="0.35">HOOD&apos;D</text>
</svg>