<?xml version="1.0" encoding="UTF-8"?>
<svg xmlns="http://www.w3.org/2000/svg" viewBox="0 0 1200 900" width="1200" height="900">
<rect width="1200" height="900" fill="#000000"/>
<polygon points="155.7,568.2 163.3,432.5 277.0,507.0" fill="#262626" opacity="0.26"/>
<polygon points="496.0,677.2 606.8,691.0 539.4,780.1" fill="#FFFFFF" opacity="0.23"/>
<polygon points="65.8,405.5 -3.7,381.4 52.0,333.2" fill="#FFFFFF" opacity="0.10"/>
<polygon points="897.7,105.1 893.6,185.2 826.3,141.7" fill="#262626" opacity="0.30"/>
<polygon points="591.6,786.9 501.6,915.8 434.9,773.4" fill="#FFFFFF" opacity="0.35"/>
<polygon points="324.0,120.3 305.5,287.7 169.8,188.0" fill="#262626" opacity="0.31"/>
<polygon points="841.5,584.9 764.7,668.9 730.3,560.5" fill="#262626" opacity="0.19"/>
<polygon points="953.8,742.3 877.7,862.7 811.4,736.6" fill="#262626" opacity="0.43"/>
<polygon points="253.5,798.8 189.9,655.8 345.5,672.2" fill="#262626" opacity="0.44"/>
<polygon points="391.3,281.4 401.7,388.0 304.1,343.7" fill="#FFD700" opacity="0.40"/>
<polygon points="483.0,536.4 339.5,592.2 362.9,440.1" fill="#FFD700" opacity="0.17"/>
<polygon points="1041.3,15.6 1127.9,-52.0 1143.1,56.8" fill="#FFD700" opacity="0.44"/>
<polygon points="208.8,145.8 245.1,265.1 123.6,237.0" fill="#FFD700" opacity="0.18"/>
<polygon points="621.0,244.7 676.0,82.5 789.0,211.2" fill="#262626" opacity="0.14"/>
<polygon points="1100.2,776.3 1024.8,747.7 1087.2,696.7" fill="#262626" opacity="0.31"/>
<polygon points="966.7,809.3 853.6,802.3 916.2,707.9" fill="#FFD700" opacity="0.37"/>
<polygon points="412.0,133.6 482.7,-15.1 576.0,120.5" fill="#FFFFFF" opacity="0.31"/>
<polygon points="833.0,504.4 873.3,564.2 801.3,569.2" fill="#FFD700" opacity="0.32"/>
<polygon points="930.7,503.6 1056.5,451.8 1038.5,586.7" fill="#FFFFFF" opacity="0.20"/>
<polygon points="410.0,436.6 566.0,443.2 482.4,575.0" fill="#FFD700" opacity="0.24"/>
<polygon points="569.8,295.6 429.8,366.2 438.6,209.7" fill="#FFFFFF" opacity="0.31"/>
<polygon points="1112.3,608.5 1026.7,670.2 1016.1,565.2" fill="#FFFFFF" opacity="0.11"/>
<polygon points="426.3,332.1 523.1,311.6 492.5,405.7" fill="#FFD700" opacity="0.36"/>
<polygon points="818.0,172.0 884.9,262.1 773.4,275.0" fill="#262626" opacity="0.24"/>
<polygon points="268.8,565.6 196.2,482.7 304.2,461.3" fill="#FFFFFF" opacity="0.10"/>
<polygon points="1145.0,253.8 1116.6,87.3 1274.9,145.9" fill="#262626" opacity="0.37"/>
<polygon points="496.6,43.5 406.1,9.6 480.7,-51.8" fill="#FFFFFF" opacity="0.29"/>
<polygon points="61.4,575.7 63.4,649.8 -1.8,614.4" fill="#FFFFFF" opacity="0.13"/>
<polygon points="625.0,650.9 572.3,742.2 519.6,650.9" fill="#262626" opacity="0.25"/>
<polygon points="1130.3,258.4 1231.2,330.0 1118.7,381.6" fill="#FFD700" opacity="0.37"/>
<polygon points="548.2,521.7 650.3,429.5 679.1,564.1" fill="#FFD700" opacity="0.23"/>
<polygon points="916.3,274.7 982.3,326.7 904.3,357.8" fill="#FFFFFF" opacity="0.25"/>
<defs>
        <radialGradient id="vignette" cx="50%" cy="50%" r="70%">
            <stop offset="0%" stop-color="black" stop-opacity="0"/>
            <stop offset="100%" stop-color="black" stop-opacity="0.25"/>
        </radialGradient>
    </defs>
    <rect width="1200" height="900" fill="url(#vignette)"/>
<text x="30" y="45" text-anchor="start"
        font-family="Arial, Helvetica, sans-serif" font-size="28" font-weight="bold"
        letter-spacing="2" fill="#ffe34c" opacity="0.25">JORDAN</text>
<text x="1180" y="880" text-anchor="end"
        font-family="Arial, Helvetica, sans-serif" font-size="14" font-weight="bold"
        letter-spacing="3" fill="#ffe34c" opacity="0.35">HOOD&apos;D</text>
</svg>