<?xml version="1.0" encoding="UTF-8"?>
<svg xmlns="http://www.w3.org/2000/svg" viewBox="0 0 1200 900" width="1200" height="900">
<rect width="1200" height="900" fill="#F5F5F5"/>
<rect x="-750.0" y="-100" width="58.2" height="1100" fill="#000000" opacity="0.45" transform="rotate(15.8 600.0 450.0)"/>
<rect x="-600.0" y="-100" width="47.5" height="1100" fill="#000000" opacity="0.46" transform="rotate(15.8 600.0 450.0)"/>
<rect x="-450.0" y="-100" width="22.9" height="1100" fill="#000000" opacity="0.32" transform="rotate(15.8 600.0 450.0)"/>
<rect x="-300.0" y="-100" width="57.6" height="1100" fill="#000000" opacity="0.45" transform="rotate(15.8 600.0 450.0)"/>
<rect x="-150.0" y="-100" width="43.8" height="1100" fill="#000000" opacity="0.39" transform="rotate(15.8 600.0 450.0)"/>
<rect x="0.0" y="-100" width="22.4" height="1100" fill="#000000" opacity="0.71" transform="rotate(15.8 600.0 450.0)"/>
<rect x="150.0" y="-100" width="21.4" height="1100" fill="#000000" opacity="0.77" transform="rotate(15.8 600.0 450.0)"/>
<rect x="300.0" y="-100" width="59.7" height="1100" fill="#000000" opacity="0.45" transform="rotate(15.8 600.0 450.0)"/>
<rect x="450.0" y="-100" width="43.5" height="1100" fill="#000000" opacity="0.48" transform="rotate(15.8 600.0 450.0)"/>
<rect x="600.0" y="-100" width="58.1" height="1100" fill="#000000" opacity="0.78" transform="rotate(15.8 600.0 450.0)"/>
<rect x="750.0" y="-100" width="32.4" height="1100" fill="#000000" opacity="0.70" transform="rotate(15.8 600.0 450.0)"/>
<rect x="900.0" y="-100" width="51.7" height="1100" fill="#000000" opacity="0.35" transform="rotate(15.8 600.0 450.0)"/>
<rect x="1050.0" y="-100" width="22.2" height="1100" fill="#000000" opacity="0.57" transform="rotate(15.8 600.0 450.0)"/>
<rect x="1200.0" y="-100" width="43.3" height="1100" fill="#000000" opacity="0.37" transform="rotate(15.8 600.0 450.0)"/>
<rect x="1350.0" y="-100" width="51.4" height="1100" fill="#000000" opacity="0.36" transform="rotate(15.8 600.0 450.0)"/>
<rect x="1500.0" y="-100" width="25.7" height="1100" fill="#000000" opacity="0.57" transform="rotate(15.8 600.0 450.0)"/>
<rect x="1650.0" y="-100" width="36.0" height="1100" fill="#000000" opacity="0.46" transform="rotate(15.8 600.0 450.0)"/>
<rect x="1800.0" y="-100" width="54.4" height="1100" fill="#000000" opacity="0.62" transform="rotate(15.8 600.0 450.0)"/>
<rect x="1950.0" y="-100" width="43.7" height="1100" fill="#000000" opacity="0.66" transform="rotate(15.8 600.0 450.0)"/>
<rect x="2100.0" y="-100" width="27.9" height="1100" fill="#000000" opacity="0.52" transform="rotate(15.8 600.0 450.0)"/>
<rect x="2250.0" y="-100" width="31.9" height="1100" fill="#000000" opacity="0.34" transform="rotate(15.8 600.0 450.0)"/>
<rect x="2400.0" y="-100" width="23.3" height="1100" fill="#000000" opacity="0.67" transform="rotate(15.8 600.0 450.0)"/>
<rect x="0" y="765" width="1200" height="4" fill="#DC143C" opacity="0.6"/>
<defs>
        <radialGradient id="vignette" cx="50%" cy="50%" r="70%">
            <stop offset="0%" stop-color="black" stop-opacity="0"/>
            <stop offset="100%" stop-color="black" stop-opacity="0.25"/>
        </radialGradient>
    </defs>
    <rect width="1200" height="900" fill="url(#vignette)"/>
<text x="30" y="45" text-anchor="start"
        font-family="Arial, Helvetica, sans-serif" font-size="28" font-weight="bold"
        letter-spacing="2" fill="#DC143C" opacity="0.25">JAPAN</text>
<text x="1180" y="880" text-anchor="end"
        font-family="Arial, Helvetica, sans-serif" font-size="14" font-weight="bold"
        letter-spacing="3" fill="#DC143C" opacity="0.35">HOOD&apos;D</text>
</svg>