<?xml version="1.0" encoding="UTF-8"?>
<svg xmlns="http://www.w3.org/2000/svg" viewBox="0 0 1200 900" width="1200" height="900">
<rect width="1200" height="900" fill="#0052CC"/>
<path d="M 0,212.75193585645366 L 0,129.8 L 10,144.4 L 20,147.0 L 30,139.6 L 40,141.0 L 50,150.8 L 60,155.2 L 70,157.5 L 80,156.6 L 90,149.8 L 100,148.6 L 110,162.4 L 120,162.8 L 130,159.3 L 140,162.2 L 150,158.3 L 160,159.9 L 170,161.7 L 180,160.6 L 190,162.7 L 200,162.3 L 210,159.4 L 220,162.1 L 230,158.6 L 240,146.5 L 250,157.7 L 260,158.6 L 270,140.6 L 280,156.3 L 290,140.7 L 300,146.3 L 310,137.5 L 320,138.9 L 330,134.8 L 340,134.3 L 350,135.6 L 360,131.4 L 370,140.7 L 380,123.7 L 390,115.0 L 400,127.8 L 410,125.8 L 420,122.4 L 430,107.1 L 440,114.7 L 450,107.5 L 460,103.1 L 470,115.3 L 480,102.7 L 490,105.3 L 500,102.4 L 510,107.4 L 520,105.5 L 530,103.7 L 540,107.7 L 550,102.3 L 560,102.3 L 570,106.5 L 580,112.6 L 590,111.5 L 600,113.1 L 610,104.7 L 620,109.5 L 630,120.6 L 640,124.3 L 650,131.8 L 660,136.3 L 670,136.1 L 680,116.9 L 690,137.8 L 700,120.5 L 710,144.1 L 720,137.1 L 730,141.3 L 740,129.4 L 750,137.1 L 760,143.8 L 770,141.7 L 780,145.8 L 790,159.5 L 800,159.8 L 810,162.3 L 820,158.1 L 830,161.9 L 840,155.5 L 850,162.5 L 860,161.1 L 870,162.5 L 880,162.7 L 890,161.9 L 900,162.7 L 910,158.4 L 920,162.7 L 930,162.0 L 940,155.2 L 950,160.5 L 960,156.7 L 970,152.4 L 980,155.8 L 990,141.7 L 1000,146.7 L 1010,147.7 L 1020,147.0 L 1030,145.5 L 1040,143.4 L 1050,120.2 L 1060,120.5 L 1070,114.6 L 1080,128.3 L 1090,123.5 L 1100,127.4 L 1110,117.7 L 1120,113.5 L 1130,105.8 L 1140,104.3 L 1150,106.7 L 1160,108.2 L 1170,113.5 L 1180,106.4 L 1190,108.2 L 1200,102.6 L 1210,102.4 L 1200,212.75193585645366 Z" fill="#FFFFFF" opacity="0.30"/>
<path d="M 0,445.03938052051853 L 0,345.1 L 10,350.4 L 20,346.8 L 30,375.1 L 40,374.9 L 50,366.6 L 60,371.7 L 70,368.5 L 80,381.5 L 90,371.7 L 100,366.9 L 110,358.9 L 120,357.4 L 130,386.5 L 140,362.6 L 150,371.6 L 160,360.6 L 170,390.9 L 180,390.8 L 190,390.6 L 200,370.8 L 210,389.5 L 220,388.4 L 230,375.6 L 240,385.4 L 250,394.4 L 260,378.6 L 270,386.7 L 280,382.2 L 290,385.9 L 300,389.3 L 310,394.9 L 320,384.7 L 330,394.9 L 340,386.4 L 350,394.1 L 360,392.3 L 370,392.8 L 380,393.2 L 390,391.9 L 400,388.8 L 410,393.5 L 420,394.8 L 430,395.0 L 440,394.4 L 450,393.7 L 460,394.4 L 470,393.9 L 480,386.4 L 490,387.3 L 500,390.4 L 510,383.5 L 520,394.0 L 530,385.5 L 540,389.0 L 550,393.0 L 560,393.4 L 570,378.4 L 580,387.6 L 590,374.9 L 600,391.8 L 610,388.3 L 620,370.6 L 630,379.7 L 640,353.7 L 650,377.1 L 660,358.2 L 670,372.6 L 680,351.2 L 690,364.0 L 700,365.2 L 710,346.6 L 720,365.5 L 730,363.6 L 740,346.5 L 750,370.8 L 760,370.9 L 770,336.5 L 780,366.1 L 790,356.4 L 800,334.9 L 810,341.1 L 820,334.7 L 830,330.4 L 840,334.9 L 850,356.3 L 860,341.5 L 870,352.8 L 880,333.7 L 890,343.3 L 900,324.4 L 910,337.4 L 920,308.3 L 930,317.4 L 940,339.4 L 950,334.2 L 960,307.6 L 970,332.0 L 980,333.1 L 990,307.8 L 1000,315.0 L 1010,306.5 L 1020,325.1 L 1030,304.6 L 1040,321.3 L 1050,307.5 L 1060,314.6 L 1070,303.3 L 1080,315.4 L 1090,303.3 L 1100,303.0 L 1110,303.1 L 1120,312.5 L 1130,307.6 L 1140,307.1 L 1150,303.6 L 1160,306.4 L 1170,306.3 L 1180,304.8 L 1190,303.6 L 1200,307.5 L 1210,303.5 L 1200,445.03938052051853 Z" fill="#87CEEB" opacity="0.37"/>
<path d="M 0,633.4888707995959 L 0,556.7 L 10,529.0 L 20,525.1 L 30,540.3 L 40,561.3 L 50,540.1 L 60,565.4 L 70,565.2 L 80,568.7 L 90,567.6 L 100,582.2 L 110,567.8 L 120,582.0 L 130,580.5 L 140,582.1 L 150,582.0 L 160,581.0 L 170,583.5 L 180,581.2 L 190,575.1 L 200,575.7 L 210,583.0 L 220,571.7 L 230,582.6 L 240,574.4 L 250,558.1 L 260,570.7 L 270,576.9 L 280,541.6 L 290,553.8 L 300,555.4 L 310,527.4 L 320,550.5 L 330,556.8 L 340,549.1 L 350,511.3 L 360,525.7 L 370,542.3 L 380,523.8 L 390,502.9 L 400,495.3 L 410,493.6 L 420,506.5 L 430,511.9 L 440,502.7 L 450,492.0 L 460,502.8 L 470,492.2 L 480,497.9 L 490,491.7 L 500,491.1 L 510,491.2 L 520,501.9 L 530,501.1 L 540,508.6 L 550,503.7 L 560,493.4 L 570,501.2 L 580,493.3 L 590,506.9 L 600,519.2 L 610,533.9 L 620,524.3 L 630,518.4 L 640,526.7 L 650,525.9 L 660,537.1 L 670,544.3 L 680,526.4 L 690,540.4 L 700,570.4 L 710,555.2 L 720,570.2 L 730,559.2 L 740,579.5 L 750,569.1 L 760,578.7 L 770,565.0 L 780,564.4 L 790,575.0 L 800,576.2 L 810,575.8 L 820,582.4 L 830,583.0 L 840,581.4 L 850,580.1 L 860,571.8 L 870,582.4 L 880,566.4 L 890,578.5 L 900,580.7 L 910,567.9 L 920,574.6 L 930,571.4 L 940,545.4 L 950,556.9 L 960,545.0 L 970,546.9 L 980,558.8 L 990,529.7 L 1000,535.6 L 1010,530.3 L 1020,515.2 L 1030,528.4 L 1040,530.9 L 1050,531.2 L 1060,512.0 L 1070,513.9 L 1080,496.1 L 1090,493.9 L 1100,494.6 L 1110,505.3 L 1120,492.1 L 1130,491.1 L 1140,491.3 L 1150,498.6 L 1160,494.8 L 1170,491.2 L 1180,499.3 L 1190,498.5 L 1200,497.3 L 1210,494.2 L 1200,633.4888707995959 Z" fill="#FFFFFF" opacity="0.26"/>
<path d="M 0,895.1049400570312 L 0,779.6 L 10,809.7 L 20,784.5 L 30,777.8 L 40,786.3 L 50,787.7 L 60,817.0 L 70,814.0 L 80,820.4 L 90,828.6 L 100,808.9 L 110,835.9 L 120,835.5 L 130,838.8 L 140,836.0 L 150,833.8 L 160,807.0 L 170,827.1 L 180,819.7 L 190,834.1 L 200,827.9 L 210,828.0 L 220,822.8 L 230,842.2 L 240,836.8 L 250,840.2 L 260,827.9 L 270,831.9 L 280,843.1 L 290,841.9 L 300,842.3 L 310,844.4 L 320,844.9 L 330,844.1 L 340,844.5 L 350,844.6 L 360,845.0 L 370,838.8 L 380,845.0 L 390,835.1 L 400,840.1 L 410,837.0 L 420,841.5 L 430,845.0 L 440,834.2 L 450,827.9 L 460,830.1 L 470,835.2 L 480,843.4 L 490,843.1 L 500,839.6 L 510,837.1 L 520,827.6 L 530,841.0 L 540,806.9 L 550,837.8 L 560,820.1 L 570,804.2 L 580,827.5 L 590,819.2 L 600,797.7 L 610,811.9 L 620,828.3 L 630,809.3 L 640,789.5 L 650,824.1 L 660,821.8 L 670,822.9 L 680,777.6 L 690,819.1 L 700,781.3 L 710,802.8 L 720,771.9 L 730,784.9 L 740,810.1 L 750,797.4 L 760,794.9 L 770,773.1 L 780,761.6 L 790,765.0 L 800,762.0 L 810,764.9 L 820,760.5 L 830,750.9 L 840,752.4 L 850,757.1 L 860,763.5 L 870,765.8 L 880,763.0 L 890,747.0 L 900,754.2 L 910,768.0 L 920,747.8 L 930,764.9 L 940,762.7 L 950,743.7 L 960,743.6 L 970,749.2 L 980,754.6 L 990,747.1 L 1000,746.8 L 1010,754.5 L 1020,743.6 L 1030,743.6 L 1040,743.6 L 1050,743.7 L 1060,748.3 L 1070,747.0 L 1080,748.3 L 1090,752.8 L 1100,748.3 L 1110,745.3 L 1120,751.7 L 1130,757.6 L 1140,753.9 L 1150,746.1 L 1160,743.6 L 1170,753.4 L 1180,743.9 L 1190,760.8 L 1200,746.3 L 1210,773.0 L 1200,895.1049400570312 Z" fill="#9fd7ef" opacity="0.50"/>
<path d="M 0,0 L 0,60 L 0,40.0 L 8,41.3 L 16,42.5 L 24,43.7 L 32,45.0 L 40,46.2 L 48,47.4 L 56,48.5 L 64,49.6 L 72,50.7 L 80,51.8 L 88,52.7 L 96,53.7 L 104,54.6 L 112,55.4 L 120,56.2 L 128,56.9 L 136,57.5 L 144,58.1 L 152,58.6 L 160,59.0 L 168,59.4 L 176,59.6 L 184,59.8 L 192,60.0 L 200,60.0 L 208,60.0 L 216,59.8 L 224,59.6 L 232,59.4 L 240,59.0 L 248,58.6 L 256,58.1 L 264,57.5 L 272,56.9 L 280,56.2 L 288,55.4 L 296,54.6 L 304,53.7 L 312,52.7 L 320,51.8 L 328,50.7 L 336,49.6 L 344,48.5 L 352,47.4 L 360,46.2 L 368,45.0 L 376,43.7 L 384,42.5 L 392,41.3 L 400,40.0 L 408,38.7 L 416,37.5 L 424,36.3 L 432,35.0 L 440,33.8 L 448,32.6 L 456,31.5 L 464,30.4 L 472,29.3 L 480,28.2 L 488,27.3 L 496,26.3 L 504,25.4 L 512,24.6 L 520,23.8 L 528,23.1 L 536,22.5 L 544,21.9 L 552,21.4 L 560,21.0 L 568,20.6 L 576,20.4 L 584,20.2 L 592,20.0 L 600,20.0 L 608,20.0 L 616,20.2 L 624,20.4 L 632,20.6 L 640,21.0 L 648,21.4 L 656,21.9 L 664,22.5 L 672,23.1 L 680,23.8 L 688,24.6 L 696,25.4 L 704,26.3 L 712,27.3 L 720,28.2 L 728,29.3 L 736,30.4 L 744,31.5 L 752,32.6 L 760,33.8 L 768,35.0 L 776,36.3 L 784,37.5 L 792,38.7 L 800,40.0 L 808,41.3 L 816,42.5 L 824,43.7 L 832,45.0 L 840,46.2 L 848,47.4 L 856,48.5 L 864,49.6 L 872,50.7 L 880,51.8 L 888,52.7 L 896,53.7 L 904,54.6 L 912,55.4 L 920,56.2 L 928,56.9 L 936,57.5 L 944,58.1 L 952,58.6 L 960,59.0 L 968,59.4 L 976,59.6 L 984,59.8 L 992,60.0 L 1000,60.0 L 1008,60.0 L 1016,59.8 L 1024,59.6 L 1032,59.4 L 1040,59.0 L 1048,58.6 L 1056,58.1 L 1064,57.5 L 1072,56.9 L 1080,56.2 L 1088,55.4 L 1096,54.6 L 1104,53.7 L 1112,52.7 L 1120,51.8 L 1128,50.7 L 1136,49.6 L 1144,48.5 L 1152,47.4 L 1160,46.2 L 1168,45.0 L 1176,43.7 L 1184,42.5 L 1192,41.3 L 1200,40.0 L 1208,38.7 L 1216,37.5 L 1200,0 Z" fill="#FFFFFF" opacity="0.3"/>
<defs>
        <radialGradient id="vignette" cx="50%" cy="50%" r="70%">
            <stop offset="0%" stop-color="black" stop-opacity="0"/>
            <stop offset="100%" stop-color="black" stop-opacity="0.25"/>
        </radialGradient>
    </defs>
    <rect width="1200" height="900" fill="url(#vignette)"/>
<text x="30" y="45" text-anchor="start"
        font-family="Arial, Helvetica, sans-serif" font-size="28" font-weight="bold"
        letter-spacing="2" fill="#FFFFFF" opacity="0.25">JAPAN</text>
<text x="1180" y="880" text-anchor="end"
        font-family="Arial, Helvetica, sans-serif" font-size="14" font-weight="bold"
        letter-spacing="3" fill="#FFFFFF" opacity="0.35">HOOD&apos;D</text>
</svg>