<?xml version="1.0" encoding="UTF-8"?>
<svg xmlns="http://www.w3.org/2000/svg" viewBox="0 0 1200 900" width="1200" height="900">
<rect width="1200" height="900" fill="#663399"/>
<circle cx="93.4" cy="294.8" r="12.4" fill="#7a4da6" opacity="0.18"/>
<circle cx="918.6" cy="553.6" r="11.9" fill="#603090" opacity="0.22"/>
<rect x="888.2" y="805.0" width="18.8" height="18.8" fill="#4B0082" opacity="0.09" transform="rotate(43 888 805)"/>
<circle cx="338.0" cy="726.3" r="10.9" fill="#5d2e8b" opacity="0.20"/>
<rect x="534.4" y="419.1" width="6.8" height="6.8" fill="#5a2d88" opacity="0.22" transform="rotate(43 534 419)"/>
<circle cx="1150.5" cy="847.9" r="9.1" fill="#4B0082" opacity="0.06"/>
<circle cx="98.7" cy="520.2" r="7.6" fill="#7344a1" opacity="0.12"/>
<circle cx="643.6" cy="617.9" r="11.3" fill="#592c86" opacity="0.25"/>
<rect x="720.1" y="893.3" width="6.8" height="6.8" fill="#5d2e8c" opacity="0.08" transform="rotate(29 720 893)"/>
<rect x="867.3" y="5.6" width="14.7" height="14.7" fill="#5e2f8e" opacity="0.09" transform="rotate(34 867 6)"/>
<rect x="1084.3" y="44.0" width="19.7" height="19.7" fill="#5b2d89" opacity="0.19" transform="rotate(35 1084 44)"/>
<circle cx="424.5" cy="98.3" r="7.5" fill="#562b82" opacity="0.21"/>
<rect x="856.5" y="176.2" width="9.3" height="9.3" fill="#4B0082" opacity="0.14" transform="rotate(33 856 176)"/>
<rect x="965.6" y="494.1" width="24.9" height="24.9" fill="#4B0082" opacity="0.15" transform="rotate(15 966 494)"/>
<circle cx="607.6" cy="768.3" r="10.7" fill="#7243a1" opacity="0.08"/>
<rect x="885.3" y="374.7" width="9.1" height="9.1" fill="#4B0082" opacity="0.10" transform="rotate(24 885 375)"/>
<rect x="51.1" y="400.5" width="12.9" height="12.9" fill="#4B0082" opacity="0.23" transform="rotate(42 51 400)"/>
<circle cx="559.2" cy="482.7" r="5.2" fill="#4B0082" opacity="0.22"/>
<rect x="787.2" y="646.2" width="13.8" height="13.8" fill="#7547a3" opacity="0.18" transform="rotate(44 787 646)"/>
<rect x="277.8" y="734.0" width="21.2" height="21.2" fill="#582c84" opacity="0.22" transform="rotate(3 278 734)"/>
<circle cx="963.2" cy="565.0" r="9.8" fill="#582c85" opacity="0.15"/>
<rect x="332.3" y="786.5" width="5.5" height="5.5" fill="#4B0082" opacity="0.13" transform="rotate(12 332 786)"/>
<circle cx="799.2" cy="536.6" r="10.0" fill="#5b2d89" opacity="0.17"/>
<circle cx="73.2" cy="35.4" r="2.1" fill="#572b83" opacity="0.17"/>
<circle cx="25.8" cy="618.8" r="11.6" fill="#603090" opacity="0.15"/>
<circle cx="602.5" cy="367.4" r="6.1" fill="#7b4fa7" opacity="0.17"/>
<rect x="584.0" y="98.7" width="18.8" height="18.8" fill="#4B0082" opacity="0.07" transform="rotate(44 584 99)"/>
<rect x="1063.8" y="796.5" width="5.3" height="5.3" fill="#7243a1" opacity="0.07" transform="rotate(13 1064 796)"/>
<rect x="752.9" y="14.9" width="13.0" height="13.0" fill="#4B0082" opacity="0.11" transform="rotate(38 753 15)"/>
<circle cx="1197.4" cy="388.9" r="10.7" fill="#592c86" opacity="0.10"/>
<circle cx="326.9" cy="444.5" r="12.0" fill="#7649a4" opacity="0.14"/>
<rect x="442.6" y="312.9" width="16.9" height="16.9" fill="#592c85" opacity="0.13" transform="rotate(5 443 313)"/>
<circle cx="284.3" cy="308.2" r="7.9" fill="#5a2d87" opacity="0.06"/>
<rect x="505.5" y="611.3" width="24.8" height="24.8" fill="#572b83" opacity="0.22" transform="rotate(32 505 611)"/>
<rect x="296.3" y="624.3" width="6.6" height="6.6" fill="#4B0082" opacity="0.24" transform="rotate(13 296 624)"/>
<rect x="900.3" y="472.6" width="24.4" height="24.4" fill="#7a4ea6" opacity="0.11" transform="rotate(17 900 473)"/>
<rect x="274.9" y="286.9" width="10.3" height="10.3" fill="#4B0082" opacity="0.09" transform="rotate(26 275 287)"/>
<rect x="769.2" y="476.5" width="20.3" height="20.3" fill="#7547a3" opacity="0.20" transform="rotate(9 769 477)"/>
<circle cx="259.1" cy="526.2" r="4.4" fill="#4B0082" opacity="0.21"/>
<circle cx="644.7" cy="456.6" r="9.5" fill="#572b83" opacity="0.19"/>
<rect x="608.4" y="454.1" width="5.4" height="5.4" fill="#592c85" opacity="0.13" transform="rotate(12 608 454)"/>
<circle cx="730.0" cy="826.9" r="5.2" fill="#4B0082" opacity="0.22"/>
<circle cx="51.8" cy="136.8" r="11.7" fill="#5e2f8d" opacity="0.16"/>
<rect x="943.5" y="667.9" width="9.5" height="9.5" fill="#603090" opacity="0.06" transform="rotate(36 944 668)"/>
<circle cx="598.5" cy="75.8" r="5.9" fill="#784ca5" opacity="0.21"/>
<circle cx="243.7" cy="744.1" r="10.7" fill="#7a4da6" opacity="0.18"/>
<circle cx="226.3" cy="159.6" r="7.2" fill="#4B0082" opacity="0.23"/>
<circle cx="1.2" cy="68.0" r="2.5" fill="#6f3f9f" opacity="0.19"/>
<rect x="312.1" y="502.6" width="6.4" height="6.4" fill="#7c50a7" opacity="0.20" transform="rotate(32 312 503)"/>
<circle cx="105.2" cy="830.6" r="7.6" fill="#5b2d89" opacity="0.16"/>
<circle cx="640.1" cy="649.3" r="7.7" fill="#4B0082" opacity="0.16"/>
<rect x="520.7" y="838.9" width="18.1" height="18.1" fill="#5f2f8e" opacity="0.09" transform="rotate(1 521 839)"/>
<rect x="980.2" y="796.9" width="19.7" height="19.7" fill="#5a2d88" opacity="0.06" transform="rotate(43 980 797)"/>
<circle cx="324.7" cy="546.7" r="9.0" fill="#5a2d88" opacity="0.16"/>
<rect x="586.1" y="265.2" width="24.3" height="24.3" fill="#774aa4" opacity="0.19" transform="rotate(2 586 265)"/>
<rect x="903.0" y="208.6" width="10.8" height="10.8" fill="#582c84" opacity="0.19" transform="rotate(10 903 209)"/>
<circle cx="601.9" cy="339.5" r="7.8" fill="#5c2e8a" opacity="0.06"/>
<rect x="219.7" y="763.8" width="6.2" height="6.2" fill="#582c84" opacity="0.15" transform="rotate(39 220 764)"/>
<circle cx="1153.5" cy="749.9" r="11.2" fill="#774aa4" opacity="0.14"/>
<rect x="838.9" y="813.7" width="17.5" height="17.5" fill="#592c86" opacity="0.09" transform="rotate(32 839 814)"/>
<circle cx="572.1" cy="302.0" r="11.8" fill="#7548a3" opacity="0.23"/>
<rect x="59.4" y="298.0" width="13.0" height="13.0" fill="#5a2d87" opacity="0.19" transform="rotate(14 59 298)"/>
<circle cx="209.0" cy="310.0" r="3.6" fill="#7a4ea6" opacity="0.18"/>
<circle cx="335.9" cy="197.9" r="5.6" fill="#4B0082" opacity="0.11"/>
<rect x="702.6" y="202.5" width="14.7" height="14.7" fill="#5c2e8a" opacity="0.17" transform="rotate(20 703 203)"/>
<circle cx="341.4" cy="226.1" r="5.9" fill="#582c84" opacity="0.05"/>
<rect x="94.0" y="248.8" width="18.7" height="18.7" fill="#7648a3" opacity="0.10" transform="rotate(18 94 249)"/>
<rect x="497.7" y="187.9" width="14.9" height="14.9" fill="#5d2e8c" opacity="0.14" transform="rotate(38 498 188)"/>
<circle cx="926.4" cy="555.0" r="9.9" fill="#7a4ea6" opacity="0.17"/>
<rect x="496.1" y="839.9" width="10.4" height="10.4" fill="#4B0082" opacity="0.18" transform="rotate(25 496 840)"/>
<rect x="1109.8" y="386.9" width="24.6" height="24.6" fill="#6f3f9f" opacity="0.21" transform="rotate(8 1110 387)"/>
<rect x="565.9" y="573.3" width="5.5" height="5.5" fill="#5c2e8a" opacity="0.14" transform="rotate(2 566 573)"/>
<rect x="171.9" y="223.4" width="3.3" height="3.3" fill="#592c86" opacity="0.23" transform="rotate(8 172 223)"/>
<circle cx="281.8" cy="485.2" r="4.7" fill="#582c85" opacity="0.08"/>
<circle cx="526.0" cy="395.1" r="8.4" fill="#4B0082" opacity="0.13"/>
<circle cx="1082.3" cy="384.2" r="10.6" fill="#592c86" opacity="0.17"/>
<circle cx="941.5" cy="133.5" r="11.5" fill="#4B0082" opacity="0.10"/>
<circle cx="511.5" cy="288.1" r="5.3" fill="#5c2e8a" opacity="0.16"/>
<rect x="377.2" y="393.9" width="4.1" height="4.1" fill="#572b82" opacity="0.17" transform="rotate(34 377 394)"/>
<circle cx="1093.8" cy="561.5" r="5.0" fill="#7c51a8" opacity="0.19"/>
<circle cx="140.6" cy="7.8" r="6.0" fill="#7548a3" opacity="0.06"/>
<circle cx="364.8" cy="853.0" r="2.4" fill="#7142a0" opacity="0.17"/>
<rect x="92.6" y="135.0" width="10.9" height="10.9" fill="#4B0082" opacity="0.16" transform="rotate(26 93 135)"/>
<circle cx="129.4" cy="129.5" r="4.7" fill="#7749a4" opacity="0.08"/>
<rect x="531.7" y="719.6" width="19.3" height="19.3" fill="#5d2e8b" opacity="0.21" transform="rotate(39 532 720)"/>
<circle cx="984.6" cy="725.7" r="11.4" fill="#7649a4" opacity="0.12"/>
<circle cx="250.1" cy="269.3" r="10.1" fill="#603090" opacity="0.19"/>
<circle cx="1072.5" cy="326.7" r="3.1" fill="#572b82" opacity="0.18"/>
<circle cx="324.4" cy="123.2" r="2.4" fill="#5e2f8d" opacity="0.20"/>
<rect x="76.6" y="90.7" width="22.7" height="22.7" fill="#4B0082" opacity="0.17" transform="rotate(42 77 91)"/>
<circle cx="354.3" cy="648.1" r="7.5" fill="#4B0082" opacity="0.21"/>
<circle cx="309.7" cy="80.9" r="11.1" fill="#592c85" opacity="0.24"/>
<rect x="1095.6" y="292.9" width="22.5" height="22.5" fill="#5f2f8f" opacity="0.13" transform="rotate(7 1096 293)"/>
<rect x="279.1" y="871.1" width="9.0" height="9.0" fill="#784ba5" opacity="0.24" transform="rotate(27 279 871)"/>
<rect x="395.8" y="850.8" width="11.4" height="11.4" fill="#5a2d87" opacity="0.14" transform="rotate(0 396 851)"/>
<rect x="527.9" y="306.4" width="20.2" height="20.2" fill="#7649a4" opacity="0.14" transform="rotate(15 528 306)"/>
<rect x="218.1" y="895.9" width="15.5" height="15.5" fill="#5b2d89" opacity="0.09" transform="rotate(23 218 896)"/>
<circle cx="188.7" cy="556.4" r="4.7" fill="#4B0082" opacity="0.13"/>
<circle cx="409.1" cy="665.2" r="6.9" fill="#7b4fa7" opacity="0.20"/>
<circle cx="254.5" cy="555.3" r="2.5" fill="#4B0082" opacity="0.24"/>
<circle cx="950.9" cy="381.8" r="8.7" fill="#4B0082" opacity="0.08"/>
<circle cx="1167.4" cy="341.1" r="10.3" fill="#6d3d9e" opacity="0.12"/>
<rect x="465.1" y="168.3" width="11.2" height="11.2" fill="#4B0082" opacity="0.15" transform="rotate(8 465 168)"/>
<circle cx="795.0" cy="59.9" r="2.2" fill="#7c50a7" opacity="0.22"/>
<circle cx="492.3" cy="837.9" r="10.0" fill="#603090" opacity="0.18"/>
<circle cx="117.7" cy="638.1" r="4.6" fill="#4B0082" opacity="0.07"/>
<rect x="901.3" y="154.4" width="5.5" height="5.5" fill="#4B0082" opacity="0.12" transform="rotate(7 901 154)"/>
<rect x="154.7" y="821.8" width="6.3" height="6.3" fill="#5f2f8f" opacity="0.22" transform="rotate(14 155 822)"/>
<rect x="163.1" y="157.0" width="7.0" height="7.0" fill="#784ba5" opacity="0.20" transform="rotate(29 163 157)"/>
<rect x="131.7" y="127.4" width="4.8" height="4.8" fill="#5f2f8e" opacity="0.24" transform="rotate(6 132 127)"/>
<rect x="266.1" y="530.7" width="17.3" height="17.3" fill="#794ca5" opacity="0.10" transform="rotate(26 266 531)"/>
<rect x="1051.4" y="79.2" width="7.9" height="7.9" fill="#4B0082" opacity="0.21" transform="rotate(4 1051 79)"/>
<rect x="850.0" y="505.6" width="24.5" height="24.5" fill="#7b50a7" opacity="0.06" transform="rotate(31 850 506)"/>
<rect x="878.1" y="105.0" width="13.9" height="13.9" fill="#4B0082" opacity="0.24" transform="rotate(3 878 105)"/>
<rect x="1030.7" y="576.9" width="16.8" height="16.8" fill="#5e2f8d" opacity="0.22" transform="rotate(38 1031 577)"/>
<circle cx="493.0" cy="698.0" r="2.5" fill="#784ba5" opacity="0.12"/>
<circle cx="803.9" cy="272.4" r="8.9" fill="#572b82" opacity="0.14"/>
<circle cx="327.3" cy="816.2" r="8.9" fill="#7b4fa7" opacity="0.19"/>
<rect x="643.8" y="781.3" width="21.5" height="21.5" fill="#7243a1" opacity="0.13" transform="rotate(37 644 781)"/>
<circle cx="209.8" cy="670.1" r="9.8" fill="#7547a3" opacity="0.06"/>
<circle cx="901.6" cy="51.5" r="8.5" fill="#4B0082" opacity="0.22"/>
<circle cx="58.6" cy="777.0" r="10.7" fill="#6f3f9f" opacity="0.18"/>
<circle cx="736.9" cy="517.6" r="7.3" fill="#7041a0" opacity="0.06"/>
<circle cx="713.5" cy="879.9" r="5.0" fill="#5c2e8b" opacity="0.22"/>
<circle cx="762.8" cy="603.8" r="4.2" fill="#7c50a7" opacity="0.19"/>
<rect x="806.0" y="705.3" width="7.0" height="7.0" fill="#6f3f9f" opacity="0.17" transform="rotate(7 806 705)"/>
<circle cx="78.9" cy="297.2" r="1.7" fill="#6e3d9e" opacity="0.09"/>
<rect x="419.3" y="853.4" width="8.3" height="8.3" fill="#4B0082" opacity="0.15" transform="rotate(19 419 853)"/>
<circle cx="125.8" cy="834.5" r="9.4" fill="#592c86" opacity="0.10"/>
<circle cx="888.7" cy="444.0" r="7.5" fill="#6e3e9e" opacity="0.10"/>
<circle cx="452.8" cy="179.6" r="7.8" fill="#5a2d88" opacity="0.17"/>
<rect x="918.7" y="512.7" width="12.8" height="12.8" fill="#774aa4" opacity="0.15" transform="rotate(3 919 513)"/>
<circle cx="1000.5" cy="82.6" r="4.3" fill="#5a2d87" opacity="0.15"/>
<circle cx="677.4" cy="638.5" r="2.1" fill="#572b83" opacity="0.13"/>
<rect x="32.4" y="327.9" width="5.7" height="5.7" fill="#794da6" opacity="0.07" transform="rotate(38 32 328)"/>
<rect x="616.5" y="331.6" width="15.6" height="15.6" fill="#582c84" opacity="0.17" transform="rotate(37 616 332)"/>
<circle cx="550.9" cy="567.9" r="9.6" fill="#5f2f8f" opacity="0.14"/>
<rect x="254.3" y="540.0" width="21.3" height="21.3" fill="#4B0082" opacity="0.20" transform="rotate(36 254 540)"/>
<circle cx="75.4" cy="95.8" r="4.1" fill="#572b83" opacity="0.17"/>
<rect x="599.4" y="631.2" width="23.2" height="23.2" fill="#4B0082" opacity="0.05" transform="rotate(3 599 631)"/>
<circle cx="854.2" cy="496.0" r="11.2" fill="#794ca5" opacity="0.16"/>
<rect x="551.3" y="297.8" width="3.9" height="3.9" fill="#774aa4" opacity="0.17" transform="rotate(41 551 298)"/>
<rect x="726.3" y="223.3" width="23.8" height="23.8" fill="#7547a3" opacity="0.12" transform="rotate(8 726 223)"/>
<circle cx="472.6" cy="280.9" r="7.0" fill="#7648a3" opacity="0.24"/>
<circle cx="112.5" cy="728.0" r="1.6" fill="#4B0082" opacity="0.23"/>
<rect x="960.4" y="78.5" width="19.0" height="19.0" fill="#7c50a7" opacity="0.19" transform="rotate(40 960 78)"/>
<rect x="818.0" y="349.0" width="22.0" height="22.0" fill="#572b83" opacity="0.21" transform="rotate(3 818 349)"/>
<rect x="83.8" y="698.0" width="21.2" height="21.2" fill="#7243a1" opacity="0.15" transform="rotate(30 84 698)"/>
<rect x="146.0" y="673.9" width="17.8" height="17.8" fill="#4B0082" opacity="0.14" transform="rotate(30 146 674)"/>
<circle cx="326.5" cy="217.5" r="3.8" fill="#4B0082" opacity="0.08"/>
<rect x="449.9" y="586.3" width="16.5" height="16.5" fill="#7548a3" opacity="0.08" transform="rotate(22 450 586)"/>
<circle cx="1028.4" cy="475.5" r="10.8" fill="#7b4fa7" opacity="0.14"/>
<rect x="343.3" y="421.6" width="20.0" height="20.0" fill="#4B0082" opacity="0.07" transform="rotate(40 343 422)"/>
<circle cx="512.7" cy="795.8" r="9.0" fill="#4B0082" opacity="0.09"/>
<rect x="267.8" y="736.7" width="21.2" height="21.2" fill="#572b83" opacity="0.17" transform="rotate(33 268 737)"/>
<rect x="65.5" y="179.0" width="14.5" height="14.5" fill="#7b4fa7" opacity="0.17" transform="rotate(0 65 179)"/>
<circle cx="1134.6" cy="727.7" r="6.5" fill="#5c2e8a" opacity="0.06"/>
<circle cx="139.9" cy="143.3" r="11.2" fill="#4B0082" opacity="0.15"/>
<circle cx="618.3" cy="314.2" r="4.5" fill="#774aa4" opacity="0.24"/>
<rect x="13.0" y="261.7" width="15.1" height="15.1" fill="#582c85" opacity="0.13" transform="rotate(25 13 262)"/>
<rect x="315.3" y="171.1" width="9.0" height="9.0" fill="#4B0082" opacity="0.20" transform="rotate(32 315 171)"/>
<circle cx="95.1" cy="447.1" r="8.1" fill="#4B0082" opacity="0.19"/>
<rect x="628.5" y="459.8" width="22.3" height="22.3" fill="#7345a2" opacity="0.13" transform="rotate(42 629 460)"/>
<rect x="807.3" y="787.3" width="17.3" height="17.3" fill="#7243a1" opacity="0.08" transform="rotate(23 807 787)"/>
<rect x="854.9" y="584.2" width="15.6" height="15.6" fill="#7141a0" opacity="0.20" transform="rotate(23 855 584)"/>
<rect x="1178.2" y="174.4" width="9.1" height="9.1" fill="#4B0082" opacity="0.13" transform="rotate(21 1178 174)"/>
<rect x="911.2" y="847.3" width="12.8" height="12.8" fill="#6f409f" opacity="0.25" transform="rotate(44 911 847)"/>
<rect x="156.3" y="275.9" width="13.7" height="13.7" fill="#4B0082" opacity="0.17" transform="rotate(14 156 276)"/>
<rect x="115.4" y="266.8" width="22.7" height="22.7" fill="#7547a3" opacity="0.20" transform="rotate(15 115 267)"/>
<circle cx="264.5" cy="683.8" r="3.3" fill="#7445a2" opacity="0.21"/>
<rect x="80.7" y="670.2" width="18.8" height="18.8" fill="#7141a0" opacity="0.19" transform="rotate(30 81 670)"/>
<rect x="150.4" y="714.9" width="23.0" height="23.0" fill="#6e3d9e" opacity="0.22" transform="rotate(44 150 715)"/>
<circle cx="1129.1" cy="387.8" r="11.9" fill="#592c86" opacity="0.17"/>
<circle cx="155.5" cy="453.0" r="12.5" fill="#7b50a7" opacity="0.23"/>
<rect x="281.7" y="45.4" width="14.4" height="14.4" fill="#4B0082" opacity="0.14" transform="rotate(4 282 45)"/>
<circle cx="470.5" cy="583.6" r="8.4" fill="#7648a3" opacity="0.25"/>
<rect x="505.3" y="399.5" width="8.4" height="8.4" fill="#4B0082" opacity="0.24" transform="rotate(4 505 400)"/>
<rect x="460.2" y="655.2" width="6.2" height="6.2" fill="#4B0082" opacity="0.14" transform="rotate(25 460 655)"/>
<circle cx="992.6" cy="864.2" r="7.3" fill="#603090" opacity="0.15"/>
<rect x="324.2" y="629.9" width="18.3" height="18.3" fill="#4B0082" opacity="0.09" transform="rotate(42 324 630)"/>
<rect x="1083.9" y="242.3" width="19.2" height="19.2" fill="#562b82" opacity="0.21" transform="rotate(40 1084 242)"/>
<rect x="145.1" y="864.0" width="14.4" height="14.4" fill="#6f3f9f" opacity="0.24" transform="rotate(30 145 864)"/>
<rect x="1023.9" y="53.7" width="11.0" height="11.0" fill="#5e2f8d" opacity="0.20" transform="rotate(39 1024 54)"/>
<circle cx="59.6" cy="157.1" r="11.9" fill="#70409f" opacity="0.11"/>
<circle cx="1085.6" cy="270.8" r="6.0" fill="#4B0082" opacity="0.19"/>
<circle cx="625.4" cy="834.0" r="9.5" fill="#7142a0" opacity="0.24"/>
<rect x="175.8" y="15.4" width="18.2" height="18.2" fill="#4B0082" opacity="0.21" transform="rotate(4 176 15)"/>
<circle cx="1028.9" cy="649.0" r="3.5" fill="#4B0082" opacity="0.18"/>
<circle cx="509" cy="564" r="270" fill="#32CD32" opacity="0.08"/>
<defs>
        <radialGradient id="vignette" cx="50%" cy="50%" r="70%">
            <stop offset="0%" stop-color="black" stop-opacity="0"/>
            <stop offset="100%" stop-color="black" stop-opacity="0.25"/>
        </radialGradient>
    </defs>
    <rect width="1200" height="900" fill="url(#vignette)"/>
<text x="30" y="45" text-anchor="start"
        font-family="Arial, Helvetica, sans-serif" font-size="28" font-weight="bold"
        letter-spacing="2" fill="#32CD32" opacity="0.25">SOUTH KOREA</text>
<text x="1180" y="880" text-anchor="end"
        font-family="Arial, Helvetica, sans-serif" font-size="14" font-weight="bold"
        letter-spacing="3" fill="#32CD32" opacity="0.35">HOOD&apos;D</text>
</svg>