<?xml version="1.0" encoding="UTF-8"?>
<svg xmlns="http://www.w3.org/2000/svg" viewBox="0 0 1200 900" width="1200" height="900">
<rect width="1200" height="900" fill="#FFFFFF"/>
<circle cx="143" cy="877" r="181" fill="#DC143C" opacity="0.30"/>
<ellipse cx="461" cy="60" rx="391" ry="106" fill="#d8d8d8" opacity="0.35" transform="rotate(170 461 60)"/>
<circle cx="504" cy="447" r="211" fill="#DC143C" opacity="0.22"/>
<rect x="772" y="454" width="267" height="164" fill="#d8d8d8" opacity="0.10" rx="12" transform="rotate(-18 906 536)"/>
<ellipse cx="1012" cy="631" rx="214" ry="154" fill="#DC143C" opacity="0.12" transform="rotate(29 1012 631)"/>
<ellipse cx="645" cy="71" rx="312" ry="123" fill="#d8d8d8" opacity="0.28" transform="rotate(37 645 71)"/>
<circle cx="606" cy="202" r="209" fill="#ffffff" opacity="0.11"/>
<line x1="1093" y1="216" x2="342" y2="252" stroke="#DC143C" stroke-width="2.7" opacity="0.19"/>
<line x1="408" y1="78" x2="491" y2="649" stroke="#DC143C" stroke-width="1.7" opacity="0.39"/>
<line x1="132" y1="358" x2="729" y2="757" stroke="#DC143C" stroke-width="3.3" opacity="0.24"/>
<defs>
        <radialGradient id="vignette" cx="50%" cy="50%" r="70%">
            <stop offset="0%" stop-color="black" stop-opacity="0"/>
            <stop offset="100%" stop-color="black" stop-opacity="0.25"/>
        </radialGradient>
    </defs>
    <rect width="1200" height="900" fill="url(#vignette)"/>
<text x="30" y="45" text-anchor="start"
        font-family="Arial, Helvetica, sans-serif" font-size="28" font-weight="bold"
        letter-spacing="2" fill="#DC143C" opacity="0.25">MOROCCO</text>
<text x="1180" y="880" text-anchor="end"
        font-family="Arial, Helvetica, sans-serif" font-size="14" font-weight="bold"
        letter-spacing="3" fill="#DC143C" opacity="0.35">HOOD&apos;D</text>
</svg>