<?xml version="1.0" encoding="UTF-8"?>
<svg xmlns="http://www.w3.org/2000/svg" viewBox="0 0 1200 900" width="1200" height="900">
<rect width="1200" height="900" fill="#8B0000"/>
<rect x="-750.0" y="-100" width="37.0" height="1100" fill="#228B22" opacity="0.32" transform="rotate(18.9 600.0 450.0)"/>
<rect x="-600.0" y="-100" width="46.2" height="1100" fill="#228B22" opacity="0.33" transform="rotate(18.9 600.0 450.0)"/>
<rect x="-450.0" y="-100" width="41.1" height="1100" fill="#228B22" opacity="0.67" transform="rotate(18.9 600.0 450.0)"/>
<rect x="-300.0" y="-100" width="45.6" height="1100" fill="#228B22" opacity="0.73" transform="rotate(18.9 600.0 450.0)"/>
<rect x="-150.0" y="-100" width="38.4" height="1100" fill="#228B22" opacity="0.42" transform="rotate(18.9 600.0 450.0)"/>
<rect x="0.0" y="-100" width="38.4" height="1100" fill="#228B22" opacity="0.61" transform="rotate(18.9 600.0 450.0)"/>
<rect x="150.0" y="-100" width="24.1" height="1100" fill="#228B22" opacity="0.54" transform="rotate(18.9 600.0 450.0)"/>
<rect x="300.0" y="-100" width="41.7" height="1100" fill="#228B22" opacity="0.63" transform="rotate(18.9 600.0 450.0)"/>
<rect x="450.0" y="-100" width="22.0" height="1100" fill="#228B22" opacity="0.56" transform="rotate(18.9 600.0 450.0)"/>
<rect x="600.0" y="-100" width="37.6" height="1100" fill="#228B22" opacity="0.74" transform="rotate(18.9 600.0 450.0)"/>
<rect x="750.0" y="-100" width="24.1" height="1100" fill="#228B22" opacity="0.56" transform="rotate(18.9 600.0 450.0)"/>
<rect x="900.0" y="-100" width="21.4" height="1100" fill="#228B22" opacity="0.39" transform="rotate(18.9 600.0 450.0)"/>
<rect x="1050.0" y="-100" width="47.2" height="1100" fill="#228B22" opacity="0.59" transform="rotate(18.9 600.0 450.0)"/>
<rect x="1200.0" y="-100" width="47.5" height="1100" fill="#228B22" opacity="0.73" transform="rotate(18.9 600.0 450.0)"/>
<rect x="1350.0" y="-100" width="29.1" height="1100" fill="#228B22" opacity="0.64" transform="rotate(18.9 600.0 450.0)"/>
<rect x="1500.0" y="-100" width="53.0" height="1100" fill="#228B22" opacity="0.78" transform="rotate(18.9 600.0 450.0)"/>
<rect x="1650.0" y="-100" width="22.9" height="1100" fill="#228B22" opacity="0.34" transform="rotate(18.9 600.0 450.0)"/>
<rect x="1800.0" y="-100" width="25.1" height="1100" fill="#228B22" opacity="0.72" transform="rotate(18.9 600.0 450.0)"/>
<rect x="1950.0" y="-100" width="55.9" height="1100" fill="#228B22" opacity="0.30" transform="rotate(18.9 600.0 450.0)"/>
<rect x="2100.0" y="-100" width="32.4" height="1100" fill="#228B22" opacity="0.52" transform="rotate(18.9 600.0 450.0)"/>
<rect x="2250.0" y="-100" width="28.3" height="1100" fill="#228B22" opacity="0.42" transform="rotate(18.9 600.0 450.0)"/>
<rect x="2400.0" y="-100" width="46.6" height="1100" fill="#228B22" opacity="0.55" transform="rotate(18.9 600.0 450.0)"/>
<rect x="0" y="765" width="1200" height="4" fill="#FFFFFF" opacity="0.6"/>
<defs>
        <radialGradient id="vignette" cx="50%" cy="50%" r="70%">
            <stop offset="0%" stop-color="black" stop-opacity="0"/>
            <stop offset="100%" stop-color="black" stop-opacity="0.25"/>
        </radialGradient>
    </defs>
    <rect width="1200" height="900" fill="url(#vignette)"/>
<text x="30" y="45" text-anchor="start"
        font-family="Arial, Helvetica, sans-serif" font-size="28" font-weight="bold"
        letter-spacing="2" fill="#FFFFFF" opacity="0.25">MOROCCO</text>
<text x="1180" y="880" text-anchor="end"
        font-family="Arial, Helvetica, sans-serif" font-size="14" font-weight="bold"
        letter-spacing="3" fill="#FFFFFF" opacity="0.35">HOOD&apos;D</text>
</svg>