<?xml version="1.0" encoding="UTF-8"?>
<svg xmlns="http://www.w3.org/2000/svg" viewBox="0 0 1200 900" width="1200" height="900">
<rect width="1200" height="900" fill="#0D5C3C"/>
<ellipse cx="356" cy="382" rx="273" ry="169" fill="#D4AF37" opacity="0.14" transform="rotate(172 356 382)"/>
<rect x="254" y="558" width="123" height="281" fill="#FFFFFF" opacity="0.17" rx="7" transform="rotate(-11 316 698)"/>
<circle cx="944" cy="642" r="109" fill="#0b4e33" opacity="0.27"/>
<ellipse cx="395" cy="712" rx="391" ry="134" fill="#256c4f" opacity="0.21" transform="rotate(34 395 712)"/>
<ellipse cx="1007" cy="12" rx="126" ry="107" fill="#256c4f" opacity="0.27" transform="rotate(93 1007 12)"/>
<rect x="68" y="566" width="190" height="190" fill="#256c4f" opacity="0.30" rx="2" transform="rotate(-15 163 662)"/>
<ellipse cx="658" cy="349" rx="374" ry="95" fill="#FFFFFF" opacity="0.10" transform="rotate(33 658 349)"/>
<line x1="800" y1="522" x2="977" y2="716" stroke="#FFFFFF" stroke-width="4.1" opacity="0.38"/>
<line x1="1049" y1="497" x2="131" y2="652" stroke="#FFFFFF" stroke-width="4.0" opacity="0.10"/>
<defs>
        <radialGradient id="vignette" cx="50%" cy="50%" r="70%">
            <stop offset="0%" stop-color="black" stop-opacity="0"/>
            <stop offset="100%" stop-color="black" stop-opacity="0.25"/>
        </radialGradient>
    </defs>
    <rect width="1200" height="900" fill="url(#vignette)"/>
<text x="30" y="45" text-anchor="start"
        font-family="Arial, Helvetica, sans-serif" font-size="28" font-weight="bold"
        letter-spacing="2" fill="#FFFFFF" opacity="0.25">MEXICO</text>
<text x="1180" y="880" text-anchor="end"
        font-family="Arial, Helvetica, sans-serif" font-size="14" font-weight="bold"
        letter-spacing="3" fill="#FFFFFF" opacity="0.35">HOOD&apos;D</text>
</svg>