<?xml version="1.0" encoding="UTF-8"?>
<svg xmlns="http://www.w3.org/2000/svg" viewBox="0 0 1200 900" width="1200" height="900">
<rect width="1200" height="900" fill="#000000"/>
<rect x="760" y="167" width="121" height="168" fill="#191919" opacity="0.34" rx="0" transform="rotate(-27 821 252)"/>
<ellipse cx="165" cy="243" rx="177" ry="56" fill="#000000" opacity="0.34" transform="rotate(3 165 243)"/>
<ellipse cx="1194" cy="792" rx="353" ry="198" fill="#000000" opacity="0.28" transform="rotate(138 1194 792)"/>
<circle cx="323" cy="539" r="126" fill="#C0C0C0" opacity="0.16"/>
<rect x="1017" y="110" width="354" height="256" fill="#C0C0C0" opacity="0.12" rx="15" transform="rotate(26 1194 238)"/>
<circle cx="176" cy="439" r="109" fill="#C0C0C0" opacity="0.24"/>
<ellipse cx="800" cy="714" rx="134" ry="86" fill="#FFFFFF" opacity="0.27" transform="rotate(160 800 714)"/>
<line x1="34" y1="781" x2="720" y2="832" stroke="#FFFFFF" stroke-width="2.2" opacity="0.17"/>
<line x1="839" y1="822" x2="417" y2="838" stroke="#FFFFFF" stroke-width="2.9" opacity="0.33"/>
<line x1="57" y1="591" x2="184" y2="795" stroke="#FFFFFF" stroke-width="5.0" opacity="0.20"/>
<defs>
        <radialGradient id="vignette" cx="50%" cy="50%" r="70%">
            <stop offset="0%" stop-color="black" stop-opacity="0"/>
            <stop offset="100%" stop-color="black" stop-opacity="0.25"/>
        </radialGradient>
    </defs>
    <rect width="1200" height="900" fill="url(#vignette)"/>
<text x="30" y="45" text-anchor="start"
        font-family="Arial, Helvetica, sans-serif" font-size="28" font-weight="bold"
        letter-spacing="2" fill="#ffffff" opacity="0.25">NORWAY</text>
<text x="1180" y="880" text-anchor="end"
        font-family="Arial, Helvetica, sans-serif" font-size="14" font-weight="bold"
        letter-spacing="3" fill="#ffffff" opacity="0.35">HOOD&apos;D</text>
</svg>