<?xml version="1.0" encoding="UTF-8"?>
<svg xmlns="http://www.w3.org/2000/svg" viewBox="0 0 1200 900" width="1200" height="900">
<rect width="1200" height="900" fill="#FFFFFF"/>
<path d="M 0,182.785116311899 L 0,110.5 L 10,110.5 L 20,83.3 L 30,89.3 L 40,104.6 L 50,106.5 L 60,127.7 L 70,116.0 L 80,128.6 L 90,129.1 L 100,126.7 L 110,127.1 L 120,122.7 L 130,132.5 L 140,128.2 L 150,131.5 L 160,128.7 L 170,131.4 L 180,124.8 L 190,121.5 L 200,122.2 L 210,114.2 L 220,120.1 L 230,127.1 L 240,128.8 L 250,128.2 L 260,122.6 L 270,98.7 L 280,103.9 L 290,93.7 L 300,108.6 L 310,110.8 L 320,80.0 L 330,94.1 L 340,98.5 L 350,95.7 L 360,72.9 L 370,88.2 L 380,76.6 L 390,63.6 L 400,77.2 L 410,56.2 L 420,70.5 L 430,55.9 L 440,58.2 L 450,55.9 L 460,59.8 L 470,55.9 L 480,59.0 L 490,56.0 L 500,67.4 L 510,67.5 L 520,55.9 L 530,77.6 L 540,77.4 L 550,64.1 L 560,62.5 L 570,81.1 L 580,64.2 L 590,86.4 L 600,100.6 L 610,71.8 L 620,106.0 L 630,113.6 L 640,83.8 L 650,110.1 L 660,101.1 L 670,122.4 L 680,121.0 L 690,124.8 L 700,125.8 L 710,121.9 L 720,126.7 L 730,126.9 L 740,130.9 L 750,125.1 L 760,130.8 L 770,130.8 L 780,132.4 L 790,127.0 L 800,123.8 L 810,128.9 L 820,125.1 L 830,129.5 L 840,120.7 L 850,123.7 L 860,127.1 L 870,127.9 L 880,112.8 L 890,122.5 L 900,123.1 L 910,116.6 L 920,116.9 L 930,91.6 L 940,98.7 L 950,71.0 L 960,99.6 L 970,91.3 L 980,63.5 L 990,61.8 L 1000,65.2 L 1010,81.8 L 1020,76.7 L 1030,59.8 L 1040,57.6 L 1050,55.9 L 1060,58.3 L 1070,56.7 L 1080,56.2 L 1090,58.5 L 1100,56.8 L 1110,55.8 L 1120,58.7 L 1130,56.2 L 1140,56.2 L 1150,66.2 L 1160,80.1 L 1170,59.2 L 1180,65.8 L 1190,76.9 L 1200,84.7 L 1210,82.4 L 1200,182.785116311899 Z" fill="#008000" opacity="0.18"/>
<path d="M 0,295.55111682330755 L 0,216.9 L 10,184.6 L 20,196.1 L 30,189.6 L 40,226.2 L 50,231.7 L 60,203.1 L 70,223.1 L 80,227.8 L 90,223.8 L 100,217.5 L 110,234.0 L 120,245.1 L 130,228.1 L 140,245.1 L 150,245.5 L 160,234.8 L 170,245.3 L 180,244.7 L 190,242.7 L 200,238.4 L 210,240.9 L 220,244.3 L 230,245.4 L 240,238.0 L 250,239.4 L 260,233.1 L 270,223.3 L 280,221.5 L 290,235.2 L 300,240.4 L 310,220.6 L 320,220.5 L 330,225.6 L 340,196.5 L 350,210.8 L 360,206.4 L 370,217.0 L 380,199.7 L 390,179.4 L 400,202.9 L 410,197.4 L 420,187.8 L 430,190.7 L 440,187.8 L 450,162.5 L 460,182.5 L 470,155.5 L 480,154.1 L 490,180.4 L 500,152.0 L 510,151.5 L 520,160.1 L 530,151.4 L 540,152.6 L 550,152.1 L 560,151.4 L 570,152.3 L 580,154.9 L 590,152.9 L 600,151.5 L 610,153.0 L 620,153.1 L 630,161.9 L 640,160.7 L 650,155.5 L 660,171.1 L 670,160.6 L 680,183.9 L 690,163.6 L 700,164.3 L 710,188.8 L 720,174.5 L 730,178.1 L 740,194.4 L 750,175.9 L 760,202.0 L 770,207.2 L 780,211.6 L 790,199.5 L 800,221.4 L 810,217.0 L 820,215.6 L 830,208.3 L 840,216.6 L 850,226.5 L 860,223.0 L 870,220.2 L 880,237.5 L 890,244.3 L 900,230.1 L 910,245.4 L 920,242.6 L 930,245.5 L 940,245.3 L 950,243.2 L 960,244.3 L 970,242.8 L 980,237.4 L 990,240.9 L 1000,242.8 L 1010,232.9 L 1020,245.3 L 1030,224.7 L 1040,234.5 L 1050,242.0 L 1060,210.6 L 1070,208.7 L 1080,239.2 L 1090,201.1 L 1100,231.4 L 1110,212.6 L 1120,216.6 L 1130,208.0 L 1140,190.1 L 1150,179.4 L 1160,214.6 L 1170,171.4 L 1180,207.7 L 1190,171.5 L 1200,183.8 L 1210,162.6 L 1200,295.55111682330755 Z" fill="#87CEEB" opacity="0.25"/>
<path d="M 0,500.1916314820497 L 0,415.3 L 10,409.4 L 20,402.8 L 30,401.7 L 40,381.0 L 50,431.2 L 60,395.9 L 70,440.9 L 80,440.8 L 90,440.5 L 100,441.0 L 110,433.7 L 120,419.3 L 130,446.7 L 140,449.7 L 150,449.9 L 160,438.4 L 170,449.1 L 180,449.3 L 190,447.3 L 200,448.9 L 210,442.3 L 220,449.9 L 230,438.3 L 240,447.4 L 250,450.1 L 260,437.2 L 270,441.9 L 280,444.5 L 290,419.6 L 300,442.7 L 310,408.4 L 320,427.3 L 330,439.7 L 340,432.6 L 350,419.9 L 360,422.0 L 370,408.2 L 380,396.1 L 390,367.3 L 400,403.6 L 410,389.7 L 420,403.3 L 430,380.0 L 440,387.6 L 450,345.6 L 460,343.4 L 470,355.0 L 480,380.5 L 490,368.3 L 500,345.6 L 510,358.2 L 520,338.0 L 530,347.0 L 540,342.3 L 550,333.3 L 560,346.0 L 570,337.4 L 580,337.5 L 590,339.3 L 600,333.0 L 610,336.1 L 620,340.9 L 630,336.5 L 640,335.8 L 650,333.7 L 660,342.6 L 670,335.8 L 680,349.4 L 690,371.5 L 700,338.3 L 710,377.6 L 720,341.3 L 730,364.0 L 740,382.0 L 750,377.3 L 760,359.2 L 770,366.8 L 780,402.8 L 790,371.0 L 800,396.3 L 810,385.4 L 820,399.3 L 830,424.0 L 840,421.2 L 850,404.3 L 860,400.9 L 870,435.3 L 880,435.6 L 890,437.0 L 900,431.2 L 910,435.9 L 920,427.8 L 930,440.9 L 940,450.2 L 950,440.7 L 960,450.2 L 970,446.2 L 980,447.3 L 990,448.5 L 1000,445.4 L 1010,444.2 L 1020,450.2 L 1030,446.8 L 1040,444.2 L 1050,439.1 L 1060,448.2 L 1070,437.0 L 1080,424.6 L 1090,439.0 L 1100,412.6 L 1110,438.7 L 1120,404.1 L 1130,409.7 L 1140,405.0 L 1150,404.7 L 1160,414.1 L 1170,416.3 L 1180,406.6 L 1190,393.6 L 1200,385.3 L 1210,394.0 L 1200,500.1916314820497 Z" fill="#87CEEB" opacity="0.21"/>
<path d="M 0,592.2659419518129 L 0,516.3 L 10,519.4 L 20,515.5 L 30,524.9 L 40,532.2 L 50,519.7 L 60,533.1 L 70,533.8 L 80,536.7 L 90,537.7 L 100,536.2 L 110,540.6 L 120,540.3 L 130,539.9 L 140,537.3 L 150,538.5 L 160,536.6 L 170,532.7 L 180,540.6 L 190,537.5 L 200,542.3 L 210,542.3 L 220,542.2 L 230,539.6 L 240,542.0 L 250,541.7 L 260,541.6 L 270,541.3 L 280,542.3 L 290,541.3 L 300,538.2 L 310,532.6 L 320,538.4 L 330,532.1 L 340,528.7 L 350,531.6 L 360,526.1 L 370,525.3 L 380,526.5 L 390,528.4 L 400,536.8 L 410,534.1 L 420,536.4 L 430,521.0 L 440,532.8 L 450,530.1 L 460,517.4 L 470,526.2 L 480,522.7 L 490,506.3 L 500,507.9 L 510,511.3 L 520,516.0 L 530,503.8 L 540,520.1 L 550,504.8 L 560,499.9 L 570,499.3 L 580,500.3 L 590,498.6 L 600,507.3 L 610,496.8 L 620,508.1 L 630,503.4 L 640,495.6 L 650,499.4 L 660,497.1 L 670,501.0 L 680,495.7 L 690,496.0 L 700,498.0 L 710,495.7 L 720,496.9 L 730,497.2 L 740,496.7 L 750,499.2 L 760,496.0 L 770,497.8 L 780,497.5 L 790,498.0 L 800,499.3 L 810,502.7 L 820,503.6 L 830,502.5 L 840,506.6 L 850,505.6 L 860,515.1 L 870,502.9 L 880,516.3 L 890,516.8 L 900,503.6 L 910,521.7 L 920,515.3 L 930,508.9 L 940,525.4 L 950,521.2 L 960,510.0 L 970,530.7 L 980,526.6 L 990,531.7 L 1000,535.4 L 1010,534.7 L 1020,521.8 L 1030,536.1 L 1040,531.2 L 1050,528.6 L 1060,527.1 L 1070,527.5 L 1080,531.1 L 1090,539.9 L 1100,541.5 L 1110,541.1 L 1120,542.0 L 1130,542.0 L 1140,540.9 L 1150,537.3 L 1160,537.5 L 1170,539.6 L 1180,542.2 L 1190,541.1 L 1200,541.7 L 1210,542.2 L 1200,592.2659419518129 Z" fill="#9fd7ef" opacity="0.28"/>
<path d="M 0,758.4705006847337 L 0,691.9 L 10,680.7 L 20,683.4 L 30,700.1 L 40,699.9 L 50,693.6 L 60,692.2 L 70,691.2 L 80,698.3 L 90,688.6 L 100,701.2 L 110,694.3 L 120,703.0 L 130,694.9 L 140,705.2 L 150,692.4 L 160,700.9 L 170,703.2 L 180,698.2 L 190,705.8 L 200,707.8 L 210,706.6 L 220,704.0 L 230,706.5 L 240,707.6 L 250,708.5 L 260,708.0 L 270,702.6 L 280,702.9 L 290,708.4 L 300,708.3 L 310,708.5 L 320,708.4 L 330,707.7 L 340,707.7 L 350,708.1 L 360,708.4 L 370,707.6 L 380,708.5 L 390,708.5 L 400,708.5 L 410,708.3 L 420,706.4 L 430,708.3 L 440,707.7 L 450,707.3 L 460,701.9 L 470,708.5 L 480,706.7 L 490,707.7 L 500,705.4 L 510,698.1 L 520,707.3 L 530,699.1 L 540,702.3 L 550,692.8 L 560,697.7 L 570,696.8 L 580,702.0 L 590,703.4 L 600,688.6 L 610,698.9 L 620,693.4 L 630,691.1 L 640,689.2 L 650,689.8 L 660,683.3 L 670,690.7 L 680,699.2 L 690,696.6 L 700,694.0 L 710,688.4 L 720,682.2 L 730,688.3 L 740,691.1 L 750,687.5 L 760,676.3 L 770,687.6 L 780,692.3 L 790,679.0 L 800,678.0 L 810,676.0 L 820,685.3 L 830,671.0 L 840,679.8 L 850,686.2 L 860,673.1 L 870,676.8 L 880,670.7 L 890,679.7 L 900,669.4 L 910,672.1 L 920,674.4 L 930,668.0 L 940,674.3 L 950,674.2 L 960,668.0 L 970,674.2 L 980,670.7 L 990,669.4 L 1000,673.9 L 1010,667.5 L 1020,667.7 L 1030,667.5 L 1040,667.9 L 1050,667.5 L 1060,669.0 L 1070,668.3 L 1080,669.5 L 1090,670.6 L 1100,667.5 L 1110,667.5 L 1120,668.0 L 1130,667.8 L 1140,667.6 L 1150,669.9 L 1160,667.6 L 1170,672.3 L 1180,668.4 L 1190,667.5 L 1200,671.5 L 1210,667.7 L 1200,758.4705006847337 Z" fill="#87CEEB" opacity="0.39"/>
<path d="M 0,931.5956104485488 L 0,847.0 L 10,851.6 L 20,836.9 L 30,864.7 L 40,865.7 L 50,864.0 L 60,862.6 L 70,877.0 L 80,857.1 L 90,852.0 L 100,865.7 L 110,878.8 L 120,881.4 L 130,876.9 L 140,881.3 L 150,881.6 L 160,877.8 L 170,880.2 L 180,876.5 L 190,881.0 L 200,863.4 L 210,881.6 L 220,866.3 L 230,874.8 L 240,850.0 L 250,873.1 L 260,863.7 L 270,828.2 L 280,867.4 L 290,839.8 L 300,842.5 L 310,847.1 L 320,832.0 L 330,836.3 L 340,825.3 L 350,832.3 L 360,806.0 L 370,828.3 L 380,819.0 L 390,817.0 L 400,800.7 L 410,780.8 L 420,783.2 L 430,796.1 L 440,775.9 L 450,776.0 L 460,780.2 L 470,783.7 L 480,778.1 L 490,776.3 L 500,775.9 L 510,779.1 L 520,778.6 L 530,777.1 L 540,788.8 L 550,778.7 L 560,780.5 L 570,790.7 L 580,794.2 L 590,817.1 L 600,808.1 L 610,792.2 L 620,815.1 L 630,811.4 L 640,813.1 L 650,844.5 L 660,838.9 L 670,860.5 L 680,849.1 L 690,839.3 L 700,838.4 L 710,867.3 L 720,863.8 L 730,866.6 L 740,875.1 L 750,878.9 L 760,865.9 L 770,873.0 L 780,875.1 L 790,877.1 L 800,875.4 L 810,878.2 L 820,879.7 L 830,864.8 L 840,862.7 L 850,871.7 L 860,863.6 L 870,852.2 L 880,866.3 L 890,838.2 L 900,832.6 L 910,838.3 L 920,840.7 L 930,857.8 L 940,838.1 L 950,843.8 L 960,830.4 L 970,801.0 L 980,810.9 L 990,833.8 L 1000,796.1 L 1010,790.9 L 1020,804.6 L 1030,804.9 L 1040,779.4 L 1050,793.0 L 1060,789.4 L 1070,780.9 L 1080,782.2 L 1090,778.0 L 1100,784.1 L 1110,780.0 L 1120,776.1 L 1130,781.8 L 1140,775.9 L 1150,778.5 L 1160,776.7 L 1170,780.8 L 1180,778.8 L 1190,778.9 L 1200,780.0 L 1210,792.5 L 1200,931.5956104485488 Z" fill="#87CEEB" opacity="0.32"/>
<path d="M 0,0 L 0,60 L 0,40.0 L 8,41.3 L 16,42.5 L 24,43.7 L 32,45.0 L 40,46.2 L 48,47.4 L 56,48.5 L 64,49.6 L 72,50.7 L 80,51.8 L 88,52.7 L 96,53.7 L 104,54.6 L 112,55.4 L 120,56.2 L 128,56.9 L 136,57.5 L 144,58.1 L 152,58.6 L 160,59.0 L 168,59.4 L 176,59.6 L 184,59.8 L 192,60.0 L 200,60.0 L 208,60.0 L 216,59.8 L 224,59.6 L 232,59.4 L 240,59.0 L 248,58.6 L 256,58.1 L 264,57.5 L 272,56.9 L 280,56.2 L 288,55.4 L 296,54.6 L 304,53.7 L 312,52.7 L 320,51.8 L 328,50.7 L 336,49.6 L 344,48.5 L 352,47.4 L 360,46.2 L 368,45.0 L 376,43.7 L 384,42.5 L 392,41.3 L 400,40.0 L 408,38.7 L 416,37.5 L 424,36.3 L 432,35.0 L 440,33.8 L 448,32.6 L 456,31.5 L 464,30.4 L 472,29.3 L 480,28.2 L 488,27.3 L 496,26.3 L 504,25.4 L 512,24.6 L 520,23.8 L 528,23.1 L 536,22.5 L 544,21.9 L 552,21.4 L 560,21.0 L 568,20.6 L 576,20.4 L 584,20.2 L 592,20.0 L 600,20.0 L 608,20.0 L 616,20.2 L 624,20.4 L 632,20.6 L 640,21.0 L 648,21.4 L 656,21.9 L 664,22.5 L 672,23.1 L 680,23.8 L 688,24.6 L 696,25.4 L 704,26.3 L 712,27.3 L 720,28.2 L 728,29.3 L 736,30.4 L 744,31.5 L 752,32.6 L 760,33.8 L 768,35.0 L 776,36.3 L 784,37.5 L 792,38.7 L 800,40.0 L 808,41.3 L 816,42.5 L 824,43.7 L 832,45.0 L 840,46.2 L 848,47.4 L 856,48.5 L 864,49.6 L 872,50.7 L 880,51.8 L 888,52.7 L 896,53.7 L 904,54.6 L 912,55.4 L 920,56.2 L 928,56.9 L 936,57.5 L 944,58.1 L 952,58.6 L 960,59.0 L 968,59.4 L 976,59.6 L 984,59.8 L 992,60.0 L 1000,60.0 L 1008,60.0 L 1016,59.8 L 1024,59.6 L 1032,59.4 L 1040,59.0 L 1048,58.6 L 1056,58.1 L 1064,57.5 L 1072,56.9 L 1080,56.2 L 1088,55.4 L 1096,54.6 L 1104,53.7 L 1112,52.7 L 1120,51.8 L 1128,50.7 L 1136,49.6 L 1144,48.5 L 1152,47.4 L 1160,46.2 L 1168,45.0 L 1176,43.7 L 1184,42.5 L 1192,41.3 L 1200,40.0 L 1208,38.7 L 1216,37.5 L 1200,0 Z" fill="#008000" opacity="0.3"/>
<defs>
        <radialGradient id="vignette" cx="50%" cy="50%" r="70%">
            <stop offset="0%" stop-color="black" stop-opacity="0"/>
            <stop offset="100%" stop-color="black" stop-opacity="0.25"/>
        </radialGradient>
    </defs>
    <rect width="1200" height="900" fill="url(#vignette)"/>
<text x="30" y="45" text-anchor="start"
        font-family="Arial, Helvetica, sans-serif" font-size="28" font-weight="bold"
        letter-spacing="2" fill="#008000" opacity="0.25">NEW ZEALAND</text>
<text x="1180" y="880" text-anchor="end"
        font-family="Arial, Helvetica, sans-serif" font-size="14" font-weight="bold"
        letter-spacing="3" fill="#008000" opacity="0.35">HOOD&apos;D</text>
</svg>