<?xml version="1.0" encoding="UTF-8"?>
<svg xmlns="http://www.w3.org/2000/svg" viewBox="0 0 1200 900" width="1200" height="900">
<rect width="1200" height="900" fill="#000000"/>
<path d="M 0,168.6814117518113 L 0,60.6 L 10,80.2 L 20,58.4 L 30,100.1 L 40,81.4 L 50,107.7 L 60,90.0 L 70,106.1 L 80,96.4 L 90,117.4 L 100,114.8 L 110,94.9 L 120,109.5 L 130,112.5 L 140,115.2 L 150,118.1 L 160,118.2 L 170,118.7 L 180,118.4 L 190,118.6 L 200,113.3 L 210,115.0 L 220,117.8 L 230,104.7 L 240,114.5 L 250,100.0 L 260,103.5 L 270,80.1 L 280,100.6 L 290,78.4 L 300,99.8 L 310,69.4 L 320,79.0 L 330,80.4 L 340,61.3 L 350,57.7 L 360,36.0 L 370,38.2 L 380,15.9 L 390,38.3 L 400,11.4 L 410,12.9 L 420,20.8 L 430,26.1 L 440,24.6 L 450,7.4 L 460,14.4 L 470,8.5 L 480,7.3 L 490,11.4 L 500,6.2 L 510,6.9 L 520,9.5 L 530,6.0 L 540,5.9 L 550,6.5 L 560,13.1 L 570,12.3 L 580,37.2 L 590,37.7 L 600,21.9 L 610,26.0 L 620,46.8 L 630,29.5 L 640,35.5 L 650,67.5 L 660,43.6 L 670,84.7 L 680,90.8 L 690,77.4 L 700,70.8 L 710,86.1 L 720,105.2 L 730,113.3 L 740,108.0 L 750,95.6 L 760,103.9 L 770,104.4 L 780,113.8 L 790,112.9 L 800,114.7 L 810,118.4 L 820,115.9 L 830,118.7 L 840,102.8 L 850,115.1 L 860,110.4 L 870,116.6 L 880,97.5 L 890,86.2 L 900,97.1 L 910,92.0 L 920,85.9 L 930,73.0 L 940,83.0 L 950,92.3 L 960,58.3 L 970,88.5 L 980,62.7 L 990,79.0 L 1000,48.3 L 1010,38.6 L 1020,63.2 L 1030,13.4 L 1040,27.3 L 1050,29.8 L 1060,39.7 L 1070,21.1 L 1080,5.9 L 1090,8.1 L 1100,6.4 L 1110,8.7 L 1120,13.2 L 1130,9.0 L 1140,5.9 L 1150,16.0 L 1160,6.8 L 1170,21.1 L 1180,5.9 L 1190,19.1 L 1200,18.5 L 1210,9.5 L 1200,168.6814117518113 Z" fill="#cccccc" opacity="0.46"/>
<path d="M 0,242.06167000237537 L 0,149.1 L 10,146.5 L 20,154.9 L 30,144.0 L 40,151.5 L 50,146.7 L 60,167.8 L 70,172.1 L 80,177.6 L 90,164.5 L 100,149.8 L 110,166.1 L 120,186.2 L 130,175.4 L 140,159.4 L 150,183.7 L 160,168.8 L 170,178.9 L 180,176.0 L 190,190.9 L 200,175.7 L 210,186.9 L 220,185.9 L 230,176.9 L 240,177.0 L 250,187.5 L 260,188.0 L 270,186.5 L 280,191.3 L 290,191.8 L 300,190.8 L 310,189.8 L 320,186.2 L 330,190.4 L 340,189.9 L 350,191.2 L 360,192.0 L 370,192.0 L 380,191.7 L 390,191.9 L 400,187.3 L 410,175.4 L 420,187.9 L 430,186.5 L 440,179.5 L 450,174.6 L 460,172.7 L 470,183.0 L 480,187.1 L 490,161.3 L 500,172.0 L 510,166.7 L 520,175.5 L 530,167.6 L 540,148.1 L 550,147.5 L 560,173.1 L 570,177.8 L 580,169.0 L 590,138.6 L 600,144.3 L 610,138.5 L 620,130.9 L 630,132.8 L 640,151.3 L 650,161.6 L 660,151.5 L 670,135.3 L 680,138.7 L 690,142.8 L 700,116.0 L 710,129.6 L 720,113.0 L 730,113.2 L 740,127.0 L 750,119.7 L 760,110.7 L 770,127.7 L 780,117.1 L 790,112.8 L 800,127.6 L 810,106.2 L 820,121.6 L 830,111.0 L 840,122.0 L 850,106.2 L 860,107.6 L 870,116.4 L 880,118.1 L 890,105.8 L 900,105.9 L 910,111.6 L 920,105.6 L 930,105.6 L 940,109.4 L 950,105.2 L 960,105.1 L 970,107.7 L 980,115.3 L 990,105.1 L 1000,105.8 L 1010,113.1 L 1020,106.1 L 1030,106.0 L 1040,105.8 L 1050,106.7 L 1060,115.1 L 1070,126.4 L 1080,106.1 L 1090,109.4 L 1100,121.2 L 1110,110.6 L 1120,109.0 L 1130,125.1 L 1140,138.9 L 1150,114.5 L 1160,114.1 L 1170,141.7 L 1180,119.8 L 1190,140.0 L 1200,130.1 L 1210,127.7 L 1200,242.06167000237537 Z" fill="#C0C0C0" opacity="0.41"/>
<path d="M 0,340.7143615154342 L 0,278.2 L 10,266.7 L 20,268.1 L 30,266.4 L 40,274.6 L 50,282.8 L 60,274.1 L 70,280.7 L 80,268.5 L 90,267.6 L 100,274.4 L 110,279.5 L 120,285.0 L 130,285.0 L 140,274.9 L 150,272.9 L 160,287.1 L 170,288.3 L 180,281.2 L 190,284.0 L 200,282.8 L 210,289.8 L 220,289.3 L 230,288.6 L 240,290.7 L 250,286.6 L 260,289.7 L 270,290.6 L 280,286.3 L 290,284.5 L 300,290.5 L 310,287.7 L 320,290.7 L 330,290.6 L 340,288.3 L 350,289.1 L 360,290.7 L 370,290.3 L 380,290.4 L 390,288.5 L 400,289.2 L 410,290.6 L 420,290.2 L 430,285.4 L 440,290.2 L 450,289.1 L 460,289.1 L 470,286.2 L 480,287.2 L 490,286.0 L 500,282.6 L 510,288.0 L 520,279.5 L 530,278.3 L 540,284.1 L 550,289.3 L 560,275.4 L 570,287.8 L 580,279.6 L 590,281.7 L 600,269.3 L 610,280.9 L 620,269.2 L 630,280.4 L 640,269.6 L 650,267.7 L 660,279.8 L 670,273.7 L 680,280.6 L 690,267.1 L 700,279.5 L 710,266.0 L 720,266.6 L 730,275.4 L 740,258.7 L 750,270.8 L 760,268.4 L 770,274.4 L 780,270.5 L 790,259.2 L 800,255.0 L 810,270.4 L 820,259.0 L 830,267.6 L 840,252.1 L 850,264.1 L 860,252.6 L 870,249.9 L 880,254.6 L 890,260.0 L 900,251.2 L 910,247.6 L 920,257.6 L 930,255.5 L 940,251.1 L 950,246.8 L 960,256.5 L 970,250.7 L 980,249.2 L 990,246.8 L 1000,250.2 L 1010,247.3 L 1020,246.8 L 1030,247.0 L 1040,246.8 L 1050,247.5 L 1060,248.7 L 1070,249.8 L 1080,247.3 L 1090,247.4 L 1100,246.8 L 1110,247.9 L 1120,247.4 L 1130,247.2 L 1140,246.8 L 1150,248.1 L 1160,247.8 L 1170,246.8 L 1180,249.9 L 1190,252.9 L 1200,256.8 L 1210,247.4 L 1200,340.7143615154342 Z" fill="#cccccc" opacity="0.31"/>
<path d="M 0,462.73923874385133 L 0,389.5 L 10,354.5 L 20,394.4 L 30,383.5 L 40,393.7 L 50,396.1 L 60,367.8 L 70,384.3 L 80,392.8 L 90,405.0 L 100,383.4 L 110,383.6 L 120,396.8 L 130,409.1 L 140,411.2 L 150,410.8 L 160,412.5 L 170,397.6 L 180,401.7 L 190,410.8 L 200,410.7 L 210,412.7 L 220,411.8 L 230,409.5 L 240,412.3 L 250,412.7 L 260,410.6 L 270,412.0 L 280,406.5 L 290,412.3 L 300,412.2 L 310,412.7 L 320,401.1 L 330,397.7 L 340,396.8 L 350,385.2 L 360,409.8 L 370,389.0 L 380,379.4 L 390,403.3 L 400,389.4 L 410,380.0 L 420,373.8 L 430,371.3 L 440,358.8 L 450,359.5 L 460,375.3 L 470,351.0 L 480,353.2 L 490,380.6 L 500,378.2 L 510,366.2 L 520,359.6 L 530,367.7 L 540,359.9 L 550,339.7 L 560,334.5 L 570,336.5 L 580,357.2 L 590,351.4 L 600,331.6 L 610,340.3 L 620,332.2 L 630,339.1 L 640,342.9 L 650,332.2 L 660,333.4 L 670,328.3 L 680,327.7 L 690,327.8 L 700,328.0 L 710,327.2 L 720,327.1 L 730,329.3 L 740,329.4 L 750,327.0 L 760,327.2 L 770,338.8 L 780,330.6 L 790,333.4 L 800,330.3 L 810,331.7 L 820,334.2 L 830,349.8 L 840,355.2 L 850,348.5 L 860,340.2 L 870,348.2 L 880,356.6 L 890,345.9 L 900,353.7 L 910,372.3 L 920,374.6 L 930,372.9 L 940,364.3 L 950,364.8 L 960,378.1 L 970,387.8 L 980,383.1 L 990,371.3 L 1000,377.0 L 1010,388.4 L 1020,398.1 L 1030,389.5 L 1040,401.5 L 1050,377.6 L 1060,408.7 L 1070,406.2 L 1080,394.5 L 1090,409.7 L 1100,393.1 L 1110,410.4 L 1120,395.5 L 1130,397.1 L 1140,412.4 L 1150,411.8 L 1160,412.0 L 1170,409.9 L 1180,407.1 L 1190,411.4 L 1200,412.5 L 1210,411.2 L 1200,462.73923874385133 Z" fill="#cccccc" opacity="0.20"/>
<path d="M 0,625.1010990730938 L 0,512.5 L 10,533.9 L 20,542.3 L 30,522.9 L 40,530.4 L 50,542.2 L 60,545.7 L 70,553.2 L 80,562.5 L 90,572.3 L 100,568.3 L 110,574.6 L 120,572.5 L 130,574.4 L 140,574.6 L 150,574.0 L 160,573.0 L 170,572.6 L 180,575.0 L 190,575.1 L 200,570.5 L 210,560.4 L 220,574.2 L 230,568.8 L 240,570.2 L 250,569.4 L 260,567.9 L 270,561.7 L 280,562.2 L 290,561.5 L 300,555.1 L 310,517.7 L 320,533.0 L 330,545.5 L 340,515.2 L 350,507.0 L 360,520.2 L 370,508.8 L 380,494.4 L 390,490.9 L 400,494.4 L 410,492.8 L 420,487.2 L 430,484.7 L 440,488.8 L 450,485.4 L 460,484.3 L 470,486.4 L 480,486.2 L 490,484.4 L 500,484.3 L 510,485.1 L 520,491.8 L 530,500.2 L 540,490.1 L 550,485.1 L 560,500.6 L 570,505.7 L 580,493.1 L 590,506.8 L 600,518.3 L 610,534.0 L 620,516.6 L 630,513.0 L 640,529.2 L 650,524.6 L 660,529.3 L 670,536.5 L 680,539.5 L 690,540.0 L 700,563.1 L 710,548.3 L 720,559.1 L 730,549.9 L 740,571.4 L 750,571.8 L 760,564.4 L 770,569.6 L 780,568.2 L 790,572.0 L 800,575.0 L 810,568.3 L 820,570.5 L 830,574.4 L 840,569.6 L 850,562.3 L 860,558.7 L 870,569.5 L 880,550.3 L 890,557.7 L 900,538.5 L 910,553.4 L 920,534.4 L 930,556.7 L 940,527.4 L 950,527.2 L 960,516.5 L 970,544.3 L 980,505.1 L 990,516.5 L 1000,497.4 L 1010,527.5 L 1020,491.9 L 1030,508.0 L 1040,487.8 L 1050,492.8 L 1060,497.3 L 1070,489.7 L 1080,485.9 L 1090,498.2 L 1100,484.8 L 1110,485.1 L 1120,485.9 L 1130,485.2 L 1140,484.6 L 1150,488.8 L 1160,484.5 L 1170,485.5 L 1180,484.4 L 1190,486.9 L 1200,513.9 L 1210,513.9 L 1200,625.1010990730938 Z" fill="#FFFFFF" opacity="0.48"/>
<path d="M 0,712.7370038783033 L 0,634.1 L 10,644.9 L 20,633.8 L 30,630.9 L 40,652.9 L 50,641.8 L 60,640.8 L 70,651.5 L 80,652.3 L 90,660.7 L 100,661.3 L 110,661.6 L 120,653.6 L 130,659.6 L 140,662.5 L 150,662.6 L 160,662.4 L 170,662.7 L 180,662.7 L 190,662.3 L 200,657.9 L 210,659.8 L 220,655.5 L 230,662.5 L 240,657.0 L 250,658.1 L 260,662.1 L 270,659.8 L 280,656.9 L 290,655.8 L 300,659.4 L 310,656.5 L 320,654.5 L 330,634.5 L 340,644.6 L 350,630.4 L 360,643.8 L 370,629.5 L 380,635.3 L 390,643.4 L 400,622.9 L 410,627.4 L 420,632.6 L 430,632.9 L 440,615.7 L 450,617.5 L 460,612.8 L 470,624.1 L 480,610.3 L 490,609.8 L 500,612.8 L 510,617.6 L 520,610.2 L 530,609.7 L 540,610.7 L 550,611.5 L 560,612.6 L 570,610.7 L 580,611.7 L 590,610.2 L 600,616.6 L 610,614.4 L 620,612.0 L 630,617.9 L 640,619.5 L 650,616.6 L 660,611.6 L 670,624.7 L 680,622.3 L 690,623.9 L 700,618.2 L 710,623.5 L 720,622.1 L 730,636.5 L 740,627.0 L 750,625.1 L 760,637.8 L 770,641.5 L 780,641.3 L 790,644.8 L 800,642.4 L 810,653.4 L 820,642.2 L 830,650.8 L 840,659.2 L 850,658.5 L 860,655.2 L 870,656.2 L 880,658.3 L 890,662.6 L 900,656.5 L 910,662.5 L 920,662.2 L 930,662.7 L 940,662.5 L 950,661.5 L 960,662.2 L 970,662.7 L 980,662.2 L 990,660.8 L 1000,653.6 L 1010,652.9 L 1020,655.0 L 1030,655.0 L 1040,648.1 L 1050,650.3 L 1060,650.7 L 1070,635.0 L 1080,649.1 L 1090,646.1 L 1100,650.8 L 1110,648.5 L 1120,646.3 L 1130,623.5 L 1140,625.1 L 1150,628.7 L 1160,632.0 L 1170,623.7 L 1180,629.0 L 1190,612.5 L 1200,629.8 L 1210,627.2 L 1200,712.7370038783033 Z" fill="#cccccc" opacity="0.30"/>
<path d="M 0,852.4691785918611 L 0,755.0 L 10,749.8 L 20,730.7 L 30,760.3 L 40,783.6 L 50,784.8 L 60,761.1 L 70,780.3 L 80,788.3 L 90,766.2 L 100,759.5 L 110,794.1 L 120,780.5 L 130,770.0 L 140,778.9 L 150,785.1 L 160,802.2 L 170,797.2 L 180,802.0 L 190,801.1 L 200,798.5 L 210,802.3 L 220,800.8 L 230,796.7 L 240,798.1 L 250,788.4 L 260,791.1 L 270,796.7 L 280,798.1 L 290,792.8 L 300,794.8 L 310,788.1 L 320,761.9 L 330,773.9 L 340,777.7 L 350,753.1 L 360,784.5 L 370,753.8 L 380,750.9 L 390,730.8 L 400,729.3 L 410,726.8 L 420,748.2 L 430,717.9 L 440,762.2 L 450,745.5 L 460,735.5 L 470,717.9 L 480,712.5 L 490,739.2 L 500,729.4 L 510,697.6 L 520,709.4 L 530,722.2 L 540,712.0 L 550,686.2 L 560,704.3 L 570,694.9 L 580,702.5 L 590,690.8 L 600,685.4 L 610,685.9 L 620,687.1 L 630,688.2 L 640,686.3 L 650,688.4 L 660,691.4 L 670,690.3 L 680,685.2 L 690,699.2 L 700,686.6 L 710,702.9 L 720,697.3 L 730,686.2 L 740,687.2 L 750,712.5 L 760,690.0 L 770,711.4 L 780,704.3 L 790,728.6 L 800,728.7 L 810,733.8 L 820,736.2 L 830,757.9 L 840,714.0 L 850,717.4 L 860,769.8 L 870,760.8 L 880,730.3 L 890,755.8 L 900,735.6 L 910,789.2 L 920,746.1 L 930,761.2 L 940,773.0 L 950,786.5 L 960,790.9 L 970,800.9 L 980,795.6 L 990,794.5 L 1000,800.0 L 1010,802.0 L 1020,802.1 L 1030,790.6 L 1040,799.3 L 1050,801.9 L 1060,799.8 L 1070,802.5 L 1080,796.1 L 1090,800.7 L 1100,800.0 L 1110,802.1 L 1120,782.0 L 1130,792.2 L 1140,779.0 L 1150,792.3 L 1160,769.6 L 1170,773.5 L 1180,785.4 L 1190,780.4 L 1200,782.2 L 1210,768.1 L 1200,852.4691785918611 Z" fill="#C0C0C0" opacity="0.31"/>
<path d="M 0,932.7637873685582 L 0,827.1 L 10,829.9 L 20,833.2 L 30,865.9 L 40,835.5 L 50,851.2 L 60,859.6 L 70,847.5 L 80,859.4 L 90,876.2 L 100,866.5 L 110,862.3 L 120,879.2 L 130,865.3 L 140,881.7 L 150,880.1 L 160,874.1 L 170,882.4 L 180,877.7 L 190,881.2 L 200,879.4 L 210,882.1 L 220,882.2 L 230,879.6 L 240,882.6 L 250,882.0 L 260,880.3 L 270,882.3 L 280,881.2 L 290,871.4 L 300,866.0 L 310,874.7 L 320,875.6 L 330,880.2 L 340,860.8 L 350,875.6 L 360,874.0 L 370,864.1 L 380,849.2 L 390,839.4 L 400,829.2 L 410,860.3 L 420,837.4 L 430,831.8 L 440,827.2 L 450,838.8 L 460,823.4 L 470,818.5 L 480,816.1 L 490,819.5 L 500,808.3 L 510,812.0 L 520,825.7 L 530,806.2 L 540,805.6 L 550,798.9 L 560,799.9 L 570,798.8 L 580,811.3 L 590,806.3 L 600,804.4 L 610,803.0 L 620,800.2 L 630,799.8 L 640,801.1 L 650,799.2 L 660,797.1 L 670,799.6 L 680,798.9 L 690,806.9 L 700,797.1 L 710,797.2 L 720,804.8 L 730,797.7 L 740,798.6 L 750,803.3 L 760,803.0 L 770,825.8 L 780,808.4 L 790,804.1 L 800,838.0 L 810,810.0 L 820,837.4 L 830,831.8 L 840,849.3 L 850,843.3 L 860,820.3 L 870,828.8 L 880,861.5 L 890,858.1 L 900,870.5 L 910,872.2 L 920,847.8 L 930,861.5 L 940,868.5 L 950,873.7 L 960,862.8 L 970,879.0 L 980,877.3 L 990,868.5 L 1000,878.4 L 1010,878.3 L 1020,882.8 L 1030,880.6 L 1040,882.1 L 1050,882.8 L 1060,880.8 L 1070,882.1 L 1080,881.3 L 1090,876.9 L 1100,881.2 L 1110,879.2 L 1120,882.8 L 1130,876.8 L 1140,877.8 L 1150,882.0 L 1160,878.7 L 1170,872.0 L 1180,865.5 L 1190,873.3 L 1200,850.7 L 1210,858.3 L 1200,932.7637873685582 Z" fill="#FFFFFF" opacity="0.18"/>
<path d="M 0,0 L 0,60 L 0,40.0 L 8,41.3 L 16,42.5 L 24,43.7 L 32,45.0 L 40,46.2 L 48,47.4 L 56,48.5 L 64,49.6 L 72,50.7 L 80,51.8 L 88,52.7 L 96,53.7 L 104,54.6 L 112,55.4 L 120,56.2 L 128,56.9 L 136,57.5 L 144,58.1 L 152,58.6 L 160,59.0 L 168,59.4 L 176,59.6 L 184,59.8 L 192,60.0 L 200,60.0 L 208,60.0 L 216,59.8 L 224,59.6 L 232,59.4 L 240,59.0 L 248,58.6 L 256,58.1 L 264,57.5 L 272,56.9 L 280,56.2 L 288,55.4 L 296,54.6 L 304,53.7 L 312,52.7 L 320,51.8 L 328,50.7 L 336,49.6 L 344,48.5 L 352,47.4 L 360,46.2 L 368,45.0 L 376,43.7 L 384,42.5 L 392,41.3 L 400,40.0 L 408,38.7 L 416,37.5 L 424,36.3 L 432,35.0 L 440,33.8 L 448,32.6 L 456,31.5 L 464,30.4 L 472,29.3 L 480,28.2 L 488,27.3 L 496,26.3 L 504,25.4 L 512,24.6 L 520,23.8 L 528,23.1 L 536,22.5 L 544,21.9 L 552,21.4 L 560,21.0 L 568,20.6 L 576,20.4 L 584,20.2 L 592,20.0 L 600,20.0 L 608,20.0 L 616,20.2 L 624,20.4 L 632,20.6 L 640,21.0 L 648,21.4 L 656,21.9 L 664,22.5 L 672,23.1 L 680,23.8 L 688,24.6 L 696,25.4 L 704,26.3 L 712,27.3 L 720,28.2 L 728,29.3 L 736,30.4 L 744,31.5 L 752,32.6 L 760,33.8 L 768,35.0 L 776,36.3 L 784,37.5 L 792,38.7 L 800,40.0 L 808,41.3 L 816,42.5 L 824,43.7 L 832,45.0 L 840,46.2 L 848,47.4 L 856,48.5 L 864,49.6 L 872,50.7 L 880,51.8 L 888,52.7 L 896,53.7 L 904,54.6 L 912,55.4 L 920,56.2 L 928,56.9 L 936,57.5 L 944,58.1 L 952,58.6 L 960,59.0 L 968,59.4 L 976,59.6 L 984,59.8 L 992,60.0 L 1000,60.0 L 1008,60.0 L 1016,59.8 L 1024,59.6 L 1032,59.4 L 1040,59.0 L 1048,58.6 L 1056,58.1 L 1064,57.5 L 1072,56.9 L 1080,56.2 L 1088,55.4 L 1096,54.6 L 1104,53.7 L 1112,52.7 L 1120,51.8 L 1128,50.7 L 1136,49.6 L 1144,48.5 L 1152,47.4 L 1160,46.2 L 1168,45.0 L 1176,43.7 L 1184,42.5 L 1192,41.3 L 1200,40.0 L 1208,38.7 L 1216,37.5 L 1200,0 Z" fill="#FFFFFF" opacity="0.3"/>
<defs>
        <radialGradient id="vignette" cx="50%" cy="50%" r="70%">
            <stop offset="0%" stop-color="black" stop-opacity="0"/>
            <stop offset="100%" stop-color="black" stop-opacity="0.25"/>
        </radialGradient>
    </defs>
    <rect width="1200" height="900" fill="url(#vignette)"/>
<text x="30" y="45" text-anchor="start"
        font-family="Arial, Helvetica, sans-serif" font-size="28" font-weight="bold"
        letter-spacing="2" fill="#ffffff" opacity="0.25">NEW ZEALAND</text>
<text x="1180" y="880" text-anchor="end"
        font-family="Arial, Helvetica, sans-serif" font-size="14" font-weight="bold"
        letter-spacing="3" fill="#ffffff" opacity="0.35">HOOD&apos;D</text>
</svg>