<?xml version="1.0" encoding="UTF-8"?>
<svg xmlns="http://www.w3.org/2000/svg" viewBox="0 0 1200 900" width="1200" height="900">
<rect width="1200" height="900" fill="#C60B1E"/>
<path d="M 0,214.5707785315202 L 0,113.2 L 10,125.1 L 20,134.1 L 30,127.8 L 40,120.9 L 50,150.3 L 60,137.1 L 70,154.5 L 80,155.1 L 90,155.4 L 100,157.4 L 110,135.6 L 120,162.0 L 130,141.1 L 140,138.1 L 150,164.0 L 160,161.9 L 170,164.0 L 180,163.4 L 190,160.9 L 200,159.2 L 210,163.6 L 220,163.9 L 230,164.3 L 240,164.6 L 250,162.5 L 260,163.8 L 270,158.5 L 280,164.6 L 290,156.4 L 300,164.0 L 310,164.4 L 320,160.5 L 330,162.4 L 340,156.6 L 350,161.0 L 360,163.5 L 370,153.6 L 380,160.8 L 390,146.9 L 400,160.0 L 410,133.8 L 420,135.5 L 430,127.5 L 440,136.0 L 450,142.9 L 460,129.7 L 470,124.8 L 480,125.0 L 490,142.3 L 500,119.2 L 510,106.9 L 520,125.1 L 530,132.5 L 540,124.6 L 550,124.6 L 560,108.3 L 570,106.6 L 580,118.8 L 590,101.7 L 600,84.0 L 610,114.7 L 620,84.4 L 630,87.4 L 640,90.4 L 650,105.5 L 660,98.9 L 670,81.0 L 680,79.0 L 690,84.0 L 700,90.7 L 710,85.0 L 720,78.5 L 730,78.2 L 740,78.2 L 750,78.1 L 760,78.4 L 770,78.8 L 780,78.2 L 790,80.2 L 800,78.1 L 810,78.3 L 820,86.4 L 830,79.9 L 840,95.9 L 850,78.5 L 860,89.6 L 870,89.7 L 880,104.7 L 890,81.4 L 900,88.7 L 910,91.9 L 920,104.0 L 930,98.1 L 940,105.1 L 950,90.7 L 960,126.9 L 970,130.4 L 980,120.7 L 990,135.4 L 1000,133.3 L 1010,107.0 L 1020,124.4 L 1030,136.7 L 1040,110.8 L 1050,121.7 L 1060,151.2 L 1070,140.1 L 1080,147.7 L 1090,150.9 L 1100,157.2 L 1110,156.6 L 1120,152.5 L 1130,137.4 L 1140,157.9 L 1150,152.3 L 1160,142.7 L 1170,144.5 L 1180,155.7 L 1190,164.5 L 1200,164.6 L 1210,160.1 L 1200,214.5707785315202 Z" fill="#FFFFFF" opacity="0.44"/>
<path d="M 0,410.74860982501133 L 0,336.6 L 10,313.5 L 20,303.4 L 30,322.4 L 40,328.3 L 50,338.1 L 60,328.6 L 70,324.0 L 80,342.4 L 90,345.1 L 100,345.0 L 110,352.6 L 120,338.5 L 130,347.2 L 140,352.3 L 150,334.1 L 160,357.2 L 170,359.2 L 180,359.3 L 190,359.4 L 200,360.7 L 210,359.5 L 220,347.2 L 230,356.0 L 240,359.9 L 250,349.2 L 260,358.6 L 270,360.6 L 280,360.4 L 290,360.7 L 300,359.3 L 310,359.9 L 320,359.0 L 330,360.4 L 340,356.6 L 350,353.3 L 360,349.8 L 370,359.4 L 380,349.5 L 390,351.1 L 400,356.5 L 410,345.5 L 420,358.4 L 430,351.7 L 440,359.6 L 450,354.3 L 460,356.4 L 470,351.8 L 480,334.1 L 490,334.7 L 500,345.1 L 510,324.9 L 520,319.3 L 530,339.3 L 540,332.0 L 550,346.5 L 560,318.6 L 570,336.4 L 580,318.6 L 590,341.7 L 600,329.2 L 610,301.0 L 620,336.1 L 630,326.8 L 640,306.9 L 650,294.3 L 660,293.8 L 670,293.0 L 680,300.0 L 690,317.2 L 700,303.5 L 710,294.1 L 720,294.6 L 730,303.7 L 740,285.0 L 750,284.6 L 760,295.3 L 770,282.2 L 780,280.4 L 790,303.7 L 800,299.4 L 810,295.8 L 820,284.9 L 830,278.3 L 840,284.0 L 850,278.9 L 860,279.0 L 870,283.2 L 880,278.1 L 890,276.6 L 900,284.1 L 910,278.7 L 920,276.5 L 930,278.0 L 940,277.6 L 950,279.3 L 960,280.4 L 970,278.7 L 980,276.6 L 990,276.5 L 1000,276.7 L 1010,277.2 L 1020,277.3 L 1030,278.3 L 1040,293.2 L 1050,290.5 L 1060,291.3 L 1070,296.9 L 1080,295.5 L 1090,299.3 L 1100,294.4 L 1110,291.8 L 1120,306.9 L 1130,313.7 L 1140,292.9 L 1150,304.6 L 1160,285.5 L 1170,287.0 L 1180,288.4 L 1190,308.1 L 1200,325.3 L 1210,324.5 L 1200,410.74860982501133 Z" fill="#33b773" opacity="0.40"/>
<path d="M 0,657.0025157195679 L 0,543.0 L 10,576.9 L 20,553.7 L 30,572.6 L 40,582.1 L 50,589.9 L 60,593.6 L 70,590.6 L 80,585.1 L 90,585.1 L 100,572.1 L 110,576.2 L 120,573.6 L 130,605.6 L 140,590.4 L 150,601.7 L 160,606.6 L 170,605.3 L 180,601.0 L 190,596.4 L 200,598.9 L 210,605.4 L 220,601.8 L 230,606.9 L 240,604.0 L 250,604.6 L 260,605.6 L 270,593.6 L 280,606.7 L 290,593.2 L 300,596.8 L 310,601.5 L 320,599.3 L 330,604.6 L 340,572.5 L 350,602.3 L 360,584.3 L 370,579.8 L 380,562.4 L 390,576.8 L 400,574.3 L 410,553.2 L 420,573.1 L 430,560.0 L 440,545.9 L 450,560.9 L 460,546.8 L 470,530.9 L 480,550.2 L 490,529.1 L 500,542.8 L 510,548.3 L 520,544.4 L 530,525.4 L 540,545.6 L 550,547.2 L 560,515.5 L 570,523.7 L 580,512.3 L 590,520.1 L 600,507.4 L 610,516.9 L 620,524.9 L 630,511.9 L 640,512.1 L 650,507.6 L 660,515.1 L 670,513.1 L 680,511.3 L 690,511.9 L 700,512.1 L 710,509.0 L 720,507.1 L 730,517.5 L 740,516.8 L 750,507.0 L 760,525.1 L 770,507.0 L 780,532.5 L 790,516.5 L 800,532.6 L 810,534.7 L 820,513.8 L 830,530.3 L 840,551.9 L 850,523.1 L 860,533.6 L 870,529.8 L 880,527.0 L 890,544.3 L 900,531.9 L 910,579.1 L 920,541.2 L 930,560.4 L 940,575.7 L 950,555.1 L 960,573.8 L 970,561.0 L 980,593.3 L 990,572.2 L 1000,589.3 L 1010,601.1 L 1020,599.7 L 1030,598.5 L 1040,584.9 L 1050,603.9 L 1060,589.5 L 1070,606.8 L 1080,606.9 L 1090,606.9 L 1100,605.8 L 1110,602.9 L 1120,606.1 L 1130,606.3 L 1140,606.9 L 1150,599.2 L 1160,607.0 L 1170,601.7 L 1180,594.6 L 1190,604.7 L 1200,603.4 L 1210,595.8 L 1200,657.0025157195679 Z" fill="#FFFFFF" opacity="0.44"/>
<path d="M 0,862.8552721826827 L 0,780.3 L 10,782.1 L 20,791.9 L 30,793.4 L 40,790.7 L 50,788.8 L 60,791.8 L 70,795.5 L 80,805.5 L 90,807.3 L 100,809.5 L 110,798.7 L 120,806.4 L 130,801.7 L 140,808.5 L 150,812.7 L 160,808.1 L 170,812.8 L 180,812.8 L 190,812.7 L 200,812.9 L 210,812.8 L 220,812.7 L 230,812.6 L 240,807.5 L 250,812.8 L 260,810.8 L 270,802.9 L 280,808.6 L 290,810.2 L 300,809.7 L 310,809.5 L 320,809.0 L 330,807.8 L 340,803.0 L 350,808.9 L 360,790.8 L 370,802.5 L 380,787.6 L 390,793.0 L 400,799.5 L 410,796.7 L 420,789.1 L 430,777.1 L 440,791.4 L 450,789.8 L 460,790.9 L 470,782.0 L 480,773.7 L 490,777.8 L 500,776.8 L 510,772.2 L 520,770.1 L 530,770.7 L 540,768.4 L 550,770.4 L 560,767.9 L 570,769.8 L 580,768.4 L 590,771.3 L 600,767.8 L 610,768.3 L 620,768.1 L 630,770.2 L 640,768.0 L 650,768.0 L 660,768.2 L 670,768.9 L 680,767.8 L 690,768.1 L 700,770.2 L 710,771.9 L 720,782.5 L 730,771.3 L 740,772.7 L 750,776.1 L 760,771.9 L 770,779.4 L 780,781.8 L 790,776.8 L 800,785.2 L 810,786.9 L 820,798.9 L 830,789.8 L 840,800.4 L 850,794.0 L 860,787.6 L 870,787.7 L 880,790.5 L 890,808.5 L 900,806.0 L 910,807.1 L 920,803.6 L 930,804.2 L 940,807.3 L 950,805.7 L 960,811.9 L 970,807.4 L 980,808.1 L 990,811.0 L 1000,812.0 L 1010,812.6 L 1020,812.4 L 1030,812.6 L 1040,812.2 L 1050,812.9 L 1060,809.9 L 1070,810.7 L 1080,809.7 L 1090,808.0 L 1100,811.7 L 1110,807.7 L 1120,802.7 L 1130,804.7 L 1140,799.1 L 1150,810.1 L 1160,809.5 L 1170,808.4 L 1180,792.2 L 1190,801.6 L 1200,802.8 L 1210,802.5 L 1200,862.8552721826827 Z" fill="#33b773" opacity="0.32"/>
<path d="M 0,0 L 0,60 L 0,40.0 L 8,41.3 L 16,42.5 L 24,43.7 L 32,45.0 L 40,46.2 L 48,47.4 L 56,48.5 L 64,49.6 L 72,50.7 L 80,51.8 L 88,52.7 L 96,53.7 L 104,54.6 L 112,55.4 L 120,56.2 L 128,56.9 L 136,57.5 L 144,58.1 L 152,58.6 L 160,59.0 L 168,59.4 L 176,59.6 L 184,59.8 L 192,60.0 L 200,60.0 L 208,60.0 L 216,59.8 L 224,59.6 L 232,59.4 L 240,59.0 L 248,58.6 L 256,58.1 L 264,57.5 L 272,56.9 L 280,56.2 L 288,55.4 L 296,54.6 L 304,53.7 L 312,52.7 L 320,51.8 L 328,50.7 L 336,49.6 L 344,48.5 L 352,47.4 L 360,46.2 L 368,45.0 L 376,43.7 L 384,42.5 L 392,41.3 L 400,40.0 L 408,38.7 L 416,37.5 L 424,36.3 L 432,35.0 L 440,33.8 L 448,32.6 L 456,31.5 L 464,30.4 L 472,29.3 L 480,28.2 L 488,27.3 L 496,26.3 L 504,25.4 L 512,24.6 L 520,23.8 L 528,23.1 L 536,22.5 L 544,21.9 L 552,21.4 L 560,21.0 L 568,20.6 L 576,20.4 L 584,20.2 L 592,20.0 L 600,20.0 L 608,20.0 L 616,20.2 L 624,20.4 L 632,20.6 L 640,21.0 L 648,21.4 L 656,21.9 L 664,22.5 L 672,23.1 L 680,23.8 L 688,24.6 L 696,25.4 L 704,26.3 L 712,27.3 L 720,28.2 L 728,29.3 L 736,30.4 L 744,31.5 L 752,32.6 L 760,33.8 L 768,35.0 L 776,36.3 L 784,37.5 L 792,38.7 L 800,40.0 L 808,41.3 L 816,42.5 L 824,43.7 L 832,45.0 L 840,46.2 L 848,47.4 L 856,48.5 L 864,49.6 L 872,50.7 L 880,51.8 L 888,52.7 L 896,53.7 L 904,54.6 L 912,55.4 L 920,56.2 L 928,56.9 L 936,57.5 L 944,58.1 L 952,58.6 L 960,59.0 L 968,59.4 L 976,59.6 L 984,59.8 L 992,60.0 L 1000,60.0 L 1008,60.0 L 1016,59.8 L 1024,59.6 L 1032,59.4 L 1040,59.0 L 1048,58.6 L 1056,58.1 L 1064,57.5 L 1072,56.9 L 1080,56.2 L 1088,55.4 L 1096,54.6 L 1104,53.7 L 1112,52.7 L 1120,51.8 L 1128,50.7 L 1136,49.6 L 1144,48.5 L 1152,47.4 L 1160,46.2 L 1168,45.0 L 1176,43.7 L 1184,42.5 L 1192,41.3 L 1200,40.0 L 1208,38.7 L 1216,37.5 L 1200,0 Z" fill="#FFFFFF" opacity="0.3"/>
<defs>
        <radialGradient id="vignette" cx="50%" cy="50%" r="70%">
            <stop offset="0%" stop-color="black" stop-opacity="0"/>
            <stop offset="100%" stop-color="black" stop-opacity="0.25"/>
        </radialGradient>
    </defs>
    <rect width="1200" height="900" fill="url(#vignette)"/>
<text x="30" y="45" text-anchor="start"
        font-family="Arial, Helvetica, sans-serif" font-size="28" font-weight="bold"
        letter-spacing="2" fill="#FFFFFF" opacity="0.25">PORTUGAL</text>
<text x="1180" y="880" text-anchor="end"
        font-family="Arial, Helvetica, sans-serif" font-size="14" font-weight="bold"
        letter-spacing="3" fill="#FFFFFF" opacity="0.35">HOOD&apos;D</text>
</svg>