<?xml version="1.0" encoding="UTF-8"?>
<svg xmlns="http://www.w3.org/2000/svg" viewBox="0 0 1200 900" width="1200" height="900">
<rect width="1200" height="900" fill="#F5DEB3"/>
<path d="M 0,146.54722878769957 L 0,74.9 L 10,60.5 L 20,63.7 L 30,82.6 L 40,89.5 L 50,71.6 L 60,73.4 L 70,74.6 L 80,87.9 L 90,83.6 L 100,86.8 L 110,94.8 L 120,85.0 L 130,96.3 L 140,94.7 L 150,95.9 L 160,92.9 L 170,96.2 L 180,96.1 L 190,96.4 L 200,95.0 L 210,96.2 L 220,95.3 L 230,96.2 L 240,95.9 L 250,95.7 L 260,81.0 L 270,93.9 L 280,86.8 L 290,88.6 L 300,77.3 L 310,71.8 L 320,88.9 L 330,76.4 L 340,72.4 L 350,83.6 L 360,61.9 L 370,57.4 L 380,75.9 L 390,66.2 L 400,63.4 L 410,59.7 L 420,49.4 L 430,59.9 L 440,52.3 L 450,49.2 L 460,58.6 L 470,51.1 L 480,54.3 L 490,45.9 L 500,50.0 L 510,44.5 L 520,43.6 L 530,45.8 L 540,46.6 L 550,46.3 L 560,43.5 L 570,51.7 L 580,45.9 L 590,43.9 L 600,47.1 L 610,53.8 L 620,48.4 L 630,49.8 L 640,59.1 L 650,66.9 L 660,52.9 L 670,63.3 L 680,72.4 L 690,67.1 L 700,56.8 L 710,60.9 L 720,68.4 L 730,63.5 L 740,64.4 L 750,80.7 L 760,80.3 L 770,86.1 L 780,79.1 L 790,79.6 L 800,92.2 L 810,87.6 L 820,87.4 L 830,96.5 L 840,90.3 L 850,92.4 L 860,92.1 L 870,95.7 L 880,95.4 L 890,95.2 L 900,96.1 L 910,92.8 L 920,96.5 L 930,87.7 L 940,87.7 L 950,84.6 L 960,96.0 L 970,88.4 L 980,93.6 L 990,87.1 L 1000,90.2 L 1010,80.1 L 1020,82.1 L 1030,66.1 L 1040,77.6 L 1050,61.9 L 1060,61.4 L 1070,71.1 L 1080,67.9 L 1090,60.1 L 1100,58.9 L 1110,52.2 L 1120,62.7 L 1130,47.7 L 1140,51.8 L 1150,63.1 L 1160,53.7 L 1170,48.1 L 1180,45.4 L 1190,53.1 L 1200,50.3 L 1210,48.7 L 1200,146.54722878769957 Z" fill="#708090" opacity="0.16"/>
<path d="M 0,296.2852635195246 L 0,216.1 L 10,233.2 L 20,224.4 L 30,225.7 L 40,230.3 L 50,242.5 L 60,243.7 L 70,233.5 L 80,241.9 L 90,235.0 L 100,242.7 L 110,241.6 L 120,246.3 L 130,246.2 L 140,242.1 L 150,244.3 L 160,246.2 L 170,246.3 L 180,242.7 L 190,246.0 L 200,246.1 L 210,239.2 L 220,242.8 L 230,245.9 L 240,243.8 L 250,242.4 L 260,230.8 L 270,238.4 L 280,227.0 L 290,239.8 L 300,228.9 L 310,224.6 L 320,226.4 L 330,232.5 L 340,226.8 L 350,221.1 L 360,220.0 L 370,228.7 L 380,219.1 L 390,210.7 L 400,222.2 L 410,221.7 L 420,208.9 L 430,208.7 L 440,205.7 L 450,205.8 L 460,205.5 L 470,205.4 L 480,205.5 L 490,206.6 L 500,205.5 L 510,205.5 L 520,207.9 L 530,208.8 L 540,205.4 L 550,205.9 L 560,206.8 L 570,214.6 L 580,209.4 L 590,216.3 L 600,208.8 L 610,221.2 L 620,219.8 L 630,223.8 L 640,222.0 L 650,228.1 L 660,224.3 L 670,216.6 L 680,222.4 L 690,232.4 L 700,236.8 L 710,223.5 L 720,241.5 L 730,231.9 L 740,240.2 L 750,245.1 L 760,234.1 L 770,241.4 L 780,239.6 L 790,246.3 L 800,246.3 L 810,243.9 L 820,246.0 L 830,246.1 L 840,245.3 L 850,246.2 L 860,246.0 L 870,244.3 L 880,245.1 L 890,246.1 L 900,245.0 L 910,245.4 L 920,242.5 L 930,242.0 L 940,229.6 L 950,231.4 L 960,224.6 L 970,240.0 L 980,223.9 L 990,223.0 L 1000,221.3 L 1010,227.5 L 1020,226.3 L 1030,230.2 L 1040,219.2 L 1050,216.1 L 1060,221.2 L 1070,213.6 L 1080,207.0 L 1090,218.6 L 1100,211.3 L 1110,208.2 L 1120,207.6 L 1130,209.8 L 1140,208.5 L 1150,207.0 L 1160,205.7 L 1170,205.7 L 1180,206.4 L 1190,206.3 L 1200,207.7 L 1210,209.5 L 1200,296.2852635195246 Z" fill="#708090" opacity="0.48"/>
<path d="M 0,471.62813437092314 L 0,403.6 L 10,381.9 L 20,410.8 L 30,389.4 L 40,412.6 L 50,400.0 L 60,398.6 L 70,410.4 L 80,411.7 L 90,420.6 L 100,420.3 L 110,418.8 L 120,420.5 L 130,421.5 L 140,420.2 L 150,418.2 L 160,419.8 L 170,420.5 L 180,418.8 L 190,416.2 L 200,416.6 L 210,419.4 L 220,408.1 L 230,414.5 L 240,417.5 L 250,408.3 L 260,402.2 L 270,402.6 L 280,402.0 L 290,402.7 L 300,385.7 L 310,404.2 L 320,385.8 L 330,387.1 L 340,375.6 L 350,369.8 L 360,375.1 L 370,381.9 L 380,364.1 L 390,375.7 L 400,363.2 L 410,376.6 L 420,367.3 L 430,364.1 L 440,361.7 L 450,361.7 L 460,362.0 L 470,362.9 L 480,361.7 L 490,361.8 L 500,361.7 L 510,361.7 L 520,362.1 L 530,373.7 L 540,379.9 L 550,367.9 L 560,383.3 L 570,385.8 L 580,367.6 L 590,385.1 L 600,393.0 L 610,391.9 L 620,387.7 L 630,401.9 L 640,400.5 L 650,388.4 L 660,410.5 L 670,389.9 L 680,404.6 L 690,415.9 L 700,418.0 L 710,402.6 L 720,421.2 L 730,421.5 L 740,421.0 L 750,420.7 L 760,418.6 L 770,421.2 L 780,421.4 L 790,420.7 L 800,420.6 L 810,419.0 L 820,421.5 L 830,421.5 L 840,406.2 L 850,416.0 L 860,404.6 L 870,414.7 L 880,401.3 L 890,404.0 L 900,398.7 L 910,387.9 L 920,383.7 L 930,384.0 L 940,389.8 L 950,397.9 L 960,384.6 L 970,392.4 L 980,389.0 L 990,376.4 L 1000,366.1 L 1010,371.5 L 1020,364.1 L 1030,364.2 L 1040,376.7 L 1050,362.1 L 1060,362.0 L 1070,361.7 L 1080,367.7 L 1090,362.6 L 1100,365.0 L 1110,364.1 L 1120,363.5 L 1130,365.0 L 1140,361.7 L 1150,362.2 L 1160,372.4 L 1170,369.4 L 1180,371.3 L 1190,383.1 L 1200,374.9 L 1210,379.1 L 1200,471.62813437092314 Z" fill="#801C2C" opacity="0.29"/>
<path d="M 0,607.9983696286854 L 0,507.4 L 10,511.3 L 20,490.7 L 30,508.0 L 40,503.6 L 50,506.7 L 60,544.8 L 70,532.7 L 80,523.0 L 90,526.0 L 100,531.6 L 110,533.1 L 120,534.5 L 130,525.8 L 140,551.1 L 150,546.5 L 160,556.8 L 170,549.1 L 180,554.6 L 190,558.0 L 200,551.7 L 210,554.0 L 220,554.4 L 230,557.8 L 240,556.4 L 250,552.6 L 260,558.0 L 270,555.5 L 280,557.1 L 290,557.9 L 300,558.0 L 310,556.2 L 320,556.9 L 330,557.7 L 340,534.7 L 350,555.0 L 360,538.8 L 370,536.3 L 380,550.4 L 390,553.7 L 400,544.2 L 410,525.2 L 420,531.0 L 430,508.2 L 440,532.4 L 450,505.4 L 460,527.6 L 470,495.1 L 480,532.6 L 490,504.7 L 500,487.6 L 510,513.1 L 520,480.7 L 530,518.3 L 540,518.1 L 550,503.5 L 560,477.8 L 570,501.7 L 580,467.9 L 590,494.5 L 600,493.4 L 610,469.1 L 620,463.0 L 630,494.2 L 640,487.7 L 650,456.2 L 660,474.4 L 670,474.5 L 680,456.0 L 690,465.1 L 700,455.0 L 710,471.0 L 720,454.5 L 730,457.2 L 740,465.7 L 750,456.4 L 760,454.5 L 770,454.7 L 780,456.2 L 790,458.2 L 800,463.4 L 810,458.0 L 820,458.9 L 830,454.5 L 840,454.6 L 850,464.3 L 860,464.9 L 870,457.4 L 880,465.6 L 890,473.4 L 900,461.4 L 910,468.5 L 920,485.5 L 930,485.3 L 940,464.8 L 950,495.9 L 960,474.6 L 970,473.0 L 980,495.8 L 990,487.5 L 1000,483.7 L 1010,482.6 L 1020,521.0 L 1030,487.5 L 1040,487.6 L 1050,504.0 L 1060,492.8 L 1070,534.5 L 1080,514.6 L 1090,529.4 L 1100,544.8 L 1110,529.8 L 1120,550.5 L 1130,523.9 L 1140,541.1 L 1150,537.1 L 1160,554.5 L 1170,535.7 L 1180,554.7 L 1190,540.3 L 1200,556.6 L 1210,558.0 L 1200,607.9983696286854 Z" fill="#994956" opacity="0.44"/>
<path d="M 0,785.0105702365764 L 0,706.7 L 10,699.8 L 20,690.9 L 30,673.4 L 40,704.1 L 50,696.4 L 60,702.5 L 70,727.7 L 80,701.0 L 90,717.4 L 100,712.9 L 110,705.0 L 120,708.0 L 130,722.2 L 140,734.8 L 150,730.8 L 160,734.7 L 170,732.8 L 180,735.0 L 190,730.9 L 200,733.0 L 210,732.3 L 220,724.7 L 230,728.7 L 240,735.0 L 250,732.0 L 260,732.7 L 270,729.9 L 280,700.9 L 290,727.4 L 300,697.0 L 310,717.6 L 320,724.2 L 330,715.5 L 340,678.2 L 350,677.1 L 360,694.5 L 370,685.2 L 380,696.8 L 390,702.8 L 400,686.0 L 410,674.7 L 420,685.9 L 430,681.2 L 440,674.6 L 450,641.0 L 460,647.9 L 470,649.0 L 480,643.7 L 490,633.0 L 500,648.2 L 510,636.7 L 520,627.3 L 530,637.4 L 540,627.7 L 550,630.1 L 560,627.3 L 570,632.2 L 580,627.3 L 590,627.3 L 600,631.9 L 610,627.5 L 620,633.1 L 630,643.9 L 640,630.5 L 650,632.5 L 660,630.3 L 670,649.0 L 680,659.0 L 690,662.8 L 700,656.1 L 710,640.2 L 720,680.3 L 730,675.4 L 740,694.9 L 750,684.2 L 760,655.1 L 770,681.0 L 780,701.7 L 790,692.8 L 800,687.1 L 810,711.3 L 820,683.1 L 830,712.2 L 840,697.2 L 850,721.1 L 860,700.0 L 870,708.0 L 880,725.8 L 890,729.3 L 900,734.2 L 910,725.6 L 920,718.7 L 930,733.4 L 940,732.4 L 950,734.5 L 960,733.2 L 970,732.7 L 980,733.1 L 990,733.4 L 1000,728.2 L 1010,733.3 L 1020,734.9 L 1030,724.0 L 1040,716.4 L 1050,718.2 L 1060,698.6 L 1070,715.6 L 1080,702.2 L 1090,722.2 L 1100,716.1 L 1110,677.4 L 1120,683.9 L 1130,696.8 L 1140,689.3 L 1150,700.1 L 1160,658.1 L 1170,694.3 L 1180,666.4 L 1190,658.6 L 1200,687.9 L 1210,656.3 L 1200,785.0105702365764 Z" fill="#708090" opacity="0.35"/>
<path d="M 0,911.1391440945949 L 0,849.8 L 10,851.7 L 20,839.2 L 30,836.2 L 40,837.9 L 50,850.5 L 60,843.9 L 70,844.5 L 80,846.4 L 90,855.0 L 100,851.1 L 110,848.8 L 120,853.1 L 130,860.4 L 140,856.4 L 150,860.5 L 160,856.2 L 170,857.7 L 180,860.3 L 190,858.4 L 200,860.7 L 210,860.6 L 220,858.8 L 230,860.9 L 240,859.3 L 250,860.2 L 260,861.1 L 270,858.9 L 280,860.9 L 290,860.9 L 300,861.1 L 310,856.2 L 320,857.1 L 330,858.3 L 340,858.9 L 350,850.6 L 360,857.9 L 370,845.5 L 380,853.6 L 390,839.0 L 400,840.2 L 410,853.5 L 420,845.6 L 430,847.5 L 440,836.9 L 450,837.8 L 460,830.8 L 470,840.2 L 480,830.2 L 490,830.0 L 500,829.3 L 510,836.0 L 520,836.2 L 530,824.7 L 540,828.4 L 550,833.2 L 560,826.2 L 570,825.3 L 580,821.4 L 590,823.7 L 600,829.4 L 610,827.6 L 620,821.2 L 630,823.4 L 640,824.3 L 650,823.6 L 660,822.4 L 670,822.4 L 680,822.5 L 690,823.7 L 700,821.0 L 710,824.5 L 720,822.2 L 730,821.8 L 740,821.2 L 750,821.4 L 760,822.6 L 770,828.1 L 780,827.1 L 790,836.8 L 800,834.9 L 810,823.9 L 820,832.5 L 830,825.4 L 840,835.1 L 850,827.5 L 860,834.7 L 870,846.2 L 880,845.4 L 890,839.6 L 900,844.2 L 910,835.5 L 920,848.9 L 930,854.8 L 940,852.5 L 950,857.4 L 960,851.9 L 970,849.1 L 980,845.9 L 990,850.3 L 1000,856.4 L 1010,860.4 L 1020,857.4 L 1030,856.7 L 1040,852.4 L 1050,859.4 L 1060,856.7 L 1070,858.6 L 1080,861.1 L 1090,860.8 L 1100,861.1 L 1110,861.1 L 1120,861.1 L 1130,861.1 L 1140,861.1 L 1150,859.8 L 1160,861.1 L 1170,858.9 L 1180,854.6 L 1190,860.2 L 1200,850.2 L 1210,849.6 L 1200,911.1391440945949 Z" fill="#801C2C" opacity="0.32"/>
<path d="M 0,0 L 0,60 L 0,40.0 L 8,41.3 L 16,42.5 L 24,43.7 L 32,45.0 L 40,46.2 L 48,47.4 L 56,48.5 L 64,49.6 L 72,50.7 L 80,51.8 L 88,52.7 L 96,53.7 L 104,54.6 L 112,55.4 L 120,56.2 L 128,56.9 L 136,57.5 L 144,58.1 L 152,58.6 L 160,59.0 L 168,59.4 L 176,59.6 L 184,59.8 L 192,60.0 L 200,60.0 L 208,60.0 L 216,59.8 L 224,59.6 L 232,59.4 L 240,59.0 L 248,58.6 L 256,58.1 L 264,57.5 L 272,56.9 L 280,56.2 L 288,55.4 L 296,54.6 L 304,53.7 L 312,52.7 L 320,51.8 L 328,50.7 L 336,49.6 L 344,48.5 L 352,47.4 L 360,46.2 L 368,45.0 L 376,43.7 L 384,42.5 L 392,41.3 L 400,40.0 L 408,38.7 L 416,37.5 L 424,36.3 L 432,35.0 L 440,33.8 L 448,32.6 L 456,31.5 L 464,30.4 L 472,29.3 L 480,28.2 L 488,27.3 L 496,26.3 L 504,25.4 L 512,24.6 L 520,23.8 L 528,23.1 L 536,22.5 L 544,21.9 L 552,21.4 L 560,21.0 L 568,20.6 L 576,20.4 L 584,20.2 L 592,20.0 L 600,20.0 L 608,20.0 L 616,20.2 L 624,20.4 L 632,20.6 L 640,21.0 L 648,21.4 L 656,21.9 L 664,22.5 L 672,23.1 L 680,23.8 L 688,24.6 L 696,25.4 L 704,26.3 L 712,27.3 L 720,28.2 L 728,29.3 L 736,30.4 L 744,31.5 L 752,32.6 L 760,33.8 L 768,35.0 L 776,36.3 L 784,37.5 L 792,38.7 L 800,40.0 L 808,41.3 L 816,42.5 L 824,43.7 L 832,45.0 L 840,46.2 L 848,47.4 L 856,48.5 L 864,49.6 L 872,50.7 L 880,51.8 L 888,52.7 L 896,53.7 L 904,54.6 L 912,55.4 L 920,56.2 L 928,56.9 L 936,57.5 L 944,58.1 L 952,58.6 L 960,59.0 L 968,59.4 L 976,59.6 L 984,59.8 L 992,60.0 L 1000,60.0 L 1008,60.0 L 1016,59.8 L 1024,59.6 L 1032,59.4 L 1040,59.0 L 1048,58.6 L 1056,58.1 L 1064,57.5 L 1072,56.9 L 1080,56.2 L 1088,55.4 L 1096,54.6 L 1104,53.7 L 1112,52.7 L 1120,51.8 L 1128,50.7 L 1136,49.6 L 1144,48.5 L 1152,47.4 L 1160,46.2 L 1168,45.0 L 1176,43.7 L 1184,42.5 L 1192,41.3 L 1200,40.0 L 1208,38.7 L 1216,37.5 L 1200,0 Z" fill="#708090" opacity="0.3"/>
<defs>
        <radialGradient id="vignette" cx="50%" cy="50%" r="70%">
            <stop offset="0%" stop-color="black" stop-opacity="0"/>
            <stop offset="100%" stop-color="black" stop-opacity="0.25"/>
        </radialGradient>
    </defs>
    <rect width="1200" height="900" fill="url(#vignette)"/>
<text x="30" y="45" text-anchor="start"
        font-family="Arial, Helvetica, sans-serif" font-size="28" font-weight="bold"
        letter-spacing="2" fill="#708090" opacity="0.25">QATAR</text>
<text x="1180" y="880" text-anchor="end"
        font-family="Arial, Helvetica, sans-serif" font-size="14" font-weight="bold"
        letter-spacing="3" fill="#708090" opacity="0.35">HOOD&apos;D</text>
</svg>