<?xml version="1.0" encoding="UTF-8"?>
<svg xmlns="http://www.w3.org/2000/svg" viewBox="0 0 1200 900" width="1200" height="900">
<rect width="1200" height="900" fill="#FFDB00"/>
<circle cx="219.8" cy="136.1" r="2.7" fill="#ffe023" opacity="0.08"/>
<rect x="30.9" y="148.9" width="16.6" height="16.6" fill="#4169E1" opacity="0.24" transform="rotate(35 31 149)"/>
<circle cx="118.2" cy="720.6" r="9.0" fill="#ffdd13" opacity="0.12"/>
<rect x="585.0" y="105.0" width="22.6" height="22.6" fill="#4169E1" opacity="0.17" transform="rotate(14 585 105)"/>
<circle cx="481.1" cy="5.9" r="10.8" fill="#ffdd13" opacity="0.24"/>
<circle cx="508.1" cy="841.8" r="4.8" fill="#ffdc0c" opacity="0.10"/>
<circle cx="319.3" cy="123.2" r="10.3" fill="#e9c800" opacity="0.23"/>
<rect x="638.1" y="625.4" width="7.9" height="7.9" fill="#4169E1" opacity="0.14" transform="rotate(31 638 625)"/>
<rect x="741.7" y="632.6" width="22.7" height="22.7" fill="#f0ce00" opacity="0.18" transform="rotate(42 742 633)"/>
<rect x="1189.3" y="833.3" width="23.5" height="23.5" fill="#4169E1" opacity="0.08" transform="rotate(36 1189 833)"/>
<rect x="276.4" y="699.2" width="6.9" height="6.9" fill="#4169E1" opacity="0.15" transform="rotate(40 276 699)"/>
<circle cx="643.6" cy="407.5" r="1.8" fill="#efcd00" opacity="0.08"/>
<rect x="205.0" y="67.4" width="6.3" height="6.3" fill="#e4c400" opacity="0.25" transform="rotate(12 205 67)"/>
<circle cx="959.8" cy="391.4" r="8.9" fill="#ffdf1d" opacity="0.08"/>
<circle cx="221.8" cy="226.2" r="5.9" fill="#ffe024" opacity="0.21"/>
<circle cx="274.2" cy="272.2" r="6.6" fill="#4169E1" opacity="0.18"/>
<circle cx="649.9" cy="99.9" r="9.1" fill="#e1c100" opacity="0.05"/>
<rect x="990.2" y="886.2" width="14.3" height="14.3" fill="#dbbc00" opacity="0.22" transform="rotate(17 990 886)"/>
<rect x="115.7" y="321.6" width="19.7" height="19.7" fill="#4169E1" opacity="0.18" transform="rotate(36 116 322)"/>
<circle cx="390.0" cy="501.3" r="7.2" fill="#edcb00" opacity="0.22"/>
<rect x="422.0" y="622.1" width="21.5" height="21.5" fill="#ebca00" opacity="0.16" transform="rotate(29 422 622)"/>
<rect x="35.1" y="865.5" width="6.3" height="6.3" fill="#dfbf00" opacity="0.06" transform="rotate(15 35 866)"/>
<rect x="898.8" y="276.4" width="24.0" height="24.0" fill="#ffdd14" opacity="0.16" transform="rotate(36 899 276)"/>
<rect x="181.4" y="309.7" width="5.8" height="5.8" fill="#4169E1" opacity="0.12" transform="rotate(24 181 310)"/>
<rect x="1055.0" y="506.4" width="8.9" height="8.9" fill="#ffe025" opacity="0.13" transform="rotate(31 1055 506)"/>
<rect x="222.9" y="301.8" width="22.5" height="22.5" fill="#ffe026" opacity="0.18" transform="rotate(38 223 302)"/>
<circle cx="311.9" cy="119.4" r="8.7" fill="#ffde19" opacity="0.24"/>
<rect x="1033.3" y="344.1" width="15.4" height="15.4" fill="#ffdc0d" opacity="0.11" transform="rotate(8 1033 344)"/>
<circle cx="557.8" cy="313.7" r="2.0" fill="#f1cf00" opacity="0.20"/>
<circle cx="1085.0" cy="314.9" r="5.5" fill="#e6c600" opacity="0.05"/>
<circle cx="111.1" cy="415.8" r="3.6" fill="#f0ce00" opacity="0.21"/>
<rect x="46.1" y="83.6" width="14.2" height="14.2" fill="#4169E1" opacity="0.18" transform="rotate(12 46 84)"/>
<circle cx="69.6" cy="424.0" r="8.8" fill="#4169E1" opacity="0.16"/>
<rect x="82.9" y="151.1" width="9.4" height="9.4" fill="#4169E1" opacity="0.06" transform="rotate(34 83 151)"/>
<circle cx="1086.4" cy="818.0" r="3.7" fill="#f1cf00" opacity="0.12"/>
<rect x="18.9" y="866.4" width="18.8" height="18.8" fill="#ffdf1c" opacity="0.14" transform="rotate(23 19 866)"/>
<circle cx="364.6" cy="732.1" r="11.8" fill="#4169E1" opacity="0.19"/>
<rect x="250.4" y="449.7" width="9.9" height="9.9" fill="#4169E1" opacity="0.17" transform="rotate(14 250 450)"/>
<circle cx="351.4" cy="217.2" r="7.9" fill="#4169E1" opacity="0.23"/>
<rect x="1000.9" y="121.1" width="12.0" height="12.0" fill="#4169E1" opacity="0.18" transform="rotate(18 1001 121)"/>
<rect x="886.2" y="276.9" width="19.7" height="19.7" fill="#4169E1" opacity="0.12" transform="rotate(14 886 277)"/>
<circle cx="997.0" cy="886.8" r="7.0" fill="#4169E1" opacity="0.09"/>
<rect x="486.9" y="140.3" width="4.1" height="4.1" fill="#ffde15" opacity="0.18" transform="rotate(24 487 140)"/>
<rect x="710.4" y="159.0" width="17.4" height="17.4" fill="#eccb00" opacity="0.19" transform="rotate(29 710 159)"/>
<rect x="727.3" y="780.3" width="14.7" height="14.7" fill="#eccb00" opacity="0.12" transform="rotate(45 727 780)"/>
<circle cx="346.6" cy="408.4" r="7.5" fill="#4169E1" opacity="0.17"/>
<rect x="8.9" y="287.6" width="12.8" height="12.8" fill="#ddbe00" opacity="0.15" transform="rotate(11 9 288)"/>
<circle cx="957.8" cy="445.4" r="11.6" fill="#ffdd0f" opacity="0.24"/>
<rect x="1040.0" y="690.3" width="10.5" height="10.5" fill="#4169E1" opacity="0.07" transform="rotate(2 1040 690)"/>
<rect x="162.0" y="611.1" width="9.8" height="9.8" fill="#e7c600" opacity="0.21" transform="rotate(40 162 611)"/>
<rect x="777.3" y="330.2" width="4.4" height="4.4" fill="#ffdc0d" opacity="0.13" transform="rotate(39 777 330)"/>
<circle cx="506.9" cy="737.2" r="9.6" fill="#e5c500" opacity="0.12"/>
<rect x="366.9" y="57.7" width="22.4" height="22.4" fill="#eecc00" opacity="0.09" transform="rotate(18 367 58)"/>
<rect x="952.7" y="251.8" width="11.3" height="11.3" fill="#ffdd0e" opacity="0.08" transform="rotate(34 953 252)"/>
<rect x="1187.9" y="363.6" width="24.8" height="24.8" fill="#e2c200" opacity="0.21" transform="rotate(26 1188 364)"/>
<circle cx="351.5" cy="40.5" r="5.4" fill="#eac900" opacity="0.11"/>
<circle cx="249.1" cy="692.7" r="11.0" fill="#ffde1a" opacity="0.25"/>
<circle cx="282.2" cy="519.3" r="5.2" fill="#4169E1" opacity="0.07"/>
<rect x="983.8" y="627.9" width="9.3" height="9.3" fill="#dfbf00" opacity="0.22" transform="rotate(16 984 628)"/>
<circle cx="886.7" cy="615.7" r="10.6" fill="#ffdf22" opacity="0.13"/>
<rect x="147.0" y="830.0" width="8.1" height="8.1" fill="#eac800" opacity="0.24" transform="rotate(10 147 830)"/>
<rect x="41.0" y="170.4" width="4.9" height="4.9" fill="#4169E1" opacity="0.10" transform="rotate(37 41 170)"/>
<rect x="521.4" y="152.1" width="16.4" height="16.4" fill="#eccb00" opacity="0.11" transform="rotate(5 521 152)"/>
<rect x="194.9" y="78.8" width="20.5" height="20.5" fill="#e3c300" opacity="0.14" transform="rotate(19 195 79)"/>
<rect x="941.9" y="313.4" width="14.1" height="14.1" fill="#4169E1" opacity="0.13" transform="rotate(34 942 313)"/>
<rect x="1155.0" y="70.5" width="10.8" height="10.8" fill="#eac900" opacity="0.17" transform="rotate(21 1155 71)"/>
<rect x="17.4" y="520.8" width="17.1" height="17.1" fill="#4169E1" opacity="0.19" transform="rotate(2 17 521)"/>
<rect x="855.7" y="716.9" width="13.2" height="13.2" fill="#ffdf1d" opacity="0.16" transform="rotate(35 856 717)"/>
<rect x="94.6" y="819.6" width="17.5" height="17.5" fill="#e9c800" opacity="0.07" transform="rotate(7 95 820)"/>
<rect x="1030.2" y="521.1" width="21.3" height="21.3" fill="#ffde1a" opacity="0.08" transform="rotate(25 1030 521)"/>
<rect x="162.9" y="31.9" width="12.5" height="12.5" fill="#eccb00" opacity="0.07" transform="rotate(38 163 32)"/>
<rect x="375.3" y="200.7" width="20.9" height="20.9" fill="#e9c800" opacity="0.23" transform="rotate(12 375 201)"/>
<circle cx="789.3" cy="486.0" r="7.0" fill="#ffe023" opacity="0.09"/>
<circle cx="660.6" cy="679.0" r="8.0" fill="#ffde18" opacity="0.12"/>
<circle cx="544.6" cy="882.2" r="7.0" fill="#4169E1" opacity="0.20"/>
<rect x="774.0" y="204.5" width="13.9" height="13.9" fill="#ffdf20" opacity="0.07" transform="rotate(9 774 205)"/>
<circle cx="31.5" cy="690.5" r="5.0" fill="#4169E1" opacity="0.11"/>
<circle cx="473.2" cy="868.4" r="9.3" fill="#ffe025" opacity="0.09"/>
<rect x="689.5" y="620.2" width="10.6" height="10.6" fill="#e7c600" opacity="0.18" transform="rotate(31 690 620)"/>
<rect x="260.0" y="36.4" width="3.4" height="3.4" fill="#4169E1" opacity="0.18" transform="rotate(11 260 36)"/>
<rect x="233.7" y="361.2" width="22.0" height="22.0" fill="#4169E1" opacity="0.08" transform="rotate(6 234 361)"/>
<rect x="1095.8" y="898.5" width="19.6" height="19.6" fill="#4169E1" opacity="0.11" transform="rotate(31 1096 898)"/>
<rect x="1175.4" y="437.4" width="18.6" height="18.6" fill="#4169E1" opacity="0.09" transform="rotate(7 1175 437)"/>
<rect x="256.3" y="119.2" width="8.3" height="8.3" fill="#edcc00" opacity="0.19" transform="rotate(40 256 119)"/>
<circle cx="665.9" cy="270.8" r="8.4" fill="#ffe025" opacity="0.17"/>
<rect x="79.3" y="452.1" width="20.5" height="20.5" fill="#4169E1" opacity="0.11" transform="rotate(43 79 452)"/>
<rect x="271.7" y="353.0" width="7.2" height="7.2" fill="#ffde1a" opacity="0.19" transform="rotate(30 272 353)"/>
<circle cx="670.2" cy="263.7" r="6.2" fill="#ffdd10" opacity="0.22"/>
<circle cx="162.1" cy="738.7" r="3.9" fill="#4169E1" opacity="0.19"/>
<rect x="462.2" y="153.2" width="20.3" height="20.3" fill="#4169E1" opacity="0.16" transform="rotate(7 462 153)"/>
<circle cx="301.1" cy="207.0" r="5.0" fill="#4169E1" opacity="0.20"/>
<rect x="992.7" y="519.6" width="15.1" height="15.1" fill="#4169E1" opacity="0.11" transform="rotate(33 993 520)"/>
<circle cx="815.1" cy="877.3" r="5.1" fill="#4169E1" opacity="0.23"/>
<circle cx="323.1" cy="391.5" r="9.1" fill="#ffde15" opacity="0.23"/>
<circle cx="710.6" cy="332.9" r="12.0" fill="#4169E1" opacity="0.24"/>
<rect x="1170.1" y="385.5" width="4.3" height="4.3" fill="#4169E1" opacity="0.13" transform="rotate(15 1170 386)"/>
<circle cx="1061.3" cy="853.9" r="5.7" fill="#4169E1" opacity="0.15"/>
<circle cx="343.1" cy="609.8" r="6.7" fill="#ffde17" opacity="0.23"/>
<circle cx="265.1" cy="424.0" r="9.5" fill="#ffdd12" opacity="0.09"/>
<circle cx="89.3" cy="412.4" r="9.8" fill="#4169E1" opacity="0.07"/>
<circle cx="752.5" cy="10.3" r="10.7" fill="#ffdd12" opacity="0.13"/>
<circle cx="653.8" cy="177.9" r="8.1" fill="#ebca00" opacity="0.11"/>
<circle cx="509.0" cy="577.4" r="2.6" fill="#debf00" opacity="0.18"/>
<circle cx="291.0" cy="539.7" r="4.3" fill="#e2c200" opacity="0.19"/>
<rect x="692.4" y="594.2" width="5.7" height="5.7" fill="#e3c300" opacity="0.11" transform="rotate(11 692 594)"/>
<rect x="761.9" y="247.7" width="23.7" height="23.7" fill="#4169E1" opacity="0.16" transform="rotate(15 762 248)"/>
<rect x="1183.6" y="75.5" width="24.5" height="24.5" fill="#eac900" opacity="0.16" transform="rotate(5 1184 75)"/>
<rect x="909.5" y="628.2" width="18.3" height="18.3" fill="#dbbc00" opacity="0.12" transform="rotate(40 910 628)"/>
<circle cx="299.6" cy="652.5" r="2.4" fill="#4169E1" opacity="0.19"/>
<rect x="1028.7" y="72.6" width="5.7" height="5.7" fill="#dfbf00" opacity="0.06" transform="rotate(31 1029 73)"/>
<circle cx="430.4" cy="15.3" r="6.5" fill="#4169E1" opacity="0.15"/>
<rect x="428.0" y="152.5" width="3.0" height="3.0" fill="#4169E1" opacity="0.23" transform="rotate(30 428 153)"/>
<rect x="896.8" y="754.4" width="16.7" height="16.7" fill="#ffdf1f" opacity="0.12" transform="rotate(8 897 754)"/>
<rect x="1107.9" y="894.4" width="13.0" height="13.0" fill="#ffdd0f" opacity="0.07" transform="rotate(4 1108 894)"/>
<circle cx="609.5" cy="461.7" r="4.6" fill="#4169E1" opacity="0.21"/>
<circle cx="357.3" cy="58.0" r="11.6" fill="#dabb00" opacity="0.22"/>
<rect x="391.8" y="846.8" width="9.7" height="9.7" fill="#4169E1" opacity="0.20" transform="rotate(29 392 847)"/>
<rect x="864.8" y="27.0" width="7.0" height="7.0" fill="#ffdf21" opacity="0.11" transform="rotate(8 865 27)"/>
<rect x="1056.7" y="94.4" width="22.4" height="22.4" fill="#4169E1" opacity="0.11" transform="rotate(4 1057 94)"/>
<circle cx="1071.1" cy="535.6" r="3.7" fill="#dcbd00" opacity="0.15"/>
<circle cx="28.2" cy="667.9" r="11.1" fill="#ffdd13" opacity="0.12"/>
<rect x="1162.1" y="775.0" width="4.6" height="4.6" fill="#4169E1" opacity="0.18" transform="rotate(28 1162 775)"/>
<rect x="703.7" y="666.6" width="8.6" height="8.6" fill="#ffdf1e" opacity="0.20" transform="rotate(24 704 667)"/>
<circle cx="536.5" cy="641.3" r="6.2" fill="#ffdf1d" opacity="0.21"/>
<circle cx="243.2" cy="788.7" r="8.6" fill="#ffde17" opacity="0.20"/>
<circle cx="685.0" cy="384.4" r="12.1" fill="#ffdf20" opacity="0.14"/>
<circle cx="379.9" cy="164.7" r="7.7" fill="#ffde16" opacity="0.19"/>
<rect x="411.8" y="776.6" width="18.1" height="18.1" fill="#ffe026" opacity="0.19" transform="rotate(7 412 777)"/>
<circle cx="1144.2" cy="359.0" r="4.6" fill="#ffdd13" opacity="0.10"/>
<rect x="689.6" y="637.2" width="17.5" height="17.5" fill="#ffde16" opacity="0.10" transform="rotate(16 690 637)"/>
<rect x="1179.2" y="296.7" width="13.7" height="13.7" fill="#4169E1" opacity="0.13" transform="rotate(12 1179 297)"/>
<rect x="996.0" y="90.2" width="17.5" height="17.5" fill="#debe00" opacity="0.12" transform="rotate(8 996 90)"/>
<circle cx="839.7" cy="611.7" r="8.7" fill="#eac900" opacity="0.18"/>
<rect x="640.9" y="209.0" width="22.9" height="22.9" fill="#e2c200" opacity="0.16" transform="rotate(13 641 209)"/>
<rect x="345.7" y="2.2" width="5.2" height="5.2" fill="#ffdd0f" opacity="0.20" transform="rotate(19 346 2)"/>
<circle cx="342.8" cy="737.4" r="12.1" fill="#ebc900" opacity="0.22"/>
<circle cx="307.9" cy="362.5" r="9.3" fill="#ffdf23" opacity="0.12"/>
<rect x="494.7" y="260.7" width="13.2" height="13.2" fill="#e4c400" opacity="0.07" transform="rotate(24 495 261)"/>
<circle cx="638.8" cy="606.6" r="2.0" fill="#4169E1" opacity="0.18"/>
<circle cx="870.5" cy="731.5" r="12.4" fill="#ffde17" opacity="0.15"/>
<circle cx="529.1" cy="877.7" r="10.3" fill="#dbbc00" opacity="0.19"/>
<circle cx="994.1" cy="802.9" r="4.3" fill="#e3c300" opacity="0.25"/>
<circle cx="547.3" cy="518.5" r="10.2" fill="#ffdc0c" opacity="0.20"/>
<rect x="253.0" y="230.5" width="17.5" height="17.5" fill="#4169E1" opacity="0.17" transform="rotate(41 253 230)"/>
<circle cx="1087.2" cy="652.9" r="3.7" fill="#e6c500" opacity="0.10"/>
<circle cx="619.0" cy="444.5" r="10.1" fill="#4169E1" opacity="0.16"/>
<circle cx="248.2" cy="29.5" r="3.0" fill="#4169E1" opacity="0.22"/>
<circle cx="842.1" cy="590.7" r="8.1" fill="#e8c800" opacity="0.10"/>
<circle cx="1041.7" cy="594.9" r="7.9" fill="#debf00" opacity="0.09"/>
<circle cx="840.4" cy="746.0" r="8.5" fill="#e4c400" opacity="0.20"/>
<circle cx="1052.7" cy="503.5" r="1.6" fill="#e0c000" opacity="0.18"/>
<rect x="251.4" y="873.9" width="11.7" height="11.7" fill="#e3c300" opacity="0.24" transform="rotate(12 251 874)"/>
<rect x="753.5" y="492.4" width="4.5" height="4.5" fill="#ffdc0d" opacity="0.23" transform="rotate(6 754 492)"/>
<rect x="1076.3" y="11.0" width="8.3" height="8.3" fill="#ffe025" opacity="0.23" transform="rotate(21 1076 11)"/>
<circle cx="1104.5" cy="775.1" r="2.4" fill="#4169E1" opacity="0.17"/>
<rect x="296.4" y="29.6" width="9.2" height="9.2" fill="#4169E1" opacity="0.07" transform="rotate(14 296 30)"/>
<circle cx="806.2" cy="272.1" r="3.2" fill="#eac900" opacity="0.14"/>
<circle cx="50.7" cy="678.1" r="2.5" fill="#ffde18" opacity="0.05"/>
<circle cx="879.2" cy="570.5" r="12.0" fill="#dabb00" opacity="0.21"/>
<rect x="517.6" y="95.0" width="22.3" height="22.3" fill="#ffde19" opacity="0.23" transform="rotate(8 518 95)"/>
<rect x="636.9" y="453.3" width="24.9" height="24.9" fill="#4169E1" opacity="0.09" transform="rotate(16 637 453)"/>
<rect x="738.8" y="338.2" width="21.8" height="21.8" fill="#ffdf20" opacity="0.09" transform="rotate(2 739 338)"/>
<circle cx="991.3" cy="391.6" r="7.6" fill="#4169E1" opacity="0.20"/>
<circle cx="670" cy="570" r="270" fill="#FFFFFF" opacity="0.08"/>
<defs>
        <radialGradient id="vignette" cx="50%" cy="50%" r="70%">
            <stop offset="0%" stop-color="black" stop-opacity="0"/>
            <stop offset="100%" stop-color="black" stop-opacity="0.25"/>
        </radialGradient>
    </defs>
    <rect width="1200" height="900" fill="url(#vignette)"/>
<text x="30" y="45" text-anchor="start"
        font-family="Arial, Helvetica, sans-serif" font-size="28" font-weight="bold"
        letter-spacing="2" fill="#FFFFFF" opacity="0.25">SWEDEN</text>
<text x="1180" y="880" text-anchor="end"
        font-family="Arial, Helvetica, sans-serif" font-size="14" font-weight="bold"
        letter-spacing="3" fill="#FFFFFF" opacity="0.35">HOOD&apos;D</text>
</svg>