<?xml version="1.0" encoding="UTF-8"?>
<svg xmlns="http://www.w3.org/2000/svg" viewBox="0 0 1200 900" width="1200" height="900">
<rect width="1200" height="900" fill="#008080"/>
<path d="M 0,214.36815060309618 L 0,129.3 L 10,144.2 L 20,138.2 L 30,134.9 L 40,149.5 L 50,140.0 L 60,140.3 L 70,146.8 L 80,142.6 L 90,137.7 L 100,141.5 L 110,156.0 L 120,137.7 L 130,135.8 L 140,143.0 L 150,151.1 L 160,154.1 L 170,145.9 L 180,157.1 L 190,159.3 L 200,160.2 L 210,150.2 L 220,156.8 L 230,160.3 L 240,164.3 L 250,156.3 L 260,155.2 L 270,158.1 L 280,162.7 L 290,164.1 L 300,163.2 L 310,161.0 L 320,164.3 L 330,163.8 L 340,164.4 L 350,164.3 L 360,164.2 L 370,155.8 L 380,164.3 L 390,163.5 L 400,162.4 L 410,161.4 L 420,151.0 L 430,152.3 L 440,161.9 L 450,157.5 L 460,157.8 L 470,155.1 L 480,153.1 L 490,156.0 L 500,157.3 L 510,149.7 L 520,142.4 L 530,151.2 L 540,146.2 L 550,148.6 L 560,141.7 L 570,154.2 L 580,132.0 L 590,122.4 L 600,123.9 L 610,123.3 L 620,137.1 L 630,117.1 L 640,140.4 L 650,134.7 L 660,127.2 L 670,119.6 L 680,112.0 L 690,131.0 L 700,122.8 L 710,114.5 L 720,112.4 L 730,99.5 L 740,99.8 L 750,98.6 L 760,110.8 L 770,114.7 L 780,119.7 L 790,117.6 L 800,107.1 L 810,93.8 L 820,95.2 L 830,102.9 L 840,92.6 L 850,105.5 L 860,92.5 L 870,102.9 L 880,93.8 L 890,92.5 L 900,96.8 L 910,96.7 L 920,93.0 L 930,92.6 L 940,94.6 L 950,92.9 L 960,92.5 L 970,92.8 L 980,92.8 L 990,93.6 L 1000,93.3 L 1010,92.5 L 1020,92.5 L 1030,103.1 L 1040,97.0 L 1050,95.2 L 1060,104.4 L 1070,93.4 L 1080,110.3 L 1090,104.3 L 1100,94.9 L 1110,97.4 L 1120,111.6 L 1130,98.5 L 1140,104.0 L 1150,102.5 L 1160,101.3 L 1170,124.3 L 1180,124.3 L 1190,110.7 L 1200,104.0 L 1210,118.8 L 1200,214.36815060309618 Z" fill="#DC143C" opacity="0.18"/>
<path d="M 0,402.5115056974825 L 0,317.6 L 10,325.1 L 20,330.3 L 30,327.9 L 40,344.5 L 50,337.1 L 60,330.8 L 70,348.0 L 80,350.3 L 90,346.4 L 100,351.4 L 110,351.3 L 120,345.1 L 130,352.5 L 140,346.7 L 150,346.1 L 160,348.2 L 170,352.5 L 180,352.0 L 190,352.1 L 200,348.9 L 210,349.3 L 220,352.1 L 230,343.3 L 240,352.2 L 250,347.2 L 260,348.1 L 270,351.3 L 280,349.4 L 290,347.3 L 300,339.9 L 310,341.2 L 320,346.6 L 330,325.1 L 340,329.1 L 350,340.9 L 360,321.0 L 370,325.7 L 380,332.5 L 390,323.5 L 400,320.4 L 410,324.6 L 420,326.5 L 430,307.2 L 440,311.5 L 450,317.6 L 460,311.0 L 470,316.8 L 480,305.0 L 490,311.5 L 500,305.7 L 510,309.3 L 520,306.0 L 530,306.4 L 540,304.5 L 550,305.5 L 560,304.7 L 570,306.6 L 580,304.4 L 590,305.4 L 600,310.1 L 610,311.9 L 620,305.8 L 630,315.9 L 640,310.0 L 650,320.2 L 660,320.3 L 670,315.3 L 680,315.2 L 690,331.9 L 700,327.3 L 710,322.2 L 720,337.3 L 730,333.2 L 740,340.3 L 750,327.4 L 760,337.4 L 770,338.6 L 780,331.3 L 790,330.6 L 800,334.1 L 810,343.5 L 820,342.9 L 830,350.6 L 840,352.2 L 850,351.8 L 860,351.2 L 870,352.0 L 880,352.3 L 890,352.5 L 900,352.2 L 910,351.8 L 920,350.7 L 930,348.5 L 940,352.4 L 950,352.4 L 960,350.4 L 970,341.3 L 980,345.2 L 990,336.9 L 1000,350.9 L 1010,336.9 L 1020,345.6 L 1030,338.9 L 1040,326.8 L 1050,334.1 L 1060,344.2 L 1070,340.7 L 1080,319.4 L 1090,325.0 L 1100,331.4 L 1110,312.9 L 1120,326.4 L 1130,326.6 L 1140,312.6 L 1150,314.6 L 1160,321.8 L 1170,311.4 L 1180,315.6 L 1190,309.5 L 1200,314.2 L 1210,310.4 L 1200,402.5115056974825 Z" fill="#DC143C" opacity="0.37"/>
<path d="M 0,680.6084599733897 L 0,604.0 L 10,610.9 L 20,602.3 L 30,611.0 L 40,583.9 L 50,608.5 L 60,592.0 L 70,589.3 L 80,620.9 L 90,597.4 L 100,604.6 L 110,620.5 L 120,612.4 L 130,625.5 L 140,629.3 L 150,623.6 L 160,625.4 L 170,612.4 L 180,623.2 L 190,629.2 L 200,621.5 L 210,620.6 L 220,624.9 L 230,628.2 L 240,624.4 L 250,629.5 L 260,626.0 L 270,630.0 L 280,628.3 L 290,626.9 L 300,630.2 L 310,627.9 L 320,624.5 L 330,630.6 L 340,627.9 L 350,625.3 L 360,628.2 L 370,621.1 L 380,622.2 L 390,623.2 L 400,620.7 L 410,613.0 L 420,614.6 L 430,609.8 L 440,622.5 L 450,600.2 L 460,609.2 L 470,592.8 L 480,598.9 L 490,619.7 L 500,603.7 L 510,608.0 L 520,609.3 L 530,602.6 L 540,607.8 L 550,604.7 L 560,587.2 L 570,602.5 L 580,596.8 L 590,582.3 L 600,587.3 L 610,594.3 L 620,578.9 L 630,581.8 L 640,580.0 L 650,559.4 L 660,559.1 L 670,561.2 L 680,573.4 L 690,563.6 L 700,569.8 L 710,555.1 L 720,570.2 L 730,554.8 L 740,559.6 L 750,554.3 L 760,562.9 L 770,554.9 L 780,554.3 L 790,556.4 L 800,557.6 L 810,554.3 L 820,557.3 L 830,554.6 L 840,560.1 L 850,555.3 L 860,557.7 L 870,558.4 L 880,558.8 L 890,559.5 L 900,557.0 L 910,555.8 L 920,569.9 L 930,567.4 L 940,556.3 L 950,561.7 L 960,564.2 L 970,568.7 L 980,569.2 L 990,571.4 L 1000,576.0 L 1010,577.5 L 1020,565.8 L 1030,596.0 L 1040,578.6 L 1050,581.4 L 1060,595.8 L 1070,603.5 L 1080,592.9 L 1090,606.5 L 1100,583.9 L 1110,603.6 L 1120,592.6 L 1130,616.2 L 1140,611.4 L 1150,589.5 L 1160,595.0 L 1170,617.4 L 1180,616.8 L 1190,607.4 L 1200,622.0 L 1210,602.3 L 1200,680.6084599733897 Z" fill="#ffdf33" opacity="0.38"/>
<path d="M 0,873.0982546135197 L 0,764.6 L 10,780.2 L 20,799.7 L 30,785.2 L 40,793.9 L 50,784.5 L 60,805.4 L 70,799.3 L 80,800.0 L 90,804.9 L 100,807.3 L 110,816.6 L 120,813.4 L 130,812.4 L 140,822.7 L 150,818.0 L 160,821.6 L 170,821.9 L 180,822.8 L 190,822.4 L 200,821.8 L 210,822.8 L 220,822.7 L 230,823.1 L 240,816.6 L 250,822.1 L 260,817.5 L 270,817.5 L 280,814.5 L 290,802.8 L 300,781.4 L 310,806.6 L 320,801.6 L 330,800.4 L 340,775.8 L 350,784.7 L 360,797.9 L 370,793.1 L 380,764.0 L 390,755.7 L 400,771.5 L 410,750.1 L 420,746.0 L 430,769.5 L 440,758.6 L 450,759.7 L 460,737.0 L 470,738.8 L 480,749.8 L 490,745.9 L 500,735.5 L 510,746.3 L 520,735.5 L 530,740.2 L 540,739.2 L 550,737.6 L 560,736.2 L 570,735.5 L 580,747.4 L 590,735.7 L 600,739.8 L 610,745.2 L 620,756.3 L 630,755.8 L 640,750.1 L 650,748.2 L 660,753.7 L 670,761.9 L 680,766.7 L 690,778.3 L 700,782.3 L 710,773.6 L 720,772.8 L 730,800.9 L 740,768.3 L 750,786.9 L 760,773.0 L 770,802.6 L 780,814.2 L 790,784.1 L 800,813.9 L 810,813.6 L 820,806.4 L 830,812.0 L 840,812.6 L 850,820.7 L 860,823.0 L 870,822.6 L 880,817.3 L 890,820.4 L 900,817.1 L 910,818.1 L 920,820.4 L 930,822.4 L 940,823.1 L 950,819.5 L 960,819.6 L 970,822.9 L 980,811.5 L 990,815.0 L 1000,817.5 L 1010,814.9 L 1020,801.2 L 1030,812.1 L 1040,775.3 L 1050,795.1 L 1060,771.8 L 1070,767.9 L 1080,796.2 L 1090,779.0 L 1100,792.5 L 1110,752.1 L 1120,768.1 L 1130,772.2 L 1140,767.1 L 1150,741.5 L 1160,745.7 L 1170,756.3 L 1180,746.8 L 1190,751.7 L 1200,756.9 L 1210,742.6 L 1200,873.0982546135197 Z" fill="#FFD700" opacity="0.44"/>
<path d="M 0,0 L 0,60 L 0,40.0 L 8,41.3 L 16,42.5 L 24,43.7 L 32,45.0 L 40,46.2 L 48,47.4 L 56,48.5 L 64,49.6 L 72,50.7 L 80,51.8 L 88,52.7 L 96,53.7 L 104,54.6 L 112,55.4 L 120,56.2 L 128,56.9 L 136,57.5 L 144,58.1 L 152,58.6 L 160,59.0 L 168,59.4 L 176,59.6 L 184,59.8 L 192,60.0 L 200,60.0 L 208,60.0 L 216,59.8 L 224,59.6 L 232,59.4 L 240,59.0 L 248,58.6 L 256,58.1 L 264,57.5 L 272,56.9 L 280,56.2 L 288,55.4 L 296,54.6 L 304,53.7 L 312,52.7 L 320,51.8 L 328,50.7 L 336,49.6 L 344,48.5 L 352,47.4 L 360,46.2 L 368,45.0 L 376,43.7 L 384,42.5 L 392,41.3 L 400,40.0 L 408,38.7 L 416,37.5 L 424,36.3 L 432,35.0 L 440,33.8 L 448,32.6 L 456,31.5 L 464,30.4 L 472,29.3 L 480,28.2 L 488,27.3 L 496,26.3 L 504,25.4 L 512,24.6 L 520,23.8 L 528,23.1 L 536,22.5 L 544,21.9 L 552,21.4 L 560,21.0 L 568,20.6 L 576,20.4 L 584,20.2 L 592,20.0 L 600,20.0 L 608,20.0 L 616,20.2 L 624,20.4 L 632,20.6 L 640,21.0 L 648,21.4 L 656,21.9 L 664,22.5 L 672,23.1 L 680,23.8 L 688,24.6 L 696,25.4 L 704,26.3 L 712,27.3 L 720,28.2 L 728,29.3 L 736,30.4 L 744,31.5 L 752,32.6 L 760,33.8 L 768,35.0 L 776,36.3 L 784,37.5 L 792,38.7 L 800,40.0 L 808,41.3 L 816,42.5 L 824,43.7 L 832,45.0 L 840,46.2 L 848,47.4 L 856,48.5 L 864,49.6 L 872,50.7 L 880,51.8 L 888,52.7 L 896,53.7 L 904,54.6 L 912,55.4 L 920,56.2 L 928,56.9 L 936,57.5 L 944,58.1 L 952,58.6 L 960,59.0 L 968,59.4 L 976,59.6 L 984,59.8 L 992,60.0 L 1000,60.0 L 1008,60.0 L 1016,59.8 L 1024,59.6 L 1032,59.4 L 1040,59.0 L 1048,58.6 L 1056,58.1 L 1064,57.5 L 1072,56.9 L 1080,56.2 L 1088,55.4 L 1096,54.6 L 1104,53.7 L 1112,52.7 L 1120,51.8 L 1128,50.7 L 1136,49.6 L 1144,48.5 L 1152,47.4 L 1160,46.2 L 1168,45.0 L 1176,43.7 L 1184,42.5 L 1192,41.3 L 1200,40.0 L 1208,38.7 L 1216,37.5 L 1200,0 Z" fill="#DC143C" opacity="0.3"/>
<defs>
        <radialGradient id="vignette" cx="50%" cy="50%" r="70%">
            <stop offset="0%" stop-color="black" stop-opacity="0"/>
            <stop offset="100%" stop-color="black" stop-opacity="0.25"/>
        </radialGradient>
    </defs>
    <rect width="1200" height="900" fill="url(#vignette)"/>
<text x="30" y="45" text-anchor="start"
        font-family="Arial, Helvetica, sans-serif" font-size="28" font-weight="bold"
        letter-spacing="2" fill="#DC143C" opacity="0.25">SENEGAL</text>
<text x="1180" y="880" text-anchor="end"
        font-family="Arial, Helvetica, sans-serif" font-size="14" font-weight="bold"
        letter-spacing="3" fill="#DC143C" opacity="0.35">HOOD&apos;D</text>
</svg>