<?xml version="1.0" encoding="UTF-8"?>
<svg xmlns="http://www.w3.org/2000/svg" viewBox="0 0 1200 900" width="1200" height="900">
<rect width="1200" height="900" fill="#DC143C"/>
<polygon points="947.9,841.2 952.5,854.6 966.7,854.9 955.4,863.4 959.5,877.0 947.9,868.9 936.2,877.0 940.3,863.4 929.1,854.9 943.2,854.6" fill="#000000" opacity="0.21"/>
<polygon points="844.1,452.6 848.7,464.3 860.3,468.9 848.7,473.4 844.1,485.1 839.5,473.4 827.8,468.9 839.5,464.3" fill="#000000" opacity="0.27"/>
<polygon points="401.7,196.7 404.1,203.7 411.5,203.9 405.6,208.3 407.8,215.4 401.7,211.2 395.6,215.4 397.8,208.3 391.9,203.9 399.3,203.7" fill="#000000" opacity="0.41"/>
<polygon points="955.0,659.6 957.6,668.2 966.2,666.2 960.2,672.7 966.2,679.2 957.6,677.2 955.0,685.7 952.3,677.2 943.7,679.2 949.7,672.7 943.7,666.2 952.3,668.2" fill="#000000" opacity="0.15"/>
<polygon points="867.9,167.4 870.7,176.5 880.0,174.4 873.5,181.3 880.0,188.3 870.7,186.2 867.9,195.3 865.1,186.2 855.9,188.3 862.4,181.3 855.9,174.4 865.1,176.5" fill="#FFFFFF" opacity="0.42"/>
<polygon points="53.9,259.5 55.8,265.4 61.8,264.0 57.6,268.5 61.8,273.1 55.8,271.7 53.9,277.6 52.1,271.7 46.1,273.1 50.3,268.5 46.1,264.0 52.1,265.4" fill="#ffffff" opacity="0.45"/>
<polygon points="871.5,174.8 872.6,177.8 875.6,179.0 872.6,180.1 871.5,183.1 870.3,180.1 867.3,179.0 870.3,177.8" fill="#FFFFFF" opacity="0.42"/>
<polygon points="1008.7,2.4 1012.5,14.6 1024.9,11.8 1016.2,21.1 1024.9,30.4 1012.5,27.5 1008.7,39.7 1005.0,27.5 992.6,30.4 1001.3,21.1 992.6,11.8 1005.0,14.6" fill="#FFFFFF" opacity="0.24"/>
<polygon points="1079.7,736.4 1082.5,744.6 1091.2,744.8 1084.3,750.0 1086.8,758.3 1079.7,753.4 1072.5,758.3 1075.0,750.0 1068.1,744.8 1076.8,744.6" fill="#000000" opacity="0.56"/>
<polygon points="1163.5,474.8 1168.1,488.0 1182.1,488.3 1170.9,496.7 1175.0,510.1 1163.5,502.1 1152.0,510.1 1156.1,496.7 1144.9,488.3 1158.9,488.0" fill="#ffffff" opacity="0.52"/>
<polygon points="1006.6,121.0 1009.7,131.1 1020.0,128.8 1012.8,136.5 1020.0,144.2 1009.7,141.9 1006.6,152.0 1003.5,141.9 993.2,144.2 1000.4,136.5 993.2,128.8 1003.5,131.1" fill="#ffffff" opacity="0.43"/>
<polygon points="714.5,422.6 717.3,431.8 726.6,429.7 720.1,436.7 726.6,443.7 717.3,441.6 714.5,450.7 711.6,441.6 702.3,443.7 708.8,436.7 702.3,429.7 711.6,431.8" fill="#ffffff" opacity="0.57"/>
<polygon points="138.3,804.6 141.2,813.9 150.7,811.7 144.0,818.9 150.7,826.1 141.2,823.9 138.3,833.2 135.4,823.9 125.9,826.1 132.6,818.9 125.9,811.7 135.4,813.9" fill="#000000" opacity="0.19"/>
<polygon points="185.3,72.3 186.6,75.7 190.0,77.0 186.6,78.3 185.3,81.7 184.0,78.3 180.6,77.0 184.0,75.7" fill="#FFFFFF" opacity="0.57"/>
<polygon points="905.2,828.4 907.5,836.1 915.3,834.3 909.9,840.1 915.3,846.0 907.5,844.2 905.2,851.8 902.8,844.2 895.0,846.0 900.5,840.1 895.0,834.3 902.8,836.1" fill="#FFFFFF" opacity="0.43"/>
<polygon points="506.4,87.7 509.5,95.6 517.4,98.7 509.5,101.9 506.4,109.8 503.2,101.9 495.3,98.7 503.2,95.6" fill="#ffffff" opacity="0.35"/>
<polygon points="1040.6,524.9 1042.1,529.1 1046.6,529.2 1043.0,531.8 1044.3,536.1 1040.6,533.6 1037.0,536.1 1038.3,531.8 1034.7,529.2 1039.2,529.1" fill="#ffffff" opacity="0.15"/>
<polygon points="576.9,184.6 577.8,187.6 580.9,186.9 578.8,189.2 580.9,191.5 577.8,190.8 576.9,193.8 576.0,190.8 572.9,191.5 575.1,189.2 572.9,186.9 576.0,187.6" fill="#FFFFFF" opacity="0.44"/>
<polygon points="850.0,630.6 852.0,637.3 858.9,635.7 854.1,640.9 858.9,646.1 852.0,644.5 850.0,651.2 847.9,644.5 841.0,646.1 845.8,640.9 841.0,635.7 847.9,637.3" fill="#FFFFFF" opacity="0.37"/>
<polygon points="519.0,587.5 524.2,600.7 537.4,605.9 524.2,611.1 519.0,624.3 513.8,611.1 500.6,605.9 513.8,600.7" fill="#000000" opacity="0.41"/>
<polygon points="186.7,430.8 190.4,440.3 199.9,444.0 190.4,447.8 186.7,457.3 182.9,447.8 173.4,444.0 182.9,440.3" fill="#FFFFFF" opacity="0.46"/>
<polygon points="745.8,747.8 750.0,758.4 760.6,762.6 750.0,766.8 745.8,777.5 741.6,766.8 731.0,762.6 741.6,758.4" fill="#000000" opacity="0.36"/>
<polygon points="145.7,143.6 147.4,148.5 152.6,148.6 148.5,151.7 150.0,156.7 145.7,153.7 141.5,156.7 143.0,151.7 138.8,148.6 144.0,148.5" fill="#FFFFFF" opacity="0.44"/>
<polygon points="496.3,561.2 501.4,574.2 514.4,579.4 501.4,584.5 496.3,597.5 491.1,584.5 478.1,579.4 491.1,574.2" fill="#ffffff" opacity="0.24"/>
<polygon points="525.3,62.3 528.4,72.3 538.6,69.9 531.4,77.6 538.6,85.2 528.4,82.9 525.3,92.9 522.2,82.9 512.0,85.2 519.2,77.6 512.0,69.9 522.2,72.3" fill="#000000" opacity="0.31"/>
<polygon points="971.4,-9.2 974.0,-0.7 982.6,-2.7 976.6,3.8 982.6,10.3 974.0,8.3 971.4,16.8 968.8,8.3 960.1,10.3 966.2,3.8 960.1,-2.7 968.8,-0.7" fill="#FFFFFF" opacity="0.39"/>
<polygon points="533.2,499.9 538.1,512.3 550.5,517.2 538.1,522.1 533.2,534.5 528.3,522.1 515.9,517.2 528.3,512.3" fill="#000000" opacity="0.21"/>
<polygon points="906.1,-0.1 907.4,3.8 911.6,3.9 908.3,6.5 909.5,10.5 906.1,8.1 902.6,10.5 903.8,6.5 900.5,3.9 904.7,3.8" fill="#000000" opacity="0.47"/>
<polygon points="833.1,461.9 835.0,466.7 839.8,468.6 835.0,470.6 833.1,475.4 831.2,470.6 826.3,468.6 831.2,466.7" fill="#FFFFFF" opacity="0.22"/>
<polygon points="1134.3,544.4 1137.2,551.7 1144.5,554.6 1137.2,557.4 1134.3,564.7 1131.4,557.4 1124.1,554.6 1131.4,551.7" fill="#ffffff" opacity="0.48"/>
<polygon points="551.9,33.9 556.0,45.9 568.7,46.1 558.6,53.8 562.3,65.9 551.9,58.7 541.5,65.9 545.1,53.8 535.0,46.1 547.7,45.9" fill="#000000" opacity="0.30"/>
<polygon points="744.1,798.1 749.7,812.4 764.0,818.0 749.7,823.6 744.1,837.9 738.5,823.6 724.2,818.0 738.5,812.4" fill="#ffffff" opacity="0.24"/>
<polygon points="470.1,696.7 473.6,708.3 485.3,705.6 477.1,714.4 485.3,723.2 473.6,720.5 470.1,732.0 466.5,720.5 454.8,723.2 463.0,714.4 454.8,705.6 466.5,708.3" fill="#000000" opacity="0.18"/>
<polygon points="406.5,290.0 407.6,293.0 410.8,293.1 408.2,295.0 409.2,298.1 406.5,296.3 403.9,298.1 404.8,295.0 402.3,293.1 405.5,293.0" fill="#ffffff" opacity="0.19"/>
<polygon points="545.3,515.4 547.2,521.6 553.5,520.1 549.1,524.9 553.5,529.6 547.2,528.1 545.3,534.3 543.4,528.1 537.1,529.6 541.5,524.9 537.1,520.1 543.4,521.6" fill="#000000" opacity="0.59"/>
<polygon points="1140.6,275.3 1142.6,281.8 1149.2,280.3 1144.6,285.2 1149.2,290.2 1142.6,288.7 1140.6,295.1 1138.6,288.7 1132.1,290.2 1136.7,285.2 1132.1,280.3 1138.6,281.8" fill="#000000" opacity="0.57"/>
<polygon points="934.0,670.5 935.6,675.6 940.8,674.4 937.1,678.3 940.8,682.3 935.6,681.1 934.0,686.2 932.4,681.1 927.2,682.3 930.9,678.3 927.2,674.4 932.4,675.6" fill="#ffffff" opacity="0.19"/>
<polygon points="605.5,401.1 608.1,409.7 616.9,407.7 610.7,414.3 616.9,420.8 608.1,418.8 605.5,427.4 602.8,418.8 594.1,420.8 600.2,414.3 594.1,407.7 602.8,409.7" fill="#000000" opacity="0.59"/>
<polygon points="72.6,38.9 75.6,48.6 85.4,46.4 78.5,53.8 85.4,61.2 75.6,58.9 72.6,68.6 69.6,58.9 59.7,61.2 66.6,53.8 59.7,46.4 69.6,48.6" fill="#ffffff" opacity="0.56"/>
<polygon points="291.4,41.1 293.8,48.1 301.2,48.2 295.3,52.7 297.5,59.8 291.4,55.6 285.3,59.8 287.4,52.7 281.5,48.2 288.9,48.1" fill="#FFFFFF" opacity="0.57"/>
<polygon points="145.1,416.5 148.3,424.4 156.2,427.6 148.3,430.7 145.1,438.6 142.0,430.7 134.1,427.6 142.0,424.4" fill="#000000" opacity="0.48"/>
<polygon points="292.1,567.5 296.1,579.0 308.3,579.3 298.6,586.7 302.1,598.3 292.1,591.4 282.1,598.3 285.6,586.7 275.9,579.3 288.1,579.0" fill="#000000" opacity="0.31"/>
<polygon points="48.4,510.8 51.8,520.5 62.0,520.7 53.8,526.9 56.8,536.8 48.4,530.9 40.0,536.8 42.9,526.9 34.8,520.7 45.0,520.5" fill="#ffffff" opacity="0.27"/>
<polygon points="1121.1,553.2 1125.0,565.9 1137.9,562.9 1128.9,572.6 1137.9,582.4 1125.0,579.4 1121.1,592.1 1117.2,579.4 1104.2,582.4 1113.3,572.6 1104.2,562.9 1117.2,565.9" fill="#000000" opacity="0.26"/>
<polygon points="292.8,725.6 295.8,734.1 304.7,734.3 297.6,739.7 300.2,748.3 292.8,743.2 285.4,748.3 288.0,739.7 280.9,734.3 289.9,734.1" fill="#000000" opacity="0.43"/>
<polygon points="239.9,551.4 241.2,555.9 245.8,554.8 242.6,558.2 245.8,561.6 241.2,560.6 239.9,565.0 238.5,560.6 234.0,561.6 237.2,558.2 234.0,554.8 238.5,555.9" fill="#000000" opacity="0.37"/>
<polygon points="1034.4,246.6 1036.8,253.6 1044.3,253.8 1038.4,258.2 1040.5,265.4 1034.4,261.1 1028.3,265.4 1030.5,258.2 1024.5,253.8 1032.0,253.6" fill="#FFFFFF" opacity="0.41"/>
<polygon points="909.1,733.0 910.1,735.9 913.2,735.9 910.8,737.8 911.6,740.7 909.1,738.9 906.7,740.7 907.5,737.8 905.1,735.9 908.2,735.9" fill="#ffffff" opacity="0.26"/>
<polygon points="972.3,761.7 975.4,770.5 984.7,770.7 977.3,776.3 980.0,785.2 972.3,779.9 964.7,785.2 967.4,776.3 960.0,770.7 969.3,770.5" fill="#FFFFFF" opacity="0.58"/>
<polygon points="654.1,51.5 656.3,56.9 661.6,59.0 656.3,61.1 654.1,66.5 652.0,61.1 646.6,59.0 652.0,56.9" fill="#ffffff" opacity="0.39"/>
<polygon points="318.2,788.7 319.5,792.6 323.7,792.6 320.4,795.1 321.6,799.1 318.2,796.7 314.8,799.1 316.0,795.1 312.7,792.6 316.8,792.6" fill="#ffffff" opacity="0.60"/>
<polygon points="560.7,866.0 564.0,874.4 572.3,877.7 564.0,881.0 560.7,889.3 557.4,881.0 549.0,877.7 557.4,874.4" fill="#ffffff" opacity="0.48"/>
<polygon points="528.8,732.6 530.2,736.6 534.4,736.7 531.0,739.2 532.2,743.3 528.8,740.9 525.3,743.3 526.5,739.2 523.1,736.7 527.4,736.6" fill="#000000" opacity="0.18"/>
<polygon points="810.3,75.8 812.7,83.7 820.7,81.8 815.1,87.8 820.7,93.8 812.7,92.0 810.3,99.8 807.9,92.0 799.9,93.8 805.5,87.8 799.9,81.8 807.9,83.7" fill="#FFFFFF" opacity="0.18"/>
<polygon points="275.1,443.8 279.0,455.2 291.1,455.4 281.5,462.7 285.0,474.3 275.1,467.4 265.2,474.3 268.7,462.7 259.0,455.4 271.1,455.2" fill="#FFFFFF" opacity="0.19"/>
<polygon points="1127.4,765.0 1128.8,768.6 1132.3,770.0 1128.8,771.4 1127.4,774.9 1126.0,771.4 1122.4,770.0 1126.0,768.6" fill="#000000" opacity="0.44"/>
<polygon points="391.1,386.7 393.6,394.6 401.7,392.8 396.0,398.9 401.7,404.9 393.6,403.1 391.1,411.0 388.7,403.1 380.6,404.9 386.3,398.9 380.6,392.8 388.7,394.6" fill="#000000" opacity="0.51"/>
<polygon points="124.6,597.5 127.3,605.3 135.5,605.4 129.0,610.4 131.4,618.3 124.6,613.6 117.9,618.3 120.3,610.4 113.7,605.4 121.9,605.3" fill="#FFFFFF" opacity="0.35"/>
<polygon points="999.7,342.2 1004.8,355.2 1017.7,360.2 1004.8,365.3 999.7,378.2 994.7,365.3 981.8,360.2 994.7,355.2" fill="#000000" opacity="0.30"/>
<polygon points="1045.6,379.3 1047.3,384.9 1053.0,383.6 1049.0,387.8 1053.0,392.1 1047.3,390.8 1045.6,396.4 1043.9,390.8 1038.2,392.1 1042.2,387.8 1038.2,383.6 1043.9,384.9" fill="#ffffff" opacity="0.43"/>
<polygon points="386.6,740.9 392.0,754.6 405.7,760.0 392.0,765.4 386.6,779.1 381.2,765.4 367.5,760.0 381.2,754.6" fill="#000000" opacity="0.28"/>
<polygon points="488.8,229.3 490.4,234.0 495.3,234.1 491.4,237.1 492.8,241.8 488.8,239.0 484.7,241.8 486.1,237.1 482.2,234.1 487.1,234.0" fill="#000000" opacity="0.54"/>
<polygon points="958.9,61.0 962.0,68.9 969.9,72.0 962.0,75.2 958.9,83.1 955.7,75.2 947.8,72.0 955.7,68.9" fill="#000000" opacity="0.49"/>
<polygon points="833.7,723.1 836.4,732.1 845.6,730.0 839.2,736.9 845.6,743.8 836.4,741.7 833.7,750.6 830.9,741.7 821.8,743.8 828.2,736.9 821.8,730.0 830.9,732.1" fill="#ffffff" opacity="0.50"/>
<polygon points="704.6,558.0 708.2,568.3 719.1,568.5 710.4,575.1 713.6,585.6 704.6,579.4 695.6,585.6 698.8,575.1 690.0,568.5 701.0,568.3" fill="#ffffff" opacity="0.32"/>
<polygon points="157.8,141.4 159.4,145.9 164.1,146.0 160.3,148.8 161.7,153.3 157.8,150.6 154.0,153.3 155.3,148.8 151.6,146.0 156.3,145.9" fill="#ffffff" opacity="0.45"/>
<polygon points="541.6,547.4 543.6,553.8 550.1,552.3 545.5,557.2 550.1,562.1 543.6,560.6 541.6,567.1 539.6,560.6 533.1,562.1 537.7,557.2 533.1,552.3 539.6,553.8" fill="#000000" opacity="0.52"/>
<defs><linearGradient id="star_grad" x1="0" y1="0" x2="0" y2="1">
        <stop offset="0%" stop-color="#9a0e2a" stop-opacity="0.3"/>
        <stop offset="100%" stop-color="#DC143C" stop-opacity="0"/>
    </linearGradient></defs>
    <rect width="1200" height="900" fill="url(#star_grad)"/>
<defs>
        <radialGradient id="vignette" cx="50%" cy="50%" r="70%">
            <stop offset="0%" stop-color="black" stop-opacity="0"/>
            <stop offset="100%" stop-color="black" stop-opacity="0.25"/>
        </radialGradient>
    </defs>
    <rect width="1200" height="900" fill="url(#vignette)"/>
<text x="30" y="45" text-anchor="start"
        font-family="Arial, Helvetica, sans-serif" font-size="28" font-weight="bold"
        letter-spacing="2" fill="#000000" opacity="0.25">TUNISIA</text>
<text x="1180" y="880" text-anchor="end"
        font-family="Arial, Helvetica, sans-serif" font-size="14" font-weight="bold"
        letter-spacing="3" fill="#000000" opacity="0.35">HOOD&apos;D</text>
</svg>