<?xml version="1.0" encoding="UTF-8"?>
<svg xmlns="http://www.w3.org/2000/svg" viewBox="0 0 1200 900" width="1200" height="900">
<rect width="1200" height="900" fill="#F5F5DC"/>
<path d="M 0,184.37112944337144 L 0,89.3 L 10,82.1 L 20,94.4 L 30,98.0 L 40,81.9 L 50,84.1 L 60,97.3 L 70,118.6 L 80,126.7 L 90,111.1 L 100,128.7 L 110,127.8 L 120,132.2 L 130,131.7 L 140,132.2 L 150,134.0 L 160,130.0 L 170,133.8 L 180,134.1 L 190,130.4 L 200,134.3 L 210,130.7 L 220,119.3 L 230,101.5 L 240,123.8 L 250,104.6 L 260,84.8 L 270,103.2 L 280,99.3 L 290,103.6 L 300,92.5 L 310,100.7 L 320,60.3 L 330,79.3 L 340,58.0 L 350,55.7 L 360,39.8 L 370,36.7 L 380,55.6 L 390,59.1 L 400,52.2 L 410,39.4 L 420,44.7 L 430,27.6 L 440,38.3 L 450,36.0 L 460,29.7 L 470,28.5 L 480,32.9 L 490,33.9 L 500,40.2 L 510,29.6 L 520,36.4 L 530,43.8 L 540,64.4 L 550,47.7 L 560,74.6 L 570,67.1 L 580,82.9 L 590,82.3 L 600,55.5 L 610,82.5 L 620,99.0 L 630,93.0 L 640,70.3 L 650,111.9 L 660,86.5 L 670,93.0 L 680,111.0 L 690,108.0 L 700,112.3 L 710,132.8 L 720,111.2 L 730,120.8 L 740,131.8 L 750,134.3 L 760,134.2 L 770,128.5 L 780,131.3 L 790,123.7 L 800,134.2 L 810,118.4 L 820,125.5 L 830,109.0 L 840,119.8 L 850,128.2 L 860,97.4 L 870,119.7 L 880,119.0 L 890,86.6 L 900,82.3 L 910,60.7 L 920,58.3 L 930,89.6 L 940,67.5 L 950,52.7 L 960,40.7 L 970,75.1 L 980,48.4 L 990,55.9 L 1000,48.7 L 1010,32.7 L 1020,51.1 L 1030,26.7 L 1040,30.2 L 1050,30.2 L 1060,36.6 L 1070,33.8 L 1080,33.1 L 1090,27.5 L 1100,26.7 L 1110,27.7 L 1120,32.3 L 1130,48.5 L 1140,57.9 L 1150,59.9 L 1160,65.3 L 1170,69.3 L 1180,59.6 L 1190,39.1 L 1200,50.8 L 1210,61.6 L 1200,184.37112944337144 Z" fill="#e34363" opacity="0.39"/>
<path d="M 0,369.17950550316465 L 0,281.1 L 10,300.6 L 20,274.5 L 30,270.8 L 40,279.4 L 50,284.7 L 60,291.0 L 70,310.7 L 80,291.1 L 90,300.4 L 100,294.9 L 110,312.6 L 120,302.6 L 130,309.2 L 140,314.6 L 150,318.9 L 160,310.1 L 170,318.5 L 180,318.1 L 190,319.1 L 200,318.8 L 210,319.2 L 220,319.0 L 230,316.6 L 240,318.8 L 250,307.7 L 260,309.1 L 270,315.6 L 280,311.1 L 290,314.9 L 300,291.9 L 310,300.5 L 320,302.9 L 330,296.7 L 340,294.1 L 350,286.7 L 360,290.7 L 370,297.7 L 380,267.9 L 390,294.3 L 400,271.6 L 410,272.6 L 420,287.1 L 430,264.9 L 440,275.6 L 450,273.9 L 460,260.1 L 470,269.1 L 480,255.9 L 490,268.9 L 500,246.7 L 510,242.3 L 520,252.6 L 530,240.8 L 540,242.2 L 550,251.3 L 560,240.9 L 570,241.0 L 580,246.8 L 590,241.1 L 600,243.5 L 610,247.5 L 620,240.9 L 630,247.8 L 640,240.9 L 650,241.8 L 660,259.0 L 670,241.8 L 680,258.1 L 690,246.0 L 700,269.4 L 710,261.8 L 720,268.3 L 730,270.7 L 740,265.9 L 750,263.9 L 760,262.1 L 770,291.6 L 780,290.8 L 790,273.3 L 800,284.9 L 810,292.5 L 820,294.7 L 830,308.5 L 840,281.8 L 850,299.8 L 860,309.9 L 870,308.0 L 880,308.4 L 890,295.7 L 900,300.7 L 910,313.6 L 920,318.7 L 930,309.8 L 940,312.1 L 950,318.6 L 960,310.5 L 970,312.0 L 980,319.0 L 990,314.9 L 1000,318.1 L 1010,317.3 L 1020,319.2 L 1030,309.6 L 1040,317.8 L 1050,317.2 L 1060,318.9 L 1070,301.4 L 1080,311.3 L 1090,304.2 L 1100,293.3 L 1110,312.0 L 1120,306.2 L 1130,305.8 L 1140,300.1 L 1150,286.0 L 1160,293.9 L 1170,293.8 L 1180,289.4 L 1190,270.6 L 1200,289.3 L 1210,282.3 L 1200,369.17950550316465 Z" fill="#FFFFFF" opacity="0.32"/>
<path d="M 0,569.8712462485942 L 0,460.3 L 10,445.7 L 20,477.5 L 30,460.4 L 40,475.5 L 50,467.2 L 60,512.7 L 70,504.5 L 80,504.3 L 90,505.8 L 100,507.0 L 110,506.7 L 120,514.9 L 130,519.9 L 140,510.6 L 150,518.3 L 160,516.2 L 170,511.7 L 180,509.6 L 190,505.7 L 200,518.6 L 210,518.8 L 220,506.9 L 230,495.7 L 240,492.8 L 250,497.3 L 260,477.7 L 270,497.9 L 280,486.1 L 290,481.7 L 300,479.9 L 310,471.1 L 320,447.0 L 330,489.6 L 340,478.0 L 350,472.0 L 360,440.0 L 370,431.1 L 380,425.5 L 390,455.1 L 400,440.2 L 410,437.3 L 420,440.5 L 430,415.6 L 440,413.5 L 450,421.3 L 460,412.1 L 470,413.7 L 480,414.7 L 490,412.3 L 500,418.3 L 510,412.2 L 520,425.3 L 530,417.9 L 540,416.2 L 550,418.6 L 560,442.9 L 570,421.6 L 580,422.3 L 590,460.3 L 600,422.9 L 610,469.7 L 620,448.8 L 630,470.7 L 640,467.0 L 650,474.3 L 660,460.9 L 670,466.9 L 680,478.0 L 690,486.8 L 700,503.1 L 710,481.1 L 720,514.6 L 730,489.0 L 740,513.4 L 750,493.0 L 760,514.9 L 770,514.3 L 780,511.3 L 790,517.9 L 800,519.8 L 810,518.8 L 820,519.8 L 830,519.8 L 840,515.4 L 850,510.3 L 860,519.8 L 870,519.7 L 880,516.9 L 890,508.9 L 900,509.3 L 910,506.9 L 920,473.1 L 930,483.0 L 940,469.5 L 950,487.5 L 960,478.6 L 970,489.6 L 980,477.5 L 990,467.9 L 1000,443.5 L 1010,429.3 L 1020,425.2 L 1030,461.0 L 1040,437.8 L 1050,444.0 L 1060,443.8 L 1070,441.9 L 1080,418.5 L 1090,412.7 L 1100,412.0 L 1110,422.5 L 1120,411.9 L 1130,414.5 L 1140,413.0 L 1150,411.9 L 1160,413.6 L 1170,417.0 L 1180,414.4 L 1190,416.5 L 1200,412.2 L 1210,443.2 L 1200,569.8712462485942 Z" fill="#FFFFFF" opacity="0.44"/>
<path d="M 0,685.696452995637 L 0,616.8 L 10,609.4 L 20,617.0 L 30,605.0 L 40,629.7 L 50,616.9 L 60,632.4 L 70,626.2 L 80,618.9 L 90,627.8 L 100,631.6 L 110,631.6 L 120,626.0 L 130,635.3 L 140,634.7 L 150,631.3 L 160,633.6 L 170,635.6 L 180,633.3 L 190,635.7 L 200,632.5 L 210,635.4 L 220,626.2 L 230,633.6 L 240,622.2 L 250,631.2 L 260,632.0 L 270,615.9 L 280,613.1 L 290,603.2 L 300,617.8 L 310,622.5 L 320,615.0 L 330,611.3 L 340,599.2 L 350,589.5 L 360,589.1 L 370,586.8 L 380,588.1 L 390,595.7 L 400,583.4 L 410,581.7 L 420,588.8 L 430,585.0 L 440,588.5 L 450,588.2 L 460,584.0 L 470,582.1 L 480,581.6 L 490,582.6 L 500,582.1 L 510,582.0 L 520,590.1 L 530,591.9 L 540,584.2 L 550,587.0 L 560,583.5 L 570,584.1 L 580,595.4 L 590,588.8 L 600,600.1 L 610,615.1 L 620,592.8 L 630,606.2 L 640,609.6 L 650,608.0 L 660,625.7 L 670,626.5 L 680,615.0 L 690,628.2 L 700,633.3 L 710,631.3 L 720,624.8 L 730,633.7 L 740,635.6 L 750,634.8 L 760,628.5 L 770,633.4 L 780,635.2 L 790,635.6 L 800,634.7 L 810,633.3 L 820,635.3 L 830,635.5 L 840,627.9 L 850,634.5 L 860,624.8 L 870,627.4 L 880,627.1 L 890,615.0 L 900,628.8 L 910,629.1 L 920,607.0 L 930,604.2 L 940,615.0 L 950,612.5 L 960,598.2 L 970,605.5 L 980,600.5 L 990,597.2 L 1000,598.8 L 1010,585.3 L 1020,583.5 L 1030,582.6 L 1040,590.7 L 1050,585.0 L 1060,586.0 L 1070,584.1 L 1080,581.5 L 1090,583.5 L 1100,583.3 L 1110,582.8 L 1120,583.0 L 1130,581.5 L 1140,585.6 L 1150,585.9 L 1160,581.4 L 1170,581.6 L 1180,585.9 L 1190,584.5 L 1200,585.9 L 1210,591.2 L 1200,685.696452995637 Z" fill="#FFFFFF" opacity="0.16"/>
<path d="M 0,892.3443766208684 L 0,804.5 L 10,807.3 L 20,801.2 L 30,812.2 L 40,801.2 L 50,831.6 L 60,820.4 L 70,808.1 L 80,835.9 L 90,812.2 L 100,838.2 L 110,835.7 L 120,836.0 L 130,827.6 L 140,825.6 L 150,831.3 L 160,838.5 L 170,841.9 L 180,835.0 L 190,837.3 L 200,842.2 L 210,842.2 L 220,839.8 L 230,839.9 L 240,841.5 L 250,841.2 L 260,841.7 L 270,835.1 L 280,827.5 L 290,829.4 L 300,832.4 L 310,820.2 L 320,817.0 L 330,835.7 L 340,816.9 L 350,832.7 L 360,832.0 L 370,828.5 L 380,807.8 L 390,804.8 L 400,820.5 L 410,822.2 L 420,810.7 L 430,786.8 L 440,786.4 L 450,802.7 L 460,807.5 L 470,776.2 L 480,793.6 L 490,775.1 L 500,768.6 L 510,784.5 L 520,780.6 L 530,778.9 L 540,777.3 L 550,770.7 L 560,775.2 L 570,768.0 L 580,764.7 L 590,771.8 L 600,763.7 L 610,764.4 L 620,765.1 L 630,767.1 L 640,764.4 L 650,765.5 L 660,764.7 L 670,765.7 L 680,765.9 L 690,766.6 L 700,780.0 L 710,776.6 L 720,765.8 L 730,782.1 L 740,794.6 L 750,795.9 L 760,777.2 L 770,796.5 L 780,803.5 L 790,809.9 L 800,808.4 L 810,816.3 L 820,814.7 L 830,821.9 L 840,823.0 L 850,804.1 L 860,797.4 L 870,829.5 L 880,809.6 L 890,828.9 L 900,821.4 L 910,830.9 L 920,836.1 L 930,821.0 L 940,827.6 L 950,841.0 L 960,839.6 L 970,835.9 L 980,840.7 L 990,841.5 L 1000,839.0 L 1010,841.0 L 1020,840.7 L 1030,842.3 L 1040,838.9 L 1050,836.4 L 1060,841.6 L 1070,840.0 L 1080,837.1 L 1090,833.0 L 1100,840.6 L 1110,836.0 L 1120,833.3 L 1130,838.0 L 1140,839.8 L 1150,831.7 L 1160,817.5 L 1170,829.9 L 1180,821.5 L 1190,831.6 L 1200,825.9 L 1210,815.0 L 1200,892.3443766208684 Z" fill="#e34363" opacity="0.16"/>
<path d="M 0,0 L 0,60 L 0,40.0 L 8,41.3 L 16,42.5 L 24,43.7 L 32,45.0 L 40,46.2 L 48,47.4 L 56,48.5 L 64,49.6 L 72,50.7 L 80,51.8 L 88,52.7 L 96,53.7 L 104,54.6 L 112,55.4 L 120,56.2 L 128,56.9 L 136,57.5 L 144,58.1 L 152,58.6 L 160,59.0 L 168,59.4 L 176,59.6 L 184,59.8 L 192,60.0 L 200,60.0 L 208,60.0 L 216,59.8 L 224,59.6 L 232,59.4 L 240,59.0 L 248,58.6 L 256,58.1 L 264,57.5 L 272,56.9 L 280,56.2 L 288,55.4 L 296,54.6 L 304,53.7 L 312,52.7 L 320,51.8 L 328,50.7 L 336,49.6 L 344,48.5 L 352,47.4 L 360,46.2 L 368,45.0 L 376,43.7 L 384,42.5 L 392,41.3 L 400,40.0 L 408,38.7 L 416,37.5 L 424,36.3 L 432,35.0 L 440,33.8 L 448,32.6 L 456,31.5 L 464,30.4 L 472,29.3 L 480,28.2 L 488,27.3 L 496,26.3 L 504,25.4 L 512,24.6 L 520,23.8 L 528,23.1 L 536,22.5 L 544,21.9 L 552,21.4 L 560,21.0 L 568,20.6 L 576,20.4 L 584,20.2 L 592,20.0 L 600,20.0 L 608,20.0 L 616,20.2 L 624,20.4 L 632,20.6 L 640,21.0 L 648,21.4 L 656,21.9 L 664,22.5 L 672,23.1 L 680,23.8 L 688,24.6 L 696,25.4 L 704,26.3 L 712,27.3 L 720,28.2 L 728,29.3 L 736,30.4 L 744,31.5 L 752,32.6 L 760,33.8 L 768,35.0 L 776,36.3 L 784,37.5 L 792,38.7 L 800,40.0 L 808,41.3 L 816,42.5 L 824,43.7 L 832,45.0 L 840,46.2 L 848,47.4 L 856,48.5 L 864,49.6 L 872,50.7 L 880,51.8 L 888,52.7 L 896,53.7 L 904,54.6 L 912,55.4 L 920,56.2 L 928,56.9 L 936,57.5 L 944,58.1 L 952,58.6 L 960,59.0 L 968,59.4 L 976,59.6 L 984,59.8 L 992,60.0 L 1000,60.0 L 1008,60.0 L 1016,59.8 L 1024,59.6 L 1032,59.4 L 1040,59.0 L 1048,58.6 L 1056,58.1 L 1064,57.5 L 1072,56.9 L 1080,56.2 L 1088,55.4 L 1096,54.6 L 1104,53.7 L 1112,52.7 L 1120,51.8 L 1128,50.7 L 1136,49.6 L 1144,48.5 L 1152,47.4 L 1160,46.2 L 1168,45.0 L 1176,43.7 L 1184,42.5 L 1192,41.3 L 1200,40.0 L 1208,38.7 L 1216,37.5 L 1200,0 Z" fill="#FFFFFF" opacity="0.3"/>
<defs>
        <radialGradient id="vignette" cx="50%" cy="50%" r="70%">
            <stop offset="0%" stop-color="black" stop-opacity="0"/>
            <stop offset="100%" stop-color="black" stop-opacity="0.25"/>
        </radialGradient>
    </defs>
    <rect width="1200" height="900" fill="url(#vignette)"/>
<text x="30" y="45" text-anchor="start"
        font-family="Arial, Helvetica, sans-serif" font-size="28" font-weight="bold"
        letter-spacing="2" fill="#FFFFFF" opacity="0.25">TURKEY</text>
<text x="1180" y="880" text-anchor="end"
        font-family="Arial, Helvetica, sans-serif" font-size="14" font-weight="bold"
        letter-spacing="3" fill="#FFFFFF" opacity="0.35">HOOD&apos;D</text>
</svg>