<?xml version="1.0" encoding="UTF-8"?>
<svg xmlns="http://www.w3.org/2000/svg" viewBox="0 0 1200 900" width="1200" height="900">
<rect width="1200" height="900" fill="#1A1A2E"/>
<polygon points="587.9,665.7 589.3,670.2 593.8,669.1 590.6,672.5 593.8,676.0 589.3,674.9 587.9,679.4 586.5,674.9 581.9,676.0 585.1,672.5 581.9,669.1 586.5,670.2" fill="#ffffff" opacity="0.48"/>
<polygon points="515.5,65.3 520.0,78.2 533.6,78.5 522.8,86.7 526.7,99.7 515.5,92.0 504.3,99.7 508.3,86.7 497.4,78.5 511.1,78.2" fill="#FFFFFF" opacity="0.52"/>
<polygon points="316.3,756.1 319.6,766.9 330.6,764.3 322.9,772.6 330.6,780.8 319.6,778.3 316.3,789.0 313.0,778.3 302.1,780.8 309.7,772.6 302.1,764.3 313.0,766.9" fill="#0052CC" opacity="0.53"/>
<polygon points="133.3,173.8 137.9,185.4 149.6,190.0 137.9,194.6 133.3,206.3 128.8,194.6 117.1,190.0 128.8,185.4" fill="#FFFFFF" opacity="0.29"/>
<polygon points="256.2,530.7 258.3,536.6 264.5,536.8 259.5,540.6 261.4,546.6 256.2,543.0 251.0,546.6 252.9,540.6 247.9,536.8 254.1,536.6" fill="#0052CC" opacity="0.43"/>
<polygon points="1172.6,868.8 1176.0,880.0 1187.4,877.4 1179.4,885.9 1187.4,894.5 1176.0,891.9 1172.6,903.0 1169.2,891.9 1157.8,894.5 1165.8,885.9 1157.8,877.4 1169.2,880.0" fill="#0052CC" opacity="0.17"/>
<polygon points="922.8,17.0 926.1,25.3 934.4,28.6 926.1,31.9 922.8,40.2 919.5,31.9 911.2,28.6 919.5,25.3" fill="#ffffff" opacity="0.42"/>
<polygon points="183.2,836.1 185.8,843.8 194.0,843.9 187.5,848.8 189.9,856.6 183.2,852.0 176.5,856.6 178.8,848.8 172.4,843.9 180.5,843.8" fill="#FFFFFF" opacity="0.37"/>
<polygon points="547.0,379.8 549.9,388.4 559.0,388.6 551.8,394.1 554.4,402.8 547.0,397.6 539.5,402.8 542.1,394.1 534.9,388.6 544.0,388.4" fill="#FFFFFF" opacity="0.39"/>
<polygon points="762.5,509.1 764.6,514.7 770.1,516.8 764.6,519.0 762.5,524.5 760.3,519.0 754.8,516.8 760.3,514.7" fill="#0052CC" opacity="0.43"/>
<polygon points="1153.8,326.5 1156.6,334.6 1165.1,334.8 1158.3,339.9 1160.8,348.1 1153.8,343.2 1146.8,348.1 1149.2,339.9 1142.4,334.8 1151.0,334.6" fill="#ffffff" opacity="0.19"/>
<polygon points="555.7,571.2 559.1,580.8 569.3,581.1 561.1,587.2 564.1,597.0 555.7,591.2 547.3,597.0 550.3,587.2 542.2,581.1 552.4,580.8" fill="#ffffff" opacity="0.15"/>
<polygon points="233.2,-10.1 238.1,2.4 250.7,7.3 238.1,12.2 233.2,24.8 228.3,12.2 215.8,7.3 228.3,2.4" fill="#FFFFFF" opacity="0.22"/>
<polygon points="198.0,378.2 201.0,385.9 208.8,389.0 201.0,392.1 198.0,399.8 194.9,392.1 187.1,389.0 194.9,385.9" fill="#0052CC" opacity="0.17"/>
<polygon points="56.5,213.6 59.5,221.2 67.1,224.2 59.5,227.2 56.5,234.8 53.5,227.2 45.9,224.2 53.5,221.2" fill="#FFFFFF" opacity="0.43"/>
<polygon points="854.2,508.5 856.6,515.3 863.7,515.4 858.0,519.8 860.1,526.6 854.2,522.5 848.4,526.6 850.4,519.8 844.7,515.4 851.9,515.3" fill="#ffffff" opacity="0.27"/>
<polygon points="137.5,388.3 140.3,396.3 148.8,396.5 142.0,401.6 144.5,409.8 137.5,404.9 130.5,409.8 133.0,401.6 126.2,396.5 134.7,396.3" fill="#ffffff" opacity="0.56"/>
<polygon points="846.6,153.3 850.9,165.6 863.9,165.9 853.5,173.8 857.3,186.3 846.6,178.8 835.9,186.3 839.6,173.8 829.2,165.9 842.3,165.6" fill="#ffffff" opacity="0.38"/>
<polygon points="1143.8,109.4 1146.3,117.7 1154.8,115.7 1148.9,122.1 1154.8,128.5 1146.3,126.5 1143.8,134.9 1141.2,126.5 1132.7,128.5 1138.7,122.1 1132.7,115.7 1141.2,117.7" fill="#0052CC" opacity="0.40"/>
<polygon points="940.1,453.1 944.7,466.5 958.9,466.8 947.6,475.4 951.7,489.0 940.1,480.9 928.4,489.0 932.5,475.4 921.2,466.8 935.4,466.5" fill="#FFFFFF" opacity="0.34"/>
<polygon points="741.0,728.8 743.7,737.7 752.7,735.6 746.4,742.4 752.7,749.2 743.7,747.1 741.0,756.0 738.3,747.1 729.2,749.2 735.5,742.4 729.2,735.6 738.3,737.7" fill="#0052CC" opacity="0.37"/>
<polygon points="742.8,39.8 744.0,43.3 747.7,43.4 744.7,45.7 745.8,49.2 742.8,47.1 739.7,49.2 740.8,45.7 737.8,43.4 741.5,43.3" fill="#FFFFFF" opacity="0.48"/>
<polygon points="676.0,260.3 677.7,265.3 683.0,265.4 678.8,268.6 680.3,273.6 676.0,270.6 671.6,273.6 673.1,268.6 668.9,265.4 674.2,265.3" fill="#FFFFFF" opacity="0.37"/>
<polygon points="166.6,437.0 169.7,444.8 177.5,447.9 169.7,451.0 166.6,458.9 163.5,451.0 155.6,447.9 163.5,444.8" fill="#FFFFFF" opacity="0.39"/>
<polygon points="338.1,364.6 342.3,376.7 355.1,376.9 344.9,384.6 348.6,396.8 338.1,389.5 327.7,396.8 331.4,384.6 321.2,376.9 334.0,376.7" fill="#0052CC" opacity="0.53"/>
<polygon points="714.8,775.5 719.4,788.8 733.4,789.1 722.2,797.6 726.3,811.0 714.8,803.0 703.3,811.0 707.3,797.6 696.1,789.1 710.2,788.8" fill="#0052CC" opacity="0.17"/>
<polygon points="390.8,629.4 392.2,633.8 396.6,632.8 393.5,636.1 396.6,639.5 392.2,638.5 390.8,642.9 389.5,638.5 385.0,639.5 388.1,636.1 385.0,632.8 389.5,633.8" fill="#ffffff" opacity="0.39"/>
<polygon points="758.3,317.7 762.5,328.4 773.2,332.6 762.5,336.8 758.3,347.5 754.1,336.8 743.4,332.6 754.1,328.4" fill="#ffffff" opacity="0.53"/>
<polygon points="370.3,879.0 375.0,890.8 386.7,895.4 375.0,900.0 370.3,911.7 365.7,900.0 354.0,895.4 365.7,890.8" fill="#0052CC" opacity="0.58"/>
<polygon points="687.8,590.4 691.7,603.0 704.6,600.1 695.6,609.7 704.6,619.4 691.7,616.4 687.8,629.1 684.0,616.4 671.1,619.4 680.1,609.7 671.1,600.1 684.0,603.0" fill="#FFFFFF" opacity="0.52"/>
<polygon points="597.2,24.1 598.9,29.1 604.2,29.2 600.0,32.3 601.5,37.4 597.2,34.4 592.9,37.4 594.4,32.3 590.2,29.2 595.5,29.1" fill="#FFFFFF" opacity="0.48"/>
<polygon points="313.3,178.6 317.3,189.9 329.3,190.2 319.7,197.4 323.2,208.9 313.3,202.1 303.5,208.9 306.9,197.4 297.4,190.2 309.4,189.9" fill="#ffffff" opacity="0.37"/>
<polygon points="215.4,252.7 217.6,259.8 224.8,258.1 219.8,263.5 224.8,268.9 217.6,267.2 215.4,274.3 213.3,267.2 206.1,268.9 211.1,263.5 206.1,258.1 213.3,259.8" fill="#FFFFFF" opacity="0.43"/>
<polygon points="710.2,587.2 714.6,598.3 725.7,602.7 714.6,607.0 710.2,618.1 705.8,607.0 694.7,602.7 705.8,598.3" fill="#FFFFFF" opacity="0.40"/>
<polygon points="403.1,562.5 406.5,573.3 417.5,570.7 409.8,579.0 417.5,587.3 406.5,584.8 403.1,595.6 399.8,584.8 388.8,587.3 396.5,579.0 388.8,570.7 399.8,573.3" fill="#ffffff" opacity="0.34"/>
<polygon points="1005.4,122.1 1007.0,126.1 1011.1,127.7 1007.0,129.3 1005.4,133.4 1003.8,129.3 999.7,127.7 1003.8,126.1" fill="#FFFFFF" opacity="0.33"/>
<polygon points="837.4,645.2 838.8,649.0 842.6,650.4 838.8,651.9 837.4,655.7 835.9,651.9 832.1,650.4 835.9,649.0" fill="#0052CC" opacity="0.53"/>
<polygon points="1189.2,514.0 1194.5,527.5 1207.9,532.8 1194.5,538.1 1189.2,551.6 1183.8,538.1 1170.4,532.8 1183.8,527.5" fill="#0052CC" opacity="0.18"/>
<polygon points="92.9,649.1 94.6,654.8 100.4,653.4 96.4,657.8 100.4,662.1 94.6,660.7 92.9,666.4 91.2,660.7 85.4,662.1 89.5,657.8 85.4,653.4 91.2,654.8" fill="#0052CC" opacity="0.42"/>
<polygon points="931.8,667.9 937.0,681.0 950.1,686.2 937.0,691.4 931.8,704.6 926.6,691.4 913.4,686.2 926.6,681.0" fill="#FFFFFF" opacity="0.21"/>
<polygon points="1033.0,53.9 1034.0,56.7 1036.9,56.7 1034.6,58.5 1035.4,61.3 1033.0,59.6 1030.6,61.3 1031.5,58.5 1029.2,56.7 1032.1,56.7" fill="#FFFFFF" opacity="0.48"/>
<polygon points="607.4,334.2 610.3,342.6 619.1,342.8 612.1,348.1 614.6,356.6 607.4,351.5 600.1,356.6 602.7,348.1 595.6,342.8 604.5,342.6" fill="#ffffff" opacity="0.17"/>
<polygon points="25.3,530.4 26.6,534.0 30.4,534.1 27.4,536.4 28.5,540.1 25.3,537.9 22.2,540.1 23.3,536.4 20.2,534.1 24.1,534.0" fill="#0052CC" opacity="0.56"/>
<polygon points="269.9,716.2 272.4,724.6 280.9,722.6 275.0,729.0 280.9,735.3 272.4,733.4 269.9,741.7 267.4,733.4 258.9,735.3 264.8,729.0 258.9,722.6 267.4,724.6" fill="#ffffff" opacity="0.50"/>
<polygon points="1101.0,835.1 1105.3,847.4 1118.3,847.6 1107.9,855.5 1111.7,868.0 1101.0,860.6 1090.3,868.0 1094.1,855.5 1083.7,847.6 1096.7,847.4" fill="#0052CC" opacity="0.56"/>
<polygon points="1176.8,659.6 1180.6,669.2 1190.1,673.0 1180.6,676.7 1176.8,686.3 1173.0,676.7 1163.4,673.0 1173.0,669.2" fill="#ffffff" opacity="0.55"/>
<polygon points="1004.8,561.0 1007.2,568.7 1014.9,566.9 1009.5,572.7 1014.9,578.5 1007.2,576.8 1004.8,584.4 1002.5,576.8 994.7,578.5 1000.1,572.7 994.7,566.9 1002.5,568.7" fill="#FFFFFF" opacity="0.28"/>
<polygon points="254.0,514.7 258.6,527.8 272.5,528.1 261.4,536.5 265.4,549.8 254.0,541.9 242.6,549.8 246.6,536.5 235.5,528.1 249.4,527.8" fill="#FFFFFF" opacity="0.57"/>
<polygon points="345.4,31.8 347.6,39.0 354.9,37.3 349.8,42.8 354.9,48.4 347.6,46.7 345.4,53.9 343.1,46.7 335.8,48.4 340.9,42.8 335.8,37.3 343.1,39.0" fill="#0052CC" opacity="0.36"/>
<polygon points="161.8,-2.3 162.7,0.8 165.9,0.1 163.7,2.5 165.9,4.8 162.7,4.1 161.8,7.2 160.8,4.1 157.7,4.8 159.9,2.5 157.7,0.1 160.8,0.8" fill="#ffffff" opacity="0.15"/>
<polygon points="819.4,783.0 820.9,787.3 825.6,787.4 821.9,790.2 823.2,794.7 819.4,792.0 815.6,794.7 817.0,790.2 813.3,787.4 817.9,787.3" fill="#ffffff" opacity="0.15"/>
<polygon points="716.9,5.9 718.0,9.3 721.6,9.4 718.8,11.5 719.8,15.0 716.9,12.9 713.9,15.0 714.9,11.5 712.1,9.4 715.7,9.3" fill="#0052CC" opacity="0.53"/>
<polygon points="15.7,684.5 16.9,688.0 20.5,688.0 17.6,690.2 18.7,693.7 15.7,691.6 12.7,693.7 13.7,690.2 10.8,688.0 14.5,688.0" fill="#ffffff" opacity="0.43"/>
<polygon points="44.8,442.8 47.2,449.0 53.4,451.4 47.2,453.8 44.8,460.0 42.3,453.8 36.2,451.4 42.3,449.0" fill="#FFFFFF" opacity="0.45"/>
<polygon points="1094.1,417.7 1098.5,430.2 1111.7,430.5 1101.1,438.5 1105.0,451.2 1094.1,443.6 1083.2,451.2 1087.0,438.5 1076.5,430.5 1089.7,430.2" fill="#ffffff" opacity="0.34"/>
<polygon points="651.0,684.3 653.7,693.0 662.6,691.0 656.3,697.6 662.6,704.3 653.7,702.3 651.0,711.0 648.3,702.3 639.4,704.3 645.7,697.6 639.4,691.0 648.3,693.0" fill="#FFFFFF" opacity="0.30"/>
<polygon points="106.9,873.1 109.8,882.5 119.3,880.3 112.6,887.4 119.3,894.6 109.8,892.4 106.9,901.7 104.0,892.4 94.5,894.6 101.2,887.4 94.5,880.3 104.0,882.5" fill="#0052CC" opacity="0.52"/>
<defs><linearGradient id="star_grad" x1="0" y1="0" x2="0" y2="1">
        <stop offset="0%" stop-color="#121220" stop-opacity="0.3"/>
        <stop offset="100%" stop-color="#1A1A2E" stop-opacity="0"/>
    </linearGradient></defs>
    <rect width="1200" height="900" fill="url(#star_grad)"/>
<defs>
        <radialGradient id="vignette" cx="50%" cy="50%" r="70%">
            <stop offset="0%" stop-color="black" stop-opacity="0"/>
            <stop offset="100%" stop-color="black" stop-opacity="0.25"/>
        </radialGradient>
    </defs>
    <rect width="1200" height="900" fill="url(#vignette)"/>
<text x="30" y="45" text-anchor="start"
        font-family="Arial, Helvetica, sans-serif" font-size="28" font-weight="bold"
        letter-spacing="2" fill="#4c85db" opacity="0.25">UNITED STATES</text>
<text x="1180" y="880" text-anchor="end"
        font-family="Arial, Helvetica, sans-serif" font-size="14" font-weight="bold"
        letter-spacing="3" fill="#4c85db" opacity="0.35">HOOD&apos;D</text>
</svg>