<?xml version="1.0" encoding="UTF-8"?>
<svg xmlns="http://www.w3.org/2000/svg" viewBox="0 0 1200 900" width="1200" height="900">
<rect width="1200" height="900" fill="#DC143C"/>
<rect x="882.5" y="0" width="37.9" height="900" fill="#FFFFFF" opacity="0.63"/>
<rect x="0" y="673.6" width="1200" height="17.8" fill="#1E3A8A" opacity="0.29"/>
<rect x="1054.0" y="0" width="21.4" height="900" fill="#FFFFFF" opacity="0.66"/>
<rect x="163.2" y="0" width="15.1" height="900" fill="#FFFFFF" opacity="0.50"/>
<rect x="0" y="527.4" width="1200" height="48.0" fill="#1E3A8A" opacity="0.58"/>
<rect x="0" y="147.0" width="1200" height="38.4" fill="#1E3A8A" opacity="0.51"/>
<rect x="0" y="471.7" width="1200" height="20.1" fill="#1E3A8A" opacity="0.32"/>
<rect x="0" y="199.0" width="1200" height="15.1" fill="#1E3A8A" opacity="0.30"/>
<rect x="0" y="716.1" width="1200" height="59.2" fill="#1E3A8A" opacity="0.58"/>
<rect x="0" y="698.7" width="1200" height="29.7" fill="#1E3A8A" opacity="0.58"/>
<rect x="0" y="83.3" width="1200" height="50.9" fill="#1E3A8A" opacity="0.31"/>
<rect x="441.0" y="0" width="20.8" height="900" fill="#FFFFFF" opacity="0.30"/>
<rect x="0" y="765" width="1200" height="4" fill="#1E3A8A" opacity="0.6"/>
<defs>
        <radialGradient id="vignette" cx="50%" cy="50%" r="70%">
            <stop offset="0%" stop-color="black" stop-opacity="0"/>
            <stop offset="100%" stop-color="black" stop-opacity="0.25"/>
        </radialGradient>
    </defs>
    <rect width="1200" height="900" fill="url(#vignette)"/>
<text x="30" y="45" text-anchor="start"
        font-family="Arial, Helvetica, sans-serif" font-size="28" font-weight="bold"
        letter-spacing="2" fill="#1E3A8A" opacity="0.25">UNITED STATES</text>
<text x="1180" y="880" text-anchor="end"
        font-family="Arial, Helvetica, sans-serif" font-size="14" font-weight="bold"
        letter-spacing="3" fill="#1E3A8A" opacity="0.35">HOOD&apos;D</text>
</svg>