<?xml version="1.0" encoding="UTF-8"?>
<svg xmlns="http://www.w3.org/2000/svg" viewBox="0 0 1200 900" width="1200" height="900">
<rect width="1200" height="900" fill="#87CEEB"/>
<rect x="39" y="-24" width="250" height="239" fill="#72afc7" opacity="0.11" rx="2" transform="rotate(10 164 96)"/>
<rect x="605" y="-29" width="154" height="268" fill="#72afc7" opacity="0.27" rx="26" transform="rotate(-29 681 105)"/>
<ellipse cx="1169" cy="266" rx="262" ry="134" fill="#000080" opacity="0.30" transform="rotate(156 1169 266)"/>
<ellipse cx="932" cy="422" rx="351" ry="196" fill="#93d2ed" opacity="0.13" transform="rotate(20 932 422)"/>
<line x1="1055" y1="442" x2="776" y2="735" stroke="#000080" stroke-width="2.7" opacity="0.12"/>
<line x1="642" y1="286" x2="444" y2="252" stroke="#000080" stroke-width="4.8" opacity="0.29"/>
<line x1="766" y1="467" x2="329" y2="39" stroke="#000080" stroke-width="2.6" opacity="0.22"/>
<line x1="1082" y1="14" x2="547" y2="383" stroke="#000080" stroke-width="3.5" opacity="0.24"/>
<line x1="191" y1="280" x2="215" y2="312" stroke="#000080" stroke-width="4.3" opacity="0.24"/>
<defs>
        <radialGradient id="vignette" cx="50%" cy="50%" r="70%">
            <stop offset="0%" stop-color="black" stop-opacity="0"/>
            <stop offset="100%" stop-color="black" stop-opacity="0.25"/>
        </radialGradient>
    </defs>
    <rect width="1200" height="900" fill="url(#vignette)"/>
<text x="30" y="45" text-anchor="start"
        font-family="Arial, Helvetica, sans-serif" font-size="28" font-weight="bold"
        letter-spacing="2" fill="#000080" opacity="0.25">URUGUAY</text>
<text x="1180" y="880" text-anchor="end"
        font-family="Arial, Helvetica, sans-serif" font-size="14" font-weight="bold"
        letter-spacing="3" fill="#000080" opacity="0.35">HOOD&apos;D</text>
</svg>