<?xml version="1.0" encoding="UTF-8"?>
<svg xmlns="http://www.w3.org/2000/svg" viewBox="0 0 1200 900" width="1200" height="900">
<rect width="1200" height="900" fill="#FFFFFF"/>
<polygon points="683.8,58.1 701.7,220.6 552.0,154.8" fill="#003399" opacity="0.41"/>
<polygon points="737.5,831.9 671.3,879.3 663.3,798.2" fill="#ffffff" opacity="0.26"/>
<polygon points="228.9,624.8 192.6,571.1 257.3,566.5" fill="#003399" opacity="0.30"/>
<polygon points="639.3,212.9 513.9,232.8 559.4,114.2" fill="#ffffff" opacity="0.31"/>
<polygon points="945.2,434.1 1062.3,468.0 974.4,552.5" fill="#003399" opacity="0.37"/>
<polygon points="731.1,609.1 737.1,761.8 601.9,690.7" fill="#ffffff" opacity="0.31"/>
<polygon points="171.7,692.5 237.3,534.5 341.4,670.4" fill="#0066FF" opacity="0.23"/>
<polygon points="932.7,689.4 1000.9,694.0 962.8,750.7" fill="#ffffff" opacity="0.13"/>
<polygon points="797.5,667.2 838.8,553.4 916.7,646.1" fill="#003399" opacity="0.41"/>
<polygon points="1110.2,550.1 1213.7,535.8 1174.3,632.6" fill="#0066FF" opacity="0.40"/>
<polygon points="269.8,149.1 177.9,69.7 292.6,29.9" fill="#ffffff" opacity="0.18"/>
<polygon points="845.9,309.7 935.8,223.8 965.3,344.6" fill="#ffffff" opacity="0.42"/>
<polygon points="767.0,550.8 888.3,502.5 869.5,631.7" fill="#0066FF" opacity="0.28"/>
<polygon points="647.2,448.2 591.5,608.9 480.2,480.3" fill="#ffffff" opacity="0.40"/>
<polygon points="859.7,428.9 881.4,352.6 936.6,409.6" fill="#003399" opacity="0.19"/>
<polygon points="198.4,336.3 221.9,174.0 350.7,275.6" fill="#003399" opacity="0.19"/>
<polygon points="589.9,724.5 711.8,781.2 601.7,858.5" fill="#ffffff" opacity="0.24"/>
<polygon points="103.9,485.7 109.9,420.4 163.5,458.3" fill="#0066FF" opacity="0.31"/>
<polygon points="604.8,485.8 580.7,656.9 444.6,550.5" fill="#0066FF" opacity="0.19"/>
<polygon points="675.8,508.5 773.9,552.3 686.8,615.4" fill="#0066FF" opacity="0.15"/>
<polygon points="694.8,219.8 645.0,262.4 633.0,198.0" fill="#0066FF" opacity="0.13"/>
<polygon points="345.4,584.2 280.6,635.5 268.6,553.7" fill="#ffffff" opacity="0.30"/>
<polygon points="9.9,104.3 117.2,123.1 47.3,206.6" fill="#ffffff" opacity="0.27"/>
<polygon points="342.0,113.9 457.6,240.1 290.5,277.1" fill="#003399" opacity="0.18"/>
<polygon points="535.0,672.1 609.6,595.7 638.5,698.5" fill="#0066FF" opacity="0.40"/>
<polygon points="260.6,317.0 246.8,223.8 334.4,258.5" fill="#003399" opacity="0.32"/>
<polygon points="303.8,895.7 403.6,762.3 469.2,915.4" fill="#0066FF" opacity="0.40"/>
<polygon points="1038.0,787.8 1053.1,889.9 957.1,851.9" fill="#0066FF" opacity="0.19"/>
<polygon points="763.9,320.4 881.6,275.3 861.8,399.7" fill="#003399" opacity="0.25"/>
<polygon points="-5.1,573.3 52.7,633.3 -28.2,653.4" fill="#ffffff" opacity="0.43"/>
<polygon points="432.5,181.0 480.3,270.9 378.5,267.3" fill="#0066FF" opacity="0.27"/>
<polygon points="528.6,299.8 477.4,409.9 407.7,310.5" fill="#003399" opacity="0.36"/>
<polygon points="844.5,761.5 891.7,620.7 990.1,732.0" fill="#003399" opacity="0.29"/>
<defs>
        <radialGradient id="vignette" cx="50%" cy="50%" r="70%">
            <stop offset="0%" stop-color="black" stop-opacity="0"/>
            <stop offset="100%" stop-color="black" stop-opacity="0.25"/>
        </radialGradient>
    </defs>
    <rect width="1200" height="900" fill="url(#vignette)"/>
<text x="30" y="45" text-anchor="start"
        font-family="Arial, Helvetica, sans-serif" font-size="28" font-weight="bold"
        letter-spacing="2" fill="#003399" opacity="0.25">UZBEKISTAN</text>
<text x="1180" y="880" text-anchor="end"
        font-family="Arial, Helvetica, sans-serif" font-size="14" font-weight="bold"
        letter-spacing="3" fill="#003399" opacity="0.35">HOOD&apos;D</text>
</svg>