<?xml version="1.0" encoding="UTF-8"?>
<svg xmlns="http://www.w3.org/2000/svg" viewBox="0 0 1200 900" width="1200" height="900">
<rect width="1200" height="900" fill="#228B22"/>
<rect x="-1800.0" y="-100" width="42.4" height="1100" fill="#FFD700" opacity="0.65" transform="rotate(41.4 600.0 450.0)"/>
<rect x="-1440.0" y="-100" width="30.9" height="1100" fill="#FFD700" opacity="0.44" transform="rotate(41.4 600.0 450.0)"/>
<rect x="-1080.0" y="-100" width="25.5" height="1100" fill="#FFD700" opacity="0.72" transform="rotate(41.4 600.0 450.0)"/>
<rect x="-720.0" y="-100" width="33.7" height="1100" fill="#FFD700" opacity="0.41" transform="rotate(41.4 600.0 450.0)"/>
<rect x="-360.0" y="-100" width="46.1" height="1100" fill="#FFD700" opacity="0.46" transform="rotate(41.4 600.0 450.0)"/>
<rect x="0.0" y="-100" width="30.6" height="1100" fill="#FFD700" opacity="0.46" transform="rotate(41.4 600.0 450.0)"/>
<rect x="360.0" y="-100" width="37.1" height="1100" fill="#FFD700" opacity="0.45" transform="rotate(41.4 600.0 450.0)"/>
<rect x="720.0" y="-100" width="55.0" height="1100" fill="#FFD700" opacity="0.38" transform="rotate(41.4 600.0 450.0)"/>
<rect x="1080.0" y="-100" width="27.4" height="1100" fill="#FFD700" opacity="0.80" transform="rotate(41.4 600.0 450.0)"/>
<rect x="1440.0" y="-100" width="53.8" height="1100" fill="#FFD700" opacity="0.58" transform="rotate(41.4 600.0 450.0)"/>
<rect x="1800.0" y="-100" width="26.2" height="1100" fill="#FFD700" opacity="0.35" transform="rotate(41.4 600.0 450.0)"/>
<rect x="2160.0" y="-100" width="57.2" height="1100" fill="#FFD700" opacity="0.49" transform="rotate(41.4 600.0 450.0)"/>
<rect x="2520.0" y="-100" width="55.8" height="1100" fill="#FFD700" opacity="0.74" transform="rotate(41.4 600.0 450.0)"/>
<rect x="2880.0" y="-100" width="41.6" height="1100" fill="#FFD700" opacity="0.67" transform="rotate(41.4 600.0 450.0)"/>
<rect x="3240.0" y="-100" width="43.7" height="1100" fill="#FFD700" opacity="0.36" transform="rotate(41.4 600.0 450.0)"/>
<rect x="0" y="765" width="1200" height="4" fill="#FFFFFF" opacity="0.6"/>
<defs>
        <radialGradient id="vignette" cx="50%" cy="50%" r="70%">
            <stop offset="0%" stop-color="black" stop-opacity="0"/>
            <stop offset="100%" stop-color="black" stop-opacity="0.25"/>
        </radialGradient>
    </defs>
    <rect width="1200" height="900" fill="url(#vignette)"/>
<text x="30" y="45" text-anchor="start"
        font-family="Arial, Helvetica, sans-serif" font-size="28" font-weight="bold"
        letter-spacing="2" fill="#FFFFFF" opacity="0.25">SOUTH AFRICA</text>
<text x="1180" y="880" text-anchor="end"
        font-family="Arial, Helvetica, sans-serif" font-size="14" font-weight="bold"
        letter-spacing="3" fill="#FFFFFF" opacity="0.35">HOOD&apos;D</text>
</svg>